{
  "asset" : {
    "generator" : "UE Viewer (umodel) build 1589",
    "version" : "2.0"
  },
  "scene" : 0,
  "scenes" : [
    {
      "nodes" : [ 0 ]
    }
  ],
  "nodes" : [
    {
      "name" : "lamborghini_gallardo_rex_rim_rf_Lod1",
      "mesh" : 0
    }
  ],
  "materials" : [
    {
      "name" : "EXT_RIM",
      "pbrMetallicRoughness" : {
        "baseColorFactor" : [ 0.3, 0.3, 0.3, 1.0 ],
        "metallicFactor" : 0.1,
        "roughnessFactor" : 0.5
      }
    },
    {
      "name" : "EXT_Rim_Decals",
      "pbrMetallicRoughness" : {
        "baseColorFactor" : [ 0.9, 0.3, 0.3, 1.0 ],
        "metallicFactor" : 0.1,
        "roughnessFactor" : 0.5
      }
    }
  ],
  "meshes" : [
    {
      "primitives" : [
        {
          "attributes" : {
            "POSITION" : 1,
            "NORMAL" : 2,
            "TANGENT" : 3,
            "TEXCOORD_0" : 4,
            "TEXCOORD_1" : 5
          },
          "indices" : 0,
          "material" : 0
        },
        {
          "attributes" : {
            "POSITION" : 7,
            "NORMAL" : 8,
            "TANGENT" : 9,
            "TEXCOORD_0" : 10,
            "TEXCOORD_1" : 11
          },
          "indices" : 6,
          "material" : 1
        }
      ],
      "name" : "lamborghini_gallardo_rex_rim_rf_Lod1"
    }
  ],
  "buffers" : [
    {
      "uri" : "lamborghini_gallardo_rex_rim_rf_Lod1.bin",
      "byteLength" : 117592
    }
  ],
  "bufferViews" : [
    {
      "buffer" : 0,
      "byteOffset" : 0,
      "byteLength" : 15816
    },
    {
      "buffer" : 0,
      "byteOffset" : 15816,
      "byteLength" : 21384
    },
    {
      "buffer" : 0,
      "byteOffset" : 37200,
      "byteLength" : 21384
    },
    {
      "buffer" : 0,
      "byteOffset" : 58584,
      "byteLength" : 28512
    },
    {
      "buffer" : 0,
      "byteOffset" : 87096,
      "byteLength" : 14256
    },
    {
      "buffer" : 0,
      "byteOffset" : 101352,
      "byteLength" : 14256
    },
    {
      "buffer" : 0,
      "byteOffset" : 115608,
      "byteLength" : 192
    },
    {
      "buffer" : 0,
      "byteOffset" : 115800,
      "byteLength" : 384
    },
    {
      "buffer" : 0,
      "byteOffset" : 116184,
      "byteLength" : 384
    },
    {
      "buffer" : 0,
      "byteOffset" : 116568,
      "byteLength" : 512
    },
    {
      "buffer" : 0,
      "byteOffset" : 117080,
      "byteLength" : 256
    },
    {
      "buffer" : 0,
      "byteOffset" : 117336,
      "byteLength" : 256
    }
  ],
  "accessors" : [
    {
      "bufferView" : 0,
      "componentType" : 5123,
      "count" : 7908,
      "type" : "SCALAR"
    },
    {
      "bufferView" : 1,
      "min" : [ -0.152046, -0.251858, -0.252581 ],
      "max" : [ 0.151406, 0.251362, 0.252581 ],
      "componentType" : 5126,
      "count" : 1782,
      "type" : "VEC3"
    },
    {
      "bufferView" : 2,
      "componentType" : 5126,
      "count" : 1782,
      "type" : "VEC3"
    },
    {
      "bufferView" : 3,
      "componentType" : 5126,
      "count" : 1782,
      "type" : "VEC4"
    },
    {
      "bufferView" : 4,
      "componentType" : 5126,
      "count" : 1782,
      "type" : "VEC2"
    },
    {
      "bufferView" : 5,
      "componentType" : 5126,
      "count" : 1782,
      "type" : "VEC2"
    },
    {
      "bufferView" : 6,
      "componentType" : 5123,
      "count" : 96,
      "type" : "SCALAR"
    },
    {
      "bufferView" : 7,
      "min" : [ -0.149552, -0.0849885, -0.0859792 ],
      "max" : [ -0.142283, 0.0849828, 0.085979 ],
      "componentType" : 5126,
      "count" : 32,
      "type" : "VEC3"
    },
    {
      "bufferView" : 8,
      "componentType" : 5126,
      "count" : 32,
      "type" : "VEC3"
    },
    {
      "bufferView" : 9,
      "componentType" : 5126,
      "count" : 32,
      "type" : "VEC4"
    },
    {
      "bufferView" : 10,
      "componentType" : 5126,
      "count" : 32,
      "type" : "VEC2"
    },
    {
      "bufferView" : 11,
      "componentType" : 5126,
      "count" : 32,
      "type" : "VEC2"
    }
  ]
}
