{
  "asset" : {
    "generator" : "UE Viewer (umodel) build 1589",
    "version" : "2.0"
  },
  "scene" : 0,
  "scenes" : [
    {
      "nodes" : [ 0 ]
    }
  ],
  "nodes" : [
    {
      "name" : "lamborghini_gallardo_rex_exterior_endu_Lod4",
      "mesh" : 0,
      "skin" : 0,
      "children" : [ 1 ]
    },
    {
      "name" : "LAMBORGHINI_GALLARDO_REX",
      "children" : [ 2 ],
      "translation" : [ 0, 0, 0 ],
      "rotation" : [ -0, -0, -0, 1 ]
    },
    {
      "name" : "CAR_BODY",
      "children" : [ 3, 4, 5, 6, 7, 8, 9, 10, 11, 12, 13, 14, 15, 16, 17, 18, 19, 20, 21, 22, 23, 24, 26, 28, 29 ],
      "translation" : [ 0, 0, -0 ],
      "rotation" : [ -0, -0, 0, -1 ]
    },
    {
      "name" : "WHEEL_LF",
      "translation" : [ 0.8215, 0.322791, 1.13002 ],
      "rotation" : [ -1.19209e-07, 2.22045e-16, 1.86265e-09, -1 ]
    },
    {
      "name" : "SUSP_LF",
      "translation" : [ 0.8215, 0.322791, 1.13002 ],
      "rotation" : [ -1.19209e-07, 2.22045e-16, 1.86265e-09, -1 ]
    },
    {
      "name" : "DISC_LF",
      "translation" : [ 0.8215, 0.322791, 1.13002 ],
      "rotation" : [ -1.19209e-07, 2.22045e-16, 1.86265e-09, -1 ]
    },
    {
      "name" : "WHEEL_LR",
      "translation" : [ 0.841, 0.352241, -1.42998 ],
      "rotation" : [ -1.78814e-07, 3.33067e-16, 1.86265e-09, -1 ]
    },
    {
      "name" : "SUSP_LR",
      "translation" : [ 0.841, 0.352241, -1.42998 ],
      "rotation" : [ -1.78814e-07, 3.33067e-16, 1.86265e-09, -1 ]
    },
    {
      "name" : "DISC_LR",
      "translation" : [ 0.841, 0.352241, -1.42998 ],
      "rotation" : [ -1.78814e-07, 3.33067e-16, 1.86265e-09, -1 ]
    },
    {
      "name" : "DISC_RF",
      "translation" : [ -0.821624, 0.322791, 1.12999 ],
      "rotation" : [ -1.19209e-07, -2.22045e-16, -1.86265e-09, -1 ]
    },
    {
      "name" : "SUSP_RF",
      "translation" : [ -0.821624, 0.322791, 1.12999 ],
      "rotation" : [ -1.19209e-07, -2.22045e-16, -1.86265e-09, -1 ]
    },
    {
      "name" : "WHEEL_RF",
      "translation" : [ -0.821624, 0.322791, 1.12999 ],
      "rotation" : [ -1.19209e-07, -2.22045e-16, -1.86265e-09, -1 ]
    },
    {
      "name" : "DISC_RR",
      "translation" : [ -0.841, 0.352241, -1.42993 ],
      "rotation" : [ -1.78814e-07, -0, 0, -1 ]
    },
    {
      "name" : "WHEEL_RR",
      "translation" : [ -0.841, 0.352241, -1.42993 ],
      "rotation" : [ -1.78814e-07, -0, 0, -1 ]
    },
    {
      "name" : "SUSP_RR",
      "translation" : [ -0.841, 0.352241, -1.42993 ],
      "rotation" : [ -1.78814e-07, -0, 0, -1 ]
    },
    {
      "name" : "LUMIRANK",
      "translation" : [ -0.502826, 1.02715, 0.582406 ],
      "rotation" : [ -0.168246, 0.0986336, -0.0281431, -0.980394 ]
    },
    {
      "name" : "TYRE_LF",
      "translation" : [ 0.8215, 0.322791, 1.13002 ],
      "rotation" : [ -1.19209e-07, 2.22045e-16, 1.86265e-09, -1 ]
    },
    {
      "name" : "TYRE_RF",
      "translation" : [ -0.821624, 0.322791, 1.12999 ],
      "rotation" : [ -1.19209e-07, -2.22045e-16, -1.86265e-09, -1 ]
    },
    {
      "name" : "TYRE_RR",
      "translation" : [ -0.841, 0.352241, -1.42993 ],
      "rotation" : [ -1.78814e-07, -0, 0, -1 ]
    },
    {
      "name" : "TYRE_LR",
      "translation" : [ 0.841, 0.352241, -1.42998 ],
      "rotation" : [ -1.78814e-07, 3.33067e-16, 1.86265e-09, -1 ]
    },
    {
      "name" : "HOOD",
      "translation" : [ 0, 0.786724, 1.37411 ],
      "rotation" : [ -0, -0, 0, -1 ]
    },
    {
      "name" : "FRONT_BUMPER",
      "translation" : [ 0, 0.593575, 1.41226 ],
      "rotation" : [ -0, -0, 0, -1 ]
    },
    {
      "name" : "WING",
      "translation" : [ 0, 1.07474, -2.04752 ],
      "rotation" : [ -0, -0, 0, -1 ]
    },
    {
      "name" : "REAR_BUMPER",
      "translation" : [ 0, 0.753459, -2.11837 ],
      "rotation" : [ -0, -0, 0, -1 ]
    },
    {
      "name" : "WIPER_1",
      "children" : [ 25 ],
      "translation" : [ 0.65323, 0.774341, 1.22473 ],
      "rotation" : [ -0.797558, 0.312314, -0.0835648, -0.509292 ]
    },
    {
      "name" : "WIPER_4",
      "translation" : [ -0.48317, 0.337617, 0.0429933 ],
      "rotation" : [ -0.0774617, 0.000492562, -0.475129, -0.8765 ]
    },
    {
      "name" : "WIPER_2",
      "children" : [ 27 ],
      "translation" : [ 0.600631, 0.778893, 1.23719 ],
      "rotation" : [ -0.82763, -0.00995858, 0.0599223, -0.557977 ]
    },
    {
      "name" : "WIPER_3",
      "translation" : [ -0.425696, 0.00624061, -0.0123761 ],
      "rotation" : [ -0.0363459, -0.0309072, -0.0702294, -0.996389 ]
    },
    {
      "name" : "DOOR_L",
      "translation" : [ 0.894029, 0.656772, 0.6801 ],
      "rotation" : [ -0, -0, 0, -1 ]
    },
    {
      "name" : "DOOR_R",
      "translation" : [ -0.894, 0.656772, 0.6801 ],
      "rotation" : [ -0, -0, 0, -1 ]
    }
  ],
  "skins" : [
    {
      "inverseBindMatrices" : 0,
      "skeleton" : 1,
      "joints" : [
        1,2,3,4,5,6,7,8,9,10,11,12,13,14,15,16,17,18,19,20,21,22,23,24,25,26,27,28,29
      ]
    }
  ],
  "materials" : [
    {
      "name" : "EXT_Carpaint_Inst",
      "pbrMetallicRoughness" : {
        "baseColorFactor" : [ 0.3, 0.3, 0.3, 1.0 ],
        "metallicFactor" : 0.1,
        "roughnessFactor" : 0.5
      }
    }
  ],
  "meshes" : [
    {
      "primitives" : [
        {
          "attributes" : {
            "POSITION" : 2,
            "NORMAL" : 3,
            "TANGENT" : 4,
            "COLOR_0" : 5,
            "JOINTS_0" : 6,
            "WEIGHTS_0" : 7,
            "TEXCOORD_0" : 8
          },
          "indices" : 1,
          "material" : 0
        }
      ],
      "name" : "lamborghini_gallardo_rex_exterior_endu_Lod4"
    }
  ],
  "buffers" : [
    {
      "uri" : "lamborghini_gallardo_rex_exterior_endu_Lod4.bin",
      "byteLength" : 286040
    }
  ],
  "bufferViews" : [
    {
      "buffer" : 0,
      "byteOffset" : 0,
      "byteLength" : 1856
    },
    {
      "buffer" : 0,
      "byteOffset" : 1856,
      "byteLength" : 19736
    },
    {
      "buffer" : 0,
      "byteOffset" : 21592,
      "byteLength" : 49584
    },
    {
      "buffer" : 0,
      "byteOffset" : 71176,
      "byteLength" : 49584
    },
    {
      "buffer" : 0,
      "byteOffset" : 120760,
      "byteLength" : 66112
    },
    {
      "buffer" : 0,
      "byteOffset" : 186872,
      "byteLength" : 16528
    },
    {
      "buffer" : 0,
      "byteOffset" : 203400,
      "byteLength" : 33056
    },
    {
      "buffer" : 0,
      "byteOffset" : 236456,
      "byteLength" : 16528
    },
    {
      "buffer" : 0,
      "byteOffset" : 252984,
      "byteLength" : 33056
    }
  ],
  "accessors" : [
    {
      "bufferView" : 0,
      "componentType" : 5126,
      "count" : 29,
      "type" : "MAT4"
    },
    {
      "bufferView" : 1,
      "componentType" : 5123,
      "count" : 9867,
      "type" : "SCALAR"
    },
    {
      "bufferView" : 2,
      "min" : [ -1.08092, -0.00086792, -2.30364 ],
      "max" : [ 1.08092, 1.18971, 2.2737 ],
      "componentType" : 5126,
      "count" : 4132,
      "type" : "VEC3"
    },
    {
      "bufferView" : 3,
      "componentType" : 5126,
      "count" : 4132,
      "type" : "VEC3"
    },
    {
      "bufferView" : 4,
      "componentType" : 5126,
      "count" : 4132,
      "type" : "VEC4"
    },
    {
      "bufferView" : 5,
      "normalized" : true,
      "componentType" : 5121,
      "count" : 4132,
      "type" : "VEC4"
    },
    {
      "bufferView" : 6,
      "componentType" : 5123,
      "count" : 4132,
      "type" : "VEC4"
    },
    {
      "bufferView" : 7,
      "normalized" : true,
      "componentType" : 5121,
      "count" : 4132,
      "type" : "VEC4"
    },
    {
      "bufferView" : 8,
      "componentType" : 5126,
      "count" : 4132,
      "type" : "VEC2"
    }
  ]
}
