{
  "asset" : {
    "generator" : "UE Viewer (umodel) build 1589",
    "version" : "2.0"
  },
  "scene" : 0,
  "scenes" : [
    {
      "nodes" : [ 0 ]
    }
  ],
  "nodes" : [
    {
      "name" : "bentley_continental_gt3_2018_exterior_Lod4",
      "mesh" : 0,
      "skin" : 0,
      "children" : [ 1 ]
    },
    {
      "name" : "2018_BENTLEY_GT3",
      "children" : [ 2 ],
      "translation" : [ 0, 0, 0 ],
      "rotation" : [ -0, -0, -0, 1 ]
    },
    {
      "name" : "CAR_BODY",
      "children" : [ 3, 4, 5, 6, 7, 8, 9, 10, 11, 12, 13, 14, 15, 16, 17, 18, 19, 20, 21, 22, 23, 24, 25, 26, 29 ],
      "translation" : [ 0, 0, -0 ],
      "rotation" : [ -0, -0, 0, -1 ]
    },
    {
      "name" : "DISC_LF",
      "translation" : [ 0.830811, 0.352273, 1.425 ],
      "rotation" : [ 2.64698e-23, -5.06843e-29, 2.11758e-22, -1 ]
    },
    {
      "name" : "SUSP_LF",
      "translation" : [ 0.830811, 0.352273, 1.425 ],
      "rotation" : [ -0, 1.57844e-24, -0, -1 ]
    },
    {
      "name" : "WHEEL_LF",
      "translation" : [ 0.830811, 0.352273, 1.425 ],
      "rotation" : [ -0, -0, 0, -1 ]
    },
    {
      "name" : "DISC_RF",
      "translation" : [ -0.830811, 0.352273, 1.425 ],
      "rotation" : [ -5.96046e-08, -5.04871e-29, 9.00429e-36, -1 ]
    },
    {
      "name" : "SUSP_RF",
      "translation" : [ -0.830811, 0.352273, 1.425 ],
      "rotation" : [ -5.96046e-08, -0, 0, -1 ]
    },
    {
      "name" : "WHEEL_RF",
      "translation" : [ -0.830811, 0.352273, 1.425 ],
      "rotation" : [ -5.96046e-08, -0, 0, -1 ]
    },
    {
      "name" : "DISC_RR",
      "translation" : [ -0.831438, 0.352243, -1.425 ],
      "rotation" : [ -5.96046e-08, -0, 0, -1 ]
    },
    {
      "name" : "DISC_LR",
      "translation" : [ 0.831438, 0.352243, -1.425 ],
      "rotation" : [ -0, 9.24446e-33, -0, -1 ]
    },
    {
      "name" : "WHEEL_RR",
      "translation" : [ -0.831438, 0.352243, -1.425 ],
      "rotation" : [ -5.96046e-08, -0, 0, -1 ]
    },
    {
      "name" : "SUSP_RR",
      "translation" : [ -0.831438, 0.352243, -1.425 ],
      "rotation" : [ -5.96046e-08, -0, 0, -1 ]
    },
    {
      "name" : "WHEEL_LR",
      "translation" : [ 0.831438, 0.352243, -1.425 ],
      "rotation" : [ -0, -0, 0, -1 ]
    },
    {
      "name" : "SUSP_LR",
      "translation" : [ 0.831438, 0.352243, -1.425 ],
      "rotation" : [ -0, -0, 0, -1 ]
    },
    {
      "name" : "TYRE_LF",
      "translation" : [ 0.830811, 0.352273, 1.425 ],
      "rotation" : [ 1.19209e-07, -0, -0, -1 ]
    },
    {
      "name" : "TYRE_LR",
      "translation" : [ 0.831438, 0.352243, -1.425 ],
      "rotation" : [ 1.19209e-07, -0, -0, -1 ]
    },
    {
      "name" : "TYRE_RR",
      "translation" : [ -0.831438, 0.352243, -1.425 ],
      "rotation" : [ 5.96046e-08, -0, -0, -1 ]
    },
    {
      "name" : "TYRE_RF",
      "translation" : [ -0.830811, 0.352273, 1.425 ],
      "rotation" : [ 5.96046e-08, -0, -0, -1 ]
    },
    {
      "name" : "LUMIRANK",
      "translation" : [ 0.498511, 1.10785, 0.370934 ],
      "rotation" : [ -0.217099, -0.0646631, 0.0607271, -0.972111 ]
    },
    {
      "name" : "DOOR_L",
      "translation" : [ 0.919243, 0.597992, 0.636791 ],
      "rotation" : [ -0, -0, 0, -1 ]
    },
    {
      "name" : "DOOR_R",
      "translation" : [ -0.919243, 0.597992, 0.636791 ],
      "rotation" : [ -0, -0, 0, -1 ]
    },
    {
      "name" : "REAR_BUMPER",
      "translation" : [ 0, 0.101393, -1.00064 ],
      "rotation" : [ -0, -0, 0, -1 ]
    },
    {
      "name" : "HOOD",
      "translation" : [ -5.61092e-09, 0.902422, 0.775535 ],
      "rotation" : [ -0, -0, 0, -1 ]
    },
    {
      "name" : "WING",
      "translation" : [ -1.10645e-08, 1.21608, -2.45992 ],
      "rotation" : [ -0, -0, 0, -1 ]
    },
    {
      "name" : "FRONT_BUMPER",
      "translation" : [ 0, 0.35824, 1.83891 ],
      "rotation" : [ -0, -0, 0, -1 ]
    },
    {
      "name" : "WIPER_1",
      "children" : [ 27 ],
      "translation" : [ -0.690657, 0.824393, 0.934383 ],
      "rotation" : [ -0.090565, -0.704721, -0.207823, -0.672292 ]
    },
    {
      "name" : "WIPER_2",
      "children" : [ 28 ],
      "translation" : [ 0.0245447, 0.0186012, 0.182791 ],
      "rotation" : [ -0.473719, -0.516084, 0.438493, -0.563002 ]
    },
    {
      "name" : "WIPER_3",
      "translation" : [ -0.400017, -0.0134635, 0.0519751 ],
      "rotation" : [ -0.0806653, -0.0596038, -0.0346448, -0.994354 ]
    },
    {
      "name" : "WIPER_4",
      "children" : [ 30 ],
      "translation" : [ -0.152861, 0.844716, 1.05528 ],
      "rotation" : [ -0.139313, -0.780242, -0.18732, -0.580281 ]
    },
    {
      "name" : "WIPER_5",
      "children" : [ 31 ],
      "translation" : [ 0.00155894, 0.0133041, 0.121832 ],
      "rotation" : [ -0.5, -0.5, 0.5, -0.5 ]
    },
    {
      "name" : "WIPER_6",
      "translation" : [ -0.547483, -0.000443328, 0.0681813 ],
      "rotation" : [ -0.0122344, -0.0755213, 0.000870158, -0.997069 ]
    }
  ],
  "skins" : [
    {
      "inverseBindMatrices" : 0,
      "skeleton" : 1,
      "joints" : [
        1,2,3,4,5,6,7,8,9,10,11,12,13,14,15,16,17,18,19,20,21,22,23,24,25,26,27,28,29,30,31
      ]
    }
  ],
  "materials" : [
    {
      "name" : "EXT_Carpaint_Inst",
      "pbrMetallicRoughness" : {
        "baseColorFactor" : [ 0.3, 0.3, 0.3, 1.0 ],
        "metallicFactor" : 0.1,
        "roughnessFactor" : 0.5
      }
    }
  ],
  "meshes" : [
    {
      "primitives" : [
        {
          "attributes" : {
            "POSITION" : 2,
            "NORMAL" : 3,
            "TANGENT" : 4,
            "COLOR_0" : 5,
            "JOINTS_0" : 6,
            "WEIGHTS_0" : 7,
            "TEXCOORD_0" : 8
          },
          "indices" : 1,
          "material" : 0
        }
      ],
      "name" : "bentley_continental_gt3_2018_exterior_Lod4"
    }
  ],
  "buffers" : [
    {
      "uri" : "bentley_continental_gt3_2018_exterior_Lod4.bin",
      "byteLength" : 394244
    }
  ],
  "bufferViews" : [
    {
      "buffer" : 0,
      "byteOffset" : 0,
      "byteLength" : 1984
    },
    {
      "buffer" : 0,
      "byteOffset" : 1984,
      "byteLength" : 28356
    },
    {
      "buffer" : 0,
      "byteOffset" : 30340,
      "byteLength" : 68232
    },
    {
      "buffer" : 0,
      "byteOffset" : 98572,
      "byteLength" : 68232
    },
    {
      "buffer" : 0,
      "byteOffset" : 166804,
      "byteLength" : 90976
    },
    {
      "buffer" : 0,
      "byteOffset" : 257780,
      "byteLength" : 22744
    },
    {
      "buffer" : 0,
      "byteOffset" : 280524,
      "byteLength" : 45488
    },
    {
      "buffer" : 0,
      "byteOffset" : 326012,
      "byteLength" : 22744
    },
    {
      "buffer" : 0,
      "byteOffset" : 348756,
      "byteLength" : 45488
    }
  ],
  "accessors" : [
    {
      "bufferView" : 0,
      "componentType" : 5126,
      "count" : 31,
      "type" : "MAT4"
    },
    {
      "bufferView" : 1,
      "componentType" : 5123,
      "count" : 14178,
      "type" : "SCALAR"
    },
    {
      "bufferView" : 2,
      "min" : [ -1.02293, 0.0111292, -2.69784 ],
      "max" : [ 1.02293, 1.34076, 2.3634 ],
      "componentType" : 5126,
      "count" : 5686,
      "type" : "VEC3"
    },
    {
      "bufferView" : 3,
      "componentType" : 5126,
      "count" : 5686,
      "type" : "VEC3"
    },
    {
      "bufferView" : 4,
      "componentType" : 5126,
      "count" : 5686,
      "type" : "VEC4"
    },
    {
      "bufferView" : 5,
      "normalized" : true,
      "componentType" : 5121,
      "count" : 5686,
      "type" : "VEC4"
    },
    {
      "bufferView" : 6,
      "componentType" : 5123,
      "count" : 5686,
      "type" : "VEC4"
    },
    {
      "bufferView" : 7,
      "normalized" : true,
      "componentType" : 5121,
      "count" : 5686,
      "type" : "VEC4"
    },
    {
      "bufferView" : 8,
      "componentType" : 5126,
      "count" : 5686,
      "type" : "VEC2"
    }
  ]
}
