{
  "asset" : {
    "generator" : "UE Viewer (umodel) build 1589",
    "version" : "2.0"
  },
  "scene" : 0,
  "scenes" : [
    {
      "nodes" : [ 0 ]
    }
  ],
  "nodes" : [
    {
      "name" : "audi_r8_lms_rim_rr_Lod1",
      "mesh" : 0
    }
  ],
  "materials" : [
    {
      "name" : "EXT_RIM",
      "pbrMetallicRoughness" : {
        "baseColorFactor" : [ 0.3, 0.3, 0.3, 1.0 ],
        "metallicFactor" : 0.1,
        "roughnessFactor" : 0.5
      }
    },
    {
      "name" : "EXT_Rim_Decals",
      "pbrMetallicRoughness" : {
        "baseColorFactor" : [ 0.9, 0.3, 0.3, 1.0 ],
        "metallicFactor" : 0.1,
        "roughnessFactor" : 0.5
      }
    }
  ],
  "meshes" : [
    {
      "primitives" : [
        {
          "attributes" : {
            "POSITION" : 1,
            "NORMAL" : 2,
            "TANGENT" : 3,
            "TEXCOORD_0" : 4,
            "TEXCOORD_1" : 5
          },
          "indices" : 0,
          "material" : 0
        },
        {
          "attributes" : {
            "POSITION" : 7,
            "NORMAL" : 8,
            "TANGENT" : 9,
            "TEXCOORD_0" : 10,
            "TEXCOORD_1" : 11
          },
          "indices" : 6,
          "material" : 1
        }
      ],
      "name" : "audi_r8_lms_rim_rr_Lod1"
    }
  ],
  "buffers" : [
    {
      "uri" : "audi_r8_lms_rim_rr_Lod1.bin",
      "byteLength" : 140312
    }
  ],
  "bufferViews" : [
    {
      "buffer" : 0,
      "byteOffset" : 0,
      "byteLength" : 18120
    },
    {
      "buffer" : 0,
      "byteOffset" : 18120,
      "byteLength" : 26040
    },
    {
      "buffer" : 0,
      "byteOffset" : 44160,
      "byteLength" : 26040
    },
    {
      "buffer" : 0,
      "byteOffset" : 70200,
      "byteLength" : 34720
    },
    {
      "buffer" : 0,
      "byteOffset" : 104920,
      "byteLength" : 17360
    },
    {
      "buffer" : 0,
      "byteOffset" : 122280,
      "byteLength" : 17360
    },
    {
      "buffer" : 0,
      "byteOffset" : 139640,
      "byteLength" : 56
    },
    {
      "buffer" : 0,
      "byteOffset" : 139696,
      "byteLength" : 132
    },
    {
      "buffer" : 0,
      "byteOffset" : 139828,
      "byteLength" : 132
    },
    {
      "buffer" : 0,
      "byteOffset" : 139960,
      "byteLength" : 176
    },
    {
      "buffer" : 0,
      "byteOffset" : 140136,
      "byteLength" : 88
    },
    {
      "buffer" : 0,
      "byteOffset" : 140224,
      "byteLength" : 88
    }
  ],
  "accessors" : [
    {
      "bufferView" : 0,
      "componentType" : 5123,
      "count" : 9060,
      "type" : "SCALAR"
    },
    {
      "bufferView" : 1,
      "min" : [ -0.179045, -0.249409, -0.249409 ],
      "max" : [ 0.179419, 0.250501, 0.249456 ],
      "componentType" : 5126,
      "count" : 2170,
      "type" : "VEC3"
    },
    {
      "bufferView" : 2,
      "componentType" : 5126,
      "count" : 2170,
      "type" : "VEC3"
    },
    {
      "bufferView" : 3,
      "componentType" : 5126,
      "count" : 2170,
      "type" : "VEC4"
    },
    {
      "bufferView" : 4,
      "componentType" : 5126,
      "count" : 2170,
      "type" : "VEC2"
    },
    {
      "bufferView" : 5,
      "componentType" : 5126,
      "count" : 2170,
      "type" : "VEC2"
    },
    {
      "bufferView" : 6,
      "componentType" : 5123,
      "count" : 27,
      "type" : "SCALAR"
    },
    {
      "bufferView" : 7,
      "min" : [ -0.145192, 0.166518, -0.130935 ],
      "max" : [ -0.135659, 0.219654, -0.00969527 ],
      "componentType" : 5126,
      "count" : 11,
      "type" : "VEC3"
    },
    {
      "bufferView" : 8,
      "componentType" : 5126,
      "count" : 11,
      "type" : "VEC3"
    },
    {
      "bufferView" : 9,
      "componentType" : 5126,
      "count" : 11,
      "type" : "VEC4"
    },
    {
      "bufferView" : 10,
      "componentType" : 5126,
      "count" : 11,
      "type" : "VEC2"
    },
    {
      "bufferView" : 11,
      "componentType" : 5126,
      "count" : 11,
      "type" : "VEC2"
    }
  ]
}
