{
  "asset" : {
    "generator" : "UE Viewer (umodel) build 1589",
    "version" : "2.0"
  },
  "scene" : 0,
  "scenes" : [
    {
      "nodes" : [ 0 ]
    }
  ],
  "nodes" : [
    {
      "name" : "ford_mustang_gt3_rim_lr_Lod1",
      "mesh" : 0
    }
  ],
  "materials" : [
    {
      "name" : "EXT_RIM",
      "pbrMetallicRoughness" : {
        "baseColorFactor" : [ 0.3, 0.3, 0.3, 1.0 ],
        "metallicFactor" : 0.1,
        "roughnessFactor" : 0.5
      }
    }
  ],
  "meshes" : [
    {
      "primitives" : [
        {
          "attributes" : {
            "POSITION" : 1,
            "NORMAL" : 2,
            "TANGENT" : 3,
            "TEXCOORD_0" : 4,
            "TEXCOORD_1" : 5
          },
          "indices" : 0,
          "material" : 0
        }
      ],
      "name" : "ford_mustang_gt3_rim_lr_Lod1"
    }
  ],
  "buffers" : [
    {
      "uri" : "ford_mustang_gt3_rim_lr_Lod1.bin",
      "byteLength" : 439900
    }
  ],
  "bufferViews" : [
    {
      "buffer" : 0,
      "byteOffset" : 0,
      "byteLength" : 52436
    },
    {
      "buffer" : 0,
      "byteOffset" : 52436,
      "byteLength" : 83028
    },
    {
      "buffer" : 0,
      "byteOffset" : 135464,
      "byteLength" : 83028
    },
    {
      "buffer" : 0,
      "byteOffset" : 218492,
      "byteLength" : 110704
    },
    {
      "buffer" : 0,
      "byteOffset" : 329196,
      "byteLength" : 55352
    },
    {
      "buffer" : 0,
      "byteOffset" : 384548,
      "byteLength" : 55352
    }
  ],
  "accessors" : [
    {
      "bufferView" : 0,
      "componentType" : 5123,
      "count" : 26217,
      "type" : "SCALAR"
    },
    {
      "bufferView" : 1,
      "min" : [ -0.176291, -0.248484, -0.248261 ],
      "max" : [ 0.176918, 0.247887, 0.248261 ],
      "componentType" : 5126,
      "count" : 6919,
      "type" : "VEC3"
    },
    {
      "bufferView" : 2,
      "componentType" : 5126,
      "count" : 6919,
      "type" : "VEC3"
    },
    {
      "bufferView" : 3,
      "componentType" : 5126,
      "count" : 6919,
      "type" : "VEC4"
    },
    {
      "bufferView" : 4,
      "componentType" : 5126,
      "count" : 6919,
      "type" : "VEC2"
    },
    {
      "bufferView" : 5,
      "componentType" : 5126,
      "count" : 6919,
      "type" : "VEC2"
    }
  ]
}
