{
  "asset" : {
    "generator" : "UE Viewer (umodel) build 1589",
    "version" : "2.0"
  },
  "scene" : 0,
  "scenes" : [
    {
      "nodes" : [ 0 ]
    }
  ],
  "nodes" : [
    {
      "name" : "ford_mustang_gt3_rim_rf_Lod1",
      "mesh" : 0
    }
  ],
  "materials" : [
    {
      "name" : "EXT_RIM",
      "pbrMetallicRoughness" : {
        "baseColorFactor" : [ 0.3, 0.3, 0.3, 1.0 ],
        "metallicFactor" : 0.1,
        "roughnessFactor" : 0.5
      }
    }
  ],
  "meshes" : [
    {
      "primitives" : [
        {
          "attributes" : {
            "POSITION" : 1,
            "NORMAL" : 2,
            "TANGENT" : 3,
            "TEXCOORD_0" : 4,
            "TEXCOORD_1" : 5
          },
          "indices" : 0,
          "material" : 0
        }
      ],
      "name" : "ford_mustang_gt3_rim_rf_Lod1"
    }
  ],
  "buffers" : [
    {
      "uri" : "ford_mustang_gt3_rim_rf_Lod1.bin",
      "byteLength" : 438056
    }
  ],
  "bufferViews" : [
    {
      "buffer" : 0,
      "byteOffset" : 0,
      "byteLength" : 52440
    },
    {
      "buffer" : 0,
      "byteOffset" : 52440,
      "byteLength" : 82632
    },
    {
      "buffer" : 0,
      "byteOffset" : 135072,
      "byteLength" : 82632
    },
    {
      "buffer" : 0,
      "byteOffset" : 217704,
      "byteLength" : 110176
    },
    {
      "buffer" : 0,
      "byteOffset" : 327880,
      "byteLength" : 55088
    },
    {
      "buffer" : 0,
      "byteOffset" : 382968,
      "byteLength" : 55088
    }
  ],
  "accessors" : [
    {
      "bufferView" : 0,
      "componentType" : 5123,
      "count" : 26220,
      "type" : "SCALAR"
    },
    {
      "bufferView" : 1,
      "min" : [ -0.166474, -0.248484, -0.248111 ],
      "max" : [ 0.167491, 0.247887, 0.248292 ],
      "componentType" : 5126,
      "count" : 6886,
      "type" : "VEC3"
    },
    {
      "bufferView" : 2,
      "componentType" : 5126,
      "count" : 6886,
      "type" : "VEC3"
    },
    {
      "bufferView" : 3,
      "componentType" : 5126,
      "count" : 6886,
      "type" : "VEC4"
    },
    {
      "bufferView" : 4,
      "componentType" : 5126,
      "count" : 6886,
      "type" : "VEC2"
    },
    {
      "bufferView" : 5,
      "componentType" : 5126,
      "count" : 6886,
      "type" : "VEC2"
    }
  ]
}
