{
  "asset" : {
    "generator" : "UE Viewer (umodel) build 1589",
    "version" : "2.0"
  },
  "scene" : 0,
  "scenes" : [
    {
      "nodes" : [ 0 ]
    }
  ],
  "nodes" : [
    {
      "name" : "ktm_xbow_gt2_rim_lf_Lod1",
      "mesh" : 0
    }
  ],
  "materials" : [
    {
      "name" : "EXT_RIM",
      "pbrMetallicRoughness" : {
        "baseColorFactor" : [ 0.3, 0.3, 0.3, 1.0 ],
        "metallicFactor" : 0.1,
        "roughnessFactor" : 0.5
      }
    }
  ],
  "meshes" : [
    {
      "primitives" : [
        {
          "attributes" : {
            "POSITION" : 1,
            "NORMAL" : 2,
            "TANGENT" : 3,
            "TEXCOORD_0" : 4,
            "TEXCOORD_1" : 5
          },
          "indices" : 0,
          "material" : 0
        }
      ],
      "name" : "ktm_xbow_gt2_rim_lf_Lod1"
    }
  ],
  "buffers" : [
    {
      "uri" : "ktm_xbow_gt2_rim_lf_Lod1.bin",
      "byteLength" : 382448
    }
  ],
  "bufferViews" : [
    {
      "buffer" : 0,
      "byteOffset" : 0,
      "byteLength" : 50312
    },
    {
      "buffer" : 0,
      "byteOffset" : 50312,
      "byteLength" : 71172
    },
    {
      "buffer" : 0,
      "byteOffset" : 121484,
      "byteLength" : 71172
    },
    {
      "buffer" : 0,
      "byteOffset" : 192656,
      "byteLength" : 94896
    },
    {
      "buffer" : 0,
      "byteOffset" : 287552,
      "byteLength" : 47448
    },
    {
      "buffer" : 0,
      "byteOffset" : 335000,
      "byteLength" : 47448
    }
  ],
  "accessors" : [
    {
      "bufferView" : 0,
      "componentType" : 5123,
      "count" : 25155,
      "type" : "SCALAR"
    },
    {
      "bufferView" : 1,
      "min" : [ -0.153058, -0.248743, -0.248742 ],
      "max" : [ 0.153025, 0.248729, 0.248477 ],
      "componentType" : 5126,
      "count" : 5931,
      "type" : "VEC3"
    },
    {
      "bufferView" : 2,
      "componentType" : 5126,
      "count" : 5931,
      "type" : "VEC3"
    },
    {
      "bufferView" : 3,
      "componentType" : 5126,
      "count" : 5931,
      "type" : "VEC4"
    },
    {
      "bufferView" : 4,
      "componentType" : 5126,
      "count" : 5931,
      "type" : "VEC2"
    },
    {
      "bufferView" : 5,
      "componentType" : 5126,
      "count" : 5931,
      "type" : "VEC2"
    }
  ]
}
