{
  "asset" : {
    "generator" : "UE Viewer (umodel) build 1589",
    "version" : "2.0"
  },
  "scene" : 0,
  "scenes" : [
    {
      "nodes" : [ 0 ]
    }
  ],
  "nodes" : [
    {
      "name" : "lexus_rcf_gt3_exterior_tyre_shadow",
      "mesh" : 0
    }
  ],
  "materials" : [
    {
      "name" : "WorldGridMaterial",
      "pbrMetallicRoughness" : {
        "baseColorFactor" : [ 0.3, 0.3, 0.3, 1.0 ],
        "metallicFactor" : 0.1,
        "roughnessFactor" : 0.5
      }
    }
  ],
  "meshes" : [
    {
      "primitives" : [
        {
          "attributes" : {
            "POSITION" : 1,
            "NORMAL" : 2,
            "TANGENT" : 3,
            "COLOR_0" : 4,
            "TEXCOORD_0" : 5,
            "TEXCOORD_1" : 6
          },
          "indices" : 0,
          "material" : 0
        }
      ],
      "name" : "lexus_rcf_gt3_exterior_tyre_shadow"
    }
  ],
  "buffers" : [
    {
      "uri" : "lexus_rcf_gt3_exterior_tyre_shadow.bin",
      "byteLength" : 1008
    }
  ],
  "bufferViews" : [
    {
      "buffer" : 0,
      "byteOffset" : 0,
      "byteLength" : 48
    },
    {
      "buffer" : 0,
      "byteOffset" : 48,
      "byteLength" : 192
    },
    {
      "buffer" : 0,
      "byteOffset" : 240,
      "byteLength" : 192
    },
    {
      "buffer" : 0,
      "byteOffset" : 432,
      "byteLength" : 256
    },
    {
      "buffer" : 0,
      "byteOffset" : 688,
      "byteLength" : 64
    },
    {
      "buffer" : 0,
      "byteOffset" : 752,
      "byteLength" : 128
    },
    {
      "buffer" : 0,
      "byteOffset" : 880,
      "byteLength" : 128
    }
  ],
  "accessors" : [
    {
      "bufferView" : 0,
      "componentType" : 5123,
      "count" : 24,
      "type" : "SCALAR"
    },
    {
      "bufferView" : 1,
      "min" : [ -1.07117, -8.89029e-16, -1.71645 ],
      "max" : [ 1.07117, 9.32668e-15, 1.70526 ],
      "componentType" : 5126,
      "count" : 16,
      "type" : "VEC3"
    },
    {
      "bufferView" : 2,
      "componentType" : 5126,
      "count" : 16,
      "type" : "VEC3"
    },
    {
      "bufferView" : 3,
      "componentType" : 5126,
      "count" : 16,
      "type" : "VEC4"
    },
    {
      "bufferView" : 4,
      "normalized" : true,
      "componentType" : 5121,
      "count" : 16,
      "type" : "VEC4"
    },
    {
      "bufferView" : 5,
      "componentType" : 5126,
      "count" : 16,
      "type" : "VEC2"
    },
    {
      "bufferView" : 6,
      "componentType" : 5126,
      "count" : 16,
      "type" : "VEC2"
    }
  ]
}
