{
  "asset" : {
    "generator" : "UE Viewer (umodel) build 1589",
    "version" : "2.0"
  },
  "scene" : 0,
  "scenes" : [
    {
      "nodes" : [ 0 ]
    }
  ],
  "nodes" : [
    {
      "name" : "lexus_rcf_gt3_exterior_endurance_Lod4",
      "mesh" : 0,
      "skin" : 0,
      "children" : [ 1 ]
    },
    {
      "name" : "LEXUS_RCF_GT3",
      "children" : [ 2 ],
      "translation" : [ 0, 0, 0 ],
      "rotation" : [ -0, -0, -0, 1 ]
    },
    {
      "name" : "CAR_BODY",
      "children" : [ 3, 4, 5, 6, 7, 8, 9, 10, 11, 12, 13, 14, 15, 16, 17, 18, 19, 20, 21, 22, 23, 24, 25, 26 ],
      "translation" : [ 0, 0, -0 ],
      "rotation" : [ -0, -0, 0, -1 ]
    },
    {
      "name" : "WING",
      "translation" : [ 0, 1.25699, -2.24063 ],
      "rotation" : [ -0, -0, 0, -1 ]
    },
    {
      "name" : "DISC_LF",
      "translation" : [ 0.847649, 0.35206, 1.365 ],
      "rotation" : [ 4.76837e-07, -0, -0, -1 ]
    },
    {
      "name" : "SUSP_LF",
      "translation" : [ 0.847649, 0.35206, 1.365 ],
      "rotation" : [ 4.76837e-07, -0, -0, -1 ]
    },
    {
      "name" : "WHEEL_LF",
      "translation" : [ 0.847649, 0.35206, 1.365 ],
      "rotation" : [ 4.76837e-07, -0, -0, -1 ]
    },
    {
      "name" : "DISC_RF",
      "translation" : [ -0.842351, 0.35206, 1.365 ],
      "rotation" : [ 2.7159e-07, 2.38419e-07, 6.47522e-14, -1 ]
    },
    {
      "name" : "SUSP_RF",
      "translation" : [ -0.842351, 0.35206, 1.365 ],
      "rotation" : [ 2.7159e-07, 2.38419e-07, 6.47522e-14, -1 ]
    },
    {
      "name" : "WHEEL_RF",
      "translation" : [ -0.842351, 0.35206, 1.365 ],
      "rotation" : [ 2.7159e-07, 2.38419e-07, 6.47522e-14, -1 ]
    },
    {
      "name" : "DISC_RR",
      "translation" : [ -0.81535, 0.35206, -1.365 ],
      "rotation" : [ 2.7159e-07, 2.38419e-07, 6.47522e-14, -1 ]
    },
    {
      "name" : "DISC_LR",
      "translation" : [ 0.81535, 0.35206, -1.365 ],
      "rotation" : [ 1.78814e-07, 1.78814e-07, 3.19744e-14, -1 ]
    },
    {
      "name" : "WHEEL_RR",
      "translation" : [ -0.81535, 0.35206, -1.365 ],
      "rotation" : [ 2.7159e-07, 2.38419e-07, 6.47522e-14, -1 ]
    },
    {
      "name" : "SUSP_RR",
      "translation" : [ -0.81535, 0.35206, -1.365 ],
      "rotation" : [ 2.7159e-07, 2.38419e-07, 6.47522e-14, -1 ]
    },
    {
      "name" : "WHEEL_LR",
      "translation" : [ 0.81535, 0.35206, -1.365 ],
      "rotation" : [ 1.78814e-07, 1.78814e-07, 3.19744e-14, -1 ]
    },
    {
      "name" : "SUSP_LR",
      "translation" : [ 0.81535, 0.35206, -1.365 ],
      "rotation" : [ 1.78814e-07, 1.78814e-07, 3.19744e-14, -1 ]
    },
    {
      "name" : "TYRE_LF",
      "translation" : [ 0.847649, 0.35206, 1.365 ],
      "rotation" : [ 7.71476e-07, -0, -0, -1 ]
    },
    {
      "name" : "TYRE_LR",
      "translation" : [ 0.81535, 0.35206, -1.365 ],
      "rotation" : [ 3.34117e-07, 1.78814e-07, 5.97448e-14, -1 ]
    },
    {
      "name" : "TYRE_RR",
      "translation" : [ -0.81535, 0.35206, -1.365 ],
      "rotation" : [ 3.90799e-07, 2.38419e-07, 9.31739e-14, -1 ]
    },
    {
      "name" : "TYRE_RF",
      "translation" : [ -0.842351, 0.35206, 1.365 ],
      "rotation" : [ 3.90799e-07, 2.38419e-07, 9.31739e-14, -1 ]
    },
    {
      "name" : "LUMIRANK",
      "translation" : [ -0.464786, 1.06137, 0.445946 ],
      "rotation" : [ -0.219373, 0.0314912, -0.0651651, -0.972953 ]
    },
    {
      "name" : "FRONT_BUMPER",
      "translation" : [ 0, 0.544948, 1.67432 ],
      "rotation" : [ -0, -0, 0, -1 ]
    },
    {
      "name" : "REAR_BUMPER",
      "translation" : [ 0, 0.586006, -1.66602 ],
      "rotation" : [ -0, -0, 0, -1 ]
    },
    {
      "name" : "HOOD",
      "translation" : [ 0, 0.895667, 0.717925 ],
      "rotation" : [ -0, -0, 0, -1 ]
    },
    {
      "name" : "DOOR_R",
      "translation" : [ -0.88481, 0.503437, 0.769959 ],
      "rotation" : [ -0, -0, 0, -1 ]
    },
    {
      "name" : "DOOR_L",
      "translation" : [ 0.884807, 0.503437, 0.769959 ],
      "rotation" : [ -0, -0, 0, -1 ]
    },
    {
      "name" : "WIPER_1",
      "children" : [ 27 ],
      "translation" : [ 0.154095, 0.846303, 0.971559 ],
      "rotation" : [ -0.283519, 0.101295, 0.0301315, -0.953126 ]
    },
    {
      "name" : "WIPER_2",
      "children" : [ 28 ],
      "translation" : [ -0.0676511, 0.0154129, -6.37901e-05 ],
      "rotation" : [ 0.706805, 0.0206554, -0.0206553, -0.706805 ]
    },
    {
      "name" : "WIPER_3",
      "translation" : [ -0.365948, -0.000474032, -0.00902302 ],
      "rotation" : [ -0.707094, 0.00426808, -0.00426819, -0.707094 ]
    }
  ],
  "skins" : [
    {
      "inverseBindMatrices" : 0,
      "skeleton" : 1,
      "joints" : [
        1,2,3,4,5,6,7,8,9,10,11,12,13,14,15,16,17,18,19,20,21,22,23,24,25,26,27,28
      ]
    }
  ],
  "materials" : [
    {
      "name" : "EXT_Carpaint_Inst",
      "pbrMetallicRoughness" : {
        "baseColorFactor" : [ 0.3, 0.3, 0.3, 1.0 ],
        "metallicFactor" : 0.1,
        "roughnessFactor" : 0.5
      }
    }
  ],
  "meshes" : [
    {
      "primitives" : [
        {
          "attributes" : {
            "POSITION" : 2,
            "NORMAL" : 3,
            "TANGENT" : 4,
            "COLOR_0" : 5,
            "JOINTS_0" : 6,
            "WEIGHTS_0" : 7,
            "TEXCOORD_0" : 8,
            "TEXCOORD_1" : 9,
            "TEXCOORD_2" : 10,
            "TEXCOORD_3" : 11
          },
          "indices" : 1,
          "material" : 0
        }
      ],
      "name" : "lexus_rcf_gt3_exterior_endurance_Lod4"
    }
  ],
  "buffers" : [
    {
      "uri" : "lexus_rcf_gt3_exterior_endurance_Lod4.bin",
      "byteLength" : 651864
    }
  ],
  "bufferViews" : [
    {
      "buffer" : 0,
      "byteOffset" : 0,
      "byteLength" : 1792
    },
    {
      "buffer" : 0,
      "byteOffset" : 1792,
      "byteLength" : 39000
    },
    {
      "buffer" : 0,
      "byteOffset" : 40792,
      "byteLength" : 83328
    },
    {
      "buffer" : 0,
      "byteOffset" : 124120,
      "byteLength" : 83328
    },
    {
      "buffer" : 0,
      "byteOffset" : 207448,
      "byteLength" : 111104
    },
    {
      "buffer" : 0,
      "byteOffset" : 318552,
      "byteLength" : 27776
    },
    {
      "buffer" : 0,
      "byteOffset" : 346328,
      "byteLength" : 55552
    },
    {
      "buffer" : 0,
      "byteOffset" : 401880,
      "byteLength" : 27776
    },
    {
      "buffer" : 0,
      "byteOffset" : 429656,
      "byteLength" : 55552
    },
    {
      "buffer" : 0,
      "byteOffset" : 485208,
      "byteLength" : 55552
    },
    {
      "buffer" : 0,
      "byteOffset" : 540760,
      "byteLength" : 55552
    },
    {
      "buffer" : 0,
      "byteOffset" : 596312,
      "byteLength" : 55552
    }
  ],
  "accessors" : [
    {
      "bufferView" : 0,
      "componentType" : 5126,
      "count" : 28,
      "type" : "MAT4"
    },
    {
      "bufferView" : 1,
      "componentType" : 5123,
      "count" : 19500,
      "type" : "SCALAR"
    },
    {
      "bufferView" : 2,
      "min" : [ -1.03087, 0.0124127, -2.45398 ],
      "max" : [ 1.03087, 1.3062, 2.37878 ],
      "componentType" : 5126,
      "count" : 6944,
      "type" : "VEC3"
    },
    {
      "bufferView" : 3,
      "componentType" : 5126,
      "count" : 6944,
      "type" : "VEC3"
    },
    {
      "bufferView" : 4,
      "componentType" : 5126,
      "count" : 6944,
      "type" : "VEC4"
    },
    {
      "bufferView" : 5,
      "normalized" : true,
      "componentType" : 5121,
      "count" : 6944,
      "type" : "VEC4"
    },
    {
      "bufferView" : 6,
      "componentType" : 5123,
      "count" : 6944,
      "type" : "VEC4"
    },
    {
      "bufferView" : 7,
      "normalized" : true,
      "componentType" : 5121,
      "count" : 6944,
      "type" : "VEC4"
    },
    {
      "bufferView" : 8,
      "componentType" : 5126,
      "count" : 6944,
      "type" : "VEC2"
    },
    {
      "bufferView" : 9,
      "componentType" : 5126,
      "count" : 6944,
      "type" : "VEC2"
    },
    {
      "bufferView" : 10,
      "componentType" : 5126,
      "count" : 6944,
      "type" : "VEC2"
    },
    {
      "bufferView" : 11,
      "componentType" : 5126,
      "count" : 6944,
      "type" : "VEC2"
    }
  ]
}
