{
  "asset" : {
    "generator" : "UE Viewer (umodel) build 1589",
    "version" : "2.0"
  },
  "scene" : 0,
  "scenes" : [
    {
      "nodes" : [ 0 ]
    }
  ],
  "nodes" : [
    {
      "name" : "lexus_rcf_gt3_exterior_numberplate_a",
      "mesh" : 0,
      "skin" : 0,
      "children" : [ 1 ]
    },
    {
      "name" : "LEXUS_RCF_GT3",
      "children" : [ 2 ],
      "translation" : [ 0, 0, 0 ],
      "rotation" : [ -0, -0, -0, 1 ]
    },
    {
      "name" : "CAR_BODY",
      "children" : [ 3, 4 ],
      "translation" : [ 0, 0, -0 ],
      "rotation" : [ -0, -0, 0, -1 ]
    },
    {
      "name" : "DOOR_R",
      "translation" : [ -0.88481, 0.503437, 0.769959 ],
      "rotation" : [ -0, -0, 0, -1 ]
    },
    {
      "name" : "DOOR_L",
      "translation" : [ 0.884807, 0.503437, 0.769959 ],
      "rotation" : [ -0, -0, 0, -1 ]
    }
  ],
  "skins" : [
    {
      "inverseBindMatrices" : 0,
      "skeleton" : 1,
      "joints" : [
        1,2,3,4
      ]
    }
  ],
  "materials" : [
    {
      "name" : "NUMBERPLATE_2018_EMISSIVE_PRO",
      "pbrMetallicRoughness" : {
        "baseColorFactor" : [ 0.3, 0.3, 0.3, 1.0 ],
        "metallicFactor" : 0.1,
        "roughnessFactor" : 0.5
      }
    }
  ],
  "meshes" : [
    {
      "primitives" : [
        {
          "attributes" : {
            "POSITION" : 2,
            "NORMAL" : 3,
            "TANGENT" : 4,
            "JOINTS_0" : 5,
            "WEIGHTS_0" : 6,
            "TEXCOORD_0" : 7,
            "TEXCOORD_1" : 8
          },
          "indices" : 1,
          "material" : 0
        }
      ],
      "name" : "lexus_rcf_gt3_exterior_numberplate_a"
    }
  ],
  "buffers" : [
    {
      "uri" : "lexus_rcf_gt3_exterior_numberplate_a.bin",
      "byteLength" : 5112
    }
  ],
  "bufferViews" : [
    {
      "buffer" : 0,
      "byteOffset" : 0,
      "byteLength" : 256
    },
    {
      "buffer" : 0,
      "byteOffset" : 256,
      "byteLength" : 504
    },
    {
      "buffer" : 0,
      "byteOffset" : 760,
      "byteLength" : 768
    },
    {
      "buffer" : 0,
      "byteOffset" : 1528,
      "byteLength" : 768
    },
    {
      "buffer" : 0,
      "byteOffset" : 2296,
      "byteLength" : 1024
    },
    {
      "buffer" : 0,
      "byteOffset" : 3320,
      "byteLength" : 512
    },
    {
      "buffer" : 0,
      "byteOffset" : 3832,
      "byteLength" : 256
    },
    {
      "buffer" : 0,
      "byteOffset" : 4088,
      "byteLength" : 512
    },
    {
      "buffer" : 0,
      "byteOffset" : 4600,
      "byteLength" : 512
    }
  ],
  "accessors" : [
    {
      "bufferView" : 0,
      "componentType" : 5126,
      "count" : 4,
      "type" : "MAT4"
    },
    {
      "bufferView" : 1,
      "componentType" : 5123,
      "count" : 252,
      "type" : "SCALAR"
    },
    {
      "bufferView" : 2,
      "min" : [ -0.915437, 0.305151, -0.0945245 ],
      "max" : [ 0.915437, 0.694998, 0.332791 ],
      "componentType" : 5126,
      "count" : 64,
      "type" : "VEC3"
    },
    {
      "bufferView" : 3,
      "componentType" : 5126,
      "count" : 64,
      "type" : "VEC3"
    },
    {
      "bufferView" : 4,
      "componentType" : 5126,
      "count" : 64,
      "type" : "VEC4"
    },
    {
      "bufferView" : 5,
      "componentType" : 5123,
      "count" : 64,
      "type" : "VEC4"
    },
    {
      "bufferView" : 6,
      "normalized" : true,
      "componentType" : 5121,
      "count" : 64,
      "type" : "VEC4"
    },
    {
      "bufferView" : 7,
      "componentType" : 5126,
      "count" : 64,
      "type" : "VEC2"
    },
    {
      "bufferView" : 8,
      "componentType" : 5126,
      "count" : 64,
      "type" : "VEC2"
    }
  ]
}
