{
  "asset" : {
    "generator" : "UE Viewer (umodel) build 1589",
    "version" : "2.0"
  },
  "scene" : 0,
  "scenes" : [
    {
      "nodes" : [ 0 ]
    }
  ],
  "nodes" : [
    {
      "name" : "porsche_991ii_gt3_cup_exterior_endurance_Lod4",
      "mesh" : 0,
      "skin" : 0,
      "children" : [ 1 ]
    },
    {
      "name" : "PORSCHE_991II_GT3_CUP",
      "children" : [ 2 ],
      "translation" : [ 0, 0, 0 ],
      "rotation" : [ -0, -0, -0, 1 ]
    },
    {
      "name" : "CAR_BODY",
      "children" : [ 3, 6, 7, 8, 9, 10, 11, 12, 13, 14, 15, 16, 17, 18, 19, 20, 21, 22, 23, 24, 25, 26, 27, 28 ],
      "translation" : [ 0, 0, -0 ],
      "rotation" : [ -0, -0, 0, -1 ]
    },
    {
      "name" : "WIPER_1",
      "children" : [ 4 ],
      "translation" : [ 0.000912905, 0.826867, 1.08404 ],
      "rotation" : [ -0.610011, 0.58869, -0.349965, -0.398565 ]
    },
    {
      "name" : "WIPER_2",
      "children" : [ 5 ],
      "translation" : [ -0.201874, -0.00291812, -6.71443e-05 ],
      "rotation" : [ -0.0968687, 0.11472, -0.0130116, -0.988578 ]
    },
    {
      "name" : "WIPER_3",
      "translation" : [ -0.349717, -0.0171301, 0.0804579 ],
      "rotation" : [ 0.100736, -0.108054, -0.00464844, -0.989017 ]
    },
    {
      "name" : "FRONT_BUMPER",
      "translation" : [ 0, 0.618231, 1.49779 ],
      "rotation" : [ -0, -0, 0, -1 ]
    },
    {
      "name" : "HOOD",
      "translation" : [ 0, 0.860526, 0.737944 ],
      "rotation" : [ -0, -0, 0, -1 ]
    },
    {
      "name" : "REAR_BUMPER",
      "translation" : [ 0.00161605, 0.779532, -2.11592 ],
      "rotation" : [ -0, -0, 0, -1 ]
    },
    {
      "name" : "WING",
      "translation" : [ 0.00161605, 1.22358, -2.09144 ],
      "rotation" : [ -0, -0, 0, -1 ]
    },
    {
      "name" : "DOOR_L",
      "translation" : [ 0.830552, 0.72998, 0.656236 ],
      "rotation" : [ 0.0257282, -0, -0, -0.999669 ]
    },
    {
      "name" : "DOOR_R",
      "translation" : [ -0.830552, 0.72998, 0.656236 ],
      "rotation" : [ 0.0257304, -0, -0, -0.999669 ]
    },
    {
      "name" : "WHEEL_LF",
      "translation" : [ 0.783606, 0.322801, 1.2407 ],
      "rotation" : [ 6.08805e-22, 5.8989e-22, -2.31611e-21, -1 ]
    },
    {
      "name" : "SUSP_LF",
      "translation" : [ 0.783606, 0.322801, 1.2407 ],
      "rotation" : [ -0, -0, 0, -1 ]
    },
    {
      "name" : "DISC_LF",
      "translation" : [ 0.783606, 0.322801, 1.2407 ],
      "rotation" : [ -0, -0, 0, -1 ]
    },
    {
      "name" : "WHEEL_RF",
      "translation" : [ -0.7836, 0.322801, 1.2407 ],
      "rotation" : [ -3.08108e-20, -2.13972e-19, -6.57046e-20, -1 ]
    },
    {
      "name" : "SUSP_RF",
      "translation" : [ -0.7836, 0.322801, 1.2407 ],
      "rotation" : [ -0, -0, 0, -1 ]
    },
    {
      "name" : "DISC_RF",
      "translation" : [ -0.7836, 0.322801, 1.2407 ],
      "rotation" : [ -0, -0, 0, -1 ]
    },
    {
      "name" : "WHEEL_LR",
      "translation" : [ 0.7579, 0.352259, -1.20916 ],
      "rotation" : [ 6.77626e-21, 6.9913e-20, -2.56426e-19, -1 ]
    },
    {
      "name" : "SUSP_LR",
      "translation" : [ 0.7579, 0.352259, -1.20916 ],
      "rotation" : [ -0, -0, 0, -1 ]
    },
    {
      "name" : "DISC_LR",
      "translation" : [ 0.7579, 0.352259, -1.20916 ],
      "rotation" : [ -0, -0, 0, -1 ]
    },
    {
      "name" : "WHEEL_RR",
      "translation" : [ -0.757944, 0.352259, -1.20914 ],
      "rotation" : [ 1.45584e-22, 3.18361e-26, -1.58819e-22, -1 ]
    },
    {
      "name" : "SUSP_RR",
      "translation" : [ -0.757944, 0.352259, -1.20914 ],
      "rotation" : [ -0, -0, 0, -1 ]
    },
    {
      "name" : "DISC_RR",
      "translation" : [ -0.757944, 0.352259, -1.20914 ],
      "rotation" : [ -0, -0, 0, -1 ]
    },
    {
      "name" : "LUMIRANK",
      "translation" : [ -0.480552, 1.07005, 0.408171 ],
      "rotation" : [ -0.239485, 0.151177, -0.0957981, -0.954262 ]
    },
    {
      "name" : "TYRE_LR",
      "translation" : [ 0.7579, 0.352259, -1.20916 ],
      "rotation" : [ 6.77626e-21, 6.9913e-20, -2.56426e-19, -1 ]
    },
    {
      "name" : "TYRE_RR",
      "translation" : [ -0.757944, 0.352259, -1.20914 ],
      "rotation" : [ 1.45584e-22, 3.18361e-26, -1.58819e-22, -1 ]
    },
    {
      "name" : "TYRE_LF",
      "translation" : [ 0.783606, 0.322801, 1.2407 ],
      "rotation" : [ 6.08805e-22, 5.8989e-22, -2.31611e-21, -1 ]
    },
    {
      "name" : "TYRE_RF",
      "translation" : [ -0.7836, 0.322801, 1.2407 ],
      "rotation" : [ -3.08108e-20, -2.13972e-19, -6.57046e-20, -1 ]
    }
  ],
  "skins" : [
    {
      "inverseBindMatrices" : 0,
      "skeleton" : 1,
      "joints" : [
        1,2,3,4,5,6,7,8,9,10,11,12,13,14,15,16,17,18,19,20,21,22,23,24,25,26,27,28
      ]
    }
  ],
  "materials" : [
    {
      "name" : "EXT_Carpaint_Inst",
      "pbrMetallicRoughness" : {
        "baseColorFactor" : [ 0.3, 0.3, 0.3, 1.0 ],
        "metallicFactor" : 0.1,
        "roughnessFactor" : 0.5
      }
    }
  ],
  "meshes" : [
    {
      "primitives" : [
        {
          "attributes" : {
            "POSITION" : 2,
            "NORMAL" : 3,
            "TANGENT" : 4,
            "COLOR_0" : 5,
            "JOINTS_0" : 6,
            "WEIGHTS_0" : 7,
            "TEXCOORD_0" : 8
          },
          "indices" : 1,
          "material" : 0
        }
      ],
      "name" : "porsche_991ii_gt3_cup_exterior_endurance_Lod4"
    }
  ],
  "buffers" : [
    {
      "uri" : "porsche_991ii_gt3_cup_exterior_endurance_Lod4.bin",
      "byteLength" : 204756
    }
  ],
  "bufferViews" : [
    {
      "buffer" : 0,
      "byteOffset" : 0,
      "byteLength" : 1792
    },
    {
      "buffer" : 0,
      "byteOffset" : 1792,
      "byteLength" : 16020
    },
    {
      "buffer" : 0,
      "byteOffset" : 17812,
      "byteLength" : 35052
    },
    {
      "buffer" : 0,
      "byteOffset" : 52864,
      "byteLength" : 35052
    },
    {
      "buffer" : 0,
      "byteOffset" : 87916,
      "byteLength" : 46736
    },
    {
      "buffer" : 0,
      "byteOffset" : 134652,
      "byteLength" : 11684
    },
    {
      "buffer" : 0,
      "byteOffset" : 146336,
      "byteLength" : 23368
    },
    {
      "buffer" : 0,
      "byteOffset" : 169704,
      "byteLength" : 11684
    },
    {
      "buffer" : 0,
      "byteOffset" : 181388,
      "byteLength" : 23368
    }
  ],
  "accessors" : [
    {
      "bufferView" : 0,
      "componentType" : 5126,
      "count" : 28,
      "type" : "MAT4"
    },
    {
      "bufferView" : 1,
      "componentType" : 5123,
      "count" : 8010,
      "type" : "SCALAR"
    },
    {
      "bufferView" : 2,
      "min" : [ -0.988351, 0.0233291, -2.27144 ],
      "max" : [ 0.988351, 1.31035, 2.29225 ],
      "componentType" : 5126,
      "count" : 2921,
      "type" : "VEC3"
    },
    {
      "bufferView" : 3,
      "componentType" : 5126,
      "count" : 2921,
      "type" : "VEC3"
    },
    {
      "bufferView" : 4,
      "componentType" : 5126,
      "count" : 2921,
      "type" : "VEC4"
    },
    {
      "bufferView" : 5,
      "normalized" : true,
      "componentType" : 5121,
      "count" : 2921,
      "type" : "VEC4"
    },
    {
      "bufferView" : 6,
      "componentType" : 5123,
      "count" : 2921,
      "type" : "VEC4"
    },
    {
      "bufferView" : 7,
      "normalized" : true,
      "componentType" : 5121,
      "count" : 2921,
      "type" : "VEC4"
    },
    {
      "bufferView" : 8,
      "componentType" : 5126,
      "count" : 2921,
      "type" : "VEC2"
    }
  ]
}
