{
  "asset" : {
    "generator" : "UE Viewer (umodel) build 1589",
    "version" : "2.0"
  },
  "scene" : 0,
  "scenes" : [
    {
      "nodes" : [ 0 ]
    }
  ],
  "nodes" : [
    {
      "name" : "porsche_991ii_gt3_cup_rim_rr_Lod1",
      "mesh" : 0
    }
  ],
  "materials" : [
    {
      "name" : "EXT_RIM",
      "pbrMetallicRoughness" : {
        "baseColorFactor" : [ 0.3, 0.3, 0.3, 1.0 ],
        "metallicFactor" : 0.1,
        "roughnessFactor" : 0.5
      }
    }
  ],
  "meshes" : [
    {
      "primitives" : [
        {
          "attributes" : {
            "POSITION" : 1,
            "NORMAL" : 2,
            "TANGENT" : 3,
            "TEXCOORD_0" : 4,
            "TEXCOORD_1" : 5
          },
          "indices" : 0,
          "material" : 0
        }
      ],
      "name" : "porsche_991ii_gt3_cup_rim_rr_Lod1"
    }
  ],
  "buffers" : [
    {
      "uri" : "porsche_991ii_gt3_cup_rim_rr_Lod1.bin",
      "byteLength" : 166980
    }
  ],
  "bufferViews" : [
    {
      "buffer" : 0,
      "byteOffset" : 0,
      "byteLength" : 21212
    },
    {
      "buffer" : 0,
      "byteOffset" : 21212,
      "byteLength" : 31236
    },
    {
      "buffer" : 0,
      "byteOffset" : 52448,
      "byteLength" : 31236
    },
    {
      "buffer" : 0,
      "byteOffset" : 83684,
      "byteLength" : 41648
    },
    {
      "buffer" : 0,
      "byteOffset" : 125332,
      "byteLength" : 20824
    },
    {
      "buffer" : 0,
      "byteOffset" : 146156,
      "byteLength" : 20824
    }
  ],
  "accessors" : [
    {
      "bufferView" : 0,
      "componentType" : 5123,
      "count" : 10605,
      "type" : "SCALAR"
    },
    {
      "bufferView" : 1,
      "min" : [ -0.178644, -0.248667, -0.248808 ],
      "max" : [ 0.178755, 0.249756, 0.248795 ],
      "componentType" : 5126,
      "count" : 2603,
      "type" : "VEC3"
    },
    {
      "bufferView" : 2,
      "componentType" : 5126,
      "count" : 2603,
      "type" : "VEC3"
    },
    {
      "bufferView" : 3,
      "componentType" : 5126,
      "count" : 2603,
      "type" : "VEC4"
    },
    {
      "bufferView" : 4,
      "componentType" : 5126,
      "count" : 2603,
      "type" : "VEC2"
    },
    {
      "bufferView" : 5,
      "componentType" : 5126,
      "count" : 2603,
      "type" : "VEC2"
    }
  ]
}
