{
  "asset" : {
    "generator" : "UE Viewer (umodel) build 1589",
    "version" : "2.0"
  },
  "scene" : 0,
  "scenes" : [
    {
      "nodes" : [ 0 ]
    }
  ],
  "nodes" : [
    {
      "name" : "ferrari_296_gt3_rim_lf_Lod1",
      "mesh" : 0
    }
  ],
  "materials" : [
    {
      "name" : "EXT_RIM",
      "pbrMetallicRoughness" : {
        "baseColorFactor" : [ 0.3, 0.3, 0.3, 1.0 ],
        "metallicFactor" : 0.1,
        "roughnessFactor" : 0.5
      }
    }
  ],
  "meshes" : [
    {
      "primitives" : [
        {
          "attributes" : {
            "POSITION" : 1,
            "NORMAL" : 2,
            "TANGENT" : 3,
            "TEXCOORD_0" : 4,
            "TEXCOORD_1" : 5
          },
          "indices" : 0,
          "material" : 0
        }
      ],
      "name" : "ferrari_296_gt3_rim_lf_Lod1"
    }
  ],
  "buffers" : [
    {
      "uri" : "ferrari_296_gt3_rim_lf_Lod1.bin",
      "byteLength" : 153184
    }
  ],
  "bufferViews" : [
    {
      "buffer" : 0,
      "byteOffset" : 0,
      "byteLength" : 21248
    },
    {
      "buffer" : 0,
      "byteOffset" : 21248,
      "byteLength" : 28272
    },
    {
      "buffer" : 0,
      "byteOffset" : 49520,
      "byteLength" : 28272
    },
    {
      "buffer" : 0,
      "byteOffset" : 77792,
      "byteLength" : 37696
    },
    {
      "buffer" : 0,
      "byteOffset" : 115488,
      "byteLength" : 18848
    },
    {
      "buffer" : 0,
      "byteOffset" : 134336,
      "byteLength" : 18848
    }
  ],
  "accessors" : [
    {
      "bufferView" : 0,
      "componentType" : 5123,
      "count" : 10623,
      "type" : "SCALAR"
    },
    {
      "bufferView" : 1,
      "min" : [ -0.168008, -0.251644, -0.251553 ],
      "max" : [ 0.168888, 0.251002, 0.251321 ],
      "componentType" : 5126,
      "count" : 2356,
      "type" : "VEC3"
    },
    {
      "bufferView" : 2,
      "componentType" : 5126,
      "count" : 2356,
      "type" : "VEC3"
    },
    {
      "bufferView" : 3,
      "componentType" : 5126,
      "count" : 2356,
      "type" : "VEC4"
    },
    {
      "bufferView" : 4,
      "componentType" : 5126,
      "count" : 2356,
      "type" : "VEC2"
    },
    {
      "bufferView" : 5,
      "componentType" : 5126,
      "count" : 2356,
      "type" : "VEC2"
    }
  ]
}
