{
  "asset" : {
    "generator" : "UE Viewer (umodel) build 1589",
    "version" : "2.0"
  },
  "scene" : 0,
  "scenes" : [
    {
      "nodes" : [ 0 ]
    }
  ],
  "nodes" : [
    {
      "name" : "ferrari_296_gt3_rim_lr_Lod1",
      "mesh" : 0
    }
  ],
  "materials" : [
    {
      "name" : "EXT_RIM",
      "pbrMetallicRoughness" : {
        "baseColorFactor" : [ 0.3, 0.3, 0.3, 1.0 ],
        "metallicFactor" : 0.1,
        "roughnessFactor" : 0.5
      }
    }
  ],
  "meshes" : [
    {
      "primitives" : [
        {
          "attributes" : {
            "POSITION" : 1,
            "NORMAL" : 2,
            "TANGENT" : 3,
            "TEXCOORD_0" : 4,
            "TEXCOORD_1" : 5
          },
          "indices" : 0,
          "material" : 0
        }
      ],
      "name" : "ferrari_296_gt3_rim_lr_Lod1"
    }
  ],
  "buffers" : [
    {
      "uri" : "ferrari_296_gt3_rim_lr_Lod1.bin",
      "byteLength" : 160148
    }
  ],
  "bufferViews" : [
    {
      "buffer" : 0,
      "byteOffset" : 0,
      "byteLength" : 21884
    },
    {
      "buffer" : 0,
      "byteOffset" : 21884,
      "byteLength" : 29628
    },
    {
      "buffer" : 0,
      "byteOffset" : 51512,
      "byteLength" : 29628
    },
    {
      "buffer" : 0,
      "byteOffset" : 81140,
      "byteLength" : 39504
    },
    {
      "buffer" : 0,
      "byteOffset" : 120644,
      "byteLength" : 19752
    },
    {
      "buffer" : 0,
      "byteOffset" : 140396,
      "byteLength" : 19752
    }
  ],
  "accessors" : [
    {
      "bufferView" : 0,
      "componentType" : 5123,
      "count" : 10941,
      "type" : "SCALAR"
    },
    {
      "bufferView" : 1,
      "min" : [ -0.178308, -0.251492, -0.251568 ],
      "max" : [ 0.179348, 0.251967, 0.251392 ],
      "componentType" : 5126,
      "count" : 2469,
      "type" : "VEC3"
    },
    {
      "bufferView" : 2,
      "componentType" : 5126,
      "count" : 2469,
      "type" : "VEC3"
    },
    {
      "bufferView" : 3,
      "componentType" : 5126,
      "count" : 2469,
      "type" : "VEC4"
    },
    {
      "bufferView" : 4,
      "componentType" : 5126,
      "count" : 2469,
      "type" : "VEC2"
    },
    {
      "bufferView" : 5,
      "componentType" : 5126,
      "count" : 2469,
      "type" : "VEC2"
    }
  ]
}
