{
  "asset" : {
    "generator" : "UE Viewer (umodel) build 1589",
    "version" : "2.0"
  },
  "scene" : 0,
  "scenes" : [
    {
      "nodes" : [ 0 ]
    }
  ],
  "nodes" : [
    {
      "name" : "ferrari_296_gt3_exterior_Lod4",
      "mesh" : 0,
      "skin" : 0,
      "children" : [ 1 ]
    },
    {
      "name" : "FERRARI_296_GT3",
      "children" : [ 2 ],
      "translation" : [ 0, 0, 0 ],
      "rotation" : [ -0, -0, -0, 1 ]
    },
    {
      "name" : "CAR_BODY",
      "children" : [ 3, 6, 7, 8, 9, 10, 11, 12, 13, 14, 15, 16, 17, 18, 19, 20, 21, 22, 23, 24, 25, 26, 27, 28 ],
      "translation" : [ 0, 0, -0 ],
      "rotation" : [ -0, -0, 0, -1 ]
    },
    {
      "name" : "WIPER_1",
      "children" : [ 4 ],
      "translation" : [ 0.0904426, 0.682046, 1.46763 ],
      "rotation" : [ -0.247294, -0, 0, -0.96894 ]
    },
    {
      "name" : "WIPER_2",
      "children" : [ 5 ],
      "translation" : [ 1.43051e-07, 0.0146223, -0.0803716 ],
      "rotation" : [ 2.34789e-07, 2.38419e-07, -1.19209e-07, -1 ]
    },
    {
      "name" : "WIPER_3",
      "translation" : [ 1.45302e-08, -0.0544533, -0.442301 ],
      "rotation" : [ 0.0293039, -5.77622e-15, 3.35167e-15, -0.999571 ]
    },
    {
      "name" : "DOOR_L",
      "translation" : [ 0.906726, 0.564767, 0.792785 ],
      "rotation" : [ -4.33479e-19, -1.3244e-20, -0.0305385, -0.999534 ]
    },
    {
      "name" : "DOOR_R",
      "translation" : [ -0.90673, 0.56477, 0.79279 ],
      "rotation" : [ -0, -0, 0.0305385, -0.999534 ]
    },
    {
      "name" : "LUMIRANK",
      "translation" : [ -0.48609, 0.955976, 0.666789 ],
      "rotation" : [ -0.197283, 0.0892893, -0.0945176, -0.971686 ]
    },
    {
      "name" : "TYRE_LF",
      "translation" : [ 0.844698, 0.339035, 1.33163 ],
      "rotation" : [ -0, -0, 0, -1 ]
    },
    {
      "name" : "TYRE_LR",
      "translation" : [ 0.834526, 0.350668, -1.33149 ],
      "rotation" : [ -0, -0, 0, -1 ]
    },
    {
      "name" : "TYRE_RR",
      "translation" : [ -0.83453, 0.350668, -1.33149 ],
      "rotation" : [ -0, -0, 0, -1 ]
    },
    {
      "name" : "TYRE_RF",
      "translation" : [ -0.8447, 0.339035, 1.33163 ],
      "rotation" : [ -0, -0, 0, -1 ]
    },
    {
      "name" : "SUSP_LF",
      "translation" : [ 0.844698, 0.339035, 1.33163 ],
      "rotation" : [ -0, -0, 0, -1 ]
    },
    {
      "name" : "DISC_LF",
      "translation" : [ 0.844698, 0.339035, 1.33163 ],
      "rotation" : [ -0, -0, 0, -1 ]
    },
    {
      "name" : "WHEEL_LF",
      "translation" : [ 0.844698, 0.339035, 1.33163 ],
      "rotation" : [ -0, -0, 0, -1 ]
    },
    {
      "name" : "SUSP_RF",
      "translation" : [ -0.8447, 0.339035, 1.33163 ],
      "rotation" : [ -0, -0, 0, -1 ]
    },
    {
      "name" : "DISC_RF",
      "translation" : [ -0.8447, 0.339035, 1.33163 ],
      "rotation" : [ -0, -0, 0, -1 ]
    },
    {
      "name" : "WHEEL_RF",
      "translation" : [ -0.8447, 0.339035, 1.33163 ],
      "rotation" : [ -0, -0, 0, -1 ]
    },
    {
      "name" : "SUSP_LR",
      "translation" : [ 0.834526, 0.350668, -1.33149 ],
      "rotation" : [ -0, -0, 0, -1 ]
    },
    {
      "name" : "DISC_LR",
      "translation" : [ 0.834526, 0.350668, -1.33149 ],
      "rotation" : [ -0, -0, 0, -1 ]
    },
    {
      "name" : "WHEEL_LR",
      "translation" : [ 0.834526, 0.350668, -1.33149 ],
      "rotation" : [ -0, -0, 0, -1 ]
    },
    {
      "name" : "SUSP_RR",
      "translation" : [ -0.83453, 0.350668, -1.33149 ],
      "rotation" : [ -0, -0, 0, -1 ]
    },
    {
      "name" : "DISC_RR",
      "translation" : [ -0.83453, 0.350668, -1.33149 ],
      "rotation" : [ -0, -0, 0, -1 ]
    },
    {
      "name" : "WHEEL_RR",
      "translation" : [ -0.83453, 0.350668, -1.33149 ],
      "rotation" : [ -0, -0, 0, -1 ]
    },
    {
      "name" : "FRONT_BUMPER",
      "translation" : [ 0, 0.614869, 1.59083 ],
      "rotation" : [ -0, -0, 0, -1 ]
    },
    {
      "name" : "DIFFUSER",
      "translation" : [ 0, 0.065597, -0.974672 ],
      "rotation" : [ -0, -0, 0, -1 ]
    },
    {
      "name" : "WING",
      "translation" : [ 0, 1.13223, -2.00538 ],
      "rotation" : [ -0, -0, 0, -1 ]
    },
    {
      "name" : "HOOD",
      "translation" : [ 6.86645e-06, 0.741718, 1.08285 ],
      "rotation" : [ -0.707107, -0, 0, -0.707107 ]
    }
  ],
  "skins" : [
    {
      "inverseBindMatrices" : 0,
      "skeleton" : 1,
      "joints" : [
        1,2,3,4,5,6,7,8,9,10,11,12,13,14,15,16,17,18,19,20,21,22,23,24,25,26,27,28
      ]
    }
  ],
  "materials" : [
    {
      "name" : "EXT_Carpaint_Inst",
      "pbrMetallicRoughness" : {
        "baseColorFactor" : [ 0.3, 0.3, 0.3, 1.0 ],
        "metallicFactor" : 0.1,
        "roughnessFactor" : 0.5
      }
    }
  ],
  "meshes" : [
    {
      "primitives" : [
        {
          "attributes" : {
            "POSITION" : 2,
            "NORMAL" : 3,
            "TANGENT" : 4,
            "COLOR_0" : 5,
            "JOINTS_0" : 6,
            "WEIGHTS_0" : 7,
            "TEXCOORD_0" : 8
          },
          "indices" : 1,
          "material" : 0
        }
      ],
      "name" : "ferrari_296_gt3_exterior_Lod4"
    }
  ],
  "buffers" : [
    {
      "uri" : "ferrari_296_gt3_exterior_Lod4.bin",
      "byteLength" : 867292
    }
  ],
  "bufferViews" : [
    {
      "buffer" : 0,
      "byteOffset" : 0,
      "byteLength" : 1792
    },
    {
      "buffer" : 0,
      "byteOffset" : 1792,
      "byteLength" : 27612
    },
    {
      "buffer" : 0,
      "byteOffset" : 29404,
      "byteLength" : 157104
    },
    {
      "buffer" : 0,
      "byteOffset" : 186508,
      "byteLength" : 157104
    },
    {
      "buffer" : 0,
      "byteOffset" : 343612,
      "byteLength" : 209472
    },
    {
      "buffer" : 0,
      "byteOffset" : 553084,
      "byteLength" : 52368
    },
    {
      "buffer" : 0,
      "byteOffset" : 605452,
      "byteLength" : 104736
    },
    {
      "buffer" : 0,
      "byteOffset" : 710188,
      "byteLength" : 52368
    },
    {
      "buffer" : 0,
      "byteOffset" : 762556,
      "byteLength" : 104736
    }
  ],
  "accessors" : [
    {
      "bufferView" : 0,
      "componentType" : 5126,
      "count" : 28,
      "type" : "MAT4"
    },
    {
      "bufferView" : 1,
      "componentType" : 5123,
      "count" : 13806,
      "type" : "SCALAR"
    },
    {
      "bufferView" : 2,
      "min" : [ -1.18415, 0.00739075, -2.25224 ],
      "max" : [ 1.18415, 1.17628, 2.47435 ],
      "componentType" : 5126,
      "count" : 13092,
      "type" : "VEC3"
    },
    {
      "bufferView" : 3,
      "componentType" : 5126,
      "count" : 13092,
      "type" : "VEC3"
    },
    {
      "bufferView" : 4,
      "componentType" : 5126,
      "count" : 13092,
      "type" : "VEC4"
    },
    {
      "bufferView" : 5,
      "normalized" : true,
      "componentType" : 5121,
      "count" : 13092,
      "type" : "VEC4"
    },
    {
      "bufferView" : 6,
      "componentType" : 5123,
      "count" : 13092,
      "type" : "VEC4"
    },
    {
      "bufferView" : 7,
      "normalized" : true,
      "componentType" : 5121,
      "count" : 13092,
      "type" : "VEC4"
    },
    {
      "bufferView" : 8,
      "componentType" : 5126,
      "count" : 13092,
      "type" : "VEC2"
    }
  ]
}
