{
  "asset" : {
    "generator" : "UE Viewer (umodel) build 1589",
    "version" : "2.0"
  },
  "scene" : 0,
  "scenes" : [
    {
      "nodes" : [ 0 ]
    }
  ],
  "nodes" : [
    {
      "name" : "ktm_xbow_gt4_exterior_Lod4",
      "mesh" : 0,
      "skin" : 0,
      "children" : [ 1 ]
    },
    {
      "name" : "KTM_XBOW_GT4",
      "children" : [ 2 ],
      "translation" : [ 0, 0, 0 ],
      "rotation" : [ -0, -0, -0, 1 ]
    },
    {
      "name" : "CAR_BODY",
      "children" : [ 3, 4, 5, 6, 7, 8, 9, 10, 11, 12, 13, 14, 20, 21, 22, 23, 24, 25, 26, 27 ],
      "translation" : [ 0, 0, -0 ],
      "rotation" : [ -0, -0, 0, -1 ]
    },
    {
      "name" : "DISC_LF",
      "translation" : [ 0.821, 0.311734, 1.29635 ],
      "rotation" : [ 2.98023e-07, -2.53906e-25, 7.56699e-32, -1 ]
    },
    {
      "name" : "SUSP_LF",
      "translation" : [ 0.821, 0.311734, 1.29635 ],
      "rotation" : [ 5.96046e-08, 2.63902e-24, -1.57298e-31, -1 ]
    },
    {
      "name" : "DISC_RF",
      "translation" : [ -0.821, 0.311734, 1.29635 ],
      "rotation" : [ 2.98023e-07, -2.53906e-25, 7.56699e-32, -1 ]
    },
    {
      "name" : "SUSP_RF",
      "translation" : [ -0.821, 0.311734, 1.29635 ],
      "rotation" : [ 2.98023e-07, 2.53906e-25, -7.56699e-32, -1 ]
    },
    {
      "name" : "DISC_RR",
      "translation" : [ -0.821, 0.317306, -1.30088 ],
      "rotation" : [ 2.98023e-07, -2.53906e-25, 7.56699e-32, -1 ]
    },
    {
      "name" : "DISC_LR",
      "translation" : [ 0.821, 0.317306, -1.30088 ],
      "rotation" : [ 2.98023e-07, 3.20187e-22, 3.17637e-22, -1 ]
    },
    {
      "name" : "SUSP_RR",
      "translation" : [ -0.821, 0.317306, -1.30088 ],
      "rotation" : [ 2.98023e-07, 2.53906e-25, -7.56699e-32, -1 ]
    },
    {
      "name" : "SUSP_LR",
      "translation" : [ 0.821, 0.317306, -1.30088 ],
      "rotation" : [ 5.96046e-08, -3.24131e-22, -3.24255e-22, -1 ]
    },
    {
      "name" : "DIFFUSER",
      "translation" : [ 0, 0.0532384, -0.463636 ],
      "rotation" : [ -0, -0, 0, -1 ]
    },
    {
      "name" : "WING",
      "translation" : [ 0, 1.01808, -1.79138 ],
      "rotation" : [ -0, -0, 0, -1 ]
    },
    {
      "name" : "FRONT_BUMPER",
      "translation" : [ 0, 0.0570257, 1.59978 ],
      "rotation" : [ -0, -0, 0, -1 ]
    },
    {
      "name" : "DOOR_L",
      "children" : [ 15 ],
      "translation" : [ 0, 0.745296, 1.39412 ],
      "rotation" : [ -0, -0, 0, -1 ]
    },
    {
      "name" : "CANOPY_1",
      "children" : [ 16 ],
      "translation" : [ 0, -0.224113, 0.0341695 ],
      "rotation" : [ -0, -0, 0, -1 ]
    },
    {
      "name" : "CANOPY_2",
      "children" : [ 17, 19 ],
      "translation" : [ 0, 0.106565, -0.242548 ],
      "rotation" : [ -0, -0, 0, -1 ]
    },
    {
      "name" : "WIPER_1",
      "children" : [ 18 ],
      "translation" : [ 0.0801447, 0.0815445, -0.0527444 ],
      "rotation" : [ -0.830675, 0.189652, -0.138097, -0.504917 ]
    },
    {
      "name" : "WIPER_2",
      "translation" : [ -0.45595, 1.25014e-07, -9.44905e-08 ],
      "rotation" : [ 5.64103e-08, -0.116095, 7.82848e-08, -0.993238 ]
    },
    {
      "name" : "LUMIRANK",
      "translation" : [ -0.256287, 0.262844, -0.45561 ],
      "rotation" : [ -0.229417, 0.22525, -0.0599345, -0.945007 ]
    },
    {
      "name" : "WHEEL_LF",
      "translation" : [ 0.821, 0.311734, 1.29635 ],
      "rotation" : [ 9.53674e-07, -0, -0, -1 ]
    },
    {
      "name" : "WHEEL_RF",
      "translation" : [ -0.821, 0.311734, 1.29635 ],
      "rotation" : [ 2.7159e-07, 2.38419e-07, 6.47522e-14, -1 ]
    },
    {
      "name" : "WHEEL_RR",
      "translation" : [ -0.821, 0.317306, -1.30088 ],
      "rotation" : [ 2.7159e-07, 2.38419e-07, 6.47522e-14, -1 ]
    },
    {
      "name" : "WHEEL_LR",
      "translation" : [ 0.821, 0.317306, -1.30088 ],
      "rotation" : [ 1.78814e-07, 1.78814e-07, 3.19744e-14, -1 ]
    },
    {
      "name" : "TYRE_LF",
      "translation" : [ 0.821, 0.311734, 1.29635 ],
      "rotation" : [ 1.54289e-06, -0, -0, -1 ]
    },
    {
      "name" : "TYRE_LR",
      "translation" : [ 0.821, 0.317306, -1.30088 ],
      "rotation" : [ 3.34117e-07, 1.78814e-07, 5.97448e-14, -1 ]
    },
    {
      "name" : "TYRE_RR",
      "translation" : [ -0.821, 0.317306, -1.30088 ],
      "rotation" : [ 3.90799e-07, 2.38419e-07, 9.31739e-14, -1 ]
    },
    {
      "name" : "TYRE_RF",
      "translation" : [ -0.821, 0.311734, 1.29635 ],
      "rotation" : [ 3.90799e-07, 2.38419e-07, 9.31739e-14, -1 ]
    }
  ],
  "skins" : [
    {
      "inverseBindMatrices" : 0,
      "skeleton" : 1,
      "joints" : [
        1,2,3,4,5,6,7,8,9,10,11,12,13,14,15,16,17,18,19,20,21,22,23,24,25,26,27
      ]
    }
  ],
  "materials" : [
    {
      "name" : "EXT_Carpaint_Inst",
      "pbrMetallicRoughness" : {
        "baseColorFactor" : [ 0.3, 0.3, 0.3, 1.0 ],
        "metallicFactor" : 0.1,
        "roughnessFactor" : 0.5
      }
    }
  ],
  "meshes" : [
    {
      "primitives" : [
        {
          "attributes" : {
            "POSITION" : 2,
            "NORMAL" : 3,
            "TANGENT" : 4,
            "COLOR_0" : 5,
            "JOINTS_0" : 6,
            "WEIGHTS_0" : 7,
            "TEXCOORD_0" : 8
          },
          "indices" : 1,
          "material" : 0
        }
      ],
      "name" : "ktm_xbow_gt4_exterior_Lod4"
    }
  ],
  "buffers" : [
    {
      "uri" : "ktm_xbow_gt4_exterior_Lod4.bin",
      "byteLength" : 202784
    }
  ],
  "bufferViews" : [
    {
      "buffer" : 0,
      "byteOffset" : 0,
      "byteLength" : 1728
    },
    {
      "buffer" : 0,
      "byteOffset" : 1728,
      "byteLength" : 14880
    },
    {
      "buffer" : 0,
      "byteOffset" : 16608,
      "byteLength" : 34908
    },
    {
      "buffer" : 0,
      "byteOffset" : 51516,
      "byteLength" : 34908
    },
    {
      "buffer" : 0,
      "byteOffset" : 86424,
      "byteLength" : 46544
    },
    {
      "buffer" : 0,
      "byteOffset" : 132968,
      "byteLength" : 11636
    },
    {
      "buffer" : 0,
      "byteOffset" : 144604,
      "byteLength" : 23272
    },
    {
      "buffer" : 0,
      "byteOffset" : 167876,
      "byteLength" : 11636
    },
    {
      "buffer" : 0,
      "byteOffset" : 179512,
      "byteLength" : 23272
    }
  ],
  "accessors" : [
    {
      "bufferView" : 0,
      "componentType" : 5126,
      "count" : 27,
      "type" : "MAT4"
    },
    {
      "bufferView" : 1,
      "componentType" : 5123,
      "count" : 7440,
      "type" : "SCALAR"
    },
    {
      "bufferView" : 2,
      "min" : [ -0.981766, -0.019197, -1.93233 ],
      "max" : [ 0.981513, 1.12108, 2.17462 ],
      "componentType" : 5126,
      "count" : 2909,
      "type" : "VEC3"
    },
    {
      "bufferView" : 3,
      "componentType" : 5126,
      "count" : 2909,
      "type" : "VEC3"
    },
    {
      "bufferView" : 4,
      "componentType" : 5126,
      "count" : 2909,
      "type" : "VEC4"
    },
    {
      "bufferView" : 5,
      "normalized" : true,
      "componentType" : 5121,
      "count" : 2909,
      "type" : "VEC4"
    },
    {
      "bufferView" : 6,
      "componentType" : 5123,
      "count" : 2909,
      "type" : "VEC4"
    },
    {
      "bufferView" : 7,
      "normalized" : true,
      "componentType" : 5121,
      "count" : 2909,
      "type" : "VEC4"
    },
    {
      "bufferView" : 8,
      "componentType" : 5126,
      "count" : 2909,
      "type" : "VEC2"
    }
  ]
}
