{
  "asset" : {
    "generator" : "UE Viewer (umodel) build 1589",
    "version" : "2.0"
  },
  "scene" : 0,
  "scenes" : [
    {
      "nodes" : [ 0 ]
    }
  ],
  "nodes" : [
    {
      "name" : "ktm_xbow_gt4_rim_lf_Lod1",
      "mesh" : 0
    }
  ],
  "materials" : [
    {
      "name" : "EXT_RIM",
      "pbrMetallicRoughness" : {
        "baseColorFactor" : [ 0.3, 0.3, 0.3, 1.0 ],
        "metallicFactor" : 0.1,
        "roughnessFactor" : 0.5
      }
    },
    {
      "name" : "EXT_Rim_Decals",
      "pbrMetallicRoughness" : {
        "baseColorFactor" : [ 0.9, 0.3, 0.3, 1.0 ],
        "metallicFactor" : 0.1,
        "roughnessFactor" : 0.5
      }
    }
  ],
  "meshes" : [
    {
      "primitives" : [
        {
          "attributes" : {
            "POSITION" : 1,
            "NORMAL" : 2,
            "TANGENT" : 3,
            "TEXCOORD_0" : 4,
            "TEXCOORD_1" : 5
          },
          "indices" : 0,
          "material" : 0
        },
        {
          "attributes" : {
            "POSITION" : 7,
            "NORMAL" : 8,
            "TANGENT" : 9,
            "TEXCOORD_0" : 10,
            "TEXCOORD_1" : 11
          },
          "indices" : 6,
          "material" : 1
        }
      ],
      "name" : "ktm_xbow_gt4_rim_lf_Lod1"
    }
  ],
  "buffers" : [
    {
      "uri" : "ktm_xbow_gt4_rim_lf_Lod1.bin",
      "byteLength" : 182984
    }
  ],
  "bufferViews" : [
    {
      "buffer" : 0,
      "byteOffset" : 0,
      "byteLength" : 22116
    },
    {
      "buffer" : 0,
      "byteOffset" : 22116,
      "byteLength" : 33936
    },
    {
      "buffer" : 0,
      "byteOffset" : 56052,
      "byteLength" : 33936
    },
    {
      "buffer" : 0,
      "byteOffset" : 89988,
      "byteLength" : 45248
    },
    {
      "buffer" : 0,
      "byteOffset" : 135236,
      "byteLength" : 22624
    },
    {
      "buffer" : 0,
      "byteOffset" : 157860,
      "byteLength" : 22624
    },
    {
      "buffer" : 0,
      "byteOffset" : 180484,
      "byteLength" : 260
    },
    {
      "buffer" : 0,
      "byteOffset" : 180744,
      "byteLength" : 480
    },
    {
      "buffer" : 0,
      "byteOffset" : 181224,
      "byteLength" : 480
    },
    {
      "buffer" : 0,
      "byteOffset" : 181704,
      "byteLength" : 640
    },
    {
      "buffer" : 0,
      "byteOffset" : 182344,
      "byteLength" : 320
    },
    {
      "buffer" : 0,
      "byteOffset" : 182664,
      "byteLength" : 320
    }
  ],
  "accessors" : [
    {
      "bufferView" : 0,
      "componentType" : 5123,
      "count" : 11058,
      "type" : "SCALAR"
    },
    {
      "bufferView" : 1,
      "min" : [ -0.138192, -0.248412, -0.24923 ],
      "max" : [ 0.141925, 0.24892, 0.24923 ],
      "componentType" : 5126,
      "count" : 2828,
      "type" : "VEC3"
    },
    {
      "bufferView" : 2,
      "componentType" : 5126,
      "count" : 2828,
      "type" : "VEC3"
    },
    {
      "bufferView" : 3,
      "componentType" : 5126,
      "count" : 2828,
      "type" : "VEC4"
    },
    {
      "bufferView" : 4,
      "componentType" : 5126,
      "count" : 2828,
      "type" : "VEC2"
    },
    {
      "bufferView" : 5,
      "componentType" : 5126,
      "count" : 2828,
      "type" : "VEC2"
    },
    {
      "bufferView" : 6,
      "componentType" : 5123,
      "count" : 129,
      "type" : "SCALAR"
    },
    {
      "bufferView" : 7,
      "min" : [ 0.13123, -0.0833406, -0.0843142 ],
      "max" : [ 0.138696, 0.0833351, 0.0843089 ],
      "componentType" : 5126,
      "count" : 40,
      "type" : "VEC3"
    },
    {
      "bufferView" : 8,
      "componentType" : 5126,
      "count" : 40,
      "type" : "VEC3"
    },
    {
      "bufferView" : 9,
      "componentType" : 5126,
      "count" : 40,
      "type" : "VEC4"
    },
    {
      "bufferView" : 10,
      "componentType" : 5126,
      "count" : 40,
      "type" : "VEC2"
    },
    {
      "bufferView" : 11,
      "componentType" : 5126,
      "count" : 40,
      "type" : "VEC2"
    }
  ]
}
