{
  "asset" : {
    "generator" : "UE Viewer (umodel) build 1589",
    "version" : "2.0"
  },
  "scene" : 0,
  "scenes" : [
    {
      "nodes" : [ 0 ]
    }
  ],
  "nodes" : [
    {
      "name" : "mclaren_650s_gt3_rim_lf_Lod1",
      "mesh" : 0
    }
  ],
  "materials" : [
    {
      "name" : "EXT_RIM",
      "pbrMetallicRoughness" : {
        "baseColorFactor" : [ 0.3, 0.3, 0.3, 1.0 ],
        "metallicFactor" : 0.1,
        "roughnessFactor" : 0.5
      }
    }
  ],
  "meshes" : [
    {
      "primitives" : [
        {
          "attributes" : {
            "POSITION" : 1,
            "NORMAL" : 2,
            "TANGENT" : 3,
            "TEXCOORD_0" : 4,
            "TEXCOORD_1" : 5
          },
          "indices" : 0,
          "material" : 0
        }
      ],
      "name" : "mclaren_650s_gt3_rim_lf_Lod1"
    }
  ],
  "buffers" : [
    {
      "uri" : "mclaren_650s_gt3_rim_lf_Lod1.bin",
      "byteLength" : 315900
    }
  ],
  "bufferViews" : [
    {
      "buffer" : 0,
      "byteOffset" : 0,
      "byteLength" : 38756
    },
    {
      "buffer" : 0,
      "byteOffset" : 38756,
      "byteLength" : 59388
    },
    {
      "buffer" : 0,
      "byteOffset" : 98144,
      "byteLength" : 59388
    },
    {
      "buffer" : 0,
      "byteOffset" : 157532,
      "byteLength" : 79184
    },
    {
      "buffer" : 0,
      "byteOffset" : 236716,
      "byteLength" : 39592
    },
    {
      "buffer" : 0,
      "byteOffset" : 276308,
      "byteLength" : 39592
    }
  ],
  "accessors" : [
    {
      "bufferView" : 0,
      "componentType" : 5123,
      "count" : 19377,
      "type" : "SCALAR"
    },
    {
      "bufferView" : 1,
      "min" : [ -0.169419, -0.250287, -0.24918 ],
      "max" : [ 0.167434, 0.249581, 0.249384 ],
      "componentType" : 5126,
      "count" : 4949,
      "type" : "VEC3"
    },
    {
      "bufferView" : 2,
      "componentType" : 5126,
      "count" : 4949,
      "type" : "VEC3"
    },
    {
      "bufferView" : 3,
      "componentType" : 5126,
      "count" : 4949,
      "type" : "VEC4"
    },
    {
      "bufferView" : 4,
      "componentType" : 5126,
      "count" : 4949,
      "type" : "VEC2"
    },
    {
      "bufferView" : 5,
      "componentType" : 5126,
      "count" : 4949,
      "type" : "VEC2"
    }
  ]
}
