{
  "asset" : {
    "generator" : "UE Viewer (umodel) build 1589",
    "version" : "2.0"
  },
  "scene" : 0,
  "scenes" : [
    {
      "nodes" : [ 0 ]
    }
  ],
  "nodes" : [
    {
      "name" : "mclaren_650s_gt3_rim_rr_Lod1",
      "mesh" : 0
    }
  ],
  "materials" : [
    {
      "name" : "EXT_RIM",
      "pbrMetallicRoughness" : {
        "baseColorFactor" : [ 0.3, 0.3, 0.3, 1.0 ],
        "metallicFactor" : 0.1,
        "roughnessFactor" : 0.5
      }
    }
  ],
  "meshes" : [
    {
      "primitives" : [
        {
          "attributes" : {
            "POSITION" : 1,
            "NORMAL" : 2,
            "TANGENT" : 3,
            "TEXCOORD_0" : 4,
            "TEXCOORD_1" : 5
          },
          "indices" : 0,
          "material" : 0
        }
      ],
      "name" : "mclaren_650s_gt3_rim_rr_Lod1"
    }
  ],
  "buffers" : [
    {
      "uri" : "mclaren_650s_gt3_rim_rr_Lod1.bin",
      "byteLength" : 390920
    }
  ],
  "bufferViews" : [
    {
      "buffer" : 0,
      "byteOffset" : 0,
      "byteLength" : 46968
    },
    {
      "buffer" : 0,
      "byteOffset" : 46968,
      "byteLength" : 73704
    },
    {
      "buffer" : 0,
      "byteOffset" : 120672,
      "byteLength" : 73704
    },
    {
      "buffer" : 0,
      "byteOffset" : 194376,
      "byteLength" : 98272
    },
    {
      "buffer" : 0,
      "byteOffset" : 292648,
      "byteLength" : 49136
    },
    {
      "buffer" : 0,
      "byteOffset" : 341784,
      "byteLength" : 49136
    }
  ],
  "accessors" : [
    {
      "bufferView" : 0,
      "componentType" : 5123,
      "count" : 23484,
      "type" : "SCALAR"
    },
    {
      "bufferView" : 1,
      "min" : [ -0.177084, -0.249675, -0.24917 ],
      "max" : [ 0.177174, 0.249566, 0.249172 ],
      "componentType" : 5126,
      "count" : 6142,
      "type" : "VEC3"
    },
    {
      "bufferView" : 2,
      "componentType" : 5126,
      "count" : 6142,
      "type" : "VEC3"
    },
    {
      "bufferView" : 3,
      "componentType" : 5126,
      "count" : 6142,
      "type" : "VEC4"
    },
    {
      "bufferView" : 4,
      "componentType" : 5126,
      "count" : 6142,
      "type" : "VEC2"
    },
    {
      "bufferView" : 5,
      "componentType" : 5126,
      "count" : 6142,
      "type" : "VEC2"
    }
  ]
}
