{
  "asset" : {
    "generator" : "UE Viewer (umodel) build 1589",
    "version" : "2.0"
  },
  "scene" : 0,
  "scenes" : [
    {
      "nodes" : [ 0 ]
    }
  ],
  "nodes" : [
    {
      "name" : "ferrari_488_challenge_evo_exterior_Lod4",
      "mesh" : 0,
      "skin" : 0,
      "children" : [ 1 ]
    },
    {
      "name" : "FERRARI_488_GT3",
      "children" : [ 2 ],
      "translation" : [ 6.79899e-06, 0, 0 ],
      "rotation" : [ -0, -0, -0, 1 ]
    },
    {
      "name" : "CAR_BODY",
      "children" : [ 3, 4, 5, 6, 7, 8, 9, 10, 11, 12, 13, 14, 15, 16, 17, 18, 19, 20, 21, 22, 23, 24, 25, 26 ],
      "translation" : [ 0, 0, -0 ],
      "rotation" : [ -0, -0, 0, -1 ]
    },
    {
      "name" : "FRONT_BUMPER",
      "translation" : [ -6.79899e-06, 0.319775, 2.35186 ],
      "rotation" : [ -0, -0, 0, -1 ]
    },
    {
      "name" : "DOOR_L",
      "translation" : [ 0.905349, 0.543631, 0.853086 ],
      "rotation" : [ -0, -0, 0, -1 ]
    },
    {
      "name" : "DOOR_R",
      "translation" : [ -0.905007, 0.543631, 0.853086 ],
      "rotation" : [ -0, -0, 0, -1 ]
    },
    {
      "name" : "REAR_BUMPER",
      "translation" : [ -6.79899e-06, 0.319775, -1.97157 ],
      "rotation" : [ -0, -0, 0, -1 ]
    },
    {
      "name" : "WING",
      "translation" : [ -6.79899e-06, 1.12413, -1.98379 ],
      "rotation" : [ -0, -0, 0, -1 ]
    },
    {
      "name" : "LUMIRANK",
      "translation" : [ -0.518141, 0.996104, 0.736856 ],
      "rotation" : [ -0.222194, 0.171496, -0.0939424, -0.955193 ]
    },
    {
      "name" : "HOOD",
      "translation" : [ -6.7945e-06, 0.684066, 1.68913 ],
      "rotation" : [ -0, -0, 0, -1 ]
    },
    {
      "name" : "TYRE_LF",
      "translation" : [ 0.826105, 0.353744, 1.33341 ],
      "rotation" : [ -0, -0, 0, -1 ]
    },
    {
      "name" : "TYRE_LR",
      "translation" : [ 0.808534, 0.3693, -1.32751 ],
      "rotation" : [ -0, -0, 0, -1 ]
    },
    {
      "name" : "TYRE_RR",
      "translation" : [ -0.808507, 0.3693, -1.32751 ],
      "rotation" : [ -0, -0, 0, -1 ]
    },
    {
      "name" : "TYRE_RF",
      "translation" : [ -0.826107, 0.3537, 1.3334 ],
      "rotation" : [ -0, -0, 0, -1 ]
    },
    {
      "name" : "SUSP_LF",
      "translation" : [ 0.826105, 0.353744, 1.33341 ],
      "rotation" : [ -0, -0, 0, -1 ]
    },
    {
      "name" : "DISC_LF",
      "translation" : [ 0.826105, 0.353744, 1.33341 ],
      "rotation" : [ -0, -0, 0, -1 ]
    },
    {
      "name" : "WHEEL_LF",
      "translation" : [ 0.826105, 0.353744, 1.33341 ],
      "rotation" : [ -0, -0, 0, -1 ]
    },
    {
      "name" : "SUSP_RF",
      "translation" : [ -0.826107, 0.3537, 1.3334 ],
      "rotation" : [ -0, -0, 0, -1 ]
    },
    {
      "name" : "DISC_RF",
      "translation" : [ -0.826107, 0.3537, 1.3334 ],
      "rotation" : [ -0, -0, 0, -1 ]
    },
    {
      "name" : "WHEEL_RF",
      "translation" : [ -0.826107, 0.3537, 1.3334 ],
      "rotation" : [ -0, -0, 0, -1 ]
    },
    {
      "name" : "SUSP_LR",
      "translation" : [ 0.808534, 0.3693, -1.32751 ],
      "rotation" : [ -0, -0, 0, -1 ]
    },
    {
      "name" : "DISC_LR",
      "translation" : [ 0.808534, 0.3693, -1.32751 ],
      "rotation" : [ -0, -0, 0, -1 ]
    },
    {
      "name" : "WHEEL_LR",
      "translation" : [ 0.808534, 0.3693, -1.32751 ],
      "rotation" : [ -0, -0, 0, -1 ]
    },
    {
      "name" : "SUSP_RR",
      "translation" : [ -0.808507, 0.3693, -1.32751 ],
      "rotation" : [ -0, -0, 0, -1 ]
    },
    {
      "name" : "DISC_RR",
      "translation" : [ -0.808507, 0.3693, -1.32751 ],
      "rotation" : [ -0, -0, 0, -1 ]
    },
    {
      "name" : "WHEEL_RR",
      "translation" : [ -0.808507, 0.3693, -1.32751 ],
      "rotation" : [ -0, -0, 0, -1 ]
    },
    {
      "name" : "WIPER_1",
      "children" : [ 27 ],
      "translation" : [ 0.181521, 0.744699, 1.42248 ],
      "rotation" : [ -0.653101, -0.557309, 0.318335, -0.401907 ]
    },
    {
      "name" : "WIPER_2",
      "children" : [ 28 ],
      "translation" : [ 0.0481939, -0.204721, -0.0293801 ],
      "rotation" : [ 0.0154466, 0.0137343, 0.677077, -0.735622 ]
    },
    {
      "name" : "WIPER_3",
      "translation" : [ 0.305582, 0.0642976, -0.000837278 ],
      "rotation" : [ -0.0300782, 0.0373878, 0.67294, -0.738139 ]
    }
  ],
  "skins" : [
    {
      "inverseBindMatrices" : 0,
      "skeleton" : 1,
      "joints" : [
        1,2,3,4,5,6,7,8,9,10,11,12,13,14,15,16,17,18,19,20,21,22,23,24,25,26,27,28
      ]
    }
  ],
  "materials" : [
    {
      "name" : "EXT_Carpaint_Inst",
      "pbrMetallicRoughness" : {
        "baseColorFactor" : [ 0.3, 0.3, 0.3, 1.0 ],
        "metallicFactor" : 0.1,
        "roughnessFactor" : 0.5
      }
    }
  ],
  "meshes" : [
    {
      "primitives" : [
        {
          "attributes" : {
            "POSITION" : 2,
            "NORMAL" : 3,
            "TANGENT" : 4,
            "COLOR_0" : 5,
            "JOINTS_0" : 6,
            "WEIGHTS_0" : 7,
            "TEXCOORD_0" : 8,
            "TEXCOORD_1" : 9
          },
          "indices" : 1,
          "material" : 0
        }
      ],
      "name" : "ferrari_488_challenge_evo_exterior_Lod4"
    }
  ],
  "buffers" : [
    {
      "uri" : "ferrari_488_challenge_evo_exterior_Lod4.bin",
      "byteLength" : 138252
    }
  ],
  "bufferViews" : [
    {
      "buffer" : 0,
      "byteOffset" : 0,
      "byteLength" : 1792
    },
    {
      "buffer" : 0,
      "byteOffset" : 1792,
      "byteLength" : 8228
    },
    {
      "buffer" : 0,
      "byteOffset" : 10020,
      "byteLength" : 21372
    },
    {
      "buffer" : 0,
      "byteOffset" : 31392,
      "byteLength" : 21372
    },
    {
      "buffer" : 0,
      "byteOffset" : 52764,
      "byteLength" : 28496
    },
    {
      "buffer" : 0,
      "byteOffset" : 81260,
      "byteLength" : 7124
    },
    {
      "buffer" : 0,
      "byteOffset" : 88384,
      "byteLength" : 14248
    },
    {
      "buffer" : 0,
      "byteOffset" : 102632,
      "byteLength" : 7124
    },
    {
      "buffer" : 0,
      "byteOffset" : 109756,
      "byteLength" : 14248
    },
    {
      "buffer" : 0,
      "byteOffset" : 124004,
      "byteLength" : 14248
    }
  ],
  "accessors" : [
    {
      "bufferView" : 0,
      "componentType" : 5126,
      "count" : 28,
      "type" : "MAT4"
    },
    {
      "bufferView" : 1,
      "componentType" : 5123,
      "count" : 4113,
      "type" : "SCALAR"
    },
    {
      "bufferView" : 2,
      "min" : [ -1.01319, 0.0247297, -2.2239 ],
      "max" : [ 1.01319, 1.23141, 2.59209 ],
      "componentType" : 5126,
      "count" : 1781,
      "type" : "VEC3"
    },
    {
      "bufferView" : 3,
      "componentType" : 5126,
      "count" : 1781,
      "type" : "VEC3"
    },
    {
      "bufferView" : 4,
      "componentType" : 5126,
      "count" : 1781,
      "type" : "VEC4"
    },
    {
      "bufferView" : 5,
      "normalized" : true,
      "componentType" : 5121,
      "count" : 1781,
      "type" : "VEC4"
    },
    {
      "bufferView" : 6,
      "componentType" : 5123,
      "count" : 1781,
      "type" : "VEC4"
    },
    {
      "bufferView" : 7,
      "normalized" : true,
      "componentType" : 5121,
      "count" : 1781,
      "type" : "VEC4"
    },
    {
      "bufferView" : 8,
      "componentType" : 5126,
      "count" : 1781,
      "type" : "VEC2"
    },
    {
      "bufferView" : 9,
      "componentType" : 5126,
      "count" : 1781,
      "type" : "VEC2"
    }
  ]
}
