{
  "asset" : {
    "generator" : "UE Viewer (umodel) build 1589",
    "version" : "2.0"
  },
  "scene" : 0,
  "scenes" : [
    {
      "nodes" : [ 0 ]
    }
  ],
  "nodes" : [
    {
      "name" : "amr_v8_vantage_gt3_exterior_sprint_Lod4",
      "mesh" : 0,
      "skin" : 0,
      "children" : [ 1 ]
    },
    {
      "name" : "AM_VANTAGE_V8_GT3",
      "children" : [ 2 ],
      "translation" : [ 0, 0, 0 ],
      "rotation" : [ -0, -0, -0, 1 ]
    },
    {
      "name" : "CAR_BODY",
      "children" : [ 3, 4, 5, 6, 7, 8, 9, 10, 11, 12, 13, 14, 15, 16, 17, 18, 19, 20, 23, 24, 25, 26, 27, 28, 29 ],
      "translation" : [ 0, 0, -0 ],
      "rotation" : [ -0, -0, 0, -1 ]
    },
    {
      "name" : "DISC_LF",
      "translation" : [ 0.846503, 0.344303, 1.36447 ],
      "rotation" : [ 4.76837e-07, -0, -0, -1 ]
    },
    {
      "name" : "SUSP_LF",
      "translation" : [ 0.846503, 0.344303, 1.36447 ],
      "rotation" : [ 4.76837e-07, -0, -0, -1 ]
    },
    {
      "name" : "WHEEL_LF",
      "translation" : [ 0.846503, 0.344303, 1.36447 ],
      "rotation" : [ -0, -0, 0, -1 ]
    },
    {
      "name" : "DISC_RF",
      "translation" : [ -0.8465, 0.3443, 1.36447 ],
      "rotation" : [ 1.01971e-06, 2.38419e-07, 2.43117e-13, -1 ]
    },
    {
      "name" : "SUSP_RF",
      "translation" : [ -0.8465, 0.3443, 1.36447 ],
      "rotation" : [ 1.01971e-06, 2.38419e-07, 2.43117e-13, -1 ]
    },
    {
      "name" : "WHEEL_RF",
      "translation" : [ -0.8465, 0.3443, 1.36447 ],
      "rotation" : [ 9.28821e-11, 2.38419e-07, 2.21448e-17, -1 ]
    },
    {
      "name" : "DISC_RR",
      "translation" : [ -0.8385, 0.3456, -1.39673 ],
      "rotation" : [ 2.7159e-07, 2.38419e-07, 6.47522e-14, -1 ]
    },
    {
      "name" : "DISC_LR",
      "translation" : [ 0.8385, 0.345595, -1.39673 ],
      "rotation" : [ 1.78814e-07, 1.78814e-07, 3.19744e-14, -1 ]
    },
    {
      "name" : "WHEEL_RR",
      "translation" : [ -0.8385, 0.3456, -1.39673 ],
      "rotation" : [ 2.7159e-07, 2.38419e-07, 6.47522e-14, -1 ]
    },
    {
      "name" : "SUSP_RR",
      "translation" : [ -0.8385, 0.3456, -1.39673 ],
      "rotation" : [ 2.7159e-07, 2.38419e-07, 6.47522e-14, -1 ]
    },
    {
      "name" : "WHEEL_LR",
      "translation" : [ 0.8385, 0.345595, -1.39673 ],
      "rotation" : [ 1.78814e-07, 1.78814e-07, 3.19744e-14, -1 ]
    },
    {
      "name" : "SUSP_LR",
      "translation" : [ 0.8385, 0.345595, -1.39673 ],
      "rotation" : [ 1.78814e-07, 1.78814e-07, 3.19744e-14, -1 ]
    },
    {
      "name" : "TYRE_LF",
      "translation" : [ 0.846503, 0.344303, 1.36447 ],
      "rotation" : [ 6.24141e-11, -0, -0, -1 ]
    },
    {
      "name" : "TYRE_LR",
      "translation" : [ 0.8385, 0.345595, -1.39673 ],
      "rotation" : [ 3.34117e-07, 1.78814e-07, 5.97448e-14, -1 ]
    },
    {
      "name" : "TYRE_RR",
      "translation" : [ -0.8385, 0.3456, -1.39673 ],
      "rotation" : [ 3.90799e-07, 2.38419e-07, 9.31739e-14, -1 ]
    },
    {
      "name" : "TYRE_RF",
      "translation" : [ -0.8465, 0.3443, 1.36447 ],
      "rotation" : [ 7.7307e-12, 2.38419e-07, 1.84314e-18, -1 ]
    },
    {
      "name" : "LUMIRANK",
      "translation" : [ -0.481482, 1.06594, 0.193252 ],
      "rotation" : [ -0.180779, 0.0286404, -0.0782072, -0.979991 ]
    },
    {
      "name" : "WIPER_1",
      "children" : [ 21 ],
      "translation" : [ 0, 0.840424, 0.771074 ],
      "rotation" : [ -0.24659, -0, 0, -0.96912 ]
    },
    {
      "name" : "WIPER_2",
      "children" : [ 22 ],
      "translation" : [ 0, 0.0260599, -0.0347638 ],
      "rotation" : [ -3.25384e-09, -2.52637e-09, -7.45873e-10, -1 ]
    },
    {
      "name" : "WIPER_3",
      "translation" : [ 3.46479e-08, -0.0252824, -0.415739 ],
      "rotation" : [ 0.0339102, 8.14925e-09, -2.39494e-07, -0.999425 ]
    },
    {
      "name" : "FRONT_BUMPER",
      "translation" : [ -0.00235977, 0.547344, 2.16006 ],
      "rotation" : [ -0, -0, 0, -1 ]
    },
    {
      "name" : "HOOD",
      "translation" : [ 0, 0.825155, 0.513507 ],
      "rotation" : [ -0, -0, 0, -1 ]
    },
    {
      "name" : "REAR_BUMPER",
      "translation" : [ 0, 0.809819, -2.23775 ],
      "rotation" : [ -0, -0, 0, -1 ]
    },
    {
      "name" : "WING",
      "translation" : [ 0, 1.07131, -2.12448 ],
      "rotation" : [ -0, -0, 0, -1 ]
    },
    {
      "name" : "DOOR_L",
      "translation" : [ 0.877189, 0.449738, 0.547833 ],
      "rotation" : [ 0.091316, -0.00571446, -0.0634047, -0.993785 ]
    },
    {
      "name" : "DOOR_R",
      "translation" : [ -0.87719, 0.449738, 0.547833 ],
      "rotation" : [ 0.0913159, 0.00571716, 0.0634009, -0.993785 ]
    },
    {
      "name" : "DIFFUSER",
      "translation" : [ 0, 0.068239, -1.38735 ],
      "rotation" : [ -0, -0, 0, -1 ]
    }
  ],
  "skins" : [
    {
      "inverseBindMatrices" : 0,
      "skeleton" : 1,
      "joints" : [
        1,2,3,4,5,6,7,8,9,10,11,12,13,14,15,16,17,18,19,20,21,22,23,24,25,26,27,28,29
      ]
    }
  ],
  "materials" : [
    {
      "name" : "EXT_Carpaint_Inst",
      "pbrMetallicRoughness" : {
        "baseColorFactor" : [ 0.3, 0.3, 0.3, 1.0 ],
        "metallicFactor" : 0.1,
        "roughnessFactor" : 0.5
      }
    }
  ],
  "meshes" : [
    {
      "primitives" : [
        {
          "attributes" : {
            "POSITION" : 2,
            "NORMAL" : 3,
            "TANGENT" : 4,
            "COLOR_0" : 5,
            "JOINTS_0" : 6,
            "WEIGHTS_0" : 7,
            "TEXCOORD_0" : 8
          },
          "indices" : 1,
          "material" : 0
        }
      ],
      "name" : "amr_v8_vantage_gt3_exterior_sprint_Lod4"
    }
  ],
  "buffers" : [
    {
      "uri" : "amr_v8_vantage_gt3_exterior_sprint_Lod4.bin",
      "byteLength" : 377064
    }
  ],
  "bufferViews" : [
    {
      "buffer" : 0,
      "byteOffset" : 0,
      "byteLength" : 1856
    },
    {
      "buffer" : 0,
      "byteOffset" : 1856,
      "byteLength" : 29736
    },
    {
      "buffer" : 0,
      "byteOffset" : 31592,
      "byteLength" : 64776
    },
    {
      "buffer" : 0,
      "byteOffset" : 96368,
      "byteLength" : 64776
    },
    {
      "buffer" : 0,
      "byteOffset" : 161144,
      "byteLength" : 86368
    },
    {
      "buffer" : 0,
      "byteOffset" : 247512,
      "byteLength" : 21592
    },
    {
      "buffer" : 0,
      "byteOffset" : 269104,
      "byteLength" : 43184
    },
    {
      "buffer" : 0,
      "byteOffset" : 312288,
      "byteLength" : 21592
    },
    {
      "buffer" : 0,
      "byteOffset" : 333880,
      "byteLength" : 43184
    }
  ],
  "accessors" : [
    {
      "bufferView" : 0,
      "componentType" : 5126,
      "count" : 29,
      "type" : "MAT4"
    },
    {
      "bufferView" : 1,
      "componentType" : 5123,
      "count" : 14868,
      "type" : "SCALAR"
    },
    {
      "bufferView" : 2,
      "min" : [ -1.11017, -0.0108083, -2.35504 ],
      "max" : [ 1.11017, 1.21209, 2.35122 ],
      "componentType" : 5126,
      "count" : 5398,
      "type" : "VEC3"
    },
    {
      "bufferView" : 3,
      "componentType" : 5126,
      "count" : 5398,
      "type" : "VEC3"
    },
    {
      "bufferView" : 4,
      "componentType" : 5126,
      "count" : 5398,
      "type" : "VEC4"
    },
    {
      "bufferView" : 5,
      "normalized" : true,
      "componentType" : 5121,
      "count" : 5398,
      "type" : "VEC4"
    },
    {
      "bufferView" : 6,
      "componentType" : 5123,
      "count" : 5398,
      "type" : "VEC4"
    },
    {
      "bufferView" : 7,
      "normalized" : true,
      "componentType" : 5121,
      "count" : 5398,
      "type" : "VEC4"
    },
    {
      "bufferView" : 8,
      "componentType" : 5126,
      "count" : 5398,
      "type" : "VEC2"
    }
  ]
}
