{
  "asset" : {
    "generator" : "UE Viewer (umodel) build 1589",
    "version" : "2.0"
  },
  "scene" : 0,
  "scenes" : [
    {
      "nodes" : [ 0 ]
    }
  ],
  "nodes" : [
    {
      "name" : "amr_v8_vantage_gt3_rim_lr_Lod1",
      "mesh" : 0
    }
  ],
  "materials" : [
    {
      "name" : "EXT_RIM",
      "pbrMetallicRoughness" : {
        "baseColorFactor" : [ 0.3, 0.3, 0.3, 1.0 ],
        "metallicFactor" : 0.1,
        "roughnessFactor" : 0.5
      }
    }
  ],
  "meshes" : [
    {
      "primitives" : [
        {
          "attributes" : {
            "POSITION" : 1,
            "NORMAL" : 2,
            "TANGENT" : 3,
            "COLOR_0" : 4,
            "TEXCOORD_0" : 5,
            "TEXCOORD_1" : 6
          },
          "indices" : 0,
          "material" : 0
        }
      ],
      "name" : "amr_v8_vantage_gt3_rim_lr_Lod1"
    }
  ],
  "buffers" : [
    {
      "uri" : "amr_v8_vantage_gt3_rim_lr_Lod1.bin",
      "byteLength" : 202232
    }
  ],
  "bufferViews" : [
    {
      "buffer" : 0,
      "byteOffset" : 0,
      "byteLength" : 20672
    },
    {
      "buffer" : 0,
      "byteOffset" : 20672,
      "byteLength" : 36312
    },
    {
      "buffer" : 0,
      "byteOffset" : 56984,
      "byteLength" : 36312
    },
    {
      "buffer" : 0,
      "byteOffset" : 93296,
      "byteLength" : 48416
    },
    {
      "buffer" : 0,
      "byteOffset" : 141712,
      "byteLength" : 12104
    },
    {
      "buffer" : 0,
      "byteOffset" : 153816,
      "byteLength" : 24208
    },
    {
      "buffer" : 0,
      "byteOffset" : 178024,
      "byteLength" : 24208
    }
  ],
  "accessors" : [
    {
      "bufferView" : 0,
      "componentType" : 5123,
      "count" : 10335,
      "type" : "SCALAR"
    },
    {
      "bufferView" : 1,
      "min" : [ -0.17964, -0.251385, -0.252604 ],
      "max" : [ 0.179621, 0.251385, 0.252604 ],
      "componentType" : 5126,
      "count" : 3026,
      "type" : "VEC3"
    },
    {
      "bufferView" : 2,
      "componentType" : 5126,
      "count" : 3026,
      "type" : "VEC3"
    },
    {
      "bufferView" : 3,
      "componentType" : 5126,
      "count" : 3026,
      "type" : "VEC4"
    },
    {
      "bufferView" : 4,
      "normalized" : true,
      "componentType" : 5121,
      "count" : 3026,
      "type" : "VEC4"
    },
    {
      "bufferView" : 5,
      "componentType" : 5126,
      "count" : 3026,
      "type" : "VEC2"
    },
    {
      "bufferView" : 6,
      "componentType" : 5126,
      "count" : 3026,
      "type" : "VEC2"
    }
  ]
}
