{
  "asset" : {
    "generator" : "UE Viewer (umodel) build 1589",
    "version" : "2.0"
  },
  "scene" : 0,
  "scenes" : [
    {
      "nodes" : [ 0 ]
    }
  ],
  "nodes" : [
    {
      "name" : "amr_v8_vantage_gt3_rim_rf_Lod1",
      "mesh" : 0
    }
  ],
  "materials" : [
    {
      "name" : "EXT_RIM",
      "pbrMetallicRoughness" : {
        "baseColorFactor" : [ 0.3, 0.3, 0.3, 1.0 ],
        "metallicFactor" : 0.1,
        "roughnessFactor" : 0.5
      }
    }
  ],
  "meshes" : [
    {
      "primitives" : [
        {
          "attributes" : {
            "POSITION" : 1,
            "NORMAL" : 2,
            "TANGENT" : 3,
            "COLOR_0" : 4,
            "TEXCOORD_0" : 5,
            "TEXCOORD_1" : 6
          },
          "indices" : 0,
          "material" : 0
        }
      ],
      "name" : "amr_v8_vantage_gt3_rim_rf_Lod1"
    }
  ],
  "buffers" : [
    {
      "uri" : "amr_v8_vantage_gt3_rim_rf_Lod1.bin",
      "byteLength" : 202112
    }
  ],
  "bufferViews" : [
    {
      "buffer" : 0,
      "byteOffset" : 0,
      "byteLength" : 20672
    },
    {
      "buffer" : 0,
      "byteOffset" : 20672,
      "byteLength" : 36288
    },
    {
      "buffer" : 0,
      "byteOffset" : 56960,
      "byteLength" : 36288
    },
    {
      "buffer" : 0,
      "byteOffset" : 93248,
      "byteLength" : 48384
    },
    {
      "buffer" : 0,
      "byteOffset" : 141632,
      "byteLength" : 12096
    },
    {
      "buffer" : 0,
      "byteOffset" : 153728,
      "byteLength" : 24192
    },
    {
      "buffer" : 0,
      "byteOffset" : 177920,
      "byteLength" : 24192
    }
  ],
  "accessors" : [
    {
      "bufferView" : 0,
      "componentType" : 5123,
      "count" : 10335,
      "type" : "SCALAR"
    },
    {
      "bufferView" : 1,
      "min" : [ -0.169914, -0.251095, -0.252313 ],
      "max" : [ 0.169032, 0.251095, 0.252313 ],
      "componentType" : 5126,
      "count" : 3024,
      "type" : "VEC3"
    },
    {
      "bufferView" : 2,
      "componentType" : 5126,
      "count" : 3024,
      "type" : "VEC3"
    },
    {
      "bufferView" : 3,
      "componentType" : 5126,
      "count" : 3024,
      "type" : "VEC4"
    },
    {
      "bufferView" : 4,
      "normalized" : true,
      "componentType" : 5121,
      "count" : 3024,
      "type" : "VEC4"
    },
    {
      "bufferView" : 5,
      "componentType" : 5126,
      "count" : 3024,
      "type" : "VEC2"
    },
    {
      "bufferView" : 6,
      "componentType" : 5126,
      "count" : 3024,
      "type" : "VEC2"
    }
  ]
}
