{
  "asset" : {
    "generator" : "UE Viewer (umodel) build 1589",
    "version" : "2.0"
  },
  "scene" : 0,
  "scenes" : [
    {
      "nodes" : [ 0 ]
    }
  ],
  "nodes" : [
    {
      "name" : "porsche_992_gt3_r_exterior_Lod4",
      "mesh" : 0,
      "skin" : 0,
      "children" : [ 1 ]
    },
    {
      "name" : "PORSCHE_992_GT3_R",
      "children" : [ 2 ],
      "translation" : [ 0, 0, 0 ],
      "rotation" : [ -0, -0, -0, 1 ]
    },
    {
      "name" : "CAR_BODY",
      "children" : [ 3, 6, 7, 8, 9, 10, 11, 12, 13, 14, 15, 16, 17, 18, 19, 20, 21, 22, 23, 24, 25, 26, 27, 28, 29, 30 ],
      "translation" : [ -1.86443e-06, 0, -0 ],
      "rotation" : [ -5.96046e-08, -0, 0, -1 ]
    },
    {
      "name" : "WIPER_L_1",
      "children" : [ 4 ],
      "translation" : [ -1.19209e-07, 0.801025, 1.07989 ],
      "rotation" : [ -0.971359, -0.0106447, 0.0443376, 0.233202 ]
    },
    {
      "name" : "WIPER_L_2",
      "children" : [ 5 ],
      "translation" : [ 0.00278072, -0.0200942, 0.198518 ],
      "rotation" : [ -0.697953, -0.0116748, 0.71587, 0.0159669 ]
    },
    {
      "name" : "WIPER_L_3",
      "translation" : [ -0.383177, -0.0474835, -0.0111752 ],
      "rotation" : [ -0.719361, -0.0168135, 0.694127, -0.0206179 ]
    },
    {
      "name" : "WING",
      "translation" : [ 0.000411105, 1.21292, -2.13313 ],
      "rotation" : [ -1.78814e-07, -0, 0, -1 ]
    },
    {
      "name" : "WHEEL_RR",
      "translation" : [ -0.827328, 0.383122, -1.29106 ],
      "rotation" : [ 1.62789e-21, 3.79406e-21, -1.40687e-20, -1 ]
    },
    {
      "name" : "WHEEL_RF",
      "translation" : [ -0.845308, 0.369179, 1.22539 ],
      "rotation" : [ -3.26902e-20, -2.13973e-19, -6.57245e-20, -1 ]
    },
    {
      "name" : "WHEEL_LR",
      "translation" : [ 0.827334, 0.38312, -1.29108 ],
      "rotation" : [ -1.78814e-07, 1.36954e-20, -5.03455e-20, -1 ]
    },
    {
      "name" : "WHEEL_LF",
      "translation" : [ 0.845313, 0.36918, 1.22537 ],
      "rotation" : [ 2.8213e-07, -4.37114e-08, 4.37114e-08, -1 ]
    },
    {
      "name" : "TYRE_RR",
      "translation" : [ -0.827328, 0.383122, -1.29106 ],
      "rotation" : [ 1.62789e-21, 3.79406e-21, -1.40687e-20, -1 ]
    },
    {
      "name" : "TYRE_RF",
      "translation" : [ -0.845308, 0.36918, 1.22539 ],
      "rotation" : [ -3.26902e-20, -2.13973e-19, -6.57245e-20, -1 ]
    },
    {
      "name" : "TYRE_LR",
      "translation" : [ 0.827334, 0.38312, -1.29108 ],
      "rotation" : [ -1.78814e-07, 1.36954e-20, -5.03455e-20, -1 ]
    },
    {
      "name" : "TYRE_LF",
      "translation" : [ 0.845313, 0.369181, 1.22537 ],
      "rotation" : [ 2.8213e-07, -4.37114e-08, 4.37114e-08, -1 ]
    },
    {
      "name" : "SUSP_RR",
      "translation" : [ -0.827328, 0.383122, -1.29106 ],
      "rotation" : [ 6.61744e-24, -0, -0, -1 ]
    },
    {
      "name" : "SUSP_RF",
      "translation" : [ -0.845308, 0.36918, 1.22539 ],
      "rotation" : [ 6.61744e-24, -0, -0, -1 ]
    },
    {
      "name" : "SUSP_LR",
      "translation" : [ 0.827334, 0.38312, -1.29108 ],
      "rotation" : [ -1.78814e-07, -0, 0, -1 ]
    },
    {
      "name" : "SUSP_LF",
      "translation" : [ 0.845313, 0.369181, 1.22537 ],
      "rotation" : [ 2.8213e-07, -4.37114e-08, 4.37114e-08, -1 ]
    },
    {
      "name" : "REAR_BUMPER",
      "translation" : [ 3.38554e-07, 0.704107, -2.16194 ],
      "rotation" : [ -1.78814e-07, -0, 0, -1 ]
    },
    {
      "name" : "HOOD",
      "translation" : [ -1.19209e-07, 0.821215, 0.769982 ],
      "rotation" : [ -1.78814e-07, -0, 0, -1 ]
    },
    {
      "name" : "FRONT_BUMPER",
      "translation" : [ -2.71797e-07, 0.524005, 2.14367 ],
      "rotation" : [ -1.78814e-07, -0, 0, -1 ]
    },
    {
      "name" : "DOOR_R",
      "translation" : [ -0.826386, 0.69722, 0.642097 ],
      "rotation" : [ 0.022555, 0.011588, 0.0111872, -0.999616 ]
    },
    {
      "name" : "DOOR_L",
      "translation" : [ 0.826385, 0.69722, 0.642098 ],
      "rotation" : [ 0.0225547, -0.0115884, -0.0111872, -0.999616 ]
    },
    {
      "name" : "DISC_RR",
      "translation" : [ -0.827328, 0.383122, -1.29106 ],
      "rotation" : [ -1.35922e-20, -1.7187e-20, 5.31377e-27, -1 ]
    },
    {
      "name" : "DISC_RF",
      "translation" : [ -0.845308, 0.36918, 1.22539 ],
      "rotation" : [ -1.6226e-20, -2.61295e-20, 7.19441e-27, -1 ]
    },
    {
      "name" : "DISC_LR",
      "translation" : [ 0.827334, 0.38312, -1.29108 ],
      "rotation" : [ -1.78814e-07, -0, 0, -1 ]
    },
    {
      "name" : "DISC_LF",
      "translation" : [ 0.845313, 0.36918, 1.22537 ],
      "rotation" : [ -1.78814e-07, -0, 0, -1 ]
    },
    {
      "name" : "DIFFUSER",
      "translation" : [ 1.85966e-07, 0.0905329, -1.39992 ],
      "rotation" : [ -0, -0, 0, -1 ]
    },
    {
      "name" : "LIGHTS",
      "translation" : [ 3.33786e-08, 0, -0 ],
      "rotation" : [ -0, -0, 0, -1 ]
    },
    {
      "name" : "LUMIRANK",
      "translation" : [ -0.466195, 0.985469, 0.490036 ],
      "rotation" : [ -0.243794, 0.0866364, -0.105757, -0.960143 ]
    }
  ],
  "skins" : [
    {
      "inverseBindMatrices" : 0,
      "skeleton" : 1,
      "joints" : [
        1,2,3,4,5,6,7,8,9,10,11,12,13,14,15,16,17,18,19,20,21,22,23,24,25,26,27,28,29,30
      ]
    }
  ],
  "materials" : [
    {
      "name" : "EXT_Carpaint_Inst",
      "pbrMetallicRoughness" : {
        "baseColorFactor" : [ 0.3, 0.3, 0.3, 1.0 ],
        "metallicFactor" : 0.1,
        "roughnessFactor" : 0.5
      }
    }
  ],
  "meshes" : [
    {
      "primitives" : [
        {
          "attributes" : {
            "POSITION" : 2,
            "NORMAL" : 3,
            "TANGENT" : 4,
            "COLOR_0" : 5,
            "JOINTS_0" : 6,
            "WEIGHTS_0" : 7,
            "TEXCOORD_0" : 8,
            "TEXCOORD_1" : 9,
            "TEXCOORD_2" : 10,
            "TEXCOORD_3" : 11
          },
          "indices" : 1,
          "material" : 0
        }
      ],
      "name" : "porsche_992_gt3_r_exterior_Lod4"
    }
  ],
  "buffers" : [
    {
      "uri" : "porsche_992_gt3_r_exterior_Lod4.bin",
      "byteLength" : 677700
    }
  ],
  "bufferViews" : [
    {
      "buffer" : 0,
      "byteOffset" : 0,
      "byteLength" : 1920
    },
    {
      "buffer" : 0,
      "byteOffset" : 1920,
      "byteLength" : 41564
    },
    {
      "buffer" : 0,
      "byteOffset" : 43484,
      "byteLength" : 86484
    },
    {
      "buffer" : 0,
      "byteOffset" : 129968,
      "byteLength" : 86484
    },
    {
      "buffer" : 0,
      "byteOffset" : 216452,
      "byteLength" : 115312
    },
    {
      "buffer" : 0,
      "byteOffset" : 331764,
      "byteLength" : 28828
    },
    {
      "buffer" : 0,
      "byteOffset" : 360592,
      "byteLength" : 57656
    },
    {
      "buffer" : 0,
      "byteOffset" : 418248,
      "byteLength" : 28828
    },
    {
      "buffer" : 0,
      "byteOffset" : 447076,
      "byteLength" : 57656
    },
    {
      "buffer" : 0,
      "byteOffset" : 504732,
      "byteLength" : 57656
    },
    {
      "buffer" : 0,
      "byteOffset" : 562388,
      "byteLength" : 57656
    },
    {
      "buffer" : 0,
      "byteOffset" : 620044,
      "byteLength" : 57656
    }
  ],
  "accessors" : [
    {
      "bufferView" : 0,
      "componentType" : 5126,
      "count" : 30,
      "type" : "MAT4"
    },
    {
      "bufferView" : 1,
      "componentType" : 5123,
      "count" : 20781,
      "type" : "SCALAR"
    },
    {
      "bufferView" : 2,
      "min" : [ -1.0245, -0.00175426, -2.45937 ],
      "max" : [ 1.0245, 1.28204, 2.30799 ],
      "componentType" : 5126,
      "count" : 7207,
      "type" : "VEC3"
    },
    {
      "bufferView" : 3,
      "componentType" : 5126,
      "count" : 7207,
      "type" : "VEC3"
    },
    {
      "bufferView" : 4,
      "componentType" : 5126,
      "count" : 7207,
      "type" : "VEC4"
    },
    {
      "bufferView" : 5,
      "normalized" : true,
      "componentType" : 5121,
      "count" : 7207,
      "type" : "VEC4"
    },
    {
      "bufferView" : 6,
      "componentType" : 5123,
      "count" : 7207,
      "type" : "VEC4"
    },
    {
      "bufferView" : 7,
      "normalized" : true,
      "componentType" : 5121,
      "count" : 7207,
      "type" : "VEC4"
    },
    {
      "bufferView" : 8,
      "componentType" : 5126,
      "count" : 7207,
      "type" : "VEC2"
    },
    {
      "bufferView" : 9,
      "componentType" : 5126,
      "count" : 7207,
      "type" : "VEC2"
    },
    {
      "bufferView" : 10,
      "componentType" : 5126,
      "count" : 7207,
      "type" : "VEC2"
    },
    {
      "bufferView" : 11,
      "componentType" : 5126,
      "count" : 7207,
      "type" : "VEC2"
    }
  ]
}
