{
  "asset" : {
    "generator" : "UE Viewer (umodel) build 1589",
    "version" : "2.0"
  },
  "scene" : 0,
  "scenes" : [
    {
      "nodes" : [ 0 ]
    }
  ],
  "nodes" : [
    {
      "name" : "porsche_992_gt3_cup_rim_rf_Lod1",
      "mesh" : 0
    }
  ],
  "materials" : [
    {
      "name" : "EXT_RIM",
      "pbrMetallicRoughness" : {
        "baseColorFactor" : [ 0.3, 0.3, 0.3, 1.0 ],
        "metallicFactor" : 0.1,
        "roughnessFactor" : 0.5
      }
    }
  ],
  "meshes" : [
    {
      "primitives" : [
        {
          "attributes" : {
            "POSITION" : 1,
            "NORMAL" : 2,
            "TANGENT" : 3,
            "TEXCOORD_0" : 4,
            "TEXCOORD_1" : 5
          },
          "indices" : 0,
          "material" : 0
        }
      ],
      "name" : "porsche_992_gt3_cup_rim_rf_Lod1"
    }
  ],
  "buffers" : [
    {
      "uri" : "porsche_992_gt3_cup_rim_rf_Lod1.bin",
      "byteLength" : 268060
    }
  ],
  "bufferViews" : [
    {
      "buffer" : 0,
      "byteOffset" : 0,
      "byteLength" : 27372
    },
    {
      "buffer" : 0,
      "byteOffset" : 27372,
      "byteLength" : 51576
    },
    {
      "buffer" : 0,
      "byteOffset" : 78948,
      "byteLength" : 51576
    },
    {
      "buffer" : 0,
      "byteOffset" : 130524,
      "byteLength" : 68768
    },
    {
      "buffer" : 0,
      "byteOffset" : 199292,
      "byteLength" : 34384
    },
    {
      "buffer" : 0,
      "byteOffset" : 233676,
      "byteLength" : 34384
    }
  ],
  "accessors" : [
    {
      "bufferView" : 0,
      "componentType" : 5123,
      "count" : 13686,
      "type" : "SCALAR"
    },
    {
      "bufferView" : 1,
      "min" : [ -0.155375, -0.248043, -0.248026 ],
      "max" : [ 0.15904, 0.248758, 0.248117 ],
      "componentType" : 5126,
      "count" : 4298,
      "type" : "VEC3"
    },
    {
      "bufferView" : 2,
      "componentType" : 5126,
      "count" : 4298,
      "type" : "VEC3"
    },
    {
      "bufferView" : 3,
      "componentType" : 5126,
      "count" : 4298,
      "type" : "VEC4"
    },
    {
      "bufferView" : 4,
      "componentType" : 5126,
      "count" : 4298,
      "type" : "VEC2"
    },
    {
      "bufferView" : 5,
      "componentType" : 5126,
      "count" : 4298,
      "type" : "VEC2"
    }
  ]
}
