{
  "asset" : {
    "generator" : "UE Viewer (umodel) build 1589",
    "version" : "2.0"
  },
  "scene" : 0,
  "scenes" : [
    {
      "nodes" : [ 0 ]
    }
  ],
  "nodes" : [
    {
      "name" : "audi_r8_gt4_rim_lf_Lod1",
      "mesh" : 0
    }
  ],
  "materials" : [
    {
      "name" : "EXT_RIM",
      "pbrMetallicRoughness" : {
        "baseColorFactor" : [ 0.3, 0.3, 0.3, 1.0 ],
        "metallicFactor" : 0.1,
        "roughnessFactor" : 0.5
      }
    }
  ],
  "meshes" : [
    {
      "primitives" : [
        {
          "attributes" : {
            "POSITION" : 1,
            "NORMAL" : 2,
            "TANGENT" : 3,
            "TEXCOORD_0" : 4,
            "TEXCOORD_1" : 5
          },
          "indices" : 0,
          "material" : 0
        }
      ],
      "name" : "audi_r8_gt4_rim_lf_Lod1"
    }
  ],
  "buffers" : [
    {
      "uri" : "audi_r8_gt4_rim_lf_Lod1.bin",
      "byteLength" : 215944
    }
  ],
  "bufferViews" : [
    {
      "buffer" : 0,
      "byteOffset" : 0,
      "byteLength" : 28848
    },
    {
      "buffer" : 0,
      "byteOffset" : 28848,
      "byteLength" : 40092
    },
    {
      "buffer" : 0,
      "byteOffset" : 68940,
      "byteLength" : 40092
    },
    {
      "buffer" : 0,
      "byteOffset" : 109032,
      "byteLength" : 53456
    },
    {
      "buffer" : 0,
      "byteOffset" : 162488,
      "byteLength" : 26728
    },
    {
      "buffer" : 0,
      "byteOffset" : 189216,
      "byteLength" : 26728
    }
  ],
  "accessors" : [
    {
      "bufferView" : 0,
      "componentType" : 5123,
      "count" : 14424,
      "type" : "SCALAR"
    },
    {
      "bufferView" : 1,
      "min" : [ -0.152751, -0.249447, -0.249931 ],
      "max" : [ 0.150188, 0.249251, 0.250132 ],
      "componentType" : 5126,
      "count" : 3341,
      "type" : "VEC3"
    },
    {
      "bufferView" : 2,
      "componentType" : 5126,
      "count" : 3341,
      "type" : "VEC3"
    },
    {
      "bufferView" : 3,
      "componentType" : 5126,
      "count" : 3341,
      "type" : "VEC4"
    },
    {
      "bufferView" : 4,
      "componentType" : 5126,
      "count" : 3341,
      "type" : "VEC2"
    },
    {
      "bufferView" : 5,
      "componentType" : 5126,
      "count" : 3341,
      "type" : "VEC2"
    }
  ]
}
