{
  "asset" : {
    "generator" : "UE Viewer (umodel) build 1589",
    "version" : "2.0"
  },
  "scene" : 0,
  "scenes" : [
    {
      "nodes" : [ 0 ]
    }
  ],
  "nodes" : [
    {
      "name" : "audi_r8_gt4_rim_lr_Lod1",
      "mesh" : 0
    }
  ],
  "materials" : [
    {
      "name" : "EXT_RIM",
      "pbrMetallicRoughness" : {
        "baseColorFactor" : [ 0.3, 0.3, 0.3, 1.0 ],
        "metallicFactor" : 0.1,
        "roughnessFactor" : 0.5
      }
    }
  ],
  "meshes" : [
    {
      "primitives" : [
        {
          "attributes" : {
            "POSITION" : 1,
            "NORMAL" : 2,
            "TANGENT" : 3,
            "COLOR_0" : 4,
            "TEXCOORD_0" : 5,
            "TEXCOORD_1" : 6
          },
          "indices" : 0,
          "material" : 0
        }
      ],
      "name" : "audi_r8_gt4_rim_lr_Lod1"
    }
  ],
  "buffers" : [
    {
      "uri" : "audi_r8_gt4_rim_lr_Lod1.bin",
      "byteLength" : 242568
    }
  ],
  "bufferViews" : [
    {
      "buffer" : 0,
      "byteOffset" : 0,
      "byteLength" : 28848
    },
    {
      "buffer" : 0,
      "byteOffset" : 28848,
      "byteLength" : 42744
    },
    {
      "buffer" : 0,
      "byteOffset" : 71592,
      "byteLength" : 42744
    },
    {
      "buffer" : 0,
      "byteOffset" : 114336,
      "byteLength" : 56992
    },
    {
      "buffer" : 0,
      "byteOffset" : 171328,
      "byteLength" : 14248
    },
    {
      "buffer" : 0,
      "byteOffset" : 185576,
      "byteLength" : 28496
    },
    {
      "buffer" : 0,
      "byteOffset" : 214072,
      "byteLength" : 28496
    }
  ],
  "accessors" : [
    {
      "bufferView" : 0,
      "componentType" : 5123,
      "count" : 14424,
      "type" : "SCALAR"
    },
    {
      "bufferView" : 1,
      "min" : [ -0.156786, -0.249295, -0.249319 ],
      "max" : [ 0.157632, 0.249251, 0.250132 ],
      "componentType" : 5126,
      "count" : 3562,
      "type" : "VEC3"
    },
    {
      "bufferView" : 2,
      "componentType" : 5126,
      "count" : 3562,
      "type" : "VEC3"
    },
    {
      "bufferView" : 3,
      "componentType" : 5126,
      "count" : 3562,
      "type" : "VEC4"
    },
    {
      "bufferView" : 4,
      "normalized" : true,
      "componentType" : 5121,
      "count" : 3562,
      "type" : "VEC4"
    },
    {
      "bufferView" : 5,
      "componentType" : 5126,
      "count" : 3562,
      "type" : "VEC2"
    },
    {
      "bufferView" : 6,
      "componentType" : 5126,
      "count" : 3562,
      "type" : "VEC2"
    }
  ]
}
