{
  "asset" : {
    "generator" : "UE Viewer (umodel) build 1589",
    "version" : "2.0"
  },
  "scene" : 0,
  "scenes" : [
    {
      "nodes" : [ 0 ]
    }
  ],
  "nodes" : [
    {
      "name" : "audi_r8_gt4_rim_rr_Lod1",
      "mesh" : 0
    }
  ],
  "materials" : [
    {
      "name" : "EXT_RIM",
      "pbrMetallicRoughness" : {
        "baseColorFactor" : [ 0.3, 0.3, 0.3, 1.0 ],
        "metallicFactor" : 0.1,
        "roughnessFactor" : 0.5
      }
    }
  ],
  "meshes" : [
    {
      "primitives" : [
        {
          "attributes" : {
            "POSITION" : 1,
            "NORMAL" : 2,
            "TANGENT" : 3,
            "COLOR_0" : 4,
            "TEXCOORD_0" : 5,
            "TEXCOORD_1" : 6
          },
          "indices" : 0,
          "material" : 0
        }
      ],
      "name" : "audi_r8_gt4_rim_rr_Lod1"
    }
  ],
  "buffers" : [
    {
      "uri" : "audi_r8_gt4_rim_rr_Lod1.bin",
      "byteLength" : 242456
    }
  ],
  "bufferViews" : [
    {
      "buffer" : 0,
      "byteOffset" : 0,
      "byteLength" : 28856
    },
    {
      "buffer" : 0,
      "byteOffset" : 28856,
      "byteLength" : 42720
    },
    {
      "buffer" : 0,
      "byteOffset" : 71576,
      "byteLength" : 42720
    },
    {
      "buffer" : 0,
      "byteOffset" : 114296,
      "byteLength" : 56960
    },
    {
      "buffer" : 0,
      "byteOffset" : 171256,
      "byteLength" : 14240
    },
    {
      "buffer" : 0,
      "byteOffset" : 185496,
      "byteLength" : 28480
    },
    {
      "buffer" : 0,
      "byteOffset" : 213976,
      "byteLength" : 28480
    }
  ],
  "accessors" : [
    {
      "bufferView" : 0,
      "componentType" : 5123,
      "count" : 14427,
      "type" : "SCALAR"
    },
    {
      "bufferView" : 1,
      "min" : [ -0.157632, -0.249295, -0.250132 ],
      "max" : [ 0.156786, 0.249251, 0.249931 ],
      "componentType" : 5126,
      "count" : 3560,
      "type" : "VEC3"
    },
    {
      "bufferView" : 2,
      "componentType" : 5126,
      "count" : 3560,
      "type" : "VEC3"
    },
    {
      "bufferView" : 3,
      "componentType" : 5126,
      "count" : 3560,
      "type" : "VEC4"
    },
    {
      "bufferView" : 4,
      "normalized" : true,
      "componentType" : 5121,
      "count" : 3560,
      "type" : "VEC4"
    },
    {
      "bufferView" : 5,
      "componentType" : 5126,
      "count" : 3560,
      "type" : "VEC2"
    },
    {
      "bufferView" : 6,
      "componentType" : 5126,
      "count" : 3560,
      "type" : "VEC2"
    }
  ]
}
