{
  "asset" : {
    "generator" : "UE Viewer (umodel) build 1589",
    "version" : "2.0"
  },
  "scene" : 0,
  "scenes" : [
    {
      "nodes" : [ 0 ]
    }
  ],
  "nodes" : [
    {
      "name" : "bentley_continental_gt3_2016_exterior_sprint_Lod4",
      "mesh" : 0,
      "skin" : 0,
      "children" : [ 1 ]
    },
    {
      "name" : "2016_BENTLEY_GT3",
      "children" : [ 2 ],
      "translation" : [ 0, 0, 0 ],
      "rotation" : [ -0, -0, -0, 1 ]
    },
    {
      "name" : "CAR_BODY",
      "children" : [ 3, 4, 5, 6, 7, 8, 9, 10, 11, 12, 13, 14, 15, 16, 17, 18, 19, 20, 21, 22, 23, 24, 25, 26, 29 ],
      "translation" : [ 0, 0, -0 ],
      "rotation" : [ -0, -0, 0, -1 ]
    },
    {
      "name" : "DOOR_L",
      "translation" : [ 0.890929, 0.606885, 0.830479 ],
      "rotation" : [ -0, -0, 0, -1 ]
    },
    {
      "name" : "DOOR_R",
      "translation" : [ -0.890929, 0.606885, 0.830479 ],
      "rotation" : [ -0, -0, 0, -1 ]
    },
    {
      "name" : "REAR_BUMPER",
      "translation" : [ 0, 0.0940688, -1.00064 ],
      "rotation" : [ -0, -0, 0, -1 ]
    },
    {
      "name" : "HOOD",
      "translation" : [ 0, 0.903758, 0.903898 ],
      "rotation" : [ -0, -0, 0, -1 ]
    },
    {
      "name" : "WING",
      "translation" : [ 0, 1.26248, -2.2068 ],
      "rotation" : [ -0, -0, 0, -1 ]
    },
    {
      "name" : "DISC_LF",
      "translation" : [ 0.825618, 0.344949, 1.45836 ],
      "rotation" : [ -0, -0, 0, -1 ]
    },
    {
      "name" : "SUSP_LF",
      "translation" : [ 0.825618, 0.344949, 1.45836 ],
      "rotation" : [ -0, -0, 0, -1 ]
    },
    {
      "name" : "WHEEL_LF",
      "translation" : [ 0.825618, 0.344949, 1.45836 ],
      "rotation" : [ -0, -0, 0, -1 ]
    },
    {
      "name" : "DISC_RF",
      "translation" : [ -0.825618, 0.344949, 1.45836 ],
      "rotation" : [ -5.96046e-08, -0, 0, -1 ]
    },
    {
      "name" : "SUSP_RF",
      "translation" : [ -0.825618, 0.344949, 1.45836 ],
      "rotation" : [ -5.96046e-08, -0, 0, -1 ]
    },
    {
      "name" : "WHEEL_RF",
      "translation" : [ -0.825618, 0.344949, 1.45836 ],
      "rotation" : [ -5.96046e-08, -0, 0, -1 ]
    },
    {
      "name" : "DISC_RR",
      "translation" : [ -0.82608, 0.344919, -1.28756 ],
      "rotation" : [ -5.96046e-08, -0, 0, -1 ]
    },
    {
      "name" : "DISC_LR",
      "translation" : [ 0.82608, 0.344919, -1.28756 ],
      "rotation" : [ -0, -0, 0, -1 ]
    },
    {
      "name" : "WHEEL_RR",
      "translation" : [ -0.82608, 0.344919, -1.28756 ],
      "rotation" : [ -5.96046e-08, -0, 0, -1 ]
    },
    {
      "name" : "SUSP_RR",
      "translation" : [ -0.82608, 0.344919, -1.28756 ],
      "rotation" : [ -5.96046e-08, -0, 0, -1 ]
    },
    {
      "name" : "WHEEL_LR",
      "translation" : [ 0.82608, 0.344919, -1.28756 ],
      "rotation" : [ -0, -0, 0, -1 ]
    },
    {
      "name" : "SUSP_LR",
      "translation" : [ 0.82608, 0.344919, -1.28756 ],
      "rotation" : [ -0, -0, 0, -1 ]
    },
    {
      "name" : "FRONT_BUMPER",
      "translation" : [ 0, 0.350917, 1.83891 ],
      "rotation" : [ -0, -0, 0, -1 ]
    },
    {
      "name" : "TYRE_LF",
      "translation" : [ 0.825618, 0.344949, 1.45836 ],
      "rotation" : [ 1.19209e-07, -0, -0, -1 ]
    },
    {
      "name" : "TYRE_LR",
      "translation" : [ 0.82608, 0.344919, -1.28756 ],
      "rotation" : [ 1.19209e-07, -0, -0, -1 ]
    },
    {
      "name" : "TYRE_RR",
      "translation" : [ -0.82608, 0.344919, -1.28756 ],
      "rotation" : [ 5.96046e-08, -0, -0, -1 ]
    },
    {
      "name" : "TYRE_RF",
      "translation" : [ -0.825618, 0.344949, 1.45836 ],
      "rotation" : [ 5.96046e-08, -0, -0, -1 ]
    },
    {
      "name" : "LUMIRANK",
      "translation" : [ 0.500227, 1.1016, 0.542726 ],
      "rotation" : [ -0.205601, -0.055622, 0.0583903, -0.975308 ]
    },
    {
      "name" : "WIPER_1",
      "children" : [ 27 ],
      "translation" : [ -0.0731979, 0.868133, 1.1051 ],
      "rotation" : [ 0.663344, -0.147904, 0.71387, -0.168787 ]
    },
    {
      "name" : "WIPER_2",
      "children" : [ 28 ],
      "translation" : [ -0.0411507, -0.0120374, 0.105843 ],
      "rotation" : [ 0.411971, -0.513834, 0.578751, 0.480939 ]
    },
    {
      "name" : "WIPER_3",
      "translation" : [ 0.420374, 0.00244659, 0.0109307 ],
      "rotation" : [ 0.0106426, -0.00189709, -0.00161889, -0.99994 ]
    },
    {
      "name" : "WIPER_4",
      "children" : [ 30 ],
      "translation" : [ -0.639502, 0.842775, 1.02578 ],
      "rotation" : [ -0.693497, 0.105043, -0.671708, 0.238403 ]
    },
    {
      "name" : "WIPER_5",
      "children" : [ 31 ],
      "translation" : [ -0.0212162, -0.0259805, 0.0876128 ],
      "rotation" : [ 0.545414, -0.383726, 0.552711, 0.499788 ]
    },
    {
      "name" : "WIPER_6",
      "translation" : [ 0.383067, -0.00273316, 0.010946 ],
      "rotation" : [ 0.109099, -0.000838616, 0.00780895, -0.994 ]
    }
  ],
  "skins" : [
    {
      "inverseBindMatrices" : 0,
      "skeleton" : 1,
      "joints" : [
        1,2,3,4,5,6,7,8,9,10,11,12,13,14,15,16,17,18,19,20,21,22,23,24,25,26,27,28,29,30,31
      ]
    }
  ],
  "materials" : [
    {
      "name" : "EXT_Carpaint_Inst",
      "pbrMetallicRoughness" : {
        "baseColorFactor" : [ 0.3, 0.3, 0.3, 1.0 ],
        "metallicFactor" : 0.1,
        "roughnessFactor" : 0.5
      }
    }
  ],
  "meshes" : [
    {
      "primitives" : [
        {
          "attributes" : {
            "POSITION" : 2,
            "NORMAL" : 3,
            "TANGENT" : 4,
            "COLOR_0" : 5,
            "JOINTS_0" : 6,
            "WEIGHTS_0" : 7,
            "TEXCOORD_0" : 8,
            "TEXCOORD_1" : 9
          },
          "indices" : 1,
          "material" : 0
        }
      ],
      "name" : "bentley_continental_gt3_2016_exterior_sprint_Lod4"
    }
  ],
  "buffers" : [
    {
      "uri" : "bentley_continental_gt3_2016_exterior_sprint_Lod4.bin",
      "byteLength" : 453000
    }
  ],
  "bufferViews" : [
    {
      "buffer" : 0,
      "byteOffset" : 0,
      "byteLength" : 1984
    },
    {
      "buffer" : 0,
      "byteOffset" : 1984,
      "byteLength" : 29888
    },
    {
      "buffer" : 0,
      "byteOffset" : 31872,
      "byteLength" : 70188
    },
    {
      "buffer" : 0,
      "byteOffset" : 102060,
      "byteLength" : 70188
    },
    {
      "buffer" : 0,
      "byteOffset" : 172248,
      "byteLength" : 93584
    },
    {
      "buffer" : 0,
      "byteOffset" : 265832,
      "byteLength" : 23396
    },
    {
      "buffer" : 0,
      "byteOffset" : 289228,
      "byteLength" : 46792
    },
    {
      "buffer" : 0,
      "byteOffset" : 336020,
      "byteLength" : 23396
    },
    {
      "buffer" : 0,
      "byteOffset" : 359416,
      "byteLength" : 46792
    },
    {
      "buffer" : 0,
      "byteOffset" : 406208,
      "byteLength" : 46792
    }
  ],
  "accessors" : [
    {
      "bufferView" : 0,
      "componentType" : 5126,
      "count" : 31,
      "type" : "MAT4"
    },
    {
      "bufferView" : 1,
      "componentType" : 5123,
      "count" : 14943,
      "type" : "SCALAR"
    },
    {
      "bufferView" : 2,
      "min" : [ -1.00709, 0.0171893, -2.43714 ],
      "max" : [ 1.00709, 1.33557, 2.46897 ],
      "componentType" : 5126,
      "count" : 5849,
      "type" : "VEC3"
    },
    {
      "bufferView" : 3,
      "componentType" : 5126,
      "count" : 5849,
      "type" : "VEC3"
    },
    {
      "bufferView" : 4,
      "componentType" : 5126,
      "count" : 5849,
      "type" : "VEC4"
    },
    {
      "bufferView" : 5,
      "normalized" : true,
      "componentType" : 5121,
      "count" : 5849,
      "type" : "VEC4"
    },
    {
      "bufferView" : 6,
      "componentType" : 5123,
      "count" : 5849,
      "type" : "VEC4"
    },
    {
      "bufferView" : 7,
      "normalized" : true,
      "componentType" : 5121,
      "count" : 5849,
      "type" : "VEC4"
    },
    {
      "bufferView" : 8,
      "componentType" : 5126,
      "count" : 5849,
      "type" : "VEC2"
    },
    {
      "bufferView" : 9,
      "componentType" : 5126,
      "count" : 5849,
      "type" : "VEC2"
    }
  ]
}
