{
  "asset" : {
    "generator" : "UE Viewer (umodel) build 1589",
    "version" : "2.0"
  },
  "scene" : 0,
  "scenes" : [
    {
      "nodes" : [ 0 ]
    }
  ],
  "nodes" : [
    {
      "name" : "bentley_continental_gt3_2016_rim_lf_Lod1",
      "mesh" : 0
    }
  ],
  "materials" : [
    {
      "name" : "EXT_RIM",
      "pbrMetallicRoughness" : {
        "baseColorFactor" : [ 0.3, 0.3, 0.3, 1.0 ],
        "metallicFactor" : 0.1,
        "roughnessFactor" : 0.5
      }
    },
    {
      "name" : "EXT_Rim_Decals",
      "pbrMetallicRoughness" : {
        "baseColorFactor" : [ 0.9, 0.3, 0.3, 1.0 ],
        "metallicFactor" : 0.1,
        "roughnessFactor" : 0.5
      }
    }
  ],
  "meshes" : [
    {
      "primitives" : [
        {
          "attributes" : {
            "POSITION" : 1,
            "NORMAL" : 2,
            "TANGENT" : 3,
            "TEXCOORD_0" : 4,
            "TEXCOORD_1" : 5
          },
          "indices" : 0,
          "material" : 0
        },
        {
          "attributes" : {
            "POSITION" : 7,
            "NORMAL" : 8,
            "TANGENT" : 9,
            "TEXCOORD_0" : 10,
            "TEXCOORD_1" : 11
          },
          "indices" : 6,
          "material" : 1
        }
      ],
      "name" : "bentley_continental_gt3_2016_rim_lf_Lod1"
    }
  ],
  "buffers" : [
    {
      "uri" : "bentley_continental_gt3_2016_rim_lf_Lod1.bin",
      "byteLength" : 327748
    }
  ],
  "bufferViews" : [
    {
      "buffer" : 0,
      "byteOffset" : 0,
      "byteLength" : 36732
    },
    {
      "buffer" : 0,
      "byteOffset" : 36732,
      "byteLength" : 61596
    },
    {
      "buffer" : 0,
      "byteOffset" : 98328,
      "byteLength" : 61596
    },
    {
      "buffer" : 0,
      "byteOffset" : 159924,
      "byteLength" : 82128
    },
    {
      "buffer" : 0,
      "byteOffset" : 242052,
      "byteLength" : 41064
    },
    {
      "buffer" : 0,
      "byteOffset" : 283116,
      "byteLength" : 41064
    },
    {
      "buffer" : 0,
      "byteOffset" : 324180,
      "byteLength" : 432
    },
    {
      "buffer" : 0,
      "byteOffset" : 324612,
      "byteLength" : 672
    },
    {
      "buffer" : 0,
      "byteOffset" : 325284,
      "byteLength" : 672
    },
    {
      "buffer" : 0,
      "byteOffset" : 325956,
      "byteLength" : 896
    },
    {
      "buffer" : 0,
      "byteOffset" : 326852,
      "byteLength" : 448
    },
    {
      "buffer" : 0,
      "byteOffset" : 327300,
      "byteLength" : 448
    }
  ],
  "accessors" : [
    {
      "bufferView" : 0,
      "componentType" : 5123,
      "count" : 18366,
      "type" : "SCALAR"
    },
    {
      "bufferView" : 1,
      "min" : [ -0.17942, -0.250789, -0.250469 ],
      "max" : [ 0.179326, 0.249647, 0.250468 ],
      "componentType" : 5126,
      "count" : 5133,
      "type" : "VEC3"
    },
    {
      "bufferView" : 2,
      "componentType" : 5126,
      "count" : 5133,
      "type" : "VEC3"
    },
    {
      "bufferView" : 3,
      "componentType" : 5126,
      "count" : 5133,
      "type" : "VEC4"
    },
    {
      "bufferView" : 4,
      "componentType" : 5126,
      "count" : 5133,
      "type" : "VEC2"
    },
    {
      "bufferView" : 5,
      "componentType" : 5126,
      "count" : 5133,
      "type" : "VEC2"
    },
    {
      "bufferView" : 6,
      "componentType" : 5123,
      "count" : 216,
      "type" : "SCALAR"
    },
    {
      "bufferView" : 7,
      "min" : [ 0.148891, -0.0632896, -0.0756422 ],
      "max" : [ 0.154973, 0.0632836, 0.0756422 ],
      "componentType" : 5126,
      "count" : 56,
      "type" : "VEC3"
    },
    {
      "bufferView" : 8,
      "componentType" : 5126,
      "count" : 56,
      "type" : "VEC3"
    },
    {
      "bufferView" : 9,
      "componentType" : 5126,
      "count" : 56,
      "type" : "VEC4"
    },
    {
      "bufferView" : 10,
      "componentType" : 5126,
      "count" : 56,
      "type" : "VEC2"
    },
    {
      "bufferView" : 11,
      "componentType" : 5126,
      "count" : 56,
      "type" : "VEC2"
    }
  ]
}
