{
  "asset" : {
    "generator" : "UE Viewer (umodel) build 1589",
    "version" : "2.0"
  },
  "scene" : 0,
  "scenes" : [
    {
      "nodes" : [ 0 ]
    }
  ],
  "nodes" : [
    {
      "name" : "nissan_gtr_gt3_2018_rim_lr_Lod1",
      "mesh" : 0
    }
  ],
  "materials" : [
    {
      "name" : "EXT_RIM",
      "pbrMetallicRoughness" : {
        "baseColorFactor" : [ 0.3, 0.3, 0.3, 1.0 ],
        "metallicFactor" : 0.1,
        "roughnessFactor" : 0.5
      }
    },
    {
      "name" : "EXT_Rim_Decals",
      "pbrMetallicRoughness" : {
        "baseColorFactor" : [ 0.9, 0.3, 0.3, 1.0 ],
        "metallicFactor" : 0.1,
        "roughnessFactor" : 0.5
      }
    }
  ],
  "meshes" : [
    {
      "primitives" : [
        {
          "attributes" : {
            "POSITION" : 1,
            "NORMAL" : 2,
            "TANGENT" : 3,
            "COLOR_0" : 4,
            "TEXCOORD_0" : 5,
            "TEXCOORD_1" : 6
          },
          "indices" : 0,
          "material" : 0
        },
        {
          "attributes" : {
            "POSITION" : 8,
            "NORMAL" : 9,
            "TANGENT" : 10,
            "COLOR_0" : 11,
            "TEXCOORD_0" : 12,
            "TEXCOORD_1" : 13
          },
          "indices" : 7,
          "material" : 1
        }
      ],
      "name" : "nissan_gtr_gt3_2018_rim_lr_Lod1"
    }
  ],
  "buffers" : [
    {
      "uri" : "nissan_gtr_gt3_2018_rim_lr_Lod1.bin",
      "byteLength" : 263936
    }
  ],
  "bufferViews" : [
    {
      "buffer" : 0,
      "byteOffset" : 0,
      "byteLength" : 28748
    },
    {
      "buffer" : 0,
      "byteOffset" : 28748,
      "byteLength" : 46728
    },
    {
      "buffer" : 0,
      "byteOffset" : 75476,
      "byteLength" : 46728
    },
    {
      "buffer" : 0,
      "byteOffset" : 122204,
      "byteLength" : 62304
    },
    {
      "buffer" : 0,
      "byteOffset" : 184508,
      "byteLength" : 15576
    },
    {
      "buffer" : 0,
      "byteOffset" : 200084,
      "byteLength" : 31152
    },
    {
      "buffer" : 0,
      "byteOffset" : 231236,
      "byteLength" : 31152
    },
    {
      "buffer" : 0,
      "byteOffset" : 262388,
      "byteLength" : 108
    },
    {
      "buffer" : 0,
      "byteOffset" : 262496,
      "byteLength" : 288
    },
    {
      "buffer" : 0,
      "byteOffset" : 262784,
      "byteLength" : 288
    },
    {
      "buffer" : 0,
      "byteOffset" : 263072,
      "byteLength" : 384
    },
    {
      "buffer" : 0,
      "byteOffset" : 263456,
      "byteLength" : 96
    },
    {
      "buffer" : 0,
      "byteOffset" : 263552,
      "byteLength" : 192
    },
    {
      "buffer" : 0,
      "byteOffset" : 263744,
      "byteLength" : 192
    }
  ],
  "accessors" : [
    {
      "bufferView" : 0,
      "componentType" : 5123,
      "count" : 14373,
      "type" : "SCALAR"
    },
    {
      "bufferView" : 1,
      "min" : [ -0.17753, -0.251947, -0.251548 ],
      "max" : [ 0.177202, 0.251822, 0.251706 ],
      "componentType" : 5126,
      "count" : 3894,
      "type" : "VEC3"
    },
    {
      "bufferView" : 2,
      "componentType" : 5126,
      "count" : 3894,
      "type" : "VEC3"
    },
    {
      "bufferView" : 3,
      "componentType" : 5126,
      "count" : 3894,
      "type" : "VEC4"
    },
    {
      "bufferView" : 4,
      "normalized" : true,
      "componentType" : 5121,
      "count" : 3894,
      "type" : "VEC4"
    },
    {
      "bufferView" : 5,
      "componentType" : 5126,
      "count" : 3894,
      "type" : "VEC2"
    },
    {
      "bufferView" : 6,
      "componentType" : 5126,
      "count" : 3894,
      "type" : "VEC2"
    },
    {
      "bufferView" : 7,
      "componentType" : 5123,
      "count" : 54,
      "type" : "SCALAR"
    },
    {
      "bufferView" : 8,
      "min" : [ 0.141341, -0.214708, -0.203501 ],
      "max" : [ 0.148161, 0.142679, 0.203501 ],
      "componentType" : 5126,
      "count" : 24,
      "type" : "VEC3"
    },
    {
      "bufferView" : 9,
      "componentType" : 5126,
      "count" : 24,
      "type" : "VEC3"
    },
    {
      "bufferView" : 10,
      "componentType" : 5126,
      "count" : 24,
      "type" : "VEC4"
    },
    {
      "bufferView" : 11,
      "normalized" : true,
      "componentType" : 5121,
      "count" : 24,
      "type" : "VEC4"
    },
    {
      "bufferView" : 12,
      "componentType" : 5126,
      "count" : 24,
      "type" : "VEC2"
    },
    {
      "bufferView" : 13,
      "componentType" : 5126,
      "count" : 24,
      "type" : "VEC2"
    }
  ]
}
