{
  "asset" : {
    "generator" : "UE Viewer (umodel) build 1589",
    "version" : "2.0"
  },
  "scene" : 0,
  "scenes" : [
    {
      "nodes" : [ 0 ]
    }
  ],
  "nodes" : [
    {
      "name" : "bmw_m4_gt4_rim_lf_Lod1",
      "mesh" : 0
    }
  ],
  "materials" : [
    {
      "name" : "EXT_RIM",
      "pbrMetallicRoughness" : {
        "baseColorFactor" : [ 0.3, 0.3, 0.3, 1.0 ],
        "metallicFactor" : 0.1,
        "roughnessFactor" : 0.5
      }
    },
    {
      "name" : "EXT_Rim_Decals",
      "pbrMetallicRoughness" : {
        "baseColorFactor" : [ 0.9, 0.3, 0.3, 1.0 ],
        "metallicFactor" : 0.1,
        "roughnessFactor" : 0.5
      }
    }
  ],
  "meshes" : [
    {
      "primitives" : [
        {
          "attributes" : {
            "POSITION" : 1,
            "NORMAL" : 2,
            "TANGENT" : 3,
            "TEXCOORD_0" : 4,
            "TEXCOORD_1" : 5
          },
          "indices" : 0,
          "material" : 0
        },
        {
          "attributes" : {
            "POSITION" : 7,
            "NORMAL" : 8,
            "TANGENT" : 9,
            "TEXCOORD_0" : 10,
            "TEXCOORD_1" : 11
          },
          "indices" : 6,
          "material" : 1
        }
      ],
      "name" : "bmw_m4_gt4_rim_lf_Lod1"
    }
  ],
  "buffers" : [
    {
      "uri" : "bmw_m4_gt4_rim_lf_Lod1.bin",
      "byteLength" : 265696
    }
  ],
  "bufferViews" : [
    {
      "buffer" : 0,
      "byteOffset" : 0,
      "byteLength" : 32832
    },
    {
      "buffer" : 0,
      "byteOffset" : 32832,
      "byteLength" : 49692
    },
    {
      "buffer" : 0,
      "byteOffset" : 82524,
      "byteLength" : 49692
    },
    {
      "buffer" : 0,
      "byteOffset" : 132216,
      "byteLength" : 66256
    },
    {
      "buffer" : 0,
      "byteOffset" : 198472,
      "byteLength" : 33128
    },
    {
      "buffer" : 0,
      "byteOffset" : 231600,
      "byteLength" : 33128
    },
    {
      "buffer" : 0,
      "byteOffset" : 264728,
      "byteLength" : 72
    },
    {
      "buffer" : 0,
      "byteOffset" : 264800,
      "byteLength" : 192
    },
    {
      "buffer" : 0,
      "byteOffset" : 264992,
      "byteLength" : 192
    },
    {
      "buffer" : 0,
      "byteOffset" : 265184,
      "byteLength" : 256
    },
    {
      "buffer" : 0,
      "byteOffset" : 265440,
      "byteLength" : 128
    },
    {
      "buffer" : 0,
      "byteOffset" : 265568,
      "byteLength" : 128
    }
  ],
  "accessors" : [
    {
      "bufferView" : 0,
      "componentType" : 5123,
      "count" : 16416,
      "type" : "SCALAR"
    },
    {
      "bufferView" : 1,
      "min" : [ -0.152869, -0.249622, -0.249432 ],
      "max" : [ 0.15342, 0.249325, 0.248098 ],
      "componentType" : 5126,
      "count" : 4141,
      "type" : "VEC3"
    },
    {
      "bufferView" : 2,
      "componentType" : 5126,
      "count" : 4141,
      "type" : "VEC3"
    },
    {
      "bufferView" : 3,
      "componentType" : 5126,
      "count" : 4141,
      "type" : "VEC4"
    },
    {
      "bufferView" : 4,
      "componentType" : 5126,
      "count" : 4141,
      "type" : "VEC2"
    },
    {
      "bufferView" : 5,
      "componentType" : 5126,
      "count" : 4141,
      "type" : "VEC2"
    },
    {
      "bufferView" : 6,
      "componentType" : 5123,
      "count" : 36,
      "type" : "SCALAR"
    },
    {
      "bufferView" : 7,
      "min" : [ 0.104164, -0.238115, -0.0731851 ],
      "max" : [ 0.147873, -0.0718314, 0.0734392 ],
      "componentType" : 5126,
      "count" : 16,
      "type" : "VEC3"
    },
    {
      "bufferView" : 8,
      "componentType" : 5126,
      "count" : 16,
      "type" : "VEC3"
    },
    {
      "bufferView" : 9,
      "componentType" : 5126,
      "count" : 16,
      "type" : "VEC4"
    },
    {
      "bufferView" : 10,
      "componentType" : 5126,
      "count" : 16,
      "type" : "VEC2"
    },
    {
      "bufferView" : 11,
      "componentType" : 5126,
      "count" : 16,
      "type" : "VEC2"
    }
  ]
}
