{
  "asset" : {
    "generator" : "UE Viewer (umodel) build 1589",
    "version" : "2.0"
  },
  "scene" : 0,
  "scenes" : [
    {
      "nodes" : [ 0 ]
    }
  ],
  "nodes" : [
    {
      "name" : "honda_nsx_gt3_rim_rr_Lod1",
      "mesh" : 0
    }
  ],
  "materials" : [
    {
      "name" : "EXT_RIM",
      "pbrMetallicRoughness" : {
        "baseColorFactor" : [ 0.3, 0.3, 0.3, 1.0 ],
        "metallicFactor" : 0.1,
        "roughnessFactor" : 0.5
      }
    }
  ],
  "meshes" : [
    {
      "primitives" : [
        {
          "attributes" : {
            "POSITION" : 1,
            "NORMAL" : 2,
            "TANGENT" : 3,
            "COLOR_0" : 4,
            "TEXCOORD_0" : 5,
            "TEXCOORD_1" : 6
          },
          "indices" : 0,
          "material" : 0
        }
      ],
      "name" : "honda_nsx_gt3_rim_rr_Lod1"
    }
  ],
  "buffers" : [
    {
      "uri" : "honda_nsx_gt3_rim_rr_Lod1.bin",
      "byteLength" : 208560
    }
  ],
  "bufferViews" : [
    {
      "buffer" : 0,
      "byteOffset" : 0,
      "byteLength" : 25800
    },
    {
      "buffer" : 0,
      "byteOffset" : 25800,
      "byteLength" : 36552
    },
    {
      "buffer" : 0,
      "byteOffset" : 62352,
      "byteLength" : 36552
    },
    {
      "buffer" : 0,
      "byteOffset" : 98904,
      "byteLength" : 48736
    },
    {
      "buffer" : 0,
      "byteOffset" : 147640,
      "byteLength" : 12184
    },
    {
      "buffer" : 0,
      "byteOffset" : 159824,
      "byteLength" : 24368
    },
    {
      "buffer" : 0,
      "byteOffset" : 184192,
      "byteLength" : 24368
    }
  ],
  "accessors" : [
    {
      "bufferView" : 0,
      "componentType" : 5123,
      "count" : 12900,
      "type" : "SCALAR"
    },
    {
      "bufferView" : 1,
      "min" : [ -0.1781, -0.250089, -0.250277 ],
      "max" : [ 0.177389, 0.250109, 0.250435 ],
      "componentType" : 5126,
      "count" : 3046,
      "type" : "VEC3"
    },
    {
      "bufferView" : 2,
      "componentType" : 5126,
      "count" : 3046,
      "type" : "VEC3"
    },
    {
      "bufferView" : 3,
      "componentType" : 5126,
      "count" : 3046,
      "type" : "VEC4"
    },
    {
      "bufferView" : 4,
      "normalized" : true,
      "componentType" : 5121,
      "count" : 3046,
      "type" : "VEC4"
    },
    {
      "bufferView" : 5,
      "componentType" : 5126,
      "count" : 3046,
      "type" : "VEC2"
    },
    {
      "bufferView" : 6,
      "componentType" : 5126,
      "count" : 3046,
      "type" : "VEC2"
    }
  ]
}
