{
  "asset" : {
    "generator" : "UE Viewer (umodel) build 1589",
    "version" : "2.0"
  },
  "scene" : 0,
  "scenes" : [
    {
      "nodes" : [ 0 ]
    }
  ],
  "nodes" : [
    {
      "name" : "porsche_718_cayman_gt4_mr_rim_lr_Lod1",
      "mesh" : 0
    }
  ],
  "materials" : [
    {
      "name" : "EXT_RIM",
      "pbrMetallicRoughness" : {
        "baseColorFactor" : [ 0.3, 0.3, 0.3, 1.0 ],
        "metallicFactor" : 0.1,
        "roughnessFactor" : 0.5
      }
    },
    {
      "name" : "EXT_Rim_Decals",
      "pbrMetallicRoughness" : {
        "baseColorFactor" : [ 0.9, 0.3, 0.3, 1.0 ],
        "metallicFactor" : 0.1,
        "roughnessFactor" : 0.5
      }
    }
  ],
  "meshes" : [
    {
      "primitives" : [
        {
          "attributes" : {
            "POSITION" : 1,
            "NORMAL" : 2,
            "TANGENT" : 3,
            "TEXCOORD_0" : 4,
            "TEXCOORD_1" : 5,
            "TEXCOORD_2" : 6
          },
          "indices" : 0,
          "material" : 0
        },
        {
          "attributes" : {
            "POSITION" : 8,
            "NORMAL" : 9,
            "TANGENT" : 10,
            "TEXCOORD_0" : 11,
            "TEXCOORD_1" : 12,
            "TEXCOORD_2" : 13
          },
          "indices" : 7,
          "material" : 1
        }
      ],
      "name" : "porsche_718_cayman_gt4_mr_rim_lr_Lod1"
    }
  ],
  "buffers" : [
    {
      "uri" : "porsche_718_cayman_gt4_mr_rim_lr_Lod1.bin",
      "byteLength" : 234388
    }
  ],
  "bufferViews" : [
    {
      "buffer" : 0,
      "byteOffset" : 0,
      "byteLength" : 23792
    },
    {
      "buffer" : 0,
      "byteOffset" : 23792,
      "byteLength" : 38964
    },
    {
      "buffer" : 0,
      "byteOffset" : 62756,
      "byteLength" : 38964
    },
    {
      "buffer" : 0,
      "byteOffset" : 101720,
      "byteLength" : 51952
    },
    {
      "buffer" : 0,
      "byteOffset" : 153672,
      "byteLength" : 25976
    },
    {
      "buffer" : 0,
      "byteOffset" : 179648,
      "byteLength" : 25976
    },
    {
      "buffer" : 0,
      "byteOffset" : 205624,
      "byteLength" : 25976
    },
    {
      "buffer" : 0,
      "byteOffset" : 231600,
      "byteLength" : 228
    },
    {
      "buffer" : 0,
      "byteOffset" : 231828,
      "byteLength" : 480
    },
    {
      "buffer" : 0,
      "byteOffset" : 232308,
      "byteLength" : 480
    },
    {
      "buffer" : 0,
      "byteOffset" : 232788,
      "byteLength" : 640
    },
    {
      "buffer" : 0,
      "byteOffset" : 233428,
      "byteLength" : 320
    },
    {
      "buffer" : 0,
      "byteOffset" : 233748,
      "byteLength" : 320
    },
    {
      "buffer" : 0,
      "byteOffset" : 234068,
      "byteLength" : 320
    }
  ],
  "accessors" : [
    {
      "bufferView" : 0,
      "componentType" : 5123,
      "count" : 11895,
      "type" : "SCALAR"
    },
    {
      "bufferView" : 1,
      "min" : [ -0.15488, -0.249223, -0.248625 ],
      "max" : [ 0.154834, 0.248519, 0.248679 ],
      "componentType" : 5126,
      "count" : 3247,
      "type" : "VEC3"
    },
    {
      "bufferView" : 2,
      "componentType" : 5126,
      "count" : 3247,
      "type" : "VEC3"
    },
    {
      "bufferView" : 3,
      "componentType" : 5126,
      "count" : 3247,
      "type" : "VEC4"
    },
    {
      "bufferView" : 4,
      "componentType" : 5126,
      "count" : 3247,
      "type" : "VEC2"
    },
    {
      "bufferView" : 5,
      "componentType" : 5126,
      "count" : 3247,
      "type" : "VEC2"
    },
    {
      "bufferView" : 6,
      "componentType" : 5126,
      "count" : 3247,
      "type" : "VEC2"
    },
    {
      "bufferView" : 7,
      "componentType" : 5123,
      "count" : 114,
      "type" : "SCALAR"
    },
    {
      "bufferView" : 8,
      "min" : [ 0.111132, -0.0374592, -0.0389821 ],
      "max" : [ 0.11444, 0.0373383, 0.0391143 ],
      "componentType" : 5126,
      "count" : 40,
      "type" : "VEC3"
    },
    {
      "bufferView" : 9,
      "componentType" : 5126,
      "count" : 40,
      "type" : "VEC3"
    },
    {
      "bufferView" : 10,
      "componentType" : 5126,
      "count" : 40,
      "type" : "VEC4"
    },
    {
      "bufferView" : 11,
      "componentType" : 5126,
      "count" : 40,
      "type" : "VEC2"
    },
    {
      "bufferView" : 12,
      "componentType" : 5126,
      "count" : 40,
      "type" : "VEC2"
    },
    {
      "bufferView" : 13,
      "componentType" : 5126,
      "count" : 40,
      "type" : "VEC2"
    }
  ]
}
