{
  "asset" : {
    "generator" : "UE Viewer (umodel) build 1589",
    "version" : "2.0"
  },
  "scene" : 0,
  "scenes" : [
    {
      "nodes" : [ 0 ]
    }
  ],
  "nodes" : [
    {
      "name" : "porsche_718_cayman_gt4_mr_exterior_Lod4",
      "mesh" : 0,
      "skin" : 0,
      "children" : [ 1 ]
    },
    {
      "name" : "PORSCHE_718_CAYMAN_GT4",
      "children" : [ 2 ],
      "translation" : [ 0, 0, 0 ],
      "rotation" : [ -0, -0, -0, 1 ]
    },
    {
      "name" : "CAR_BODY",
      "children" : [ 3, 4, 5, 6, 7, 8, 9, 10, 11, 12, 13, 14, 15, 16, 17, 18, 19, 20, 21, 22, 23, 24, 25, 27, 29, 30 ],
      "translation" : [ 0, 0, -0 ],
      "rotation" : [ -0, -0, 0, -1 ]
    },
    {
      "name" : "REAR_BUMPER",
      "translation" : [ 0, 0.319775, -1.97157 ],
      "rotation" : [ -5.96046e-08, -0, 0, -1 ]
    },
    {
      "name" : "HOOD",
      "translation" : [ 4.48918e-09, 0.726264, 0.758803 ],
      "rotation" : [ -5.96046e-08, -0, 0, -1 ]
    },
    {
      "name" : "FRONT_BUMPER",
      "translation" : [ 0, 0.319775, 2.35186 ],
      "rotation" : [ -5.96046e-08, -0, 0, -1 ]
    },
    {
      "name" : "WING",
      "translation" : [ 0.000410914, 0.93769, -1.9308 ],
      "rotation" : [ -5.96046e-08, -0, 0, -1 ]
    },
    {
      "name" : "DISC_LF",
      "translation" : [ 0.75589, 0.218684, 1.24019 ],
      "rotation" : [ -5.96046e-08, 1.19209e-07, -7.10543e-15, -1 ]
    },
    {
      "name" : "SUSP_LR",
      "translation" : [ 0.75272, 0.234521, -1.24387 ],
      "rotation" : [ -5.96046e-08, -0, 0, -1 ]
    },
    {
      "name" : "DISC_LR",
      "translation" : [ 0.75272, 0.234521, -1.24387 ],
      "rotation" : [ -5.96046e-08, -0, 0, -1 ]
    },
    {
      "name" : "DISC_RF",
      "translation" : [ -0.755889, 0.218684, 1.24019 ],
      "rotation" : [ -5.96046e-08, -0, 0, -1 ]
    },
    {
      "name" : "SUSP_RR",
      "translation" : [ -0.75272, 0.234521, -1.24387 ],
      "rotation" : [ -5.96046e-08, -0, 0, -1 ]
    },
    {
      "name" : "DISC_RR",
      "translation" : [ -0.75272, 0.234521, -1.24387 ],
      "rotation" : [ -5.96046e-08, -0, 0, -1 ]
    },
    {
      "name" : "WHEEL_LR",
      "translation" : [ 0.75272, 0.234521, -1.24387 ],
      "rotation" : [ -5.96046e-08, 6.99114e-20, -2.56439e-19, -1 ]
    },
    {
      "name" : "WHEEL_RR",
      "translation" : [ -0.75272, 0.234521, -1.24387 ],
      "rotation" : [ -5.96046e-08, 6.99114e-20, -2.56439e-19, -1 ]
    },
    {
      "name" : "WHEEL_LF",
      "translation" : [ 0.75589, 0.218684, 1.24019 ],
      "rotation" : [ 2.8213e-07, -4.37114e-08, 4.37114e-08, -1 ]
    },
    {
      "name" : "SUSP_LF",
      "translation" : [ 0.75589, 0.218684, 1.24019 ],
      "rotation" : [ 2.8213e-07, -4.37114e-08, 4.37114e-08, -1 ]
    },
    {
      "name" : "WHEEL_RF",
      "translation" : [ -0.755889, 0.218684, 1.24019 ],
      "rotation" : [ -5.96046e-08, -4.43204e-20, -1.23746e-20, -1 ]
    },
    {
      "name" : "SUSP_RF",
      "translation" : [ -0.755889, 0.218684, 1.24019 ],
      "rotation" : [ -5.96046e-08, -0, 0, -1 ]
    },
    {
      "name" : "LUMIRANK",
      "translation" : [ -0.47865, 0.926631, 0.424645 ],
      "rotation" : [ -0.242652, 0.081169, -0.111666, -0.960241 ]
    },
    {
      "name" : "TYRE_LF",
      "translation" : [ 0.75589, 0.218684, 1.24019 ],
      "rotation" : [ 2.8213e-07, -4.37114e-08, 4.37114e-08, -1 ]
    },
    {
      "name" : "TYRE_RF",
      "translation" : [ -0.755889, 0.218684, 1.24019 ],
      "rotation" : [ -5.96046e-08, -4.43204e-20, -1.23746e-20, -1 ]
    },
    {
      "name" : "TYRE_LR",
      "translation" : [ 0.75272, 0.234521, -1.24387 ],
      "rotation" : [ -5.96046e-08, 6.99114e-20, -2.56439e-19, -1 ]
    },
    {
      "name" : "TYRE_RR",
      "translation" : [ -0.75272, 0.234521, -1.24387 ],
      "rotation" : [ -5.96046e-08, 6.99114e-20, -2.56439e-19, -1 ]
    },
    {
      "name" : "DIFFUSER",
      "translation" : [ -1.4184e-07, -0.0367206, -1.57903 ],
      "rotation" : [ -0, -0, 0, -1 ]
    },
    {
      "name" : "WIPER_L1",
      "children" : [ 26 ],
      "translation" : [ 0.62074, 0.67376, 0.841535 ],
      "rotation" : [ -0.883635, -0.0333531, 0.0805214, -0.459992 ]
    },
    {
      "name" : "WIPER_L2",
      "translation" : [ -0.446465, -0.0640602, -0.0514261 ],
      "rotation" : [ 0.087685, 0.0145252, 0.00634253, -0.996022 ]
    },
    {
      "name" : "WIPER_R1",
      "children" : [ 28 ],
      "translation" : [ 0.108025, 0.690027, 1.03947 ],
      "rotation" : [ -0.851367, 0.13182, -0.0609872, -0.504063 ]
    },
    {
      "name" : "WIPER_R2",
      "translation" : [ -0.553445, -0.0568389, 0.0585036 ],
      "rotation" : [ 0.050892, -0.105275, -0.0350213, -0.992522 ]
    },
    {
      "name" : "DOOR_R",
      "translation" : [ -0.826, 0.294086, 0.671939 ],
      "rotation" : [ 2.38419e-07, -7.45053e-09, -2.23517e-07, -1 ]
    },
    {
      "name" : "DOOR_L",
      "translation" : [ 0.826242, 0.294086, 0.671939 ],
      "rotation" : [ 2.38419e-07, 5.68434e-14, -2.38419e-07, -1 ]
    }
  ],
  "skins" : [
    {
      "inverseBindMatrices" : 0,
      "skeleton" : 1,
      "joints" : [
        1,2,3,4,5,6,7,8,9,10,11,12,13,14,15,16,17,18,19,20,21,22,23,24,25,26,27,28,29,30
      ]
    }
  ],
  "materials" : [
    {
      "name" : "EXT_Carpaint_Inst",
      "pbrMetallicRoughness" : {
        "baseColorFactor" : [ 0.3, 0.3, 0.3, 1.0 ],
        "metallicFactor" : 0.1,
        "roughnessFactor" : 0.5
      }
    }
  ],
  "meshes" : [
    {
      "primitives" : [
        {
          "attributes" : {
            "POSITION" : 2,
            "NORMAL" : 3,
            "TANGENT" : 4,
            "COLOR_0" : 5,
            "JOINTS_0" : 6,
            "WEIGHTS_0" : 7,
            "TEXCOORD_0" : 8
          },
          "indices" : 1,
          "material" : 0
        }
      ],
      "name" : "porsche_718_cayman_gt4_mr_exterior_Lod4"
    }
  ],
  "buffers" : [
    {
      "uri" : "porsche_718_cayman_gt4_mr_exterior_Lod4.bin",
      "byteLength" : 452252
    }
  ],
  "bufferViews" : [
    {
      "buffer" : 0,
      "byteOffset" : 0,
      "byteLength" : 1920
    },
    {
      "buffer" : 0,
      "byteOffset" : 1920,
      "byteLength" : 35292
    },
    {
      "buffer" : 0,
      "byteOffset" : 37212,
      "byteLength" : 77820
    },
    {
      "buffer" : 0,
      "byteOffset" : 115032,
      "byteLength" : 77820
    },
    {
      "buffer" : 0,
      "byteOffset" : 192852,
      "byteLength" : 103760
    },
    {
      "buffer" : 0,
      "byteOffset" : 296612,
      "byteLength" : 25940
    },
    {
      "buffer" : 0,
      "byteOffset" : 322552,
      "byteLength" : 51880
    },
    {
      "buffer" : 0,
      "byteOffset" : 374432,
      "byteLength" : 25940
    },
    {
      "buffer" : 0,
      "byteOffset" : 400372,
      "byteLength" : 51880
    }
  ],
  "accessors" : [
    {
      "bufferView" : 0,
      "componentType" : 5126,
      "count" : 30,
      "type" : "MAT4"
    },
    {
      "bufferView" : 1,
      "componentType" : 5123,
      "count" : 17646,
      "type" : "SCALAR"
    },
    {
      "bufferView" : 2,
      "min" : [ -0.907278, -0.0846964, -2.15679 ],
      "max" : [ 0.907278, 1.13521, 2.28905 ],
      "componentType" : 5126,
      "count" : 6485,
      "type" : "VEC3"
    },
    {
      "bufferView" : 3,
      "componentType" : 5126,
      "count" : 6485,
      "type" : "VEC3"
    },
    {
      "bufferView" : 4,
      "componentType" : 5126,
      "count" : 6485,
      "type" : "VEC4"
    },
    {
      "bufferView" : 5,
      "normalized" : true,
      "componentType" : 5121,
      "count" : 6485,
      "type" : "VEC4"
    },
    {
      "bufferView" : 6,
      "componentType" : 5123,
      "count" : 6485,
      "type" : "VEC4"
    },
    {
      "bufferView" : 7,
      "normalized" : true,
      "componentType" : 5121,
      "count" : 6485,
      "type" : "VEC4"
    },
    {
      "bufferView" : 8,
      "componentType" : 5126,
      "count" : 6485,
      "type" : "VEC2"
    }
  ]
}
