{
  "asset" : {
    "generator" : "UE Viewer (umodel) build 1589",
    "version" : "2.0"
  },
  "scene" : 0,
  "scenes" : [
    {
      "nodes" : [ 0 ]
    }
  ],
  "nodes" : [
    {
      "name" : "porsche_718_cayman_gt4_mr_rim_lf_Lod1",
      "mesh" : 0
    }
  ],
  "materials" : [
    {
      "name" : "EXT_RIM",
      "pbrMetallicRoughness" : {
        "baseColorFactor" : [ 0.3, 0.3, 0.3, 1.0 ],
        "metallicFactor" : 0.1,
        "roughnessFactor" : 0.5
      }
    },
    {
      "name" : "EXT_Rim_Decals",
      "pbrMetallicRoughness" : {
        "baseColorFactor" : [ 0.9, 0.3, 0.3, 1.0 ],
        "metallicFactor" : 0.1,
        "roughnessFactor" : 0.5
      }
    }
  ],
  "meshes" : [
    {
      "primitives" : [
        {
          "attributes" : {
            "POSITION" : 1,
            "NORMAL" : 2,
            "TANGENT" : 3,
            "TEXCOORD_0" : 4,
            "TEXCOORD_1" : 5,
            "TEXCOORD_2" : 6
          },
          "indices" : 0,
          "material" : 0
        },
        {
          "attributes" : {
            "POSITION" : 8,
            "NORMAL" : 9,
            "TANGENT" : 10,
            "TEXCOORD_0" : 11,
            "TEXCOORD_1" : 12,
            "TEXCOORD_2" : 13
          },
          "indices" : 7,
          "material" : 1
        }
      ],
      "name" : "porsche_718_cayman_gt4_mr_rim_lf_Lod1"
    }
  ],
  "buffers" : [
    {
      "uri" : "porsche_718_cayman_gt4_mr_rim_lf_Lod1.bin",
      "byteLength" : 233616
    }
  ],
  "bufferViews" : [
    {
      "buffer" : 0,
      "byteOffset" : 0,
      "byteLength" : 23780
    },
    {
      "buffer" : 0,
      "byteOffset" : 23780,
      "byteLength" : 38784
    },
    {
      "buffer" : 0,
      "byteOffset" : 62564,
      "byteLength" : 38784
    },
    {
      "buffer" : 0,
      "byteOffset" : 101348,
      "byteLength" : 51712
    },
    {
      "buffer" : 0,
      "byteOffset" : 153060,
      "byteLength" : 25856
    },
    {
      "buffer" : 0,
      "byteOffset" : 178916,
      "byteLength" : 25856
    },
    {
      "buffer" : 0,
      "byteOffset" : 204772,
      "byteLength" : 25856
    },
    {
      "buffer" : 0,
      "byteOffset" : 230628,
      "byteLength" : 236
    },
    {
      "buffer" : 0,
      "byteOffset" : 230864,
      "byteLength" : 516
    },
    {
      "buffer" : 0,
      "byteOffset" : 231380,
      "byteLength" : 516
    },
    {
      "buffer" : 0,
      "byteOffset" : 231896,
      "byteLength" : 688
    },
    {
      "buffer" : 0,
      "byteOffset" : 232584,
      "byteLength" : 344
    },
    {
      "buffer" : 0,
      "byteOffset" : 232928,
      "byteLength" : 344
    },
    {
      "buffer" : 0,
      "byteOffset" : 233272,
      "byteLength" : 344
    }
  ],
  "accessors" : [
    {
      "bufferView" : 0,
      "componentType" : 5123,
      "count" : 11889,
      "type" : "SCALAR"
    },
    {
      "bufferView" : 1,
      "min" : [ -0.133871, -0.248691, -0.249237 ],
      "max" : [ 0.13315, 0.248964, 0.249236 ],
      "componentType" : 5126,
      "count" : 3232,
      "type" : "VEC3"
    },
    {
      "bufferView" : 2,
      "componentType" : 5126,
      "count" : 3232,
      "type" : "VEC3"
    },
    {
      "bufferView" : 3,
      "componentType" : 5126,
      "count" : 3232,
      "type" : "VEC4"
    },
    {
      "bufferView" : 4,
      "componentType" : 5126,
      "count" : 3232,
      "type" : "VEC2"
    },
    {
      "bufferView" : 5,
      "componentType" : 5126,
      "count" : 3232,
      "type" : "VEC2"
    },
    {
      "bufferView" : 6,
      "componentType" : 5126,
      "count" : 3232,
      "type" : "VEC2"
    },
    {
      "bufferView" : 7,
      "componentType" : 5123,
      "count" : 117,
      "type" : "SCALAR"
    },
    {
      "bufferView" : 8,
      "min" : [ 0.0928423, -0.037575, -0.0376536 ],
      "max" : [ 0.0977339, 0.0390155, 0.0381421 ],
      "componentType" : 5126,
      "count" : 43,
      "type" : "VEC3"
    },
    {
      "bufferView" : 9,
      "componentType" : 5126,
      "count" : 43,
      "type" : "VEC3"
    },
    {
      "bufferView" : 10,
      "componentType" : 5126,
      "count" : 43,
      "type" : "VEC4"
    },
    {
      "bufferView" : 11,
      "componentType" : 5126,
      "count" : 43,
      "type" : "VEC2"
    },
    {
      "bufferView" : 12,
      "componentType" : 5126,
      "count" : 43,
      "type" : "VEC2"
    },
    {
      "bufferView" : 13,
      "componentType" : 5126,
      "count" : 43,
      "type" : "VEC2"
    }
  ]
}
