{
  "asset" : {
    "generator" : "UE Viewer (umodel) build 1589",
    "version" : "2.0"
  },
  "scene" : 0,
  "scenes" : [
    {
      "nodes" : [ 0 ]
    }
  ],
  "nodes" : [
    {
      "name" : "ginetta_g55_gt4_exterior_Lod4",
      "mesh" : 0,
      "skin" : 0,
      "children" : [ 1 ]
    },
    {
      "name" : "GINETTA_G55_GT4",
      "children" : [ 2, 29 ],
      "translation" : [ 0, 0, 0 ],
      "rotation" : [ -0, -0, -0, 1 ]
    },
    {
      "name" : "CAR_BODY",
      "children" : [ 3, 4, 5, 6, 7, 8, 9, 10, 11, 12, 13, 14, 15, 16, 17, 18, 19, 20, 23, 24, 25, 26, 27, 28 ],
      "translation" : [ 0, 0, -0 ],
      "rotation" : [ -0, -0, 0, -1 ]
    },
    {
      "name" : "WHEEL_LF",
      "translation" : [ 0.818502, 0.325, 1.2285 ],
      "rotation" : [ -1.19209e-07, 2.22045e-16, 1.86265e-09, -1 ]
    },
    {
      "name" : "SUSP_LF",
      "translation" : [ 0.818502, 0.325, 1.2285 ],
      "rotation" : [ -1.19209e-07, 2.22045e-16, 1.86265e-09, -1 ]
    },
    {
      "name" : "DISC_LF",
      "translation" : [ 0.818502, 0.325, 1.2285 ],
      "rotation" : [ -1.19209e-07, 2.22045e-16, 1.86265e-09, -1 ]
    },
    {
      "name" : "WHEEL_LR",
      "translation" : [ 0.818502, 0.325, -1.2285 ],
      "rotation" : [ -1.78814e-07, 3.33067e-16, 1.86265e-09, -1 ]
    },
    {
      "name" : "SUSP_LR",
      "translation" : [ 0.818502, 0.325, -1.2285 ],
      "rotation" : [ -1.78814e-07, 3.33067e-16, 1.86265e-09, -1 ]
    },
    {
      "name" : "DISC_LR",
      "translation" : [ 0.818502, 0.325, -1.2285 ],
      "rotation" : [ -1.78814e-07, 3.33067e-16, 1.86265e-09, -1 ]
    },
    {
      "name" : "DISC_RF",
      "translation" : [ -0.818502, 0.325, 1.2285 ],
      "rotation" : [ -1.19209e-07, -2.22045e-16, -1.86265e-09, -1 ]
    },
    {
      "name" : "SUSP_RF",
      "translation" : [ -0.818502, 0.325, 1.2285 ],
      "rotation" : [ -1.19209e-07, -2.22045e-16, -1.86265e-09, -1 ]
    },
    {
      "name" : "WHEEL_RF",
      "translation" : [ -0.818502, 0.325, 1.2285 ],
      "rotation" : [ -1.19209e-07, -2.22045e-16, -1.86265e-09, -1 ]
    },
    {
      "name" : "DISC_RR",
      "translation" : [ -0.818502, 0.325, -1.2285 ],
      "rotation" : [ -1.78814e-07, -4.76255e-24, 6.61744e-24, -1 ]
    },
    {
      "name" : "WHEEL_RR",
      "translation" : [ -0.818502, 0.325, -1.2285 ],
      "rotation" : [ -1.78814e-07, -0, 0, -1 ]
    },
    {
      "name" : "SUSP_RR",
      "translation" : [ -0.818502, 0.325, -1.2285 ],
      "rotation" : [ -1.78814e-07, -0, 0, -1 ]
    },
    {
      "name" : "LUMIRANK",
      "translation" : [ 0.477867, 0.929568, 0.118301 ],
      "rotation" : [ -0.256287, -0.00201793, 0.0673724, -0.964248 ]
    },
    {
      "name" : "TYRE_LF",
      "translation" : [ 0.818502, 0.325, 1.2285 ],
      "rotation" : [ -1.19209e-07, 2.22045e-16, 1.86265e-09, -1 ]
    },
    {
      "name" : "TYRE_RF",
      "translation" : [ -0.818502, 0.325, 1.2285 ],
      "rotation" : [ -1.19209e-07, -2.22045e-16, -1.86265e-09, -1 ]
    },
    {
      "name" : "TYRE_RR",
      "translation" : [ -0.818502, 0.325, -1.2285 ],
      "rotation" : [ -1.78814e-07, -0, 0, -1 ]
    },
    {
      "name" : "TYRE_LR",
      "translation" : [ 0.818502, 0.325, -1.2285 ],
      "rotation" : [ -1.78814e-07, 3.33067e-16, 1.86265e-09, -1 ]
    },
    {
      "name" : "WIPER_1",
      "children" : [ 21 ],
      "translation" : [ 5.84125e-08, 0.760092, 0.511127 ],
      "rotation" : [ -0.881391, 2.56519e-11, 1.37483e-11, -0.472387 ]
    },
    {
      "name" : "WIPER_2",
      "children" : [ 22 ],
      "translation" : [ 6.51836e-08, -0.0447042, 0.00431815 ],
      "rotation" : [ 0.000186276, 2.62287e-06, -1.66841e-06, -1 ]
    },
    {
      "name" : "WIPER_3",
      "translation" : [ -1.29889e-06, -0.379524, 0.0054265 ],
      "rotation" : [ 0.0232942, -2.65869e-06, 1.60098e-06, -0.999729 ]
    },
    {
      "name" : "DOOR_L",
      "translation" : [ 0.844587, 0.7332, 0.2431 ],
      "rotation" : [ -0, -0, 0, -1 ]
    },
    {
      "name" : "DOOR_R",
      "translation" : [ -0.8446, 0.7332, 0.2431 ],
      "rotation" : [ -0, -0, 0, -1 ]
    },
    {
      "name" : "FRONT_BUMPER",
      "translation" : [ -0.0057409, 0.587031, 1.42853 ],
      "rotation" : [ -0, -0, 0, -1 ]
    },
    {
      "name" : "HOOD",
      "translation" : [ 0, 0.74969, 0.252258 ],
      "rotation" : [ -0, -0, 0, -1 ]
    },
    {
      "name" : "WING",
      "translation" : [ -0.0057409, 1.03716, -2.0167 ],
      "rotation" : [ -0, -0, 0, -1 ]
    },
    {
      "name" : "DIFFUSER",
      "translation" : [ 0, 0.0600001, -0.852833 ],
      "rotation" : [ -0, -0, 0, -1 ]
    },
    {
      "name" : "COCKPIT_HR",
      "translation" : [ 0, 0, -0 ],
      "rotation" : [ -0, -0, 0, -1 ]
    }
  ],
  "skins" : [
    {
      "inverseBindMatrices" : 0,
      "skeleton" : 1,
      "joints" : [
        1,2,3,4,5,6,7,8,9,10,11,12,13,14,15,16,17,18,19,20,21,22,23,24,25,26,27,28,29
      ]
    }
  ],
  "materials" : [
    {
      "name" : "EXT_Carpaint_Inst",
      "pbrMetallicRoughness" : {
        "baseColorFactor" : [ 0.3, 0.3, 0.3, 1.0 ],
        "metallicFactor" : 0.1,
        "roughnessFactor" : 0.5
      }
    }
  ],
  "meshes" : [
    {
      "primitives" : [
        {
          "attributes" : {
            "POSITION" : 2,
            "NORMAL" : 3,
            "TANGENT" : 4,
            "COLOR_0" : 5,
            "JOINTS_0" : 6,
            "WEIGHTS_0" : 7,
            "TEXCOORD_0" : 8,
            "TEXCOORD_1" : 9
          },
          "indices" : 1,
          "material" : 0
        }
      ],
      "name" : "ginetta_g55_gt4_exterior_Lod4"
    }
  ],
  "buffers" : [
    {
      "uri" : "ginetta_g55_gt4_exterior_Lod4.bin",
      "byteLength" : 314012
    }
  ],
  "bufferViews" : [
    {
      "buffer" : 0,
      "byteOffset" : 0,
      "byteLength" : 1856
    },
    {
      "buffer" : 0,
      "byteOffset" : 1856,
      "byteLength" : 22140
    },
    {
      "buffer" : 0,
      "byteOffset" : 23996,
      "byteLength" : 48336
    },
    {
      "buffer" : 0,
      "byteOffset" : 72332,
      "byteLength" : 48336
    },
    {
      "buffer" : 0,
      "byteOffset" : 120668,
      "byteLength" : 64448
    },
    {
      "buffer" : 0,
      "byteOffset" : 185116,
      "byteLength" : 16112
    },
    {
      "buffer" : 0,
      "byteOffset" : 201228,
      "byteLength" : 32224
    },
    {
      "buffer" : 0,
      "byteOffset" : 233452,
      "byteLength" : 16112
    },
    {
      "buffer" : 0,
      "byteOffset" : 249564,
      "byteLength" : 32224
    },
    {
      "buffer" : 0,
      "byteOffset" : 281788,
      "byteLength" : 32224
    }
  ],
  "accessors" : [
    {
      "bufferView" : 0,
      "componentType" : 5126,
      "count" : 29,
      "type" : "MAT4"
    },
    {
      "bufferView" : 1,
      "componentType" : 5123,
      "count" : 11070,
      "type" : "SCALAR"
    },
    {
      "bufferView" : 2,
      "min" : [ -1.00855, 0.00240189, -2.1657 ],
      "max" : [ 1.00855, 1.16478, 2.16502 ],
      "componentType" : 5126,
      "count" : 4028,
      "type" : "VEC3"
    },
    {
      "bufferView" : 3,
      "componentType" : 5126,
      "count" : 4028,
      "type" : "VEC3"
    },
    {
      "bufferView" : 4,
      "componentType" : 5126,
      "count" : 4028,
      "type" : "VEC4"
    },
    {
      "bufferView" : 5,
      "normalized" : true,
      "componentType" : 5121,
      "count" : 4028,
      "type" : "VEC4"
    },
    {
      "bufferView" : 6,
      "componentType" : 5123,
      "count" : 4028,
      "type" : "VEC4"
    },
    {
      "bufferView" : 7,
      "normalized" : true,
      "componentType" : 5121,
      "count" : 4028,
      "type" : "VEC4"
    },
    {
      "bufferView" : 8,
      "componentType" : 5126,
      "count" : 4028,
      "type" : "VEC2"
    },
    {
      "bufferView" : 9,
      "componentType" : 5126,
      "count" : 4028,
      "type" : "VEC2"
    }
  ]
}
