{
  "asset" : {
    "generator" : "UE Viewer (umodel) build 1589",
    "version" : "2.0"
  },
  "scene" : 0,
  "scenes" : [
    {
      "nodes" : [ 0 ]
    }
  ],
  "nodes" : [
    {
      "name" : "ginetta_g55_gt4_rim_lr_Lod1",
      "mesh" : 0
    }
  ],
  "materials" : [
    {
      "name" : "EXT_RIM",
      "pbrMetallicRoughness" : {
        "baseColorFactor" : [ 0.3, 0.3, 0.3, 1.0 ],
        "metallicFactor" : 0.1,
        "roughnessFactor" : 0.5
      }
    }
  ],
  "meshes" : [
    {
      "primitives" : [
        {
          "attributes" : {
            "POSITION" : 1,
            "NORMAL" : 2,
            "TANGENT" : 3,
            "TEXCOORD_0" : 4,
            "TEXCOORD_1" : 5
          },
          "indices" : 0,
          "material" : 0
        }
      ],
      "name" : "ginetta_g55_gt4_rim_lr_Lod1"
    }
  ],
  "buffers" : [
    {
      "uri" : "ginetta_g55_gt4_rim_lr_Lod1.bin",
      "byteLength" : 159728
    }
  ],
  "bufferViews" : [
    {
      "buffer" : 0,
      "byteOffset" : 0,
      "byteLength" : 19896
    },
    {
      "buffer" : 0,
      "byteOffset" : 19896,
      "byteLength" : 29964
    },
    {
      "buffer" : 0,
      "byteOffset" : 49860,
      "byteLength" : 29964
    },
    {
      "buffer" : 0,
      "byteOffset" : 79824,
      "byteLength" : 39952
    },
    {
      "buffer" : 0,
      "byteOffset" : 119776,
      "byteLength" : 19976
    },
    {
      "buffer" : 0,
      "byteOffset" : 139752,
      "byteLength" : 19976
    }
  ],
  "accessors" : [
    {
      "bufferView" : 0,
      "componentType" : 5123,
      "count" : 9948,
      "type" : "SCALAR"
    },
    {
      "bufferView" : 1,
      "min" : [ -0.133752, -0.249018, -0.249201 ],
      "max" : [ 0.139428, 0.252036, 0.249467 ],
      "componentType" : 5126,
      "count" : 2497,
      "type" : "VEC3"
    },
    {
      "bufferView" : 2,
      "componentType" : 5126,
      "count" : 2497,
      "type" : "VEC3"
    },
    {
      "bufferView" : 3,
      "componentType" : 5126,
      "count" : 2497,
      "type" : "VEC4"
    },
    {
      "bufferView" : 4,
      "componentType" : 5126,
      "count" : 2497,
      "type" : "VEC2"
    },
    {
      "bufferView" : 5,
      "componentType" : 5126,
      "count" : 2497,
      "type" : "VEC2"
    }
  ]
}
