{
  "asset" : {
    "generator" : "UE Viewer (umodel) build 1589",
    "version" : "2.0"
  },
  "scene" : 0,
  "scenes" : [
    {
      "nodes" : [ 0 ]
    }
  ],
  "nodes" : [
    {
      "name" : "amr_v12_vantage_gt3_exterior_sprint_Lod4",
      "mesh" : 0,
      "skin" : 0,
      "children" : [ 1 ]
    },
    {
      "name" : "AM_VANTAGE_V12_GT3",
      "children" : [ 2 ],
      "translation" : [ 0, 0, 0 ],
      "rotation" : [ -0, -0, -0, 1 ]
    },
    {
      "name" : "CAR_BODY",
      "children" : [ 3, 4, 5, 6, 7, 8, 9, 10, 11, 12, 13, 14, 15, 16, 17, 18, 19, 20, 23, 24, 25, 26, 27, 28 ],
      "translation" : [ 0, 0, -0 ],
      "rotation" : [ -0, -0, 0, -1 ]
    },
    {
      "name" : "DISC_LF",
      "translation" : [ 0.779744, 0.3419, 1.15067 ],
      "rotation" : [ 4.76837e-07, -0, -0, -1 ]
    },
    {
      "name" : "SUSP_LF",
      "translation" : [ 0.779744, 0.3419, 1.15067 ],
      "rotation" : [ 4.76837e-07, -0, -0, -1 ]
    },
    {
      "name" : "WHEEL_LF",
      "translation" : [ 0.779744, 0.3419, 1.15067 ],
      "rotation" : [ 4.76837e-07, -0, -0, -1 ]
    },
    {
      "name" : "DISC_RF",
      "translation" : [ -0.77974, 0.3419, 1.15067 ],
      "rotation" : [ 2.7159e-07, 2.38419e-07, 6.47522e-14, -1 ]
    },
    {
      "name" : "SUSP_RF",
      "translation" : [ -0.77974, 0.3419, 1.15067 ],
      "rotation" : [ 2.7159e-07, 2.38419e-07, 6.47522e-14, -1 ]
    },
    {
      "name" : "WHEEL_RF",
      "translation" : [ -0.77974, 0.3419, 1.15067 ],
      "rotation" : [ 2.7159e-07, 2.38419e-07, 6.47522e-14, -1 ]
    },
    {
      "name" : "DISC_RR",
      "translation" : [ -0.79126, 0.353493, -1.45033 ],
      "rotation" : [ 2.7159e-07, 2.38419e-07, 6.47522e-14, -1 ]
    },
    {
      "name" : "DISC_LR",
      "translation" : [ 0.791261, 0.353493, -1.45033 ],
      "rotation" : [ 1.78814e-07, 1.78814e-07, 3.19744e-14, -1 ]
    },
    {
      "name" : "WHEEL_RR",
      "translation" : [ -0.79126, 0.353493, -1.45033 ],
      "rotation" : [ 2.7159e-07, 2.38419e-07, 6.47522e-14, -1 ]
    },
    {
      "name" : "SUSP_RR",
      "translation" : [ -0.79126, 0.353493, -1.45033 ],
      "rotation" : [ 2.7159e-07, 2.38419e-07, 6.47522e-14, -1 ]
    },
    {
      "name" : "WHEEL_LR",
      "translation" : [ 0.791261, 0.353493, -1.45033 ],
      "rotation" : [ 1.78814e-07, 1.78814e-07, 3.19744e-14, -1 ]
    },
    {
      "name" : "SUSP_LR",
      "translation" : [ 0.791261, 0.353493, -1.45033 ],
      "rotation" : [ 1.78814e-07, 1.78814e-07, 3.19744e-14, -1 ]
    },
    {
      "name" : "TYRE_LF",
      "translation" : [ 0.779744, 0.3419, 1.15067 ],
      "rotation" : [ 7.71476e-07, -0, -0, -1 ]
    },
    {
      "name" : "TYRE_LR",
      "translation" : [ 0.791261, 0.353493, -1.45033 ],
      "rotation" : [ 3.34117e-07, 1.78814e-07, 5.97448e-14, -1 ]
    },
    {
      "name" : "TYRE_RR",
      "translation" : [ -0.79126, 0.353493, -1.45033 ],
      "rotation" : [ 3.90799e-07, 2.38419e-07, 9.31739e-14, -1 ]
    },
    {
      "name" : "TYRE_RF",
      "translation" : [ -0.77974, 0.3419, 1.15067 ],
      "rotation" : [ 3.90799e-07, 2.38419e-07, 9.31739e-14, -1 ]
    },
    {
      "name" : "LUMIRANK",
      "translation" : [ -0.420441, 1.03987, 0.0711269 ],
      "rotation" : [ -0.197252, 0.0262497, -0.0761756, -0.977036 ]
    },
    {
      "name" : "WIPER_1",
      "children" : [ 21 ],
      "translation" : [ -0.151777, 0.780215, 0.70761 ],
      "rotation" : [ -0.247106, 0.0827309, -0.00318698, -0.965445 ]
    },
    {
      "name" : "WIPER_2",
      "children" : [ 22 ],
      "translation" : [ -3.64241e-08, 0.0260599, -0.0347638 ],
      "rotation" : [ 2.37733e-08, -7.38295e-09, -3.5035e-09, -1 ]
    },
    {
      "name" : "WIPER_3",
      "translation" : [ -0.0139941, -0.0344857, -0.468743 ],
      "rotation" : [ -1.74575e-08, 0.0244076, 7.85447e-10, -0.999702 ]
    },
    {
      "name" : "DOOR_L",
      "translation" : [ 0.815, 0.64, 0.331537 ],
      "rotation" : [ 0.0435779, 0.00190265, -0.0435779, -0.998097 ]
    },
    {
      "name" : "DOOR_R",
      "translation" : [ -0.825, 0.64, 0.331537 ],
      "rotation" : [ 0.0435779, -0.00190265, 0.0435779, -0.998097 ]
    },
    {
      "name" : "FRONT_BUMPER",
      "translation" : [ 0, 0.386779, 1.91078 ],
      "rotation" : [ -0, -0, 0, -1 ]
    },
    {
      "name" : "HOOD",
      "translation" : [ 0, 0.810815, 0.49812 ],
      "rotation" : [ -0, -0, 0, -1 ]
    },
    {
      "name" : "REAR_BUMPER",
      "translation" : [ 0, 0.673287, -2.28712 ],
      "rotation" : [ -0, -0, 0, -1 ]
    },
    {
      "name" : "WING",
      "translation" : [ 0, 1.17638, -2.19168 ],
      "rotation" : [ -0, -0, 0, -1 ]
    }
  ],
  "skins" : [
    {
      "inverseBindMatrices" : 0,
      "skeleton" : 1,
      "joints" : [
        1,2,3,4,5,6,7,8,9,10,11,12,13,14,15,16,17,18,19,20,21,22,23,24,25,26,27,28
      ]
    }
  ],
  "materials" : [
    {
      "name" : "EXT_Carpaint_Inst",
      "pbrMetallicRoughness" : {
        "baseColorFactor" : [ 0.3, 0.3, 0.3, 1.0 ],
        "metallicFactor" : 0.1,
        "roughnessFactor" : 0.5
      }
    }
  ],
  "meshes" : [
    {
      "primitives" : [
        {
          "attributes" : {
            "POSITION" : 2,
            "NORMAL" : 3,
            "TANGENT" : 4,
            "COLOR_0" : 5,
            "JOINTS_0" : 6,
            "WEIGHTS_0" : 7,
            "TEXCOORD_0" : 8
          },
          "indices" : 1,
          "material" : 0
        }
      ],
      "name" : "amr_v12_vantage_gt3_exterior_sprint_Lod4"
    }
  ],
  "buffers" : [
    {
      "uri" : "amr_v12_vantage_gt3_exterior_sprint_Lod4.bin",
      "byteLength" : 430468
    }
  ],
  "bufferViews" : [
    {
      "buffer" : 0,
      "byteOffset" : 0,
      "byteLength" : 1792
    },
    {
      "buffer" : 0,
      "byteOffset" : 1792,
      "byteLength" : 34308
    },
    {
      "buffer" : 0,
      "byteOffset" : 36100,
      "byteLength" : 73944
    },
    {
      "buffer" : 0,
      "byteOffset" : 110044,
      "byteLength" : 73944
    },
    {
      "buffer" : 0,
      "byteOffset" : 183988,
      "byteLength" : 98592
    },
    {
      "buffer" : 0,
      "byteOffset" : 282580,
      "byteLength" : 24648
    },
    {
      "buffer" : 0,
      "byteOffset" : 307228,
      "byteLength" : 49296
    },
    {
      "buffer" : 0,
      "byteOffset" : 356524,
      "byteLength" : 24648
    },
    {
      "buffer" : 0,
      "byteOffset" : 381172,
      "byteLength" : 49296
    }
  ],
  "accessors" : [
    {
      "bufferView" : 0,
      "componentType" : 5126,
      "count" : 28,
      "type" : "MAT4"
    },
    {
      "bufferView" : 1,
      "componentType" : 5123,
      "count" : 17154,
      "type" : "SCALAR"
    },
    {
      "bufferView" : 2,
      "min" : [ -0.97024, 0.0058133, -2.42772 ],
      "max" : [ 0.97024, 1.28511, 2.08211 ],
      "componentType" : 5126,
      "count" : 6162,
      "type" : "VEC3"
    },
    {
      "bufferView" : 3,
      "componentType" : 5126,
      "count" : 6162,
      "type" : "VEC3"
    },
    {
      "bufferView" : 4,
      "componentType" : 5126,
      "count" : 6162,
      "type" : "VEC4"
    },
    {
      "bufferView" : 5,
      "normalized" : true,
      "componentType" : 5121,
      "count" : 6162,
      "type" : "VEC4"
    },
    {
      "bufferView" : 6,
      "componentType" : 5123,
      "count" : 6162,
      "type" : "VEC4"
    },
    {
      "bufferView" : 7,
      "normalized" : true,
      "componentType" : 5121,
      "count" : 6162,
      "type" : "VEC4"
    },
    {
      "bufferView" : 8,
      "componentType" : 5126,
      "count" : 6162,
      "type" : "VEC2"
    }
  ]
}
