{
  "asset" : {
    "generator" : "UE Viewer (umodel) build 1589",
    "version" : "2.0"
  },
  "scene" : 0,
  "scenes" : [
    {
      "nodes" : [ 0 ]
    }
  ],
  "nodes" : [
    {
      "name" : "nissan_gtr_gt3_2017_rim_lf_Lod1",
      "mesh" : 0
    }
  ],
  "materials" : [
    {
      "name" : "EXT_RIM",
      "pbrMetallicRoughness" : {
        "baseColorFactor" : [ 0.3, 0.3, 0.3, 1.0 ],
        "metallicFactor" : 0.1,
        "roughnessFactor" : 0.5
      }
    },
    {
      "name" : "EXT_Rim_Decals",
      "pbrMetallicRoughness" : {
        "baseColorFactor" : [ 0.9, 0.3, 0.3, 1.0 ],
        "metallicFactor" : 0.1,
        "roughnessFactor" : 0.5
      }
    }
  ],
  "meshes" : [
    {
      "primitives" : [
        {
          "attributes" : {
            "POSITION" : 1,
            "NORMAL" : 2,
            "TANGENT" : 3,
            "COLOR_0" : 4,
            "TEXCOORD_0" : 5,
            "TEXCOORD_1" : 6
          },
          "indices" : 0,
          "material" : 0
        },
        {
          "attributes" : {
            "POSITION" : 8,
            "NORMAL" : 9,
            "TANGENT" : 10,
            "COLOR_0" : 11,
            "TEXCOORD_0" : 12,
            "TEXCOORD_1" : 13
          },
          "indices" : 7,
          "material" : 1
        }
      ],
      "name" : "nissan_gtr_gt3_2017_rim_lf_Lod1"
    }
  ],
  "buffers" : [
    {
      "uri" : "nissan_gtr_gt3_2017_rim_lf_Lod1.bin",
      "byteLength" : 144692
    }
  ],
  "bufferViews" : [
    {
      "buffer" : 0,
      "byteOffset" : 0,
      "byteLength" : 16596
    },
    {
      "buffer" : 0,
      "byteOffset" : 16596,
      "byteLength" : 25272
    },
    {
      "buffer" : 0,
      "byteOffset" : 41868,
      "byteLength" : 25272
    },
    {
      "buffer" : 0,
      "byteOffset" : 67140,
      "byteLength" : 33696
    },
    {
      "buffer" : 0,
      "byteOffset" : 100836,
      "byteLength" : 8424
    },
    {
      "buffer" : 0,
      "byteOffset" : 109260,
      "byteLength" : 16848
    },
    {
      "buffer" : 0,
      "byteOffset" : 126108,
      "byteLength" : 16848
    },
    {
      "buffer" : 0,
      "byteOffset" : 142956,
      "byteLength" : 116
    },
    {
      "buffer" : 0,
      "byteOffset" : 143072,
      "byteLength" : 324
    },
    {
      "buffer" : 0,
      "byteOffset" : 143396,
      "byteLength" : 324
    },
    {
      "buffer" : 0,
      "byteOffset" : 143720,
      "byteLength" : 432
    },
    {
      "buffer" : 0,
      "byteOffset" : 144152,
      "byteLength" : 108
    },
    {
      "buffer" : 0,
      "byteOffset" : 144260,
      "byteLength" : 216
    },
    {
      "buffer" : 0,
      "byteOffset" : 144476,
      "byteLength" : 216
    }
  ],
  "accessors" : [
    {
      "bufferView" : 0,
      "componentType" : 5123,
      "count" : 8298,
      "type" : "SCALAR"
    },
    {
      "bufferView" : 1,
      "min" : [ -0.178777, -0.250849, -0.2508 ],
      "max" : [ 0.178914, 0.25134, 0.250794 ],
      "componentType" : 5126,
      "count" : 2106,
      "type" : "VEC3"
    },
    {
      "bufferView" : 2,
      "componentType" : 5126,
      "count" : 2106,
      "type" : "VEC3"
    },
    {
      "bufferView" : 3,
      "componentType" : 5126,
      "count" : 2106,
      "type" : "VEC4"
    },
    {
      "bufferView" : 4,
      "normalized" : true,
      "componentType" : 5121,
      "count" : 2106,
      "type" : "VEC4"
    },
    {
      "bufferView" : 5,
      "componentType" : 5126,
      "count" : 2106,
      "type" : "VEC2"
    },
    {
      "bufferView" : 6,
      "componentType" : 5126,
      "count" : 2106,
      "type" : "VEC2"
    },
    {
      "bufferView" : 7,
      "componentType" : 5123,
      "count" : 57,
      "type" : "SCALAR"
    },
    {
      "bufferView" : 8,
      "min" : [ 0.132096, -0.143518, -0.20674 ],
      "max" : [ 0.144686, 0.219084, 0.206734 ],
      "componentType" : 5126,
      "count" : 27,
      "type" : "VEC3"
    },
    {
      "bufferView" : 9,
      "componentType" : 5126,
      "count" : 27,
      "type" : "VEC3"
    },
    {
      "bufferView" : 10,
      "componentType" : 5126,
      "count" : 27,
      "type" : "VEC4"
    },
    {
      "bufferView" : 11,
      "normalized" : true,
      "componentType" : 5121,
      "count" : 27,
      "type" : "VEC4"
    },
    {
      "bufferView" : 12,
      "componentType" : 5126,
      "count" : 27,
      "type" : "VEC2"
    },
    {
      "bufferView" : 13,
      "componentType" : 5126,
      "count" : 27,
      "type" : "VEC2"
    }
  ]
}
