{
  "asset" : {
    "generator" : "UE Viewer (umodel) build 1589",
    "version" : "2.0"
  },
  "scene" : 0,
  "scenes" : [
    {
      "nodes" : [ 0 ]
    }
  ],
  "nodes" : [
    {
      "name" : "alpine_a110_gt4_exterior_Lod4",
      "mesh" : 0,
      "skin" : 0,
      "children" : [ 1 ]
    },
    {
      "name" : "ALPINE_A110_GT4",
      "children" : [ 2 ],
      "translation" : [ 0, 0, 0 ],
      "rotation" : [ -0, -0, -0, 1 ]
    },
    {
      "name" : "CAR_BODY",
      "children" : [ 3, 4, 5, 6, 7, 8, 9, 10, 11, 12, 13, 14, 15, 16, 17, 18, 19, 20, 21, 22, 23, 24, 25, 26, 29, 32 ],
      "translation" : [ 0, 0, -0 ],
      "rotation" : [ -0, -0, 0, -1 ]
    },
    {
      "name" : "WHEEL_LF",
      "translation" : [ 0.752739, 0.323881, 1.21029 ],
      "rotation" : [ -1.19209e-07, 2.22045e-16, 1.86265e-09, -1 ]
    },
    {
      "name" : "SUSP_LF",
      "translation" : [ 0.752739, 0.323881, 1.21029 ],
      "rotation" : [ -1.19209e-07, 2.22045e-16, 1.86265e-09, -1 ]
    },
    {
      "name" : "DISC_LF",
      "translation" : [ 0.752739, 0.323881, 1.21029 ],
      "rotation" : [ -1.19209e-07, 2.22045e-16, 1.86265e-09, -1 ]
    },
    {
      "name" : "WHEEL_LR",
      "translation" : [ 0.754629, 0.32726, -1.21015 ],
      "rotation" : [ -1.78814e-07, 3.33067e-16, 1.86265e-09, -1 ]
    },
    {
      "name" : "SUSP_LR",
      "translation" : [ 0.754629, 0.32726, -1.21015 ],
      "rotation" : [ -1.78814e-07, 3.33067e-16, 1.86265e-09, -1 ]
    },
    {
      "name" : "DISC_LR",
      "translation" : [ 0.754629, 0.32726, -1.21015 ],
      "rotation" : [ -1.78814e-07, 3.33067e-16, 1.86265e-09, -1 ]
    },
    {
      "name" : "DISC_RF",
      "translation" : [ -0.75274, 0.323881, 1.21029 ],
      "rotation" : [ -1.19209e-07, -2.22045e-16, -1.86265e-09, -1 ]
    },
    {
      "name" : "SUSP_RF",
      "translation" : [ -0.75274, 0.323881, 1.21029 ],
      "rotation" : [ -1.19209e-07, -2.22045e-16, -1.86265e-09, -1 ]
    },
    {
      "name" : "WHEEL_RF",
      "translation" : [ -0.75274, 0.323881, 1.21029 ],
      "rotation" : [ -1.19209e-07, -2.22045e-16, -1.86265e-09, -1 ]
    },
    {
      "name" : "DISC_RR",
      "translation" : [ -0.75463, 0.32726, -1.21015 ],
      "rotation" : [ -1.78814e-07, -0, 0, -1 ]
    },
    {
      "name" : "WHEEL_RR",
      "translation" : [ -0.75463, 0.32726, -1.21015 ],
      "rotation" : [ -1.78814e-07, -0, 0, -1 ]
    },
    {
      "name" : "SUSP_RR",
      "translation" : [ -0.75463, 0.32726, -1.21015 ],
      "rotation" : [ -1.78814e-07, -0, 0, -1 ]
    },
    {
      "name" : "LUMIRANK",
      "translation" : [ -0.419642, 1.0309, 0.456617 ],
      "rotation" : [ -0.210284, 0.0298499, -0.0573371, -0.975501 ]
    },
    {
      "name" : "TYRE_LF",
      "translation" : [ 0.752739, 0.323881, 1.21029 ],
      "rotation" : [ -1.19209e-07, 2.22045e-16, 1.86265e-09, -1 ]
    },
    {
      "name" : "TYRE_RF",
      "translation" : [ -0.75274, 0.323881, 1.21029 ],
      "rotation" : [ -1.19209e-07, -2.22045e-16, -1.86265e-09, -1 ]
    },
    {
      "name" : "TYRE_RR",
      "translation" : [ -0.75463, 0.32726, -1.21015 ],
      "rotation" : [ -1.78814e-07, -0, 0, -1 ]
    },
    {
      "name" : "TYRE_LR",
      "translation" : [ 0.754629, 0.32726, -1.21015 ],
      "rotation" : [ -1.78814e-07, 3.33067e-16, 1.86265e-09, -1 ]
    },
    {
      "name" : "WING",
      "translation" : [ 0, 0.984003, -1.84848 ],
      "rotation" : [ -0.00209439, 4.87639e-13, 2.3283e-10, -0.999998 ]
    },
    {
      "name" : "DOOR_L",
      "translation" : [ 0.793593, 0.413167, 0.6676 ],
      "rotation" : [ -0, -0, 0, -1 ]
    },
    {
      "name" : "DOOR_R",
      "translation" : [ -0.79359, 0.413167, 0.667601 ],
      "rotation" : [ -0, -0, 0, -1 ]
    },
    {
      "name" : "FRONT_BUMPER",
      "translation" : [ 0, 0.554101, 1.43064 ],
      "rotation" : [ -0.00209439, 4.87639e-13, 2.3283e-10, -0.999998 ]
    },
    {
      "name" : "REAR_BUMPER",
      "translation" : [ 0, 0.550008, -1.44851 ],
      "rotation" : [ -0.00209439, 4.87639e-13, 2.3283e-10, -0.999998 ]
    },
    {
      "name" : "HOOD",
      "translation" : [ 0, 0.817446, 0.892568 ],
      "rotation" : [ -0.00209439, 4.87639e-13, 2.3283e-10, -0.999998 ]
    },
    {
      "name" : "WIPER_R1",
      "children" : [ 27 ],
      "translation" : [ 0.168419, 0.795048, 1.07558 ],
      "rotation" : [ -0.218885, 0.0482117, -0.012723, -0.974476 ]
    },
    {
      "name" : "WIPER_R2",
      "children" : [ 28 ],
      "translation" : [ -0.124117, 0.0103072, -0.00319603 ],
      "rotation" : [ -0.766341, -0.00729978, 0.00320885, -0.642384 ]
    },
    {
      "name" : "WIPER_R3",
      "translation" : [ -0.508351, -0.0873693, 0.0313139 ],
      "rotation" : [ 0.729222, 0.0398783, -0.130984, -0.670439 ]
    },
    {
      "name" : "WIPER_L1",
      "children" : [ 30 ],
      "translation" : [ 0.593016, 0.783754, 0.97513 ],
      "rotation" : [ -0.199039, -0.0565271, 0.0343971, -0.977755 ]
    },
    {
      "name" : "WIPER_L2",
      "children" : [ 31 ],
      "translation" : [ -0.122616, 0.0100372, -0.00853317 ],
      "rotation" : [ -0.76437, -0.00776571, -0.0512379, -0.642692 ]
    },
    {
      "name" : "WIPER_L3",
      "translation" : [ -0.366586, -0.0229407, -0.0159149 ],
      "rotation" : [ 0.734284, 0.0033779, 0.0108109, -0.678748 ]
    },
    {
      "name" : "DIFFUSER",
      "translation" : [ 0, 0.115421, -0.836927 ],
      "rotation" : [ -0, -0, 0, -1 ]
    }
  ],
  "skins" : [
    {
      "inverseBindMatrices" : 0,
      "skeleton" : 1,
      "joints" : [
        1,2,3,4,5,6,7,8,9,10,11,12,13,14,15,16,17,18,19,20,21,22,23,24,25,26,27,28,29,30,31,32
      ]
    }
  ],
  "materials" : [
    {
      "name" : "EXT_Carpaint_Inst",
      "pbrMetallicRoughness" : {
        "baseColorFactor" : [ 0.3, 0.3, 0.3, 1.0 ],
        "metallicFactor" : 0.1,
        "roughnessFactor" : 0.5
      }
    }
  ],
  "meshes" : [
    {
      "primitives" : [
        {
          "attributes" : {
            "POSITION" : 2,
            "NORMAL" : 3,
            "TANGENT" : 4,
            "COLOR_0" : 5,
            "JOINTS_0" : 6,
            "WEIGHTS_0" : 7,
            "TEXCOORD_0" : 8,
            "TEXCOORD_1" : 9,
            "TEXCOORD_2" : 10,
            "TEXCOORD_3" : 11
          },
          "indices" : 1,
          "material" : 0
        }
      ],
      "name" : "alpine_a110_gt4_exterior_Lod4"
    }
  ],
  "buffers" : [
    {
      "uri" : "alpine_a110_gt4_exterior_Lod4.bin",
      "byteLength" : 857456
    }
  ],
  "bufferViews" : [
    {
      "buffer" : 0,
      "byteOffset" : 0,
      "byteLength" : 2048
    },
    {
      "buffer" : 0,
      "byteOffset" : 2048,
      "byteLength" : 46776
    },
    {
      "buffer" : 0,
      "byteOffset" : 48824,
      "byteLength" : 110268
    },
    {
      "buffer" : 0,
      "byteOffset" : 159092,
      "byteLength" : 110268
    },
    {
      "buffer" : 0,
      "byteOffset" : 269360,
      "byteLength" : 147024
    },
    {
      "buffer" : 0,
      "byteOffset" : 416384,
      "byteLength" : 36756
    },
    {
      "buffer" : 0,
      "byteOffset" : 453140,
      "byteLength" : 73512
    },
    {
      "buffer" : 0,
      "byteOffset" : 526652,
      "byteLength" : 36756
    },
    {
      "buffer" : 0,
      "byteOffset" : 563408,
      "byteLength" : 73512
    },
    {
      "buffer" : 0,
      "byteOffset" : 636920,
      "byteLength" : 73512
    },
    {
      "buffer" : 0,
      "byteOffset" : 710432,
      "byteLength" : 73512
    },
    {
      "buffer" : 0,
      "byteOffset" : 783944,
      "byteLength" : 73512
    }
  ],
  "accessors" : [
    {
      "bufferView" : 0,
      "componentType" : 5126,
      "count" : 32,
      "type" : "MAT4"
    },
    {
      "bufferView" : 1,
      "componentType" : 5123,
      "count" : 23388,
      "type" : "SCALAR"
    },
    {
      "bufferView" : 2,
      "min" : [ -0.988887, 7.49588e-05, -2.06011 ],
      "max" : [ 0.988887, 1.34363, 2.20014 ],
      "componentType" : 5126,
      "count" : 9189,
      "type" : "VEC3"
    },
    {
      "bufferView" : 3,
      "componentType" : 5126,
      "count" : 9189,
      "type" : "VEC3"
    },
    {
      "bufferView" : 4,
      "componentType" : 5126,
      "count" : 9189,
      "type" : "VEC4"
    },
    {
      "bufferView" : 5,
      "normalized" : true,
      "componentType" : 5121,
      "count" : 9189,
      "type" : "VEC4"
    },
    {
      "bufferView" : 6,
      "componentType" : 5123,
      "count" : 9189,
      "type" : "VEC4"
    },
    {
      "bufferView" : 7,
      "normalized" : true,
      "componentType" : 5121,
      "count" : 9189,
      "type" : "VEC4"
    },
    {
      "bufferView" : 8,
      "componentType" : 5126,
      "count" : 9189,
      "type" : "VEC2"
    },
    {
      "bufferView" : 9,
      "componentType" : 5126,
      "count" : 9189,
      "type" : "VEC2"
    },
    {
      "bufferView" : 10,
      "componentType" : 5126,
      "count" : 9189,
      "type" : "VEC2"
    },
    {
      "bufferView" : 11,
      "componentType" : 5126,
      "count" : 9189,
      "type" : "VEC2"
    }
  ]
}
