{
  "asset" : {
    "generator" : "UE Viewer (umodel) build 1589",
    "version" : "2.0"
  },
  "scene" : 0,
  "scenes" : [
    {
      "nodes" : [ 0 ]
    }
  ],
  "nodes" : [
    {
      "name" : "alpine_a110_gt4_rim_lf_Lod1",
      "mesh" : 0
    }
  ],
  "materials" : [
    {
      "name" : "EXT_RIM",
      "pbrMetallicRoughness" : {
        "baseColorFactor" : [ 0.3, 0.3, 0.3, 1.0 ],
        "metallicFactor" : 0.1,
        "roughnessFactor" : 0.5
      }
    }
  ],
  "meshes" : [
    {
      "primitives" : [
        {
          "attributes" : {
            "POSITION" : 1,
            "NORMAL" : 2,
            "TANGENT" : 3,
            "COLOR_0" : 4,
            "TEXCOORD_0" : 5,
            "TEXCOORD_1" : 6
          },
          "indices" : 0,
          "material" : 0
        }
      ],
      "name" : "alpine_a110_gt4_rim_lf_Lod1"
    }
  ],
  "buffers" : [
    {
      "uri" : "alpine_a110_gt4_rim_lf_Lod1.bin",
      "byteLength" : 272484
    }
  ],
  "bufferViews" : [
    {
      "buffer" : 0,
      "byteOffset" : 0,
      "byteLength" : 33504
    },
    {
      "buffer" : 0,
      "byteOffset" : 33504,
      "byteLength" : 47796
    },
    {
      "buffer" : 0,
      "byteOffset" : 81300,
      "byteLength" : 47796
    },
    {
      "buffer" : 0,
      "byteOffset" : 129096,
      "byteLength" : 63728
    },
    {
      "buffer" : 0,
      "byteOffset" : 192824,
      "byteLength" : 15932
    },
    {
      "buffer" : 0,
      "byteOffset" : 208756,
      "byteLength" : 31864
    },
    {
      "buffer" : 0,
      "byteOffset" : 240620,
      "byteLength" : 31864
    }
  ],
  "accessors" : [
    {
      "bufferView" : 0,
      "componentType" : 5123,
      "count" : 16752,
      "type" : "SCALAR"
    },
    {
      "bufferView" : 1,
      "min" : [ -0.122315, -0.253085, -0.252785 ],
      "max" : [ 0.127165, 0.252323, 0.253901 ],
      "componentType" : 5126,
      "count" : 3983,
      "type" : "VEC3"
    },
    {
      "bufferView" : 2,
      "componentType" : 5126,
      "count" : 3983,
      "type" : "VEC3"
    },
    {
      "bufferView" : 3,
      "componentType" : 5126,
      "count" : 3983,
      "type" : "VEC4"
    },
    {
      "bufferView" : 4,
      "normalized" : true,
      "componentType" : 5121,
      "count" : 3983,
      "type" : "VEC4"
    },
    {
      "bufferView" : 5,
      "componentType" : 5126,
      "count" : 3983,
      "type" : "VEC2"
    },
    {
      "bufferView" : 6,
      "componentType" : 5126,
      "count" : 3983,
      "type" : "VEC2"
    }
  ]
}
