{
  "asset" : {
    "generator" : "UE Viewer (umodel) build 1589",
    "version" : "2.0"
  },
  "scene" : 0,
  "scenes" : [
    {
      "nodes" : [ 0 ]
    }
  ],
  "nodes" : [
    {
      "name" : "bmw_m6_gt3_exterior_sprint_Lod4",
      "mesh" : 0,
      "skin" : 0,
      "children" : [ 1 ]
    },
    {
      "name" : "BMW_M6_GT3",
      "children" : [ 2 ],
      "translation" : [ 0, 0, 0 ],
      "rotation" : [ -0, -0, -0, 1 ]
    },
    {
      "name" : "CAR_BODY",
      "children" : [ 3, 4, 5, 6, 7, 8, 9, 10, 11, 12, 13, 14, 15, 16, 17, 18, 19, 20, 23, 24, 25, 26, 27, 28, 29 ],
      "translation" : [ 0, 0, -0 ],
      "rotation" : [ -0, -0, 0, -1 ]
    },
    {
      "name" : "WHEEL_LF",
      "translation" : [ 0.845, 0.352363, 1.4525 ],
      "rotation" : [ -1.19209e-07, 2.22045e-16, 1.86265e-09, -1 ]
    },
    {
      "name" : "SUSP_LF",
      "translation" : [ 0.845, 0.352363, 1.4525 ],
      "rotation" : [ -1.19209e-07, 2.22045e-16, 1.86265e-09, -1 ]
    },
    {
      "name" : "DISC_LF",
      "translation" : [ 0.845, 0.352363, 1.4525 ],
      "rotation" : [ -1.19209e-07, 2.22045e-16, 1.86265e-09, -1 ]
    },
    {
      "name" : "WHEEL_LR",
      "translation" : [ 0.845, 0.352364, -1.4525 ],
      "rotation" : [ -1.78814e-07, 3.33067e-16, 1.86265e-09, -1 ]
    },
    {
      "name" : "SUSP_LR",
      "translation" : [ 0.845, 0.352364, -1.4525 ],
      "rotation" : [ -1.78814e-07, 3.33067e-16, 1.86265e-09, -1 ]
    },
    {
      "name" : "DISC_LR",
      "translation" : [ 0.845, 0.352364, -1.4525 ],
      "rotation" : [ -1.78814e-07, 3.33067e-16, 1.86265e-09, -1 ]
    },
    {
      "name" : "DISC_RF",
      "translation" : [ -0.845, 0.352363, 1.4525 ],
      "rotation" : [ -1.19209e-07, -2.22045e-16, -1.86265e-09, -1 ]
    },
    {
      "name" : "SUSP_RF",
      "translation" : [ -0.845, 0.352363, 1.4525 ],
      "rotation" : [ -1.19209e-07, -2.22045e-16, -1.86265e-09, -1 ]
    },
    {
      "name" : "WHEEL_RF",
      "translation" : [ -0.845, 0.352363, 1.4525 ],
      "rotation" : [ -1.19209e-07, -2.22045e-16, -1.86265e-09, -1 ]
    },
    {
      "name" : "DISC_RR",
      "translation" : [ -0.845, 0.352364, -1.4525 ],
      "rotation" : [ -1.78814e-07, -0, 0, -1 ]
    },
    {
      "name" : "WHEEL_RR",
      "translation" : [ -0.845, 0.352364, -1.4525 ],
      "rotation" : [ -1.78814e-07, -0, 0, -1 ]
    },
    {
      "name" : "SUSP_RR",
      "translation" : [ -0.845, 0.352364, -1.4525 ],
      "rotation" : [ -1.78814e-07, -0, 0, -1 ]
    },
    {
      "name" : "LUMIRANK",
      "translation" : [ -0.48214, 1.09334, 0.322796 ],
      "rotation" : [ -0.216207, 0.0806698, -0.0538209, -0.97152 ]
    },
    {
      "name" : "TYRE_LF",
      "translation" : [ 0.845, 0.352363, 1.4525 ],
      "rotation" : [ -1.19209e-07, 2.22045e-16, 1.86265e-09, -1 ]
    },
    {
      "name" : "TYRE_RF",
      "translation" : [ -0.845, 0.352363, 1.4525 ],
      "rotation" : [ -1.19209e-07, -2.22045e-16, -1.86265e-09, -1 ]
    },
    {
      "name" : "TYRE_RR",
      "translation" : [ -0.845, 0.352364, -1.4525 ],
      "rotation" : [ -1.78814e-07, -0, 0, -1 ]
    },
    {
      "name" : "TYRE_LR",
      "translation" : [ 0.845, 0.352364, -1.4525 ],
      "rotation" : [ -1.78814e-07, 3.33067e-16, 1.86265e-09, -1 ]
    },
    {
      "name" : "WIPER_1",
      "children" : [ 21 ],
      "translation" : [ 0.599268, 0.843358, 0.9192 ],
      "rotation" : [ -0.221537, 0.125099, 0.0377614, -0.966357 ]
    },
    {
      "name" : "WIPER_2",
      "children" : [ 22 ],
      "translation" : [ -0.198982, -0.00388662, -0.00407974 ],
      "rotation" : [ -0.0654958, -0.00852409, 0.0484455, -0.99664 ]
    },
    {
      "name" : "WIPER_3",
      "translation" : [ -0.357008, -0.0396011, 0.0266719 ],
      "rotation" : [ 0.0689213, -0.138401, -0.0467991, -0.986866 ]
    },
    {
      "name" : "DOOR_L",
      "translation" : [ 0.89744, 0.556871, 0.682265 ],
      "rotation" : [ -0, -0, 0, -1 ]
    },
    {
      "name" : "DOOR_R",
      "translation" : [ -0.89744, 0.556871, 0.682265 ],
      "rotation" : [ -0, -0, 0, -1 ]
    },
    {
      "name" : "REAR_BUMPER",
      "translation" : [ 0, 0.593225, -1.77036 ],
      "rotation" : [ -0, -0, 0, -1 ]
    },
    {
      "name" : "FRONT_BUMPER",
      "translation" : [ 0, 0.657208, 1.91843 ],
      "rotation" : [ -0, -0, 0, -1 ]
    },
    {
      "name" : "HOOD",
      "translation" : [ 0, 0.902815, 0.702517 ],
      "rotation" : [ -0, -0, 0, -1 ]
    },
    {
      "name" : "WING",
      "translation" : [ 0, 1.12443, -2.29883 ],
      "rotation" : [ -0, -0, 0, -1 ]
    },
    {
      "name" : "WIPER_4",
      "children" : [ 30 ],
      "translation" : [ 0.0861387, 0.85249, 0.951281 ],
      "rotation" : [ -0.24155, 0.158486, -0.003631, -0.957352 ]
    },
    {
      "name" : "WIPER_5",
      "children" : [ 31 ],
      "translation" : [ -0.149128, 0.0047219, 0.00535356 ],
      "rotation" : [ -0.0622964, -0.0242237, 0.023093, -0.997496 ]
    },
    {
      "name" : "WIPER_6",
      "translation" : [ -0.48173, -0.0307622, -0.0238115 ],
      "rotation" : [ 0.102813, 0.0285113, -0.0337418, -0.993719 ]
    }
  ],
  "skins" : [
    {
      "inverseBindMatrices" : 0,
      "skeleton" : 1,
      "joints" : [
        1,2,3,4,5,6,7,8,9,10,11,12,13,14,15,16,17,18,19,20,21,22,23,24,25,26,27,28,29,30,31
      ]
    }
  ],
  "materials" : [
    {
      "name" : "EXT_Carpaint_Inst",
      "pbrMetallicRoughness" : {
        "baseColorFactor" : [ 0.3, 0.3, 0.3, 1.0 ],
        "metallicFactor" : 0.1,
        "roughnessFactor" : 0.5
      }
    }
  ],
  "meshes" : [
    {
      "primitives" : [
        {
          "attributes" : {
            "POSITION" : 2,
            "NORMAL" : 3,
            "TANGENT" : 4,
            "COLOR_0" : 5,
            "JOINTS_0" : 6,
            "WEIGHTS_0" : 7,
            "TEXCOORD_0" : 8
          },
          "indices" : 1,
          "material" : 0
        }
      ],
      "name" : "bmw_m6_gt3_exterior_sprint_Lod4"
    }
  ],
  "buffers" : [
    {
      "uri" : "bmw_m6_gt3_exterior_sprint_Lod4.bin",
      "byteLength" : 317540
    }
  ],
  "bufferViews" : [
    {
      "buffer" : 0,
      "byteOffset" : 0,
      "byteLength" : 1984
    },
    {
      "buffer" : 0,
      "byteOffset" : 1984,
      "byteLength" : 25892
    },
    {
      "buffer" : 0,
      "byteOffset" : 27876,
      "byteLength" : 54312
    },
    {
      "buffer" : 0,
      "byteOffset" : 82188,
      "byteLength" : 54312
    },
    {
      "buffer" : 0,
      "byteOffset" : 136500,
      "byteLength" : 72416
    },
    {
      "buffer" : 0,
      "byteOffset" : 208916,
      "byteLength" : 18104
    },
    {
      "buffer" : 0,
      "byteOffset" : 227020,
      "byteLength" : 36208
    },
    {
      "buffer" : 0,
      "byteOffset" : 263228,
      "byteLength" : 18104
    },
    {
      "buffer" : 0,
      "byteOffset" : 281332,
      "byteLength" : 36208
    }
  ],
  "accessors" : [
    {
      "bufferView" : 0,
      "componentType" : 5126,
      "count" : 31,
      "type" : "MAT4"
    },
    {
      "bufferView" : 1,
      "componentType" : 5123,
      "count" : 12945,
      "type" : "SCALAR"
    },
    {
      "bufferView" : 2,
      "min" : [ -1.02322, 0.0124127, -2.56292 ],
      "max" : [ 1.02322, 1.2999, 2.43258 ],
      "componentType" : 5126,
      "count" : 4526,
      "type" : "VEC3"
    },
    {
      "bufferView" : 3,
      "componentType" : 5126,
      "count" : 4526,
      "type" : "VEC3"
    },
    {
      "bufferView" : 4,
      "componentType" : 5126,
      "count" : 4526,
      "type" : "VEC4"
    },
    {
      "bufferView" : 5,
      "normalized" : true,
      "componentType" : 5121,
      "count" : 4526,
      "type" : "VEC4"
    },
    {
      "bufferView" : 6,
      "componentType" : 5123,
      "count" : 4526,
      "type" : "VEC4"
    },
    {
      "bufferView" : 7,
      "normalized" : true,
      "componentType" : 5121,
      "count" : 4526,
      "type" : "VEC4"
    },
    {
      "bufferView" : 8,
      "componentType" : 5126,
      "count" : 4526,
      "type" : "VEC2"
    }
  ]
}
