{
  "asset" : {
    "generator" : "UE Viewer (umodel) build 1589",
    "version" : "2.0"
  },
  "scene" : 0,
  "scenes" : [
    {
      "nodes" : [ 0 ]
    }
  ],
  "nodes" : [
    {
      "name" : "bmw_m6_gt3_rim_lf_Lod1",
      "mesh" : 0
    }
  ],
  "materials" : [
    {
      "name" : "EXT_RIM",
      "pbrMetallicRoughness" : {
        "baseColorFactor" : [ 0.3, 0.3, 0.3, 1.0 ],
        "metallicFactor" : 0.1,
        "roughnessFactor" : 0.5
      }
    },
    {
      "name" : "EXT_Rim_Decals",
      "pbrMetallicRoughness" : {
        "baseColorFactor" : [ 0.9, 0.3, 0.3, 1.0 ],
        "metallicFactor" : 0.1,
        "roughnessFactor" : 0.5
      }
    }
  ],
  "meshes" : [
    {
      "primitives" : [
        {
          "attributes" : {
            "POSITION" : 1,
            "NORMAL" : 2,
            "TANGENT" : 3,
            "TEXCOORD_0" : 4,
            "TEXCOORD_1" : 5
          },
          "indices" : 0,
          "material" : 0
        },
        {
          "attributes" : {
            "POSITION" : 7,
            "NORMAL" : 8,
            "TANGENT" : 9,
            "TEXCOORD_0" : 10,
            "TEXCOORD_1" : 11
          },
          "indices" : 6,
          "material" : 1
        }
      ],
      "name" : "bmw_m6_gt3_rim_lf_Lod1"
    }
  ],
  "buffers" : [
    {
      "uri" : "bmw_m6_gt3_rim_lf_Lod1.bin",
      "byteLength" : 181316
    }
  ],
  "bufferViews" : [
    {
      "buffer" : 0,
      "byteOffset" : 0,
      "byteLength" : 23636
    },
    {
      "buffer" : 0,
      "byteOffset" : 23636,
      "byteLength" : 33456
    },
    {
      "buffer" : 0,
      "byteOffset" : 57092,
      "byteLength" : 33456
    },
    {
      "buffer" : 0,
      "byteOffset" : 90548,
      "byteLength" : 44608
    },
    {
      "buffer" : 0,
      "byteOffset" : 135156,
      "byteLength" : 22304
    },
    {
      "buffer" : 0,
      "byteOffset" : 157460,
      "byteLength" : 22304
    },
    {
      "buffer" : 0,
      "byteOffset" : 179764,
      "byteLength" : 96
    },
    {
      "buffer" : 0,
      "byteOffset" : 179860,
      "byteLength" : 312
    },
    {
      "buffer" : 0,
      "byteOffset" : 180172,
      "byteLength" : 312
    },
    {
      "buffer" : 0,
      "byteOffset" : 180484,
      "byteLength" : 416
    },
    {
      "buffer" : 0,
      "byteOffset" : 180900,
      "byteLength" : 208
    },
    {
      "buffer" : 0,
      "byteOffset" : 181108,
      "byteLength" : 208
    }
  ],
  "accessors" : [
    {
      "bufferView" : 0,
      "componentType" : 5123,
      "count" : 11817,
      "type" : "SCALAR"
    },
    {
      "bufferView" : 1,
      "min" : [ -0.177882, -0.249638, -0.25024 ],
      "max" : [ 0.174659, 0.249036, 0.250134 ],
      "componentType" : 5126,
      "count" : 2788,
      "type" : "VEC3"
    },
    {
      "bufferView" : 2,
      "componentType" : 5126,
      "count" : 2788,
      "type" : "VEC3"
    },
    {
      "bufferView" : 3,
      "componentType" : 5126,
      "count" : 2788,
      "type" : "VEC4"
    },
    {
      "bufferView" : 4,
      "componentType" : 5126,
      "count" : 2788,
      "type" : "VEC2"
    },
    {
      "bufferView" : 5,
      "componentType" : 5126,
      "count" : 2788,
      "type" : "VEC2"
    },
    {
      "bufferView" : 6,
      "componentType" : 5123,
      "count" : 48,
      "type" : "SCALAR"
    },
    {
      "bufferView" : 7,
      "min" : [ 0.126293, -0.239803, -0.0673422 ],
      "max" : [ 0.17118, 0.19744, 0.181773 ],
      "componentType" : 5126,
      "count" : 26,
      "type" : "VEC3"
    },
    {
      "bufferView" : 8,
      "componentType" : 5126,
      "count" : 26,
      "type" : "VEC3"
    },
    {
      "bufferView" : 9,
      "componentType" : 5126,
      "count" : 26,
      "type" : "VEC4"
    },
    {
      "bufferView" : 10,
      "componentType" : 5126,
      "count" : 26,
      "type" : "VEC2"
    },
    {
      "bufferView" : 11,
      "componentType" : 5126,
      "count" : 26,
      "type" : "VEC2"
    }
  ]
}
