{
  "asset" : {
    "generator" : "UE Viewer (umodel) build 1589",
    "version" : "2.0"
  },
  "scene" : 0,
  "scenes" : [
    {
      "nodes" : [ 0 ]
    }
  ],
  "nodes" : [
    {
      "name" : "chevrolet_camaro_gt4r_exterior_Lod4",
      "mesh" : 0,
      "skin" : 0,
      "children" : [ 1 ]
    },
    {
      "name" : "CHEVY_CAMARO_GT4R",
      "children" : [ 2 ],
      "translation" : [ 0, 0, 0 ],
      "rotation" : [ -0, -0, -0, 1 ]
    },
    {
      "name" : "CAR_BODY",
      "children" : [ 3, 4, 7, 10, 11, 12, 13, 14, 15, 16, 17, 18, 19, 20, 21, 22, 23, 24, 25, 26, 27, 28, 29, 30, 31 ],
      "translation" : [ 0, 0, -0 ],
      "rotation" : [ -0.00436331, -0, 0, -0.99999 ]
    },
    {
      "name" : "LUMIRANK",
      "translation" : [ -0.479214, 1.13609, 0.346034 ],
      "rotation" : [ -0.207593, 0.090503, -0.0584948, -0.972262 ]
    },
    {
      "name" : "WIPER_L_1",
      "children" : [ 5 ],
      "translation" : [ 0.573097, 0.848386, 0.885324 ],
      "rotation" : [ -0.758566, -0.376889, 0.334749, -0.412885 ]
    },
    {
      "name" : "WIPER_L_2",
      "children" : [ 6 ],
      "translation" : [ -0.0295653, -0.144899, -0.027977 ],
      "rotation" : [ -0.777386, 0.125089, -0.591585, -0.173353 ]
    },
    {
      "name" : "WIPER_L_3",
      "translation" : [ -0.00872122, 0.358545, 0.00219579 ],
      "rotation" : [ 0.121785, 0.0954485, 0.987816, 0.0166571 ]
    },
    {
      "name" : "WIPER_R_1",
      "children" : [ 8 ],
      "translation" : [ -0.0041709, 0.887996, 0.933083 ],
      "rotation" : [ -0.742508, -0.421834, 0.253395, -0.454454 ]
    },
    {
      "name" : "WIPER_R_2",
      "children" : [ 9 ],
      "translation" : [ -0.00934851, -0.109442, -0.0260044 ],
      "rotation" : [ -0.102538, -0.689338, 0.145938, -0.702141 ]
    },
    {
      "name" : "WIPER_R_3",
      "translation" : [ -0.00272028, -0.393496, 0.0390652 ],
      "rotation" : [ 3.54695e-07, -7.30677e-08, 0.0522287, -0.998635 ]
    },
    {
      "name" : "DOOR_L",
      "translation" : [ 0.841664, 0.772652, 0.618067 ],
      "rotation" : [ -0, -0, 0, -1 ]
    },
    {
      "name" : "DOOR_R",
      "translation" : [ -0.841664, 0.772652, 0.618067 ],
      "rotation" : [ -0, -0, 0, -1 ]
    },
    {
      "name" : "REAR_BUMPER",
      "translation" : [ 0, 0.752679, -2.13945 ],
      "rotation" : [ -0, -0, 0, -1 ]
    },
    {
      "name" : "WING",
      "translation" : [ 0, 1.15973, -2.34179 ],
      "rotation" : [ -0, -0, 0, -1 ]
    },
    {
      "name" : "HOOD",
      "translation" : [ 0, 0.924482, 0.810885 ],
      "rotation" : [ -0, -0, 0, -1 ]
    },
    {
      "name" : "FRONT_BUMPER",
      "translation" : [ 0, 0.212519, 1.79532 ],
      "rotation" : [ -0, -0, 0, -1 ]
    },
    {
      "name" : "DISC_LF",
      "translation" : [ 0.79099, 0.348005, 1.40299 ],
      "rotation" : [ 0.00436328, -0, -0, -0.99999 ]
    },
    {
      "name" : "SUSP_LF",
      "translation" : [ 0.79099, 0.348005, 1.40299 ],
      "rotation" : [ 0.00436328, -0, -0, -0.99999 ]
    },
    {
      "name" : "WHEEL_LF",
      "translation" : [ 0.79099, 0.348005, 1.40299 ],
      "rotation" : [ 0.00436328, 3.60916e-23, 8.27193e-21, -0.99999 ]
    },
    {
      "name" : "DISC_RF",
      "translation" : [ -0.79099, 0.348005, 1.40299 ],
      "rotation" : [ 0.00436328, -0, -0, -0.99999 ]
    },
    {
      "name" : "SUSP_RF",
      "translation" : [ -0.79099, 0.348005, 1.40299 ],
      "rotation" : [ 0.00436328, -0, -0, -0.99999 ]
    },
    {
      "name" : "WHEEL_RF",
      "translation" : [ -0.79099, 0.348005, 1.40299 ],
      "rotation" : [ 0.00436328, -1.97213e-27, 8.60634e-30, -0.99999 ]
    },
    {
      "name" : "DISC_LR",
      "translation" : [ 0.792644, 0.323521, -1.40885 ],
      "rotation" : [ 0.00436328, -0, -0, -0.99999 ]
    },
    {
      "name" : "WHEEL_RR",
      "translation" : [ -0.792644, 0.323521, -1.40885 ],
      "rotation" : [ 0.00436328, -0, -0, -0.99999 ]
    },
    {
      "name" : "SUSP_RR",
      "translation" : [ -0.792644, 0.323521, -1.40885 ],
      "rotation" : [ 0.00436328, -0, -0, -0.99999 ]
    },
    {
      "name" : "WHEEL_LR",
      "translation" : [ 0.792644, 0.323521, -1.40885 ],
      "rotation" : [ 0.00436328, 5.20594e-25, 1.1932e-22, -0.99999 ]
    },
    {
      "name" : "SUSP_LR",
      "translation" : [ 0.792644, 0.323521, -1.40885 ],
      "rotation" : [ 0.00436328, -0, -0, -0.99999 ]
    },
    {
      "name" : "TYRE_LF",
      "translation" : [ 0.79099, 0.348005, 1.40299 ],
      "rotation" : [ 0.00436328, 3.60916e-23, 8.27193e-21, -0.99999 ]
    },
    {
      "name" : "TYRE_RF",
      "translation" : [ -0.79099, 0.348005, 1.40299 ],
      "rotation" : [ 0.00436328, -1.97213e-27, 8.60634e-30, -0.99999 ]
    },
    {
      "name" : "TYRE_RR",
      "translation" : [ -0.792644, 0.323521, -1.40885 ],
      "rotation" : [ 0.00436328, -0, -0, -0.99999 ]
    },
    {
      "name" : "TYRE_LR",
      "translation" : [ 0.792644, 0.323521, -1.40885 ],
      "rotation" : [ 0.00436328, 5.20594e-25, 1.1932e-22, -0.99999 ]
    },
    {
      "name" : "DISC_RR",
      "translation" : [ -0.792644, 0.323521, -1.40885 ],
      "rotation" : [ 0.00436328, -0, -0, -0.99999 ]
    }
  ],
  "skins" : [
    {
      "inverseBindMatrices" : 0,
      "skeleton" : 1,
      "joints" : [
        1,2,3,4,5,6,7,8,9,10,11,12,13,14,15,16,17,18,19,20,21,22,23,24,25,26,27,28,29,30,31
      ]
    }
  ],
  "materials" : [
    {
      "name" : "EXT_Carpaint_Inst",
      "pbrMetallicRoughness" : {
        "baseColorFactor" : [ 0.3, 0.3, 0.3, 1.0 ],
        "metallicFactor" : 0.1,
        "roughnessFactor" : 0.5
      }
    }
  ],
  "meshes" : [
    {
      "primitives" : [
        {
          "attributes" : {
            "POSITION" : 2,
            "NORMAL" : 3,
            "TANGENT" : 4,
            "COLOR_0" : 5,
            "JOINTS_0" : 6,
            "WEIGHTS_0" : 7,
            "TEXCOORD_0" : 8
          },
          "indices" : 1,
          "material" : 0
        }
      ],
      "name" : "chevrolet_camaro_gt4r_exterior_Lod4"
    }
  ],
  "buffers" : [
    {
      "uri" : "chevrolet_camaro_gt4r_exterior_Lod4.bin",
      "byteLength" : 336320
    }
  ],
  "bufferViews" : [
    {
      "buffer" : 0,
      "byteOffset" : 0,
      "byteLength" : 1984
    },
    {
      "buffer" : 0,
      "byteOffset" : 1984,
      "byteLength" : 26112
    },
    {
      "buffer" : 0,
      "byteOffset" : 28096,
      "byteLength" : 57792
    },
    {
      "buffer" : 0,
      "byteOffset" : 85888,
      "byteLength" : 57792
    },
    {
      "buffer" : 0,
      "byteOffset" : 143680,
      "byteLength" : 77056
    },
    {
      "buffer" : 0,
      "byteOffset" : 220736,
      "byteLength" : 19264
    },
    {
      "buffer" : 0,
      "byteOffset" : 240000,
      "byteLength" : 38528
    },
    {
      "buffer" : 0,
      "byteOffset" : 278528,
      "byteLength" : 19264
    },
    {
      "buffer" : 0,
      "byteOffset" : 297792,
      "byteLength" : 38528
    }
  ],
  "accessors" : [
    {
      "bufferView" : 0,
      "componentType" : 5126,
      "count" : 31,
      "type" : "MAT4"
    },
    {
      "bufferView" : 1,
      "componentType" : 5123,
      "count" : 13056,
      "type" : "SCALAR"
    },
    {
      "bufferView" : 2,
      "min" : [ -1.01483, -0.00204556, -2.4535 ],
      "max" : [ 1.01483, 1.28758, 2.41149 ],
      "componentType" : 5126,
      "count" : 4816,
      "type" : "VEC3"
    },
    {
      "bufferView" : 3,
      "componentType" : 5126,
      "count" : 4816,
      "type" : "VEC3"
    },
    {
      "bufferView" : 4,
      "componentType" : 5126,
      "count" : 4816,
      "type" : "VEC4"
    },
    {
      "bufferView" : 5,
      "normalized" : true,
      "componentType" : 5121,
      "count" : 4816,
      "type" : "VEC4"
    },
    {
      "bufferView" : 6,
      "componentType" : 5123,
      "count" : 4816,
      "type" : "VEC4"
    },
    {
      "bufferView" : 7,
      "normalized" : true,
      "componentType" : 5121,
      "count" : 4816,
      "type" : "VEC4"
    },
    {
      "bufferView" : 8,
      "componentType" : 5126,
      "count" : 4816,
      "type" : "VEC2"
    }
  ]
}
