{
  "asset" : {
    "generator" : "UE Viewer (umodel) build 1589",
    "version" : "2.0"
  },
  "scene" : 0,
  "scenes" : [
    {
      "nodes" : [ 0 ]
    }
  ],
  "nodes" : [
    {
      "name" : "chevrolet_camaro_gt4r_rim_rf_Lod1",
      "mesh" : 0
    }
  ],
  "materials" : [
    {
      "name" : "EXT_RIM",
      "pbrMetallicRoughness" : {
        "baseColorFactor" : [ 0.3, 0.3, 0.3, 1.0 ],
        "metallicFactor" : 0.1,
        "roughnessFactor" : 0.5
      }
    },
    {
      "name" : "EXT_Rim_Decals",
      "pbrMetallicRoughness" : {
        "baseColorFactor" : [ 0.9, 0.3, 0.3, 1.0 ],
        "metallicFactor" : 0.1,
        "roughnessFactor" : 0.5
      }
    }
  ],
  "meshes" : [
    {
      "primitives" : [
        {
          "attributes" : {
            "POSITION" : 1,
            "NORMAL" : 2,
            "TANGENT" : 3,
            "TEXCOORD_0" : 4,
            "TEXCOORD_1" : 5
          },
          "indices" : 0,
          "material" : 0
        },
        {
          "attributes" : {
            "POSITION" : 7,
            "NORMAL" : 8,
            "TANGENT" : 9,
            "TEXCOORD_0" : 10,
            "TEXCOORD_1" : 11
          },
          "indices" : 6,
          "material" : 1
        }
      ],
      "name" : "chevrolet_camaro_gt4r_rim_rf_Lod1"
    }
  ],
  "buffers" : [
    {
      "uri" : "chevrolet_camaro_gt4r_rim_rf_Lod1.bin",
      "byteLength" : 230024
    }
  ],
  "bufferViews" : [
    {
      "buffer" : 0,
      "byteOffset" : 0,
      "byteLength" : 25700
    },
    {
      "buffer" : 0,
      "byteOffset" : 25700,
      "byteLength" : 43680
    },
    {
      "buffer" : 0,
      "byteOffset" : 69380,
      "byteLength" : 43680
    },
    {
      "buffer" : 0,
      "byteOffset" : 113060,
      "byteLength" : 58240
    },
    {
      "buffer" : 0,
      "byteOffset" : 171300,
      "byteLength" : 29120
    },
    {
      "buffer" : 0,
      "byteOffset" : 200420,
      "byteLength" : 29120
    },
    {
      "buffer" : 0,
      "byteOffset" : 229540,
      "byteLength" : 36
    },
    {
      "buffer" : 0,
      "byteOffset" : 229576,
      "byteLength" : 96
    },
    {
      "buffer" : 0,
      "byteOffset" : 229672,
      "byteLength" : 96
    },
    {
      "buffer" : 0,
      "byteOffset" : 229768,
      "byteLength" : 128
    },
    {
      "buffer" : 0,
      "byteOffset" : 229896,
      "byteLength" : 64
    },
    {
      "buffer" : 0,
      "byteOffset" : 229960,
      "byteLength" : 64
    }
  ],
  "accessors" : [
    {
      "bufferView" : 0,
      "componentType" : 5123,
      "count" : 12849,
      "type" : "SCALAR"
    },
    {
      "bufferView" : 1,
      "min" : [ -0.155209, -0.249695, -0.249695 ],
      "max" : [ 0.156621, 0.251607, 0.251212 ],
      "componentType" : 5126,
      "count" : 3640,
      "type" : "VEC3"
    },
    {
      "bufferView" : 2,
      "componentType" : 5126,
      "count" : 3640,
      "type" : "VEC3"
    },
    {
      "bufferView" : 3,
      "componentType" : 5126,
      "count" : 3640,
      "type" : "VEC4"
    },
    {
      "bufferView" : 4,
      "componentType" : 5126,
      "count" : 3640,
      "type" : "VEC2"
    },
    {
      "bufferView" : 5,
      "componentType" : 5126,
      "count" : 3640,
      "type" : "VEC2"
    },
    {
      "bufferView" : 6,
      "componentType" : 5123,
      "count" : 18,
      "type" : "SCALAR"
    },
    {
      "bufferView" : 7,
      "min" : [ -0.153069, -0.23464, -0.0624941 ],
      "max" : [ -0.143447, -0.217174, 0.0623658 ],
      "componentType" : 5126,
      "count" : 8,
      "type" : "VEC3"
    },
    {
      "bufferView" : 8,
      "componentType" : 5126,
      "count" : 8,
      "type" : "VEC3"
    },
    {
      "bufferView" : 9,
      "componentType" : 5126,
      "count" : 8,
      "type" : "VEC4"
    },
    {
      "bufferView" : 10,
      "componentType" : 5126,
      "count" : 8,
      "type" : "VEC2"
    },
    {
      "bufferView" : 11,
      "componentType" : 5126,
      "count" : 8,
      "type" : "VEC2"
    }
  ]
}
