{
  "asset" : {
    "generator" : "UE Viewer (umodel) build 1589",
    "version" : "2.0"
  },
  "scene" : 0,
  "scenes" : [
    {
      "nodes" : [ 0 ]
    }
  ],
  "nodes" : [
    {
      "name" : "audi_r8_lms_gt2_exterior_Lod4",
      "mesh" : 0,
      "skin" : 0,
      "children" : [ 1 ]
    },
    {
      "name" : "AUDI_R8_GT2",
      "children" : [ 2 ],
      "translation" : [ 0, 0, 0 ],
      "rotation" : [ -0, -0, -0, 1 ]
    },
    {
      "name" : "CAR_BODY",
      "children" : [ 3, 4, 5, 6, 7, 8, 9, 10, 11, 12, 13, 14, 15, 16, 17, 18, 19, 20, 21, 22, 23, 24, 25, 26 ],
      "translation" : [ 0, 0, -0 ],
      "rotation" : [ -0, -0, 0, -1 ]
    },
    {
      "name" : "WHEEL_LF",
      "translation" : [ 0.823629, 0.367127, 1.3257 ],
      "rotation" : [ 6.81554e-07, -1.26949e-15, 1.86265e-09, -1 ]
    },
    {
      "name" : "SUSP_LF",
      "translation" : [ 0.823629, 0.367127, 1.3257 ],
      "rotation" : [ -2.98023e-08, 5.55112e-17, 1.86265e-09, -1 ]
    },
    {
      "name" : "DISC_LF",
      "translation" : [ 0.823629, 0.367127, 1.3257 ],
      "rotation" : [ 6.81554e-07, -1.2695e-15, 1.86265e-09, -1 ]
    },
    {
      "name" : "WHEEL_LR",
      "translation" : [ 0.811532, 0.387603, -1.32858 ],
      "rotation" : [ 4.09708e-07, -7.63141e-16, 1.86265e-09, -1 ]
    },
    {
      "name" : "SUSP_LR",
      "translation" : [ 0.811532, 0.387604, -1.32858 ],
      "rotation" : [ -0, -0, 1.86265e-09, -1 ]
    },
    {
      "name" : "DISC_LR",
      "translation" : [ 0.811532, 0.387603, -1.32858 ],
      "rotation" : [ 4.09708e-07, -7.63181e-16, 1.86265e-09, -1 ]
    },
    {
      "name" : "DISC_RF",
      "translation" : [ -0.82363, 0.36713, 1.3257 ],
      "rotation" : [ 2.48822e-07, 4.63454e-16, -1.86265e-09, -1 ]
    },
    {
      "name" : "SUSP_RF",
      "translation" : [ -0.82363, 0.36713, 1.3257 ],
      "rotation" : [ -0, -0, -1.86265e-09, -1 ]
    },
    {
      "name" : "WHEEL_RF",
      "translation" : [ -0.82363, 0.36713, 1.3257 ],
      "rotation" : [ 2.48822e-07, 4.63468e-16, -1.86265e-09, -1 ]
    },
    {
      "name" : "DISC_RR",
      "translation" : [ -0.81153, 0.3876, -1.32858 ],
      "rotation" : [ 1.99924e-08, 6.86855e-20, 7.61832e-22, -1 ]
    },
    {
      "name" : "WHEEL_RR",
      "translation" : [ -0.81153, 0.3876, -1.32858 ],
      "rotation" : [ 1.99924e-08, -0, -0, -1 ]
    },
    {
      "name" : "SUSP_RR",
      "translation" : [ -0.81153, 0.387599, -1.32858 ],
      "rotation" : [ -2.98023e-08, -0, 0, -1 ]
    },
    {
      "name" : "LUMIRANK",
      "translation" : [ -0.455047, 1.03303, 0.757334 ],
      "rotation" : [ -0.21886, 0.0415154, -0.0987488, -0.969858 ]
    },
    {
      "name" : "TYRE_LF",
      "translation" : [ 0.823629, 0.367127, 1.3257 ],
      "rotation" : [ 6.8134e-07, -1.26909e-15, 1.86265e-09, -1 ]
    },
    {
      "name" : "TYRE_RF",
      "translation" : [ -0.82363, 0.36713, 1.3257 ],
      "rotation" : [ 2.48822e-07, 4.63468e-16, -1.86265e-09, -1 ]
    },
    {
      "name" : "TYRE_RR",
      "translation" : [ -0.81153, 0.3876, -1.32858 ],
      "rotation" : [ 1.99924e-08, -0, -0, -1 ]
    },
    {
      "name" : "TYRE_LR",
      "translation" : [ 0.811532, 0.387603, -1.32858 ],
      "rotation" : [ 4.09708e-07, -7.63141e-16, 1.86265e-09, -1 ]
    },
    {
      "name" : "WING",
      "translation" : [ 0, 1.22094, -1.94286 ],
      "rotation" : [ -0.00209439, 4.87639e-13, 2.3283e-10, -0.999998 ]
    },
    {
      "name" : "DOOR_L",
      "translation" : [ 0.86319, 0.479436, 0.857728 ],
      "rotation" : [ -0, -5.96046e-08, 0, -1 ]
    },
    {
      "name" : "DOOR_R",
      "translation" : [ -0.86319, 0.479436, 0.857728 ],
      "rotation" : [ -0, -0, 2.32831e-10, -1 ]
    },
    {
      "name" : "FRONT_BUMPER",
      "translation" : [ 1.52588e-07, 0.575102, 1.56238 ],
      "rotation" : [ -0.00209439, 4.87639e-13, 2.3283e-10, -0.999998 ]
    },
    {
      "name" : "REAR_BUMPER",
      "translation" : [ 0, 0.624108, -1.55465 ],
      "rotation" : [ -0.00209439, 4.87639e-13, 2.3283e-10, -0.999998 ]
    },
    {
      "name" : "HOOD",
      "translation" : [ 1.52588e-07, 0.81258, 0.901883 ],
      "rotation" : [ -0.00209439, 4.87639e-13, 2.3283e-10, -0.999998 ]
    },
    {
      "name" : "WIPER_R1",
      "children" : [ 27 ],
      "translation" : [ 0.0597125, 0.722209, 1.3801 ],
      "rotation" : [ -0.0567178, -0.272428, 0.960368, -0.0160892 ]
    },
    {
      "name" : "WIPER_R2",
      "children" : [ 28 ],
      "translation" : [ 0.134461, -0.0535839, 0.0100954 ],
      "rotation" : [ -0.814838, -0.0103359, -0.579178, -0.0220116 ]
    },
    {
      "name" : "WIPER_R3",
      "translation" : [ -0.0219689, -0.0433516, 0.415422 ],
      "rotation" : [ -0.0130825, -0.725265, -0.0789597, -0.683802 ]
    }
  ],
  "skins" : [
    {
      "inverseBindMatrices" : 0,
      "skeleton" : 1,
      "joints" : [
        1,2,3,4,5,6,7,8,9,10,11,12,13,14,15,16,17,18,19,20,21,22,23,24,25,26,27,28
      ]
    }
  ],
  "materials" : [
    {
      "name" : "EXT_Carpaint_Inst",
      "pbrMetallicRoughness" : {
        "baseColorFactor" : [ 0.3, 0.3, 0.3, 1.0 ],
        "metallicFactor" : 0.1,
        "roughnessFactor" : 0.5
      }
    }
  ],
  "meshes" : [
    {
      "primitives" : [
        {
          "attributes" : {
            "POSITION" : 2,
            "NORMAL" : 3,
            "TANGENT" : 4,
            "COLOR_0" : 5,
            "JOINTS_0" : 6,
            "WEIGHTS_0" : 7,
            "TEXCOORD_0" : 8
          },
          "indices" : 1,
          "material" : 0
        }
      ],
      "name" : "audi_r8_lms_gt2_exterior_Lod4"
    }
  ],
  "buffers" : [
    {
      "uri" : "audi_r8_lms_gt2_exterior_Lod4.bin",
      "byteLength" : 801148
    }
  ],
  "bufferViews" : [
    {
      "buffer" : 0,
      "byteOffset" : 0,
      "byteLength" : 1792
    },
    {
      "buffer" : 0,
      "byteOffset" : 1792,
      "byteLength" : 63932
    },
    {
      "buffer" : 0,
      "byteOffset" : 65724,
      "byteLength" : 137892
    },
    {
      "buffer" : 0,
      "byteOffset" : 203616,
      "byteLength" : 137892
    },
    {
      "buffer" : 0,
      "byteOffset" : 341508,
      "byteLength" : 183856
    },
    {
      "buffer" : 0,
      "byteOffset" : 525364,
      "byteLength" : 45964
    },
    {
      "buffer" : 0,
      "byteOffset" : 571328,
      "byteLength" : 91928
    },
    {
      "buffer" : 0,
      "byteOffset" : 663256,
      "byteLength" : 45964
    },
    {
      "buffer" : 0,
      "byteOffset" : 709220,
      "byteLength" : 91928
    }
  ],
  "accessors" : [
    {
      "bufferView" : 0,
      "componentType" : 5126,
      "count" : 28,
      "type" : "MAT4"
    },
    {
      "bufferView" : 1,
      "componentType" : 5123,
      "count" : 31965,
      "type" : "SCALAR"
    },
    {
      "bufferView" : 2,
      "min" : [ -1.02357, 0.0231954, -2.21221 ],
      "max" : [ 1.02377, 1.32409, 2.3885 ],
      "componentType" : 5126,
      "count" : 11491,
      "type" : "VEC3"
    },
    {
      "bufferView" : 3,
      "componentType" : 5126,
      "count" : 11491,
      "type" : "VEC3"
    },
    {
      "bufferView" : 4,
      "componentType" : 5126,
      "count" : 11491,
      "type" : "VEC4"
    },
    {
      "bufferView" : 5,
      "normalized" : true,
      "componentType" : 5121,
      "count" : 11491,
      "type" : "VEC4"
    },
    {
      "bufferView" : 6,
      "componentType" : 5123,
      "count" : 11491,
      "type" : "VEC4"
    },
    {
      "bufferView" : 7,
      "normalized" : true,
      "componentType" : 5121,
      "count" : 11491,
      "type" : "VEC4"
    },
    {
      "bufferView" : 8,
      "componentType" : 5126,
      "count" : 11491,
      "type" : "VEC2"
    }
  ]
}
