{
  "asset" : {
    "generator" : "UE Viewer (umodel) build 1589",
    "version" : "2.0"
  },
  "scene" : 0,
  "scenes" : [
    {
      "nodes" : [ 0 ]
    }
  ],
  "nodes" : [
    {
      "name" : "audi_r8_lms_gt2_rim_lr_Lod1",
      "mesh" : 0
    }
  ],
  "materials" : [
    {
      "name" : "EXT_RIM",
      "pbrMetallicRoughness" : {
        "baseColorFactor" : [ 0.3, 0.3, 0.3, 1.0 ],
        "metallicFactor" : 0.1,
        "roughnessFactor" : 0.5
      }
    }
  ],
  "meshes" : [
    {
      "primitives" : [
        {
          "attributes" : {
            "POSITION" : 1,
            "NORMAL" : 2,
            "TANGENT" : 3,
            "TEXCOORD_0" : 4,
            "TEXCOORD_1" : 5
          },
          "indices" : 0,
          "material" : 0
        }
      ],
      "name" : "audi_r8_lms_gt2_rim_lr_Lod1"
    }
  ],
  "buffers" : [
    {
      "uri" : "audi_r8_lms_gt2_rim_lr_Lod1.bin",
      "byteLength" : 379036
    }
  ],
  "bufferViews" : [
    {
      "buffer" : 0,
      "byteOffset" : 0,
      "byteLength" : 50316
    },
    {
      "buffer" : 0,
      "byteOffset" : 50316,
      "byteLength" : 70440
    },
    {
      "buffer" : 0,
      "byteOffset" : 120756,
      "byteLength" : 70440
    },
    {
      "buffer" : 0,
      "byteOffset" : 191196,
      "byteLength" : 93920
    },
    {
      "buffer" : 0,
      "byteOffset" : 285116,
      "byteLength" : 46960
    },
    {
      "buffer" : 0,
      "byteOffset" : 332076,
      "byteLength" : 46960
    }
  ],
  "accessors" : [
    {
      "bufferView" : 0,
      "componentType" : 5123,
      "count" : 25158,
      "type" : "SCALAR"
    },
    {
      "bufferView" : 1,
      "min" : [ -0.177683, -0.248532, -0.248742 ],
      "max" : [ 0.176625, 0.248729, 0.248727 ],
      "componentType" : 5126,
      "count" : 5870,
      "type" : "VEC3"
    },
    {
      "bufferView" : 2,
      "componentType" : 5126,
      "count" : 5870,
      "type" : "VEC3"
    },
    {
      "bufferView" : 3,
      "componentType" : 5126,
      "count" : 5870,
      "type" : "VEC4"
    },
    {
      "bufferView" : 4,
      "componentType" : 5126,
      "count" : 5870,
      "type" : "VEC2"
    },
    {
      "bufferView" : 5,
      "componentType" : 5126,
      "count" : 5870,
      "type" : "VEC2"
    }
  ]
}
