{
  "asset" : {
    "generator" : "UE Viewer (umodel) build 1589",
    "version" : "2.0"
  },
  "scene" : 0,
  "scenes" : [
    {
      "nodes" : [ 0 ]
    }
  ],
  "nodes" : [
    {
      "name" : "maserati_mc_gt4_exterior_Lod4",
      "mesh" : 0,
      "skin" : 0,
      "children" : [ 1 ]
    },
    {
      "name" : "MASERATI_MC_GT4",
      "children" : [ 2, 32 ],
      "translation" : [ 0, 0, 0 ],
      "rotation" : [ -0, -0, -0, 1 ]
    },
    {
      "name" : "CAR_BODY",
      "children" : [ 3, 4, 5, 6, 7, 8, 9, 10, 11, 12, 13, 14, 15, 16, 17, 18, 19, 20, 21, 22, 23, 24, 25, 26, 27, 29 ],
      "translation" : [ 0, 0, -0 ],
      "rotation" : [ -0, -0, 0, -1 ]
    },
    {
      "name" : "WHEEL_LF",
      "translation" : [ 0.8, 0.331984, 1.43861 ],
      "rotation" : [ -1.19209e-07, 2.22045e-16, 1.86265e-09, -1 ]
    },
    {
      "name" : "SUSP_LF",
      "translation" : [ 0.8, 0.331984, 1.43861 ],
      "rotation" : [ -1.19209e-07, 2.22038e-16, 1.86265e-09, -1 ]
    },
    {
      "name" : "DISC_LF",
      "translation" : [ 0.8, 0.331984, 1.43861 ],
      "rotation" : [ -1.19209e-07, 2.22045e-16, 1.86265e-09, -1 ]
    },
    {
      "name" : "WHEEL_LR",
      "translation" : [ 0.78, 0.352439, -1.4981 ],
      "rotation" : [ -1.78814e-07, 3.33067e-16, 1.86265e-09, -1 ]
    },
    {
      "name" : "SUSP_LR",
      "translation" : [ 0.78, 0.352439, -1.4981 ],
      "rotation" : [ -1.78814e-07, 3.33067e-16, 1.86265e-09, -1 ]
    },
    {
      "name" : "DISC_LR",
      "translation" : [ 0.78, 0.352439, -1.4981 ],
      "rotation" : [ -1.78814e-07, 3.33067e-16, 1.86265e-09, -1 ]
    },
    {
      "name" : "DISC_RF",
      "translation" : [ -0.8, 0.331984, 1.43861 ],
      "rotation" : [ -1.19209e-07, -2.22045e-16, -1.86265e-09, -1 ]
    },
    {
      "name" : "SUSP_RF",
      "translation" : [ -0.8, 0.331984, 1.43861 ],
      "rotation" : [ -1.19209e-07, -2.22046e-16, -1.86265e-09, -1 ]
    },
    {
      "name" : "WHEEL_RF",
      "translation" : [ -0.8, 0.331984, 1.43861 ],
      "rotation" : [ -1.19209e-07, -2.22045e-16, -1.86265e-09, -1 ]
    },
    {
      "name" : "DISC_RR",
      "translation" : [ -0.78, 0.352439, -1.4981 ],
      "rotation" : [ -1.78814e-07, -0, 0, -1 ]
    },
    {
      "name" : "WHEEL_RR",
      "translation" : [ -0.78, 0.352439, -1.4981 ],
      "rotation" : [ -1.78814e-07, -0, 0, -1 ]
    },
    {
      "name" : "SUSP_RR",
      "translation" : [ -0.78, 0.352439, -1.4981 ],
      "rotation" : [ -1.78814e-07, -0, 0, -1 ]
    },
    {
      "name" : "LUMIRANK",
      "translation" : [ -0.410497, 1.16145, 0.257772 ],
      "rotation" : [ -0.200484, 0.0282068, -0.0462981, -0.978196 ]
    },
    {
      "name" : "TYRE_LF",
      "translation" : [ 0.8, 0.331984, 1.43861 ],
      "rotation" : [ -1.19209e-07, 2.22045e-16, 1.86265e-09, -1 ]
    },
    {
      "name" : "TYRE_RF",
      "translation" : [ -0.8, 0.331984, 1.43861 ],
      "rotation" : [ -1.19209e-07, -2.22045e-16, -1.86265e-09, -1 ]
    },
    {
      "name" : "TYRE_RR",
      "translation" : [ -0.78, 0.352439, -1.4981 ],
      "rotation" : [ -1.78814e-07, -0, 0, -1 ]
    },
    {
      "name" : "TYRE_LR",
      "translation" : [ 0.78, 0.352439, -1.4981 ],
      "rotation" : [ -1.78814e-07, 3.33067e-16, 1.86265e-09, -1 ]
    },
    {
      "name" : "DOOR_L",
      "translation" : [ 0.881784, 0.689045, 0.657651 ],
      "rotation" : [ -0, -0, 0, -1 ]
    },
    {
      "name" : "DOOR_R",
      "translation" : [ -0.88178, 0.689045, 0.657652 ],
      "rotation" : [ -0, -0, 0, -1 ]
    },
    {
      "name" : "REAR_BUMPER",
      "translation" : [ -2.68221e-07, 0.447323, -2.27777 ],
      "rotation" : [ -0, -0, 0, -1 ]
    },
    {
      "name" : "FRONT_BUMPER",
      "translation" : [ 0, 0.36312, 2.08081 ],
      "rotation" : [ -0, -0, 0, -1 ]
    },
    {
      "name" : "HOOD",
      "translation" : [ -1.19209e-07, 0.901151, 0.762682 ],
      "rotation" : [ -0, -0, 0, -1 ]
    },
    {
      "name" : "WING",
      "translation" : [ -2.68221e-07, 0.88275, -2.20211 ],
      "rotation" : [ -0, -0, 0, -1 ]
    },
    {
      "name" : "DIFFUSER",
      "translation" : [ -2.38419e-07, 0.10893, -1.15721 ],
      "rotation" : [ -0, -0, 0, -1 ]
    },
    {
      "name" : "WIPER1",
      "children" : [ 28 ],
      "translation" : [ 0.209677, 0.867084, 0.955859 ],
      "rotation" : [ 0.0495926, -0.857657, 0.505506, 0.0801732 ]
    },
    {
      "name" : "WIPER2",
      "translation" : [ 0.619248, 0.260624, 0.0762141 ],
      "rotation" : [ 0.0985802, 0.127536, -0.204948, -0.965408 ]
    },
    {
      "name" : "WIPER3",
      "children" : [ 30, 31 ],
      "translation" : [ 0.558974, 0.860002, 0.882981 ],
      "rotation" : [ 0.218465, -0.798253, 0.496282, 0.262239 ]
    },
    {
      "name" : "WIPER4",
      "translation" : [ 0.0294277, 0.0372965, -0.0110563 ],
      "rotation" : [ -0.0161591, 0.0111593, 0.959628, -0.280584 ]
    },
    {
      "name" : "WIPER5",
      "translation" : [ 0.375784, 0.321157, 0.0280351 ],
      "rotation" : [ 0.0444716, 0.133279, -0.377845, -0.915146 ]
    },
    {
      "name" : "COCKPIT_HR",
      "translation" : [ 0, 0, -0 ],
      "rotation" : [ -0, -0, 0, -1 ]
    }
  ],
  "skins" : [
    {
      "inverseBindMatrices" : 0,
      "skeleton" : 1,
      "joints" : [
        1,2,3,4,5,6,7,8,9,10,11,12,13,14,15,16,17,18,19,20,21,22,23,24,25,26,27,28,29,30,31,32
      ]
    }
  ],
  "materials" : [
    {
      "name" : "EXT_Carpaint_Inst",
      "pbrMetallicRoughness" : {
        "baseColorFactor" : [ 0.3, 0.3, 0.3, 1.0 ],
        "metallicFactor" : 0.1,
        "roughnessFactor" : 0.5
      }
    }
  ],
  "meshes" : [
    {
      "primitives" : [
        {
          "attributes" : {
            "POSITION" : 2,
            "NORMAL" : 3,
            "TANGENT" : 4,
            "COLOR_0" : 5,
            "JOINTS_0" : 6,
            "WEIGHTS_0" : 7,
            "TEXCOORD_0" : 8,
            "TEXCOORD_1" : 9,
            "TEXCOORD_2" : 10,
            "TEXCOORD_3" : 11
          },
          "indices" : 1,
          "material" : 0
        }
      ],
      "name" : "maserati_mc_gt4_exterior_Lod4"
    }
  ],
  "buffers" : [
    {
      "uri" : "maserati_mc_gt4_exterior_Lod4.bin",
      "byteLength" : 455008
    }
  ],
  "bufferViews" : [
    {
      "buffer" : 0,
      "byteOffset" : 0,
      "byteLength" : 2048
    },
    {
      "buffer" : 0,
      "byteOffset" : 2048,
      "byteLength" : 25368
    },
    {
      "buffer" : 0,
      "byteOffset" : 27416,
      "byteLength" : 58308
    },
    {
      "buffer" : 0,
      "byteOffset" : 85724,
      "byteLength" : 58308
    },
    {
      "buffer" : 0,
      "byteOffset" : 144032,
      "byteLength" : 77744
    },
    {
      "buffer" : 0,
      "byteOffset" : 221776,
      "byteLength" : 19436
    },
    {
      "buffer" : 0,
      "byteOffset" : 241212,
      "byteLength" : 38872
    },
    {
      "buffer" : 0,
      "byteOffset" : 280084,
      "byteLength" : 19436
    },
    {
      "buffer" : 0,
      "byteOffset" : 299520,
      "byteLength" : 38872
    },
    {
      "buffer" : 0,
      "byteOffset" : 338392,
      "byteLength" : 38872
    },
    {
      "buffer" : 0,
      "byteOffset" : 377264,
      "byteLength" : 38872
    },
    {
      "buffer" : 0,
      "byteOffset" : 416136,
      "byteLength" : 38872
    }
  ],
  "accessors" : [
    {
      "bufferView" : 0,
      "componentType" : 5126,
      "count" : 32,
      "type" : "MAT4"
    },
    {
      "bufferView" : 1,
      "componentType" : 5123,
      "count" : 12684,
      "type" : "SCALAR"
    },
    {
      "bufferView" : 2,
      "min" : [ -1.04742, 0.0031065, -2.56227 ],
      "max" : [ 1.04742, 1.34742, 2.4573 ],
      "componentType" : 5126,
      "count" : 4859,
      "type" : "VEC3"
    },
    {
      "bufferView" : 3,
      "componentType" : 5126,
      "count" : 4859,
      "type" : "VEC3"
    },
    {
      "bufferView" : 4,
      "componentType" : 5126,
      "count" : 4859,
      "type" : "VEC4"
    },
    {
      "bufferView" : 5,
      "normalized" : true,
      "componentType" : 5121,
      "count" : 4859,
      "type" : "VEC4"
    },
    {
      "bufferView" : 6,
      "componentType" : 5123,
      "count" : 4859,
      "type" : "VEC4"
    },
    {
      "bufferView" : 7,
      "normalized" : true,
      "componentType" : 5121,
      "count" : 4859,
      "type" : "VEC4"
    },
    {
      "bufferView" : 8,
      "componentType" : 5126,
      "count" : 4859,
      "type" : "VEC2"
    },
    {
      "bufferView" : 9,
      "componentType" : 5126,
      "count" : 4859,
      "type" : "VEC2"
    },
    {
      "bufferView" : 10,
      "componentType" : 5126,
      "count" : 4859,
      "type" : "VEC2"
    },
    {
      "bufferView" : 11,
      "componentType" : 5126,
      "count" : 4859,
      "type" : "VEC2"
    }
  ]
}
