{
  "asset" : {
    "generator" : "UE Viewer (umodel) build 1589",
    "version" : "2.0"
  },
  "scene" : 0,
  "scenes" : [
    {
      "nodes" : [ 0 ]
    }
  ],
  "nodes" : [
    {
      "name" : "honda_nsx_gt3_evo_exterior_Lod4",
      "mesh" : 0,
      "skin" : 0,
      "children" : [ 1 ]
    },
    {
      "name" : "HONDA_NSX_GT3",
      "children" : [ 2 ],
      "translation" : [ 0, 0, 0 ],
      "rotation" : [ -0, -0, -0, 1 ]
    },
    {
      "name" : "CAR_BODY",
      "children" : [ 3, 4, 5, 6, 7, 8, 9, 10, 11, 12, 13, 14, 15, 16, 17, 18, 19, 20, 21, 24, 25, 26, 27, 28, 29 ],
      "translation" : [ 0, 0, -0 ],
      "rotation" : [ -0, -0, 0, -1 ]
    },
    {
      "name" : "WING",
      "translation" : [ 0, 1.07584, -2.17245 ],
      "rotation" : [ -0, -0, 0, -1 ]
    },
    {
      "name" : "DISC_LF",
      "translation" : [ 0.842551, 0.340721, 1.315 ],
      "rotation" : [ 9.53674e-07, -0, -0, -1 ]
    },
    {
      "name" : "SUSP_LF",
      "translation" : [ 0.842551, 0.340721, 1.315 ],
      "rotation" : [ 9.53674e-07, -0, -0, -1 ]
    },
    {
      "name" : "WHEEL_LF",
      "translation" : [ 0.842551, 0.340721, 1.315 ],
      "rotation" : [ 9.53674e-07, -0, -0, -1 ]
    },
    {
      "name" : "DISC_RF",
      "translation" : [ -0.84255, 0.340721, 1.315 ],
      "rotation" : [ 2.7159e-07, 2.38419e-07, 6.47522e-14, -1 ]
    },
    {
      "name" : "SUSP_RF",
      "translation" : [ -0.84255, 0.340721, 1.315 ],
      "rotation" : [ 2.7159e-07, 2.38419e-07, 6.47522e-14, -1 ]
    },
    {
      "name" : "WHEEL_RF",
      "translation" : [ -0.84255, 0.340721, 1.315 ],
      "rotation" : [ 2.7159e-07, 2.38419e-07, 6.47522e-14, -1 ]
    },
    {
      "name" : "DISC_RR",
      "translation" : [ -0.83379, 0.352133, -1.315 ],
      "rotation" : [ 2.7159e-07, 2.38419e-07, 6.47522e-14, -1 ]
    },
    {
      "name" : "DISC_LR",
      "translation" : [ 0.833795, 0.352133, -1.315 ],
      "rotation" : [ 1.78814e-07, 1.78814e-07, 3.19744e-14, -1 ]
    },
    {
      "name" : "WHEEL_RR",
      "translation" : [ -0.83379, 0.352133, -1.315 ],
      "rotation" : [ 2.7159e-07, 2.38419e-07, 6.47522e-14, -1 ]
    },
    {
      "name" : "SUSP_RR",
      "translation" : [ -0.83379, 0.352133, -1.315 ],
      "rotation" : [ 2.7159e-07, 2.38419e-07, 6.47522e-14, -1 ]
    },
    {
      "name" : "WHEEL_LR",
      "translation" : [ 0.833795, 0.352133, -1.315 ],
      "rotation" : [ 1.78814e-07, 1.78814e-07, 3.19744e-14, -1 ]
    },
    {
      "name" : "SUSP_LR",
      "translation" : [ 0.833795, 0.352133, -1.315 ],
      "rotation" : [ 1.78814e-07, 1.78814e-07, 3.19744e-14, -1 ]
    },
    {
      "name" : "TYRE_LF",
      "translation" : [ 0.842551, 0.340721, 1.315 ],
      "rotation" : [ 1.54289e-06, -0, -0, -1 ]
    },
    {
      "name" : "TYRE_LR",
      "translation" : [ 0.833795, 0.352133, -1.315 ],
      "rotation" : [ 3.34117e-07, 1.78814e-07, 5.97448e-14, -1 ]
    },
    {
      "name" : "TYRE_RR",
      "translation" : [ -0.83379, 0.352133, -1.315 ],
      "rotation" : [ 3.90799e-07, 2.38419e-07, 9.31739e-14, -1 ]
    },
    {
      "name" : "TYRE_RF",
      "translation" : [ -0.84255, 0.340721, 1.315 ],
      "rotation" : [ 3.90799e-07, 2.38419e-07, 9.31739e-14, -1 ]
    },
    {
      "name" : "LUMIRANK",
      "translation" : [ -0.482252, 0.983137, 0.670897 ],
      "rotation" : [ -0.220511, 0.0490058, -0.0612042, -0.972228 ]
    },
    {
      "name" : "WIPER_1",
      "children" : [ 22 ],
      "translation" : [ -5.66101e-05, 0.680049, 1.31532 ],
      "rotation" : [ -0.233447, -6.10486e-07, 1.46565e-07, -0.97237 ]
    },
    {
      "name" : "WIPER_2",
      "children" : [ 23 ],
      "translation" : [ 0.137856, 0.0512607, -0.0858252 ],
      "rotation" : [ -2.63242e-08, -0.212945, -2.75965e-07, -0.977064 ]
    },
    {
      "name" : "WIPER_3",
      "translation" : [ 0.327722, -0.0430768, 0.0183125 ],
      "rotation" : [ 0.000230966, -0.00357049, 0.0643925, -0.997918 ]
    },
    {
      "name" : "DOOR_R",
      "translation" : [ -0.90603, 0.639133, 0.82968 ],
      "rotation" : [ -0, -0, 0, -1 ]
    },
    {
      "name" : "DOOR_L",
      "translation" : [ 0.906025, 0.639133, 0.82968 ],
      "rotation" : [ -0, -0, 0, -1 ]
    },
    {
      "name" : "FRONT_BUMPER",
      "translation" : [ 0, 0.633476, 1.50711 ],
      "rotation" : [ -0, -0, 0, -1 ]
    },
    {
      "name" : "HOOD",
      "translation" : [ 0, 0.752483, 0.850306 ],
      "rotation" : [ -0, -0, 0, -1 ]
    },
    {
      "name" : "REAR_BUMPER",
      "translation" : [ 0, 0.649165, -1.52311 ],
      "rotation" : [ -0, -0, 0, -1 ]
    },
    {
      "name" : "DIFFUSER",
      "translation" : [ 6.10352e-07, 0.0788645, -0.927184 ],
      "rotation" : [ -0, -0, 0, -1 ]
    }
  ],
  "skins" : [
    {
      "inverseBindMatrices" : 0,
      "skeleton" : 1,
      "joints" : [
        1,2,3,4,5,6,7,8,9,10,11,12,13,14,15,16,17,18,19,20,21,22,23,24,25,26,27,28,29
      ]
    }
  ],
  "materials" : [
    {
      "name" : "EXT_Carpaint_Inst",
      "pbrMetallicRoughness" : {
        "baseColorFactor" : [ 0.3, 0.3, 0.3, 1.0 ],
        "metallicFactor" : 0.1,
        "roughnessFactor" : 0.5
      }
    }
  ],
  "meshes" : [
    {
      "primitives" : [
        {
          "attributes" : {
            "POSITION" : 2,
            "NORMAL" : 3,
            "TANGENT" : 4,
            "COLOR_0" : 5,
            "JOINTS_0" : 6,
            "WEIGHTS_0" : 7,
            "TEXCOORD_0" : 8,
            "TEXCOORD_1" : 9,
            "TEXCOORD_2" : 10,
            "TEXCOORD_3" : 11
          },
          "indices" : 1,
          "material" : 0
        }
      ],
      "name" : "honda_nsx_gt3_evo_exterior_Lod4"
    }
  ],
  "buffers" : [
    {
      "uri" : "honda_nsx_gt3_evo_exterior_Lod4.bin",
      "byteLength" : 758680
    }
  ],
  "bufferViews" : [
    {
      "buffer" : 0,
      "byteOffset" : 0,
      "byteLength" : 1856
    },
    {
      "buffer" : 0,
      "byteOffset" : 1856,
      "byteLength" : 41912
    },
    {
      "buffer" : 0,
      "byteOffset" : 43768,
      "byteLength" : 97488
    },
    {
      "buffer" : 0,
      "byteOffset" : 141256,
      "byteLength" : 97488
    },
    {
      "buffer" : 0,
      "byteOffset" : 238744,
      "byteLength" : 129984
    },
    {
      "buffer" : 0,
      "byteOffset" : 368728,
      "byteLength" : 32496
    },
    {
      "buffer" : 0,
      "byteOffset" : 401224,
      "byteLength" : 64992
    },
    {
      "buffer" : 0,
      "byteOffset" : 466216,
      "byteLength" : 32496
    },
    {
      "buffer" : 0,
      "byteOffset" : 498712,
      "byteLength" : 64992
    },
    {
      "buffer" : 0,
      "byteOffset" : 563704,
      "byteLength" : 64992
    },
    {
      "buffer" : 0,
      "byteOffset" : 628696,
      "byteLength" : 64992
    },
    {
      "buffer" : 0,
      "byteOffset" : 693688,
      "byteLength" : 64992
    }
  ],
  "accessors" : [
    {
      "bufferView" : 0,
      "componentType" : 5126,
      "count" : 29,
      "type" : "MAT4"
    },
    {
      "bufferView" : 1,
      "componentType" : 5123,
      "count" : 20955,
      "type" : "SCALAR"
    },
    {
      "bufferView" : 2,
      "min" : [ -1.03027, 0.0069257, -2.25402 ],
      "max" : [ 1.03027, 1.18271, 2.36933 ],
      "componentType" : 5126,
      "count" : 8124,
      "type" : "VEC3"
    },
    {
      "bufferView" : 3,
      "componentType" : 5126,
      "count" : 8124,
      "type" : "VEC3"
    },
    {
      "bufferView" : 4,
      "componentType" : 5126,
      "count" : 8124,
      "type" : "VEC4"
    },
    {
      "bufferView" : 5,
      "normalized" : true,
      "componentType" : 5121,
      "count" : 8124,
      "type" : "VEC4"
    },
    {
      "bufferView" : 6,
      "componentType" : 5123,
      "count" : 8124,
      "type" : "VEC4"
    },
    {
      "bufferView" : 7,
      "normalized" : true,
      "componentType" : 5121,
      "count" : 8124,
      "type" : "VEC4"
    },
    {
      "bufferView" : 8,
      "componentType" : 5126,
      "count" : 8124,
      "type" : "VEC2"
    },
    {
      "bufferView" : 9,
      "componentType" : 5126,
      "count" : 8124,
      "type" : "VEC2"
    },
    {
      "bufferView" : 10,
      "componentType" : 5126,
      "count" : 8124,
      "type" : "VEC2"
    },
    {
      "bufferView" : 11,
      "componentType" : 5126,
      "count" : 8124,
      "type" : "VEC2"
    }
  ]
}
