{
  "asset" : {
    "generator" : "UE Viewer (umodel) build 1589",
    "version" : "2.0"
  },
  "scene" : 0,
  "scenes" : [
    {
      "nodes" : [ 0 ]
    }
  ],
  "nodes" : [
    {
      "name" : "porsche_935_rim_lr_Lod1",
      "mesh" : 0
    }
  ],
  "materials" : [
    {
      "name" : "EXT_RIM",
      "pbrMetallicRoughness" : {
        "baseColorFactor" : [ 0.3, 0.3, 0.3, 1.0 ],
        "metallicFactor" : 0.1,
        "roughnessFactor" : 0.5
      }
    }
  ],
  "meshes" : [
    {
      "primitives" : [
        {
          "attributes" : {
            "POSITION" : 1,
            "NORMAL" : 2,
            "TANGENT" : 3,
            "TEXCOORD_0" : 4,
            "TEXCOORD_1" : 5
          },
          "indices" : 0,
          "material" : 0
        }
      ],
      "name" : "porsche_935_rim_lr_Lod1"
    }
  ],
  "buffers" : [
    {
      "uri" : "porsche_935_rim_lr_Lod1.bin",
      "byteLength" : 457720
    }
  ],
  "bufferViews" : [
    {
      "buffer" : 0,
      "byteOffset" : 0,
      "byteLength" : 50768
    },
    {
      "buffer" : 0,
      "byteOffset" : 50768,
      "byteLength" : 87204
    },
    {
      "buffer" : 0,
      "byteOffset" : 137972,
      "byteLength" : 87204
    },
    {
      "buffer" : 0,
      "byteOffset" : 225176,
      "byteLength" : 116272
    },
    {
      "buffer" : 0,
      "byteOffset" : 341448,
      "byteLength" : 58136
    },
    {
      "buffer" : 0,
      "byteOffset" : 399584,
      "byteLength" : 58136
    }
  ],
  "accessors" : [
    {
      "bufferView" : 0,
      "componentType" : 5123,
      "count" : 25383,
      "type" : "SCALAR"
    },
    {
      "bufferView" : 1,
      "min" : [ -0.178551, -0.250358, -0.249265 ],
      "max" : [ 0.188115, 0.249328, 0.249267 ],
      "componentType" : 5126,
      "count" : 7267,
      "type" : "VEC3"
    },
    {
      "bufferView" : 2,
      "componentType" : 5126,
      "count" : 7267,
      "type" : "VEC3"
    },
    {
      "bufferView" : 3,
      "componentType" : 5126,
      "count" : 7267,
      "type" : "VEC4"
    },
    {
      "bufferView" : 4,
      "componentType" : 5126,
      "count" : 7267,
      "type" : "VEC2"
    },
    {
      "bufferView" : 5,
      "componentType" : 5126,
      "count" : 7267,
      "type" : "VEC2"
    }
  ]
}
