{
  "asset" : {
    "generator" : "UE Viewer (umodel) build 1589",
    "version" : "2.0"
  },
  "scene" : 0,
  "scenes" : [
    {
      "nodes" : [ 0 ]
    }
  ],
  "nodes" : [
    {
      "name" : "porsche_935_exterior_Lod4",
      "mesh" : 0,
      "skin" : 0,
      "children" : [ 1 ]
    },
    {
      "name" : "PORSCHE_935",
      "children" : [ 2 ],
      "translation" : [ 0, 0, 0 ],
      "rotation" : [ -0, -0, -0, 1 ]
    },
    {
      "name" : "CAR_BODY",
      "children" : [ 3, 6, 9, 10, 11, 12, 13, 14, 15, 16, 17, 18, 19, 20, 21, 22, 23, 24, 25, 26, 27, 28 ],
      "translation" : [ 0, 0, -0 ],
      "rotation" : [ -0, -0, 0, -1 ]
    },
    {
      "name" : "WIPER_L1",
      "children" : [ 4 ],
      "translation" : [ 0.623713, 0.772378, 0.836803 ],
      "rotation" : [ -0.934336, 0.0656501, 0.250354, 0.24501 ]
    },
    {
      "name" : "WIPER_L2",
      "children" : [ 5 ],
      "translation" : [ -0.0983383, -0.0111059, 0.0600215 ],
      "rotation" : [ -0.735103, -0.0413999, 0.194529, -0.648127 ]
    },
    {
      "name" : "WIPER_L3",
      "translation" : [ -0.350047, 0.0171151, 0.0293023 ],
      "rotation" : [ 0.0954224, -0.0149163, -0.0247217, -0.995018 ]
    },
    {
      "name" : "WIPER_R1",
      "children" : [ 7 ],
      "translation" : [ 0.111718, 0.789517, 1.03817 ],
      "rotation" : [ -0.962488, 0.0116921, 0.0420229, 0.267795 ]
    },
    {
      "name" : "WIPER_R2",
      "children" : [ 8 ],
      "translation" : [ -0.183626, 0.0125224, 0.0791519 ],
      "rotation" : [ -0.704337, -0.0518879, 0.237009, -0.667116 ]
    },
    {
      "name" : "WIPER_R3",
      "translation" : [ -0.383008, 0.0242863, 0.00840418 ],
      "rotation" : [ 0.0539368, 0.00358042, 0.00593214, -0.99852 ]
    },
    {
      "name" : "DOOR_L",
      "translation" : [ 0.830675, 0.661581, 0.643109 ],
      "rotation" : [ 0.0218148, -3.42684e-05, -0.00261777, -0.999759 ]
    },
    {
      "name" : "DOOR_R",
      "translation" : [ -0.8307, 0.661581, 0.643109 ],
      "rotation" : [ 0.0218148, 3.45339e-05, 0.00261762, -0.999759 ]
    },
    {
      "name" : "WHEEL_LF",
      "translation" : [ 0.810583, 0.32131, 1.22901 ],
      "rotation" : [ 2.38419e-07, 1.85297e-21, -6.95494e-21, -1 ]
    },
    {
      "name" : "WHEEL_LR",
      "translation" : [ 0.826639, 0.336899, -1.22897 ],
      "rotation" : [ 2.5411e-21, 1.36948e-20, -5.03389e-20, -1 ]
    },
    {
      "name" : "SUSP_LF",
      "translation" : [ 0.810583, 0.32131, 1.22901 ],
      "rotation" : [ 2.38419e-07, 3.53355e-17, -1.7081e-21, -1 ]
    },
    {
      "name" : "SUSP_LR",
      "translation" : [ 0.826639, 0.336899, -1.22897 ],
      "rotation" : [ -0, -0, 0, -1 ]
    },
    {
      "name" : "SUSP_RF",
      "translation" : [ -0.810583, 0.32131, 1.22901 ],
      "rotation" : [ 2.38419e-07, -8.88178e-16, 3.72529e-09, -1 ]
    },
    {
      "name" : "WHEEL_RF",
      "translation" : [ -0.810583, 0.32131, 1.22901 ],
      "rotation" : [ 2.38419e-07, -8.88392e-16, 3.72529e-09, -1 ]
    },
    {
      "name" : "WHEEL_RR",
      "translation" : [ -0.826639, 0.336899, -1.22897 ],
      "rotation" : [ 1.42937e-21, 3.79451e-21, -1.40687e-20, -1 ]
    },
    {
      "name" : "SUSP_RR",
      "translation" : [ -0.826639, 0.336899, -1.22897 ],
      "rotation" : [ -1.14978e-22, -5.81177e-24, -1.32349e-23, -1 ]
    },
    {
      "name" : "DISC_RF",
      "translation" : [ -0.810583, 0.32131, 1.22901 ],
      "rotation" : [ 2.38419e-07, -8.88178e-16, 3.72529e-09, -1 ]
    },
    {
      "name" : "DISC_LR",
      "translation" : [ 0.826639, 0.336899, -1.22897 ],
      "rotation" : [ -0, -0, 0, -1 ]
    },
    {
      "name" : "DISC_LF",
      "translation" : [ 0.810583, 0.32131, 1.22901 ],
      "rotation" : [ 2.38419e-07, 3.53355e-17, -1.7081e-21, -1 ]
    },
    {
      "name" : "DISC_RR",
      "translation" : [ -0.826639, 0.336899, -1.22897 ],
      "rotation" : [ -6.15827e-16, -9.9105e-24, -5.55113e-17, -1 ]
    },
    {
      "name" : "WING",
      "translation" : [ 0, 1.10507, -2.29949 ],
      "rotation" : [ -0, -0, 0, -1 ]
    },
    {
      "name" : "TYRE_LF",
      "translation" : [ 0.810583, 0.32131, 1.22901 ],
      "rotation" : [ 2.38419e-07, 1.85297e-21, -6.95494e-21, -1 ]
    },
    {
      "name" : "TYRE_LR",
      "translation" : [ 0.826639, 0.336899, -1.22897 ],
      "rotation" : [ 2.5411e-21, 1.36948e-20, -5.03389e-20, -1 ]
    },
    {
      "name" : "TYRE_RF",
      "translation" : [ -0.810583, 0.32131, 1.22901 ],
      "rotation" : [ 2.38419e-07, -8.88392e-16, 3.72529e-09, -1 ]
    },
    {
      "name" : "TYRE_RR",
      "translation" : [ -0.826639, 0.336899, -1.22897 ],
      "rotation" : [ 1.42937e-21, 3.79451e-21, -1.40687e-20, -1 ]
    },
    {
      "name" : "LUMIRANK",
      "translation" : [ -0.454158, 1.0275, 0.405807 ],
      "rotation" : [ -0.240902, 0.0844036, -0.0951579, -0.962178 ]
    }
  ],
  "skins" : [
    {
      "inverseBindMatrices" : 0,
      "skeleton" : 1,
      "joints" : [
        1,2,3,4,5,6,7,8,9,10,11,12,13,14,15,16,17,18,19,20,21,22,23,24,25,26,27,28
      ]
    }
  ],
  "materials" : [
    {
      "name" : "EXT_Carpaint_Inst",
      "pbrMetallicRoughness" : {
        "baseColorFactor" : [ 0.3, 0.3, 0.3, 1.0 ],
        "metallicFactor" : 0.1,
        "roughnessFactor" : 0.5
      }
    }
  ],
  "meshes" : [
    {
      "primitives" : [
        {
          "attributes" : {
            "POSITION" : 2,
            "NORMAL" : 3,
            "TANGENT" : 4,
            "COLOR_0" : 5,
            "JOINTS_0" : 6,
            "WEIGHTS_0" : 7,
            "TEXCOORD_0" : 8
          },
          "indices" : 1,
          "material" : 0
        }
      ],
      "name" : "porsche_935_exterior_Lod4"
    }
  ],
  "buffers" : [
    {
      "uri" : "porsche_935_exterior_Lod4.bin",
      "byteLength" : 353276
    }
  ],
  "bufferViews" : [
    {
      "buffer" : 0,
      "byteOffset" : 0,
      "byteLength" : 1792
    },
    {
      "buffer" : 0,
      "byteOffset" : 1792,
      "byteLength" : 27516
    },
    {
      "buffer" : 0,
      "byteOffset" : 29308,
      "byteLength" : 60744
    },
    {
      "buffer" : 0,
      "byteOffset" : 90052,
      "byteLength" : 60744
    },
    {
      "buffer" : 0,
      "byteOffset" : 150796,
      "byteLength" : 80992
    },
    {
      "buffer" : 0,
      "byteOffset" : 231788,
      "byteLength" : 20248
    },
    {
      "buffer" : 0,
      "byteOffset" : 252036,
      "byteLength" : 40496
    },
    {
      "buffer" : 0,
      "byteOffset" : 292532,
      "byteLength" : 20248
    },
    {
      "buffer" : 0,
      "byteOffset" : 312780,
      "byteLength" : 40496
    }
  ],
  "accessors" : [
    {
      "bufferView" : 0,
      "componentType" : 5126,
      "count" : 28,
      "type" : "MAT4"
    },
    {
      "bufferView" : 1,
      "componentType" : 5123,
      "count" : 13758,
      "type" : "SCALAR"
    },
    {
      "bufferView" : 2,
      "min" : [ -1.02286, -0.00692438, -2.48752 ],
      "max" : [ 1.02285, 1.27632, 2.34053 ],
      "componentType" : 5126,
      "count" : 5062,
      "type" : "VEC3"
    },
    {
      "bufferView" : 3,
      "componentType" : 5126,
      "count" : 5062,
      "type" : "VEC3"
    },
    {
      "bufferView" : 4,
      "componentType" : 5126,
      "count" : 5062,
      "type" : "VEC4"
    },
    {
      "bufferView" : 5,
      "normalized" : true,
      "componentType" : 5121,
      "count" : 5062,
      "type" : "VEC4"
    },
    {
      "bufferView" : 6,
      "componentType" : 5123,
      "count" : 5062,
      "type" : "VEC4"
    },
    {
      "bufferView" : 7,
      "normalized" : true,
      "componentType" : 5121,
      "count" : 5062,
      "type" : "VEC4"
    },
    {
      "bufferView" : 8,
      "componentType" : 5126,
      "count" : 5062,
      "type" : "VEC2"
    }
  ]
}
