{
  "asset" : {
    "generator" : "UE Viewer (umodel) build 1589",
    "version" : "2.0"
  },
  "scene" : 0,
  "scenes" : [
    {
      "nodes" : [ 0 ]
    }
  ],
  "nodes" : [
    {
      "name" : "porsche_935_rim_rf_Lod1",
      "mesh" : 0
    }
  ],
  "materials" : [
    {
      "name" : "EXT_RIM",
      "pbrMetallicRoughness" : {
        "baseColorFactor" : [ 0.3, 0.3, 0.3, 1.0 ],
        "metallicFactor" : 0.1,
        "roughnessFactor" : 0.5
      }
    }
  ],
  "meshes" : [
    {
      "primitives" : [
        {
          "attributes" : {
            "POSITION" : 1,
            "NORMAL" : 2,
            "TANGENT" : 3,
            "TEXCOORD_0" : 4,
            "TEXCOORD_1" : 5
          },
          "indices" : 0,
          "material" : 0
        }
      ],
      "name" : "porsche_935_rim_rf_Lod1"
    }
  ],
  "buffers" : [
    {
      "uri" : "porsche_935_rim_rf_Lod1.bin",
      "byteLength" : 466392
    }
  ],
  "bufferViews" : [
    {
      "buffer" : 0,
      "byteOffset" : 0,
      "byteLength" : 48408
    },
    {
      "buffer" : 0,
      "byteOffset" : 48408,
      "byteLength" : 89568
    },
    {
      "buffer" : 0,
      "byteOffset" : 137976,
      "byteLength" : 89568
    },
    {
      "buffer" : 0,
      "byteOffset" : 227544,
      "byteLength" : 119424
    },
    {
      "buffer" : 0,
      "byteOffset" : 346968,
      "byteLength" : 59712
    },
    {
      "buffer" : 0,
      "byteOffset" : 406680,
      "byteLength" : 59712
    }
  ],
  "accessors" : [
    {
      "bufferView" : 0,
      "componentType" : 5123,
      "count" : 24204,
      "type" : "SCALAR"
    },
    {
      "bufferView" : 1,
      "min" : [ -0.164492, -0.250541, -0.251443 ],
      "max" : [ 0.159388, 0.249523, 0.251443 ],
      "componentType" : 5126,
      "count" : 7464,
      "type" : "VEC3"
    },
    {
      "bufferView" : 2,
      "componentType" : 5126,
      "count" : 7464,
      "type" : "VEC3"
    },
    {
      "bufferView" : 3,
      "componentType" : 5126,
      "count" : 7464,
      "type" : "VEC4"
    },
    {
      "bufferView" : 4,
      "componentType" : 5126,
      "count" : 7464,
      "type" : "VEC2"
    },
    {
      "bufferView" : 5,
      "componentType" : 5126,
      "count" : 7464,
      "type" : "VEC2"
    }
  ]
}
