{
  "asset" : {
    "generator" : "UE Viewer (umodel) build 1589",
    "version" : "2.0"
  },
  "scene" : 0,
  "scenes" : [
    {
      "nodes" : [ 0 ]
    }
  ],
  "nodes" : [
    {
      "name" : "mercedes_amg_gt4_rim_lr_Lod1",
      "mesh" : 0
    }
  ],
  "materials" : [
    {
      "name" : "EXT_RIM",
      "pbrMetallicRoughness" : {
        "baseColorFactor" : [ 0.3, 0.3, 0.3, 1.0 ],
        "metallicFactor" : 0.1,
        "roughnessFactor" : 0.5
      }
    },
    {
      "name" : "EXT_Rim_Decals",
      "pbrMetallicRoughness" : {
        "baseColorFactor" : [ 0.9, 0.3, 0.3, 1.0 ],
        "metallicFactor" : 0.1,
        "roughnessFactor" : 0.5
      }
    }
  ],
  "meshes" : [
    {
      "primitives" : [
        {
          "attributes" : {
            "POSITION" : 1,
            "NORMAL" : 2,
            "TANGENT" : 3,
            "TEXCOORD_0" : 4,
            "TEXCOORD_1" : 5
          },
          "indices" : 0,
          "material" : 0
        },
        {
          "attributes" : {
            "POSITION" : 7,
            "NORMAL" : 8,
            "TANGENT" : 9,
            "TEXCOORD_0" : 10,
            "TEXCOORD_1" : 11
          },
          "indices" : 6,
          "material" : 1
        }
      ],
      "name" : "mercedes_amg_gt4_rim_lr_Lod1"
    }
  ],
  "buffers" : [
    {
      "uri" : "mercedes_amg_gt4_rim_lr_Lod1.bin",
      "byteLength" : 297864
    }
  ],
  "bufferViews" : [
    {
      "buffer" : 0,
      "byteOffset" : 0,
      "byteLength" : 31512
    },
    {
      "buffer" : 0,
      "byteOffset" : 31512,
      "byteLength" : 56412
    },
    {
      "buffer" : 0,
      "byteOffset" : 87924,
      "byteLength" : 56412
    },
    {
      "buffer" : 0,
      "byteOffset" : 144336,
      "byteLength" : 75216
    },
    {
      "buffer" : 0,
      "byteOffset" : 219552,
      "byteLength" : 37608
    },
    {
      "buffer" : 0,
      "byteOffset" : 257160,
      "byteLength" : 37608
    },
    {
      "buffer" : 0,
      "byteOffset" : 294768,
      "byteLength" : 296
    },
    {
      "buffer" : 0,
      "byteOffset" : 295064,
      "byteLength" : 600
    },
    {
      "buffer" : 0,
      "byteOffset" : 295664,
      "byteLength" : 600
    },
    {
      "buffer" : 0,
      "byteOffset" : 296264,
      "byteLength" : 800
    },
    {
      "buffer" : 0,
      "byteOffset" : 297064,
      "byteLength" : 400
    },
    {
      "buffer" : 0,
      "byteOffset" : 297464,
      "byteLength" : 400
    }
  ],
  "accessors" : [
    {
      "bufferView" : 0,
      "componentType" : 5123,
      "count" : 15756,
      "type" : "SCALAR"
    },
    {
      "bufferView" : 1,
      "min" : [ -0.151682, -0.248821, -0.248821 ],
      "max" : [ 0.154616, 0.24882, 0.24882 ],
      "componentType" : 5126,
      "count" : 4701,
      "type" : "VEC3"
    },
    {
      "bufferView" : 2,
      "componentType" : 5126,
      "count" : 4701,
      "type" : "VEC3"
    },
    {
      "bufferView" : 3,
      "componentType" : 5126,
      "count" : 4701,
      "type" : "VEC4"
    },
    {
      "bufferView" : 4,
      "componentType" : 5126,
      "count" : 4701,
      "type" : "VEC2"
    },
    {
      "bufferView" : 5,
      "componentType" : 5126,
      "count" : 4701,
      "type" : "VEC2"
    },
    {
      "bufferView" : 6,
      "componentType" : 5123,
      "count" : 147,
      "type" : "SCALAR"
    },
    {
      "bufferView" : 7,
      "min" : [ 0.0808316, -0.0370649, -0.0370066 ],
      "max" : [ 0.0865958, 0.0376526, 0.0372908 ],
      "componentType" : 5126,
      "count" : 50,
      "type" : "VEC3"
    },
    {
      "bufferView" : 8,
      "componentType" : 5126,
      "count" : 50,
      "type" : "VEC3"
    },
    {
      "bufferView" : 9,
      "componentType" : 5126,
      "count" : 50,
      "type" : "VEC4"
    },
    {
      "bufferView" : 10,
      "componentType" : 5126,
      "count" : 50,
      "type" : "VEC2"
    },
    {
      "bufferView" : 11,
      "componentType" : 5126,
      "count" : 50,
      "type" : "VEC2"
    }
  ]
}
