{
  "asset" : {
    "generator" : "UE Viewer (umodel) build 1589",
    "version" : "2.0"
  },
  "scene" : 0,
  "scenes" : [
    {
      "nodes" : [ 0 ]
    }
  ],
  "nodes" : [
    {
      "name" : "mercedes_amg_gt4_rim_rf_Lod1",
      "mesh" : 0
    }
  ],
  "materials" : [
    {
      "name" : "EXT_RIM",
      "pbrMetallicRoughness" : {
        "baseColorFactor" : [ 0.3, 0.3, 0.3, 1.0 ],
        "metallicFactor" : 0.1,
        "roughnessFactor" : 0.5
      }
    },
    {
      "name" : "EXT_Rim_Decals",
      "pbrMetallicRoughness" : {
        "baseColorFactor" : [ 0.9, 0.3, 0.3, 1.0 ],
        "metallicFactor" : 0.1,
        "roughnessFactor" : 0.5
      }
    }
  ],
  "meshes" : [
    {
      "primitives" : [
        {
          "attributes" : {
            "POSITION" : 1,
            "NORMAL" : 2,
            "TANGENT" : 3,
            "TEXCOORD_0" : 4,
            "TEXCOORD_1" : 5
          },
          "indices" : 0,
          "material" : 0
        },
        {
          "attributes" : {
            "POSITION" : 7,
            "NORMAL" : 8,
            "TANGENT" : 9,
            "TEXCOORD_0" : 10,
            "TEXCOORD_1" : 11
          },
          "indices" : 6,
          "material" : 1
        }
      ],
      "name" : "mercedes_amg_gt4_rim_rf_Lod1"
    }
  ],
  "buffers" : [
    {
      "uri" : "mercedes_amg_gt4_rim_rf_Lod1.bin",
      "byteLength" : 296012
    }
  ],
  "bufferViews" : [
    {
      "buffer" : 0,
      "byteOffset" : 0,
      "byteLength" : 31508
    },
    {
      "buffer" : 0,
      "byteOffset" : 31508,
      "byteLength" : 56016
    },
    {
      "buffer" : 0,
      "byteOffset" : 87524,
      "byteLength" : 56016
    },
    {
      "buffer" : 0,
      "byteOffset" : 143540,
      "byteLength" : 74688
    },
    {
      "buffer" : 0,
      "byteOffset" : 218228,
      "byteLength" : 37344
    },
    {
      "buffer" : 0,
      "byteOffset" : 255572,
      "byteLength" : 37344
    },
    {
      "buffer" : 0,
      "byteOffset" : 292916,
      "byteLength" : 296
    },
    {
      "buffer" : 0,
      "byteOffset" : 293212,
      "byteLength" : 600
    },
    {
      "buffer" : 0,
      "byteOffset" : 293812,
      "byteLength" : 600
    },
    {
      "buffer" : 0,
      "byteOffset" : 294412,
      "byteLength" : 800
    },
    {
      "buffer" : 0,
      "byteOffset" : 295212,
      "byteLength" : 400
    },
    {
      "buffer" : 0,
      "byteOffset" : 295612,
      "byteLength" : 400
    }
  ],
  "accessors" : [
    {
      "bufferView" : 0,
      "componentType" : 5123,
      "count" : 15753,
      "type" : "SCALAR"
    },
    {
      "bufferView" : 1,
      "min" : [ -0.152922, -0.248821, -0.24882 ],
      "max" : [ 0.149103, 0.24882, 0.248821 ],
      "componentType" : 5126,
      "count" : 4668,
      "type" : "VEC3"
    },
    {
      "bufferView" : 2,
      "componentType" : 5126,
      "count" : 4668,
      "type" : "VEC3"
    },
    {
      "bufferView" : 3,
      "componentType" : 5126,
      "count" : 4668,
      "type" : "VEC4"
    },
    {
      "bufferView" : 4,
      "componentType" : 5126,
      "count" : 4668,
      "type" : "VEC2"
    },
    {
      "bufferView" : 5,
      "componentType" : 5126,
      "count" : 4668,
      "type" : "VEC2"
    },
    {
      "bufferView" : 6,
      "componentType" : 5123,
      "count" : 147,
      "type" : "SCALAR"
    },
    {
      "bufferView" : 7,
      "min" : [ -0.104047, -0.0370649, -0.0372911 ],
      "max" : [ -0.0982829, 0.0376526, 0.0370063 ],
      "componentType" : 5126,
      "count" : 50,
      "type" : "VEC3"
    },
    {
      "bufferView" : 8,
      "componentType" : 5126,
      "count" : 50,
      "type" : "VEC3"
    },
    {
      "bufferView" : 9,
      "componentType" : 5126,
      "count" : 50,
      "type" : "VEC4"
    },
    {
      "bufferView" : 10,
      "componentType" : 5126,
      "count" : 50,
      "type" : "VEC2"
    },
    {
      "bufferView" : 11,
      "componentType" : 5126,
      "count" : 50,
      "type" : "VEC2"
    }
  ]
}
