{
  "asset" : {
    "generator" : "UE Viewer (umodel) build 1589",
    "version" : "2.0"
  },
  "scene" : 0,
  "scenes" : [
    {
      "nodes" : [ 0 ]
    }
  ],
  "nodes" : [
    {
      "name" : "mclaren_570s_gt4_exterior_Lod4",
      "mesh" : 0,
      "skin" : 0,
      "children" : [ 1 ]
    },
    {
      "name" : "MCLAREN_570S_GT4",
      "children" : [ 2 ],
      "translation" : [ 0, 0, 0 ],
      "rotation" : [ -0, -0, -0, 1 ]
    },
    {
      "name" : "CAR_BODY",
      "children" : [ 3, 4, 5, 6, 7, 8, 9, 10, 11, 12, 13, 14, 15, 16, 17, 18, 19, 20, 21, 22, 23, 24, 25, 26, 29 ],
      "translation" : [ 0, 0, -0 ],
      "rotation" : [ -0, -0, 0, -1 ]
    },
    {
      "name" : "WHEEL_LF",
      "translation" : [ 0.821766, 0.347946, 1.33684 ],
      "rotation" : [ -1.19209e-07, 2.22045e-16, 1.86265e-09, -1 ]
    },
    {
      "name" : "SUSP_LF",
      "translation" : [ 0.821766, 0.347946, 1.33684 ],
      "rotation" : [ -1.19209e-07, 2.22045e-16, 1.86265e-09, -1 ]
    },
    {
      "name" : "DISC_LF",
      "translation" : [ 0.821766, 0.347946, 1.33684 ],
      "rotation" : [ -1.19209e-07, 2.22035e-16, 1.86265e-09, -1 ]
    },
    {
      "name" : "WHEEL_LR",
      "translation" : [ 0.789635, 0.357593, -1.33684 ],
      "rotation" : [ -1.78814e-07, 3.33067e-16, 1.86265e-09, -1 ]
    },
    {
      "name" : "SUSP_LR",
      "translation" : [ 0.789635, 0.357593, -1.33684 ],
      "rotation" : [ -1.78814e-07, 3.33067e-16, 1.86265e-09, -1 ]
    },
    {
      "name" : "DISC_LR",
      "translation" : [ 0.789635, 0.357593, -1.33684 ],
      "rotation" : [ -1.78814e-07, 3.33067e-16, 1.86265e-09, -1 ]
    },
    {
      "name" : "DISC_RF",
      "translation" : [ -0.82177, 0.347946, 1.33684 ],
      "rotation" : [ -1.19209e-07, -2.22055e-16, -1.86265e-09, -1 ]
    },
    {
      "name" : "SUSP_RF",
      "translation" : [ -0.82177, 0.347946, 1.33684 ],
      "rotation" : [ -1.19209e-07, -2.22045e-16, -1.86265e-09, -1 ]
    },
    {
      "name" : "WHEEL_RF",
      "translation" : [ -0.82177, 0.347946, 1.33684 ],
      "rotation" : [ -1.19209e-07, -2.22045e-16, -1.86265e-09, -1 ]
    },
    {
      "name" : "DISC_RR",
      "translation" : [ -0.78964, 0.357593, -1.33684 ],
      "rotation" : [ -1.78814e-07, -0, 0, -1 ]
    },
    {
      "name" : "WHEEL_RR",
      "translation" : [ -0.78964, 0.357593, -1.33684 ],
      "rotation" : [ -1.78814e-07, -0, 0, -1 ]
    },
    {
      "name" : "SUSP_RR",
      "translation" : [ -0.78964, 0.357593, -1.33684 ],
      "rotation" : [ -1.78814e-07, -0, 0, -1 ]
    },
    {
      "name" : "LUMIRANK",
      "translation" : [ -0.393486, 1.02585, 0.708682 ],
      "rotation" : [ -0.175762, 0.0418301, -0.0587746, -0.981786 ]
    },
    {
      "name" : "TYRE_LF",
      "translation" : [ 0.821766, 0.347946, 1.33684 ],
      "rotation" : [ -1.19209e-07, 2.22045e-16, 1.86265e-09, -1 ]
    },
    {
      "name" : "TYRE_RF",
      "translation" : [ -0.82177, 0.347946, 1.33684 ],
      "rotation" : [ -1.19209e-07, -2.22045e-16, -1.86265e-09, -1 ]
    },
    {
      "name" : "TYRE_RR",
      "translation" : [ -0.78964, 0.357593, -1.33684 ],
      "rotation" : [ -1.78814e-07, -0, 0, -1 ]
    },
    {
      "name" : "TYRE_LR",
      "translation" : [ 0.789635, 0.357593, -1.33684 ],
      "rotation" : [ -1.78814e-07, 3.33067e-16, 1.86265e-09, -1 ]
    },
    {
      "name" : "REAR_BUMPER",
      "translation" : [ 0, 0.656711, -1.53565 ],
      "rotation" : [ -0, -0, 0, -1 ]
    },
    {
      "name" : "FRONT_BUMPER",
      "translation" : [ 0, 0.464808, 1.68737 ],
      "rotation" : [ -0, -0, 0, -1 ]
    },
    {
      "name" : "HOOD",
      "translation" : [ 0, 0.780483, 1.28272 ],
      "rotation" : [ -0, -0, 0, -1 ]
    },
    {
      "name" : "WING",
      "translation" : [ 0, 0.946526, -1.96134 ],
      "rotation" : [ -0, -0, 0, -1 ]
    },
    {
      "name" : "DOOR_L",
      "translation" : [ 0.820427, 0.750134, 1.0278 ],
      "rotation" : [ -0.70961, 0.380176, 0.0143194, -0.593055 ]
    },
    {
      "name" : "DOOR_R",
      "translation" : [ -0.82, 0.750134, 1.0278 ],
      "rotation" : [ -0.70961, -0.380175, -0.0143249, -0.593056 ]
    },
    {
      "name" : "WIPER_R1",
      "children" : [ 27 ],
      "translation" : [ 0.146794, 0.736695, 1.51388 ],
      "rotation" : [ -0.0422675, -0.183902, 0.981997, -0.00868181 ]
    },
    {
      "name" : "WIPER_R2",
      "children" : [ 28 ],
      "translation" : [ 0.2977, -0.0151776, -0.0231221 ],
      "rotation" : [ -0.734542, -0.0218177, -0.678212, -8.33605e-05 ]
    },
    {
      "name" : "WIPER_R3",
      "translation" : [ -0.161628, -0.0319203, 0.522883 ],
      "rotation" : [ -0.00926018, -0.510168, -0.0589832, -0.858 ]
    },
    {
      "name" : "WIPER_L1",
      "children" : [ 30 ],
      "translation" : [ 0.457419, 0.718849, 1.45449 ],
      "rotation" : [ -2.05992e-07, -0.161734, 0.986834, -7.90602e-08 ]
    },
    {
      "name" : "WIPER_L2",
      "children" : [ 31 ],
      "translation" : [ 0.20022, -0.0443489, -0.000745447 ],
      "rotation" : [ -0.745955, 7.88998e-08, -0.665996, 1.00098e-07 ]
    },
    {
      "name" : "WIPER_L3",
      "translation" : [ -0.0580984, -0.00634938, 0.415947 ],
      "rotation" : [ -0.00720386, -0.728149, -0.0215572, -0.685042 ]
    }
  ],
  "skins" : [
    {
      "inverseBindMatrices" : 0,
      "skeleton" : 1,
      "joints" : [
        1,2,3,4,5,6,7,8,9,10,11,12,13,14,15,16,17,18,19,20,21,22,23,24,25,26,27,28,29,30,31
      ]
    }
  ],
  "materials" : [
    {
      "name" : "EXT_Carpaint_Inst",
      "pbrMetallicRoughness" : {
        "baseColorFactor" : [ 0.3, 0.3, 0.3, 1.0 ],
        "metallicFactor" : 0.1,
        "roughnessFactor" : 0.5
      }
    }
  ],
  "meshes" : [
    {
      "primitives" : [
        {
          "attributes" : {
            "POSITION" : 2,
            "NORMAL" : 3,
            "TANGENT" : 4,
            "COLOR_0" : 5,
            "JOINTS_0" : 6,
            "WEIGHTS_0" : 7,
            "TEXCOORD_0" : 8,
            "TEXCOORD_1" : 9,
            "TEXCOORD_2" : 10,
            "TEXCOORD_3" : 11
          },
          "indices" : 1,
          "material" : 0
        }
      ],
      "name" : "mclaren_570s_gt4_exterior_Lod4"
    }
  ],
  "buffers" : [
    {
      "uri" : "mclaren_570s_gt4_exterior_Lod4.bin",
      "byteLength" : 826748
    }
  ],
  "bufferViews" : [
    {
      "buffer" : 0,
      "byteOffset" : 0,
      "byteLength" : 1984
    },
    {
      "buffer" : 0,
      "byteOffset" : 1984,
      "byteLength" : 47108
    },
    {
      "buffer" : 0,
      "byteOffset" : 49092,
      "byteLength" : 106044
    },
    {
      "buffer" : 0,
      "byteOffset" : 155136,
      "byteLength" : 106044
    },
    {
      "buffer" : 0,
      "byteOffset" : 261180,
      "byteLength" : 141392
    },
    {
      "buffer" : 0,
      "byteOffset" : 402572,
      "byteLength" : 35348
    },
    {
      "buffer" : 0,
      "byteOffset" : 437920,
      "byteLength" : 70696
    },
    {
      "buffer" : 0,
      "byteOffset" : 508616,
      "byteLength" : 35348
    },
    {
      "buffer" : 0,
      "byteOffset" : 543964,
      "byteLength" : 70696
    },
    {
      "buffer" : 0,
      "byteOffset" : 614660,
      "byteLength" : 70696
    },
    {
      "buffer" : 0,
      "byteOffset" : 685356,
      "byteLength" : 70696
    },
    {
      "buffer" : 0,
      "byteOffset" : 756052,
      "byteLength" : 70696
    }
  ],
  "accessors" : [
    {
      "bufferView" : 0,
      "componentType" : 5126,
      "count" : 31,
      "type" : "MAT4"
    },
    {
      "bufferView" : 1,
      "componentType" : 5123,
      "count" : 23553,
      "type" : "SCALAR"
    },
    {
      "bufferView" : 2,
      "min" : [ -1.04443, 7.49588e-05, -2.13019 ],
      "max" : [ 1.04443, 1.54354, 2.48476 ],
      "componentType" : 5126,
      "count" : 8837,
      "type" : "VEC3"
    },
    {
      "bufferView" : 3,
      "componentType" : 5126,
      "count" : 8837,
      "type" : "VEC3"
    },
    {
      "bufferView" : 4,
      "componentType" : 5126,
      "count" : 8837,
      "type" : "VEC4"
    },
    {
      "bufferView" : 5,
      "normalized" : true,
      "componentType" : 5121,
      "count" : 8837,
      "type" : "VEC4"
    },
    {
      "bufferView" : 6,
      "componentType" : 5123,
      "count" : 8837,
      "type" : "VEC4"
    },
    {
      "bufferView" : 7,
      "normalized" : true,
      "componentType" : 5121,
      "count" : 8837,
      "type" : "VEC4"
    },
    {
      "bufferView" : 8,
      "componentType" : 5126,
      "count" : 8837,
      "type" : "VEC2"
    },
    {
      "bufferView" : 9,
      "componentType" : 5126,
      "count" : 8837,
      "type" : "VEC2"
    },
    {
      "bufferView" : 10,
      "componentType" : 5126,
      "count" : 8837,
      "type" : "VEC2"
    },
    {
      "bufferView" : 11,
      "componentType" : 5126,
      "count" : 8837,
      "type" : "VEC2"
    }
  ]
}
