{
  "asset" : {
    "generator" : "UE Viewer (umodel) build 1589",
    "version" : "2.0"
  },
  "scene" : 0,
  "scenes" : [
    {
      "nodes" : [ 0 ]
    }
  ],
  "nodes" : [
    {
      "name" : "mclaren_570s_gt4_rim_rf_Lod1",
      "mesh" : 0
    }
  ],
  "materials" : [
    {
      "name" : "EXT_RIM",
      "pbrMetallicRoughness" : {
        "baseColorFactor" : [ 0.3, 0.3, 0.3, 1.0 ],
        "metallicFactor" : 0.1,
        "roughnessFactor" : 0.5
      }
    }
  ],
  "meshes" : [
    {
      "primitives" : [
        {
          "attributes" : {
            "POSITION" : 1,
            "NORMAL" : 2,
            "TANGENT" : 3,
            "COLOR_0" : 4,
            "TEXCOORD_0" : 5,
            "TEXCOORD_1" : 6
          },
          "indices" : 0,
          "material" : 0
        }
      ],
      "name" : "mclaren_570s_gt4_rim_rf_Lod1"
    }
  ],
  "buffers" : [
    {
      "uri" : "mclaren_570s_gt4_rim_rf_Lod1.bin",
      "byteLength" : 236324
    }
  ],
  "bufferViews" : [
    {
      "buffer" : 0,
      "byteOffset" : 0,
      "byteLength" : 31544
    },
    {
      "buffer" : 0,
      "byteOffset" : 31544,
      "byteLength" : 40956
    },
    {
      "buffer" : 0,
      "byteOffset" : 72500,
      "byteLength" : 40956
    },
    {
      "buffer" : 0,
      "byteOffset" : 113456,
      "byteLength" : 54608
    },
    {
      "buffer" : 0,
      "byteOffset" : 168064,
      "byteLength" : 13652
    },
    {
      "buffer" : 0,
      "byteOffset" : 181716,
      "byteLength" : 27304
    },
    {
      "buffer" : 0,
      "byteOffset" : 209020,
      "byteLength" : 27304
    }
  ],
  "accessors" : [
    {
      "bufferView" : 0,
      "componentType" : 5123,
      "count" : 15771,
      "type" : "SCALAR"
    },
    {
      "bufferView" : 1,
      "min" : [ -0.148509, -0.250396, -0.249795 ],
      "max" : [ 0.132947, 0.249945, 0.249795 ],
      "componentType" : 5126,
      "count" : 3413,
      "type" : "VEC3"
    },
    {
      "bufferView" : 2,
      "componentType" : 5126,
      "count" : 3413,
      "type" : "VEC3"
    },
    {
      "bufferView" : 3,
      "componentType" : 5126,
      "count" : 3413,
      "type" : "VEC4"
    },
    {
      "bufferView" : 4,
      "normalized" : true,
      "componentType" : 5121,
      "count" : 3413,
      "type" : "VEC4"
    },
    {
      "bufferView" : 5,
      "componentType" : 5126,
      "count" : 3413,
      "type" : "VEC2"
    },
    {
      "bufferView" : 6,
      "componentType" : 5126,
      "count" : 3413,
      "type" : "VEC2"
    }
  ]
}
