{
  "asset" : {
    "generator" : "UE Viewer (umodel) build 1589",
    "version" : "2.0"
  },
  "scene" : 0,
  "scenes" : [
    {
      "nodes" : [ 0 ]
    }
  ],
  "nodes" : [
    {
      "name" : "amr_v8_vantage_gt4_rim_lr_Lod1",
      "mesh" : 0
    }
  ],
  "materials" : [
    {
      "name" : "EXT_RIM",
      "pbrMetallicRoughness" : {
        "baseColorFactor" : [ 0.3, 0.3, 0.3, 1.0 ],
        "metallicFactor" : 0.1,
        "roughnessFactor" : 0.5
      }
    }
  ],
  "meshes" : [
    {
      "primitives" : [
        {
          "attributes" : {
            "POSITION" : 1,
            "NORMAL" : 2,
            "TANGENT" : 3,
            "COLOR_0" : 4,
            "TEXCOORD_0" : 5,
            "TEXCOORD_1" : 6
          },
          "indices" : 0,
          "material" : 0
        }
      ],
      "name" : "amr_v8_vantage_gt4_rim_lr_Lod1"
    }
  ],
  "buffers" : [
    {
      "uri" : "amr_v8_vantage_gt4_rim_lr_Lod1.bin",
      "byteLength" : 214668
    }
  ],
  "bufferViews" : [
    {
      "buffer" : 0,
      "byteOffset" : 0,
      "byteLength" : 22308
    },
    {
      "buffer" : 0,
      "byteOffset" : 22308,
      "byteLength" : 38472
    },
    {
      "buffer" : 0,
      "byteOffset" : 60780,
      "byteLength" : 38472
    },
    {
      "buffer" : 0,
      "byteOffset" : 99252,
      "byteLength" : 51296
    },
    {
      "buffer" : 0,
      "byteOffset" : 150548,
      "byteLength" : 12824
    },
    {
      "buffer" : 0,
      "byteOffset" : 163372,
      "byteLength" : 25648
    },
    {
      "buffer" : 0,
      "byteOffset" : 189020,
      "byteLength" : 25648
    }
  ],
  "accessors" : [
    {
      "bufferView" : 0,
      "componentType" : 5123,
      "count" : 11154,
      "type" : "SCALAR"
    },
    {
      "bufferView" : 1,
      "min" : [ -0.154416, -0.253002, -0.252056 ],
      "max" : [ 0.15478, 0.253002, 0.252056 ],
      "componentType" : 5126,
      "count" : 3206,
      "type" : "VEC3"
    },
    {
      "bufferView" : 2,
      "componentType" : 5126,
      "count" : 3206,
      "type" : "VEC3"
    },
    {
      "bufferView" : 3,
      "componentType" : 5126,
      "count" : 3206,
      "type" : "VEC4"
    },
    {
      "bufferView" : 4,
      "normalized" : true,
      "componentType" : 5121,
      "count" : 3206,
      "type" : "VEC4"
    },
    {
      "bufferView" : 5,
      "componentType" : 5126,
      "count" : 3206,
      "type" : "VEC2"
    },
    {
      "bufferView" : 6,
      "componentType" : 5126,
      "count" : 3206,
      "type" : "VEC2"
    }
  ]
}
