{
  "asset" : {
    "generator" : "UE Viewer (umodel) build 1589",
    "version" : "2.0"
  },
  "scene" : 0,
  "scenes" : [
    {
      "nodes" : [ 0 ]
    }
  ],
  "nodes" : [
    {
      "name" : "amr_v8_vantage_gt4_rim_lf_Lod1",
      "mesh" : 0
    }
  ],
  "materials" : [
    {
      "name" : "EXT_RIM",
      "pbrMetallicRoughness" : {
        "baseColorFactor" : [ 0.3, 0.3, 0.3, 1.0 ],
        "metallicFactor" : 0.1,
        "roughnessFactor" : 0.5
      }
    }
  ],
  "meshes" : [
    {
      "primitives" : [
        {
          "attributes" : {
            "POSITION" : 1,
            "NORMAL" : 2,
            "TANGENT" : 3,
            "COLOR_0" : 4,
            "TEXCOORD_0" : 5,
            "TEXCOORD_1" : 6
          },
          "indices" : 0,
          "material" : 0
        }
      ],
      "name" : "amr_v8_vantage_gt4_rim_lf_Lod1"
    }
  ],
  "buffers" : [
    {
      "uri" : "amr_v8_vantage_gt4_rim_lf_Lod1.bin",
      "byteLength" : 205376
    }
  ],
  "bufferViews" : [
    {
      "buffer" : 0,
      "byteOffset" : 0,
      "byteLength" : 22436
    },
    {
      "buffer" : 0,
      "byteOffset" : 22436,
      "byteLength" : 36588
    },
    {
      "buffer" : 0,
      "byteOffset" : 59024,
      "byteLength" : 36588
    },
    {
      "buffer" : 0,
      "byteOffset" : 95612,
      "byteLength" : 48784
    },
    {
      "buffer" : 0,
      "byteOffset" : 144396,
      "byteLength" : 12196
    },
    {
      "buffer" : 0,
      "byteOffset" : 156592,
      "byteLength" : 24392
    },
    {
      "buffer" : 0,
      "byteOffset" : 180984,
      "byteLength" : 24392
    }
  ],
  "accessors" : [
    {
      "bufferView" : 0,
      "componentType" : 5123,
      "count" : 11217,
      "type" : "SCALAR"
    },
    {
      "bufferView" : 1,
      "min" : [ -0.151543, -0.253002, -0.252056 ],
      "max" : [ 0.152349, 0.253002, 0.252056 ],
      "componentType" : 5126,
      "count" : 3049,
      "type" : "VEC3"
    },
    {
      "bufferView" : 2,
      "componentType" : 5126,
      "count" : 3049,
      "type" : "VEC3"
    },
    {
      "bufferView" : 3,
      "componentType" : 5126,
      "count" : 3049,
      "type" : "VEC4"
    },
    {
      "bufferView" : 4,
      "normalized" : true,
      "componentType" : 5121,
      "count" : 3049,
      "type" : "VEC4"
    },
    {
      "bufferView" : 5,
      "componentType" : 5126,
      "count" : 3049,
      "type" : "VEC2"
    },
    {
      "bufferView" : 6,
      "componentType" : 5126,
      "count" : 3049,
      "type" : "VEC2"
    }
  ]
}
