{
  "asset" : {
    "generator" : "UE Viewer (umodel) build 1589",
    "version" : "2.0"
  },
  "scene" : 0,
  "scenes" : [
    {
      "nodes" : [ 0 ]
    }
  ],
  "nodes" : [
    {
      "name" : "amr_v8_vantage_gt4_exterior_Lod4",
      "mesh" : 0,
      "skin" : 0,
      "children" : [ 1 ]
    },
    {
      "name" : "AMR_V8_GT4",
      "children" : [ 2 ],
      "translation" : [ 0, 0, 0 ],
      "rotation" : [ -0, -0, -0, 1 ]
    },
    {
      "name" : "CAR_BODY",
      "children" : [ 3, 4, 5, 6, 7, 8, 9, 10, 11, 12, 13, 14, 15, 16, 17, 18, 19, 20, 21, 22, 23, 24, 25, 26, 29 ],
      "translation" : [ 0, 0, -0 ],
      "rotation" : [ -0, -0, 0, -1 ]
    },
    {
      "name" : "WING",
      "translation" : [ 0, 1.04556, -2.06139 ],
      "rotation" : [ -0, -0, 0, -1 ]
    },
    {
      "name" : "DISC_LF",
      "translation" : [ 0.81, 0.312437, 1.31352 ],
      "rotation" : [ -5.96046e-08, -0, 0, -1 ]
    },
    {
      "name" : "SUSP_LF",
      "translation" : [ 0.81, 0.312437, 1.31352 ],
      "rotation" : [ -5.96046e-08, -0, 0, -1 ]
    },
    {
      "name" : "WHEEL_LF",
      "translation" : [ 0.81, 0.312437, 1.31352 ],
      "rotation" : [ -5.96046e-08, -0, 0, -1 ]
    },
    {
      "name" : "DISC_RF",
      "translation" : [ -0.81, 0.312437, 1.31352 ],
      "rotation" : [ -5.96046e-08, -0, 0, -1 ]
    },
    {
      "name" : "SUSP_RF",
      "translation" : [ -0.81, 0.312437, 1.31352 ],
      "rotation" : [ -5.96046e-08, -0, 0, -1 ]
    },
    {
      "name" : "WHEEL_RF",
      "translation" : [ -0.81, 0.312437, 1.31352 ],
      "rotation" : [ -5.96046e-08, -0, 0, -1 ]
    },
    {
      "name" : "DISC_RR",
      "translation" : [ -0.82, 0.320198, -1.39148 ],
      "rotation" : [ -5.96046e-08, -0, 0, -1 ]
    },
    {
      "name" : "DISC_LR",
      "translation" : [ 0.82, 0.320198, -1.39148 ],
      "rotation" : [ -5.96046e-08, -0, 0, -1 ]
    },
    {
      "name" : "WHEEL_RR",
      "translation" : [ -0.82, 0.320198, -1.39148 ],
      "rotation" : [ -5.96046e-08, -0, 0, -1 ]
    },
    {
      "name" : "SUSP_RR",
      "translation" : [ -0.82, 0.320198, -1.39148 ],
      "rotation" : [ -5.96046e-08, -0, 0, -1 ]
    },
    {
      "name" : "WHEEL_LR",
      "translation" : [ 0.82, 0.320198, -1.39148 ],
      "rotation" : [ -5.96046e-08, -0, 0, -1 ]
    },
    {
      "name" : "SUSP_LR",
      "translation" : [ 0.82, 0.320198, -1.39148 ],
      "rotation" : [ -5.96046e-08, -0, 0, -1 ]
    },
    {
      "name" : "REAR_BUMPER",
      "translation" : [ 0, 0.732912, -2.15257 ],
      "rotation" : [ -0, -0, 0, -1 ]
    },
    {
      "name" : "FRONT_BUMPER",
      "translation" : [ -0.00235977, 0.547321, 2.08197 ],
      "rotation" : [ -0, -0, 0, -1 ]
    },
    {
      "name" : "HOOD",
      "translation" : [ 0, 0.827079, 0.504375 ],
      "rotation" : [ -0, -0, 0, -1 ]
    },
    {
      "name" : "TYRE_LF",
      "translation" : [ 0.81, 0.312437, 1.31352 ],
      "rotation" : [ -5.96046e-08, -0, 0, -1 ]
    },
    {
      "name" : "TYRE_RF",
      "translation" : [ -0.81, 0.312437, 1.31352 ],
      "rotation" : [ -5.96046e-08, -0, 0, -1 ]
    },
    {
      "name" : "TYRE_RR",
      "translation" : [ -0.82, 0.320198, -1.39148 ],
      "rotation" : [ -5.96046e-08, -0, 0, -1 ]
    },
    {
      "name" : "TYRE_LR",
      "translation" : [ 0.82, 0.320198, -1.39148 ],
      "rotation" : [ -5.96046e-08, -0, 0, -1 ]
    },
    {
      "name" : "LUMIRANK",
      "translation" : [ -0.478296, 1.06212, 0.160895 ],
      "rotation" : [ -0.185904, 0.0299179, -0.0840099, -0.978513 ]
    },
    {
      "name" : "DOOR_L",
      "translation" : [ 0.838648, 0.744924, 0.491809 ],
      "rotation" : [ 0.091659, -0.00586651, -0.0640901, -0.993709 ]
    },
    {
      "name" : "DOOR_R",
      "translation" : [ -0.83865, 0.744924, 0.491809 ],
      "rotation" : [ 0.091659, 0.00586512, 0.0640923, -0.993708 ]
    },
    {
      "name" : "WIPER_1",
      "children" : [ 27 ],
      "translation" : [ 0.664286, 0.728159, 0.738837 ],
      "rotation" : [ -0.21462, 0.0888703, 0.120131, -0.965199 ]
    },
    {
      "name" : "WIPER_2",
      "children" : [ 28 ],
      "translation" : [ -0.17791, 0.057424, 0.000268489 ],
      "rotation" : [ -0.0523351, 6.53288e-17, -2.11876e-16, -0.99863 ]
    },
    {
      "name" : "WIPER_3",
      "translation" : [ -0.428325, -0.0766397, 0.0540734 ],
      "rotation" : [ 0.0768824, -0.106485, -0.08416, -0.987759 ]
    },
    {
      "name" : "WIPER_4",
      "children" : [ 30 ],
      "translation" : [ -0.66429, 0.728159, 0.738837 ],
      "rotation" : [ -0.216583, -0.0728567, -0.116555, -0.96654 ]
    },
    {
      "name" : "WIPER_5",
      "children" : [ 31 ],
      "translation" : [ 0.177911, 0.0574242, 0.000269254 ],
      "rotation" : [ -0.0523351, 3.0773e-09, -1.81531e-08, -0.99863 ]
    },
    {
      "name" : "WIPER_6",
      "translation" : [ 0.428324, -0.0766383, 0.0540741 ],
      "rotation" : [ 0.0768823, 0.106487, 0.084162, -0.987758 ]
    }
  ],
  "skins" : [
    {
      "inverseBindMatrices" : 0,
      "skeleton" : 1,
      "joints" : [
        1,2,3,4,5,6,7,8,9,10,11,12,13,14,15,16,17,18,19,20,21,22,23,24,25,26,27,28,29,30,31
      ]
    }
  ],
  "materials" : [
    {
      "name" : "EXT_Carpaint_Inst",
      "pbrMetallicRoughness" : {
        "baseColorFactor" : [ 0.3, 0.3, 0.3, 1.0 ],
        "metallicFactor" : 0.1,
        "roughnessFactor" : 0.5
      }
    }
  ],
  "meshes" : [
    {
      "primitives" : [
        {
          "attributes" : {
            "POSITION" : 2,
            "NORMAL" : 3,
            "TANGENT" : 4,
            "COLOR_0" : 5,
            "JOINTS_0" : 6,
            "WEIGHTS_0" : 7,
            "TEXCOORD_0" : 8
          },
          "indices" : 1,
          "material" : 0
        }
      ],
      "name" : "amr_v8_vantage_gt4_exterior_Lod4"
    }
  ],
  "buffers" : [
    {
      "uri" : "amr_v8_vantage_gt4_exterior_Lod4.bin",
      "byteLength" : 280516
    }
  ],
  "bufferViews" : [
    {
      "buffer" : 0,
      "byteOffset" : 0,
      "byteLength" : 1984
    },
    {
      "buffer" : 0,
      "byteOffset" : 1984,
      "byteLength" : 22788
    },
    {
      "buffer" : 0,
      "byteOffset" : 24772,
      "byteLength" : 47952
    },
    {
      "buffer" : 0,
      "byteOffset" : 72724,
      "byteLength" : 47952
    },
    {
      "buffer" : 0,
      "byteOffset" : 120676,
      "byteLength" : 63936
    },
    {
      "buffer" : 0,
      "byteOffset" : 184612,
      "byteLength" : 15984
    },
    {
      "buffer" : 0,
      "byteOffset" : 200596,
      "byteLength" : 31968
    },
    {
      "buffer" : 0,
      "byteOffset" : 232564,
      "byteLength" : 15984
    },
    {
      "buffer" : 0,
      "byteOffset" : 248548,
      "byteLength" : 31968
    }
  ],
  "accessors" : [
    {
      "bufferView" : 0,
      "componentType" : 5126,
      "count" : 31,
      "type" : "MAT4"
    },
    {
      "bufferView" : 1,
      "componentType" : 5123,
      "count" : 11394,
      "type" : "SCALAR"
    },
    {
      "bufferView" : 2,
      "min" : [ -1.07674, -0.0175954, -2.25687 ],
      "max" : [ 1.07674, 1.21307, 2.26932 ],
      "componentType" : 5126,
      "count" : 3996,
      "type" : "VEC3"
    },
    {
      "bufferView" : 3,
      "componentType" : 5126,
      "count" : 3996,
      "type" : "VEC3"
    },
    {
      "bufferView" : 4,
      "componentType" : 5126,
      "count" : 3996,
      "type" : "VEC4"
    },
    {
      "bufferView" : 5,
      "normalized" : true,
      "componentType" : 5121,
      "count" : 3996,
      "type" : "VEC4"
    },
    {
      "bufferView" : 6,
      "componentType" : 5123,
      "count" : 3996,
      "type" : "VEC4"
    },
    {
      "bufferView" : 7,
      "normalized" : true,
      "componentType" : 5121,
      "count" : 3996,
      "type" : "VEC4"
    },
    {
      "bufferView" : 8,
      "componentType" : 5126,
      "count" : 3996,
      "type" : "VEC2"
    }
  ]
}
