{
  "asset" : {
    "generator" : "UE Viewer (umodel) build 1589",
    "version" : "2.0"
  },
  "scene" : 0,
  "scenes" : [
    {
      "nodes" : [ 0 ]
    }
  ],
  "nodes" : [
    {
      "name" : "lamborghini_huracan_gt3_rim_rr_Lod1",
      "mesh" : 0
    }
  ],
  "materials" : [
    {
      "name" : "EXT_RIM",
      "pbrMetallicRoughness" : {
        "baseColorFactor" : [ 0.3, 0.3, 0.3, 1.0 ],
        "metallicFactor" : 0.1,
        "roughnessFactor" : 0.5
      }
    }
  ],
  "meshes" : [
    {
      "primitives" : [
        {
          "attributes" : {
            "POSITION" : 1,
            "NORMAL" : 2,
            "TANGENT" : 3,
            "TEXCOORD_0" : 4,
            "TEXCOORD_1" : 5
          },
          "indices" : 0,
          "material" : 0
        }
      ],
      "name" : "lamborghini_huracan_gt3_rim_rr_Lod1"
    }
  ],
  "buffers" : [
    {
      "uri" : "lamborghini_huracan_gt3_rim_rr_Lod1.bin",
      "byteLength" : 247632
    }
  ],
  "bufferViews" : [
    {
      "buffer" : 0,
      "byteOffset" : 0,
      "byteLength" : 23352
    },
    {
      "buffer" : 0,
      "byteOffset" : 23352,
      "byteLength" : 48060
    },
    {
      "buffer" : 0,
      "byteOffset" : 71412,
      "byteLength" : 48060
    },
    {
      "buffer" : 0,
      "byteOffset" : 119472,
      "byteLength" : 64080
    },
    {
      "buffer" : 0,
      "byteOffset" : 183552,
      "byteLength" : 32040
    },
    {
      "buffer" : 0,
      "byteOffset" : 215592,
      "byteLength" : 32040
    }
  ],
  "accessors" : [
    {
      "bufferView" : 0,
      "componentType" : 5123,
      "count" : 11676,
      "type" : "SCALAR"
    },
    {
      "bufferView" : 1,
      "min" : [ -0.178175, -0.249926, -0.250401 ],
      "max" : [ 0.178222, 0.250148, 0.248851 ],
      "componentType" : 5126,
      "count" : 4005,
      "type" : "VEC3"
    },
    {
      "bufferView" : 2,
      "componentType" : 5126,
      "count" : 4005,
      "type" : "VEC3"
    },
    {
      "bufferView" : 3,
      "componentType" : 5126,
      "count" : 4005,
      "type" : "VEC4"
    },
    {
      "bufferView" : 4,
      "componentType" : 5126,
      "count" : 4005,
      "type" : "VEC2"
    },
    {
      "bufferView" : 5,
      "componentType" : 5126,
      "count" : 4005,
      "type" : "VEC2"
    }
  ]
}
