{
  "asset" : {
    "generator" : "UE Viewer (umodel) build 1589",
    "version" : "2.0"
  },
  "scene" : 0,
  "scenes" : [
    {
      "nodes" : [ 0 ]
    }
  ],
  "nodes" : [
    {
      "name" : "lamborghini_huracan_gt3_rim_rf_Lod1",
      "mesh" : 0
    }
  ],
  "materials" : [
    {
      "name" : "EXT_RIM",
      "pbrMetallicRoughness" : {
        "baseColorFactor" : [ 0.3, 0.3, 0.3, 1.0 ],
        "metallicFactor" : 0.1,
        "roughnessFactor" : 0.5
      }
    }
  ],
  "meshes" : [
    {
      "primitives" : [
        {
          "attributes" : {
            "POSITION" : 1,
            "NORMAL" : 2,
            "TANGENT" : 3,
            "TEXCOORD_0" : 4,
            "TEXCOORD_1" : 5
          },
          "indices" : 0,
          "material" : 0
        }
      ],
      "name" : "lamborghini_huracan_gt3_rim_rf_Lod1"
    }
  ],
  "buffers" : [
    {
      "uri" : "lamborghini_huracan_gt3_rim_rf_Lod1.bin",
      "byteLength" : 228424
    }
  ],
  "bufferViews" : [
    {
      "buffer" : 0,
      "byteOffset" : 0,
      "byteLength" : 23352
    },
    {
      "buffer" : 0,
      "byteOffset" : 23352,
      "byteLength" : 43944
    },
    {
      "buffer" : 0,
      "byteOffset" : 67296,
      "byteLength" : 43944
    },
    {
      "buffer" : 0,
      "byteOffset" : 111240,
      "byteLength" : 58592
    },
    {
      "buffer" : 0,
      "byteOffset" : 169832,
      "byteLength" : 29296
    },
    {
      "buffer" : 0,
      "byteOffset" : 199128,
      "byteLength" : 29296
    }
  ],
  "accessors" : [
    {
      "bufferView" : 0,
      "componentType" : 5123,
      "count" : 11676,
      "type" : "SCALAR"
    },
    {
      "bufferView" : 1,
      "min" : [ -0.167071, -0.249904, -0.250401 ],
      "max" : [ 0.168267, 0.250092, 0.250584 ],
      "componentType" : 5126,
      "count" : 3662,
      "type" : "VEC3"
    },
    {
      "bufferView" : 2,
      "componentType" : 5126,
      "count" : 3662,
      "type" : "VEC3"
    },
    {
      "bufferView" : 3,
      "componentType" : 5126,
      "count" : 3662,
      "type" : "VEC4"
    },
    {
      "bufferView" : 4,
      "componentType" : 5126,
      "count" : 3662,
      "type" : "VEC2"
    },
    {
      "bufferView" : 5,
      "componentType" : 5126,
      "count" : 3662,
      "type" : "VEC2"
    }
  ]
}
