{
  "asset" : {
    "generator" : "UE Viewer (umodel) build 1589",
    "version" : "2.0"
  },
  "scene" : 0,
  "scenes" : [
    {
      "nodes" : [ 0 ]
    }
  ],
  "nodes" : [
    {
      "name" : "bmw_m2_cs_racing_rim_lf_Lod1",
      "mesh" : 0
    }
  ],
  "materials" : [
    {
      "name" : "EXT_RIM",
      "pbrMetallicRoughness" : {
        "baseColorFactor" : [ 0.3, 0.3, 0.3, 1.0 ],
        "metallicFactor" : 0.1,
        "roughnessFactor" : 0.5
      }
    }
  ],
  "meshes" : [
    {
      "primitives" : [
        {
          "attributes" : {
            "POSITION" : 1,
            "NORMAL" : 2,
            "TANGENT" : 3,
            "TEXCOORD_0" : 4,
            "TEXCOORD_1" : 5
          },
          "indices" : 0,
          "material" : 0
        }
      ],
      "name" : "bmw_m2_cs_racing_rim_lf_Lod1"
    }
  ],
  "buffers" : [
    {
      "uri" : "bmw_m2_cs_racing_rim_lf_Lod1.bin",
      "byteLength" : 280704
    }
  ],
  "bufferViews" : [
    {
      "buffer" : 0,
      "byteOffset" : 0,
      "byteLength" : 30608
    },
    {
      "buffer" : 0,
      "byteOffset" : 30608,
      "byteLength" : 53592
    },
    {
      "buffer" : 0,
      "byteOffset" : 84200,
      "byteLength" : 53592
    },
    {
      "buffer" : 0,
      "byteOffset" : 137792,
      "byteLength" : 71456
    },
    {
      "buffer" : 0,
      "byteOffset" : 209248,
      "byteLength" : 35728
    },
    {
      "buffer" : 0,
      "byteOffset" : 244976,
      "byteLength" : 35728
    }
  ],
  "accessors" : [
    {
      "bufferView" : 0,
      "componentType" : 5123,
      "count" : 15303,
      "type" : "SCALAR"
    },
    {
      "bufferView" : 1,
      "min" : [ -0.145645, -0.24858, -0.248958 ],
      "max" : [ 0.143656, 0.250224, 0.248958 ],
      "componentType" : 5126,
      "count" : 4466,
      "type" : "VEC3"
    },
    {
      "bufferView" : 2,
      "componentType" : 5126,
      "count" : 4466,
      "type" : "VEC3"
    },
    {
      "bufferView" : 3,
      "componentType" : 5126,
      "count" : 4466,
      "type" : "VEC4"
    },
    {
      "bufferView" : 4,
      "componentType" : 5126,
      "count" : 4466,
      "type" : "VEC2"
    },
    {
      "bufferView" : 5,
      "componentType" : 5126,
      "count" : 4466,
      "type" : "VEC2"
    }
  ]
}
