{
  "asset" : {
    "generator" : "UE Viewer (umodel) build 1589",
    "version" : "2.0"
  },
  "scene" : 0,
  "scenes" : [
    {
      "nodes" : [ 0 ]
    }
  ],
  "nodes" : [
    {
      "name" : "bmw_m2_cs_racing_exterior_Lod4",
      "mesh" : 0,
      "skin" : 0,
      "children" : [ 1 ]
    },
    {
      "name" : "BMW_M2_CS",
      "children" : [ 2 ],
      "translation" : [ 0, 0, 0 ],
      "rotation" : [ -0, -0, -0, 1 ]
    },
    {
      "name" : "CAR_BODY",
      "children" : [ 3, 6, 9, 10, 11, 12, 13, 14, 15, 16, 17, 18, 19, 20, 21, 22, 23, 24, 25, 26, 27, 28, 29, 30, 31 ],
      "translation" : [ 0, 0, -0 ],
      "rotation" : [ -0, -0, 0, -1 ]
    },
    {
      "name" : "WIPER_L_1",
      "children" : [ 4 ],
      "translation" : [ 0.591686, 0.847885, 0.861335 ],
      "rotation" : [ 0.302504, -0.805024, 0.439281, 0.259732 ]
    },
    {
      "name" : "WIPER_L_2",
      "children" : [ 5 ],
      "translation" : [ 0.0540084, 0.152011, -0.036208 ],
      "rotation" : [ 0.0631806, 0.0282798, -0.3979, -0.914814 ]
    },
    {
      "name" : "WIPER_L_3",
      "translation" : [ 0.380655, 0.012988, 0.0291504 ],
      "rotation" : [ -0.0824576, 0.0635435, 0.0230776, -0.994299 ]
    },
    {
      "name" : "WIPER_R_1",
      "children" : [ 7 ],
      "translation" : [ 0.134665, 0.876282, 0.932006 ],
      "rotation" : [ 0.304267, -0.810428, 0.465054, 0.185346 ]
    },
    {
      "name" : "WIPER_R_2",
      "children" : [ 8 ],
      "translation" : [ 0.0540081, 0.152011, -0.0362081 ],
      "rotation" : [ 0.0587224, 0.0385182, -0.398583, -0.91444 ]
    },
    {
      "name" : "WIPER_R_3",
      "translation" : [ 0.461898, 0.0508621, 0.0484203 ],
      "rotation" : [ -0.071555, 0.0870393, -0.10684, -0.987871 ]
    },
    {
      "name" : "WING",
      "translation" : [ -0.0057409, 1.14706, -2.07939 ],
      "rotation" : [ -0, -0, 0, -1 ]
    },
    {
      "name" : "HOOD",
      "translation" : [ 0, 0.946407, 0.705199 ],
      "rotation" : [ -0, -0, 0, -1 ]
    },
    {
      "name" : "FRONT_BUMPER",
      "translation" : [ 0, 0.749631, 1.97988 ],
      "rotation" : [ -0, -0, 0, -1 ]
    },
    {
      "name" : "REAR_BUMPER",
      "translation" : [ 0, 0.706523, -2.13633 ],
      "rotation" : [ -0, -0, 0, -1 ]
    },
    {
      "name" : "DOOR_R",
      "translation" : [ -0.829353, 0.755943, 0.676132 ],
      "rotation" : [ -0, -0, 0, -1 ]
    },
    {
      "name" : "DOOR_L",
      "translation" : [ 0.829353, 0.755951, 0.676132 ],
      "rotation" : [ -0, -0, 0, -1 ]
    },
    {
      "name" : "TYRE_LR",
      "translation" : [ 0.777199, 0.332737, -1.34648 ],
      "rotation" : [ -1.78814e-07, 3.33067e-16, 1.86265e-09, -1 ]
    },
    {
      "name" : "TYRE_RR",
      "translation" : [ -0.777199, 0.332737, -1.34648 ],
      "rotation" : [ -1.78814e-07, -0, 0, -1 ]
    },
    {
      "name" : "TYRE_RF",
      "translation" : [ -0.75351, 0.33226, 1.34651 ],
      "rotation" : [ -1.19209e-07, -2.22045e-16, -1.86265e-09, -1 ]
    },
    {
      "name" : "TYRE_LF",
      "translation" : [ 0.753509, 0.33226, 1.34651 ],
      "rotation" : [ -1.19209e-07, 2.22045e-16, 1.86265e-09, -1 ]
    },
    {
      "name" : "LUMIRANK",
      "translation" : [ -0.460783, 1.17169, 0.372052 ],
      "rotation" : [ -0.249793, 0.0630464, -0.0691227, -0.963769 ]
    },
    {
      "name" : "SUSP_RR",
      "translation" : [ -0.777199, 0.332737, -1.34648 ],
      "rotation" : [ -1.72919e-07, 9.06164e-10, 8.26811e-11, -1 ]
    },
    {
      "name" : "WHEEL_RR",
      "translation" : [ -0.777199, 0.332737, -1.34648 ],
      "rotation" : [ -1.78814e-07, -0, 0, -1 ]
    },
    {
      "name" : "DISC_RR",
      "translation" : [ -0.777199, 0.332737, -1.34648 ],
      "rotation" : [ -1.78814e-07, 9.10031e-20, -1.18866e-20, -1 ]
    },
    {
      "name" : "WHEEL_RF",
      "translation" : [ -0.75351, 0.33226, 1.34651 ],
      "rotation" : [ -1.19209e-07, -2.22045e-16, -1.86265e-09, -1 ]
    },
    {
      "name" : "SUSP_RF",
      "translation" : [ -0.75351, 0.33226, 1.34651 ],
      "rotation" : [ -1.31762e-07, -1.08299e-09, -1.86451e-09, -1 ]
    },
    {
      "name" : "DISC_RF",
      "translation" : [ -0.75351, 0.33226, 1.34651 ],
      "rotation" : [ -1.19209e-07, -2.22026e-16, -1.86265e-09, -1 ]
    },
    {
      "name" : "DISC_LR",
      "translation" : [ 0.777199, 0.332737, -1.34648 ],
      "rotation" : [ -1.78814e-07, 3.33066e-16, 1.86265e-09, -1 ]
    },
    {
      "name" : "SUSP_LR",
      "translation" : [ 0.777199, 0.332737, -1.34648 ],
      "rotation" : [ -1.78814e-07, 2.20309e-16, 1.86265e-09, -1 ]
    },
    {
      "name" : "WHEEL_LR",
      "translation" : [ 0.777199, 0.332737, -1.34648 ],
      "rotation" : [ -1.78814e-07, 3.33067e-16, 1.86265e-09, -1 ]
    },
    {
      "name" : "DISC_LF",
      "translation" : [ 0.753509, 0.33226, 1.34651 ],
      "rotation" : [ -1.19209e-07, 2.22045e-16, 1.86265e-09, -1 ]
    },
    {
      "name" : "SUSP_LF",
      "translation" : [ 0.753509, 0.33226, 1.34651 ],
      "rotation" : [ -1.19209e-07, 2.22037e-16, 1.86261e-09, -1 ]
    },
    {
      "name" : "WHEEL_LF",
      "translation" : [ 0.753509, 0.33226, 1.34651 ],
      "rotation" : [ -1.19209e-07, 2.22045e-16, 1.86265e-09, -1 ]
    }
  ],
  "skins" : [
    {
      "inverseBindMatrices" : 0,
      "skeleton" : 1,
      "joints" : [
        1,2,3,4,5,6,7,8,9,10,11,12,13,14,15,16,17,18,19,20,21,22,23,24,25,26,27,28,29,30,31
      ]
    }
  ],
  "materials" : [
    {
      "name" : "EXT_Carpaint_Inst",
      "pbrMetallicRoughness" : {
        "baseColorFactor" : [ 0.3, 0.3, 0.3, 1.0 ],
        "metallicFactor" : 0.1,
        "roughnessFactor" : 0.5
      }
    }
  ],
  "meshes" : [
    {
      "primitives" : [
        {
          "attributes" : {
            "POSITION" : 2,
            "NORMAL" : 3,
            "TANGENT" : 4,
            "COLOR_0" : 5,
            "JOINTS_0" : 6,
            "WEIGHTS_0" : 7,
            "TEXCOORD_0" : 8,
            "TEXCOORD_1" : 9
          },
          "indices" : 1,
          "material" : 0
        }
      ],
      "name" : "bmw_m2_cs_racing_exterior_Lod4"
    }
  ],
  "buffers" : [
    {
      "uri" : "bmw_m2_cs_racing_exterior_Lod4.bin",
      "byteLength" : 325732
    }
  ],
  "bufferViews" : [
    {
      "buffer" : 0,
      "byteOffset" : 0,
      "byteLength" : 1984
    },
    {
      "buffer" : 0,
      "byteOffset" : 1984,
      "byteLength" : 20700
    },
    {
      "buffer" : 0,
      "byteOffset" : 22684,
      "byteLength" : 50508
    },
    {
      "buffer" : 0,
      "byteOffset" : 73192,
      "byteLength" : 50508
    },
    {
      "buffer" : 0,
      "byteOffset" : 123700,
      "byteLength" : 67344
    },
    {
      "buffer" : 0,
      "byteOffset" : 191044,
      "byteLength" : 16836
    },
    {
      "buffer" : 0,
      "byteOffset" : 207880,
      "byteLength" : 33672
    },
    {
      "buffer" : 0,
      "byteOffset" : 241552,
      "byteLength" : 16836
    },
    {
      "buffer" : 0,
      "byteOffset" : 258388,
      "byteLength" : 33672
    },
    {
      "buffer" : 0,
      "byteOffset" : 292060,
      "byteLength" : 33672
    }
  ],
  "accessors" : [
    {
      "bufferView" : 0,
      "componentType" : 5126,
      "count" : 31,
      "type" : "MAT4"
    },
    {
      "bufferView" : 1,
      "componentType" : 5123,
      "count" : 10350,
      "type" : "SCALAR"
    },
    {
      "bufferView" : 2,
      "min" : [ -0.993129, 0.00574757, -2.31516 ],
      "max" : [ 0.993129, 1.40724, 2.14596 ],
      "componentType" : 5126,
      "count" : 4209,
      "type" : "VEC3"
    },
    {
      "bufferView" : 3,
      "componentType" : 5126,
      "count" : 4209,
      "type" : "VEC3"
    },
    {
      "bufferView" : 4,
      "componentType" : 5126,
      "count" : 4209,
      "type" : "VEC4"
    },
    {
      "bufferView" : 5,
      "normalized" : true,
      "componentType" : 5121,
      "count" : 4209,
      "type" : "VEC4"
    },
    {
      "bufferView" : 6,
      "componentType" : 5123,
      "count" : 4209,
      "type" : "VEC4"
    },
    {
      "bufferView" : 7,
      "normalized" : true,
      "componentType" : 5121,
      "count" : 4209,
      "type" : "VEC4"
    },
    {
      "bufferView" : 8,
      "componentType" : 5126,
      "count" : 4209,
      "type" : "VEC2"
    },
    {
      "bufferView" : 9,
      "componentType" : 5126,
      "count" : 4209,
      "type" : "VEC2"
    }
  ]
}
