{
  "asset" : {
    "generator" : "UE Viewer (umodel) build 1589",
    "version" : "2.0"
  },
  "scene" : 0,
  "scenes" : [
    {
      "nodes" : [ 0 ]
    }
  ],
  "nodes" : [
    {
      "name" : "lamborghini_huracan_st_rim_rf_Lod1",
      "mesh" : 0
    }
  ],
  "materials" : [
    {
      "name" : "EXT_RIM",
      "pbrMetallicRoughness" : {
        "baseColorFactor" : [ 0.3, 0.3, 0.3, 1.0 ],
        "metallicFactor" : 0.1,
        "roughnessFactor" : 0.5
      }
    }
  ],
  "meshes" : [
    {
      "primitives" : [
        {
          "attributes" : {
            "POSITION" : 1,
            "NORMAL" : 2,
            "TANGENT" : 3,
            "COLOR_0" : 4,
            "TEXCOORD_0" : 5,
            "TEXCOORD_1" : 6
          },
          "indices" : 0,
          "material" : 0
        }
      ],
      "name" : "lamborghini_huracan_st_rim_rf_Lod1"
    }
  ],
  "buffers" : [
    {
      "uri" : "lamborghini_huracan_st_rim_rf_Lod1.bin",
      "byteLength" : 143580
    }
  ],
  "bufferViews" : [
    {
      "buffer" : 0,
      "byteOffset" : 0,
      "byteLength" : 15720
    },
    {
      "buffer" : 0,
      "byteOffset" : 15720,
      "byteLength" : 25572
    },
    {
      "buffer" : 0,
      "byteOffset" : 41292,
      "byteLength" : 25572
    },
    {
      "buffer" : 0,
      "byteOffset" : 66864,
      "byteLength" : 34096
    },
    {
      "buffer" : 0,
      "byteOffset" : 100960,
      "byteLength" : 8524
    },
    {
      "buffer" : 0,
      "byteOffset" : 109484,
      "byteLength" : 17048
    },
    {
      "buffer" : 0,
      "byteOffset" : 126532,
      "byteLength" : 17048
    }
  ],
  "accessors" : [
    {
      "bufferView" : 0,
      "componentType" : 5123,
      "count" : 7860,
      "type" : "SCALAR"
    },
    {
      "bufferView" : 1,
      "min" : [ -0.150665, -0.248962, -0.248913 ],
      "max" : [ 0.148702, 0.248773, 0.248773 ],
      "componentType" : 5126,
      "count" : 2131,
      "type" : "VEC3"
    },
    {
      "bufferView" : 2,
      "componentType" : 5126,
      "count" : 2131,
      "type" : "VEC3"
    },
    {
      "bufferView" : 3,
      "componentType" : 5126,
      "count" : 2131,
      "type" : "VEC4"
    },
    {
      "bufferView" : 4,
      "normalized" : true,
      "componentType" : 5121,
      "count" : 2131,
      "type" : "VEC4"
    },
    {
      "bufferView" : 5,
      "componentType" : 5126,
      "count" : 2131,
      "type" : "VEC2"
    },
    {
      "bufferView" : 6,
      "componentType" : 5126,
      "count" : 2131,
      "type" : "VEC2"
    }
  ]
}
