{
  "asset" : {
    "generator" : "UE Viewer (umodel) build 1589",
    "version" : "2.0"
  },
  "scene" : 0,
  "scenes" : [
    {
      "nodes" : [ 0 ]
    }
  ],
  "nodes" : [
    {
      "name" : "bmw_m4_gt3_rim_lf_Lod1",
      "mesh" : 0
    }
  ],
  "materials" : [
    {
      "name" : "EXT_RIM",
      "pbrMetallicRoughness" : {
        "baseColorFactor" : [ 0.3, 0.3, 0.3, 1.0 ],
        "metallicFactor" : 0.1,
        "roughnessFactor" : 0.5
      }
    }
  ],
  "meshes" : [
    {
      "primitives" : [
        {
          "attributes" : {
            "POSITION" : 1,
            "NORMAL" : 2,
            "TANGENT" : 3,
            "TEXCOORD_0" : 4,
            "TEXCOORD_1" : 5
          },
          "indices" : 0,
          "material" : 0
        }
      ],
      "name" : "bmw_m4_gt3_rim_lf_Lod1"
    }
  ],
  "buffers" : [
    {
      "uri" : "bmw_m4_gt3_rim_lf_Lod1.bin",
      "byteLength" : 405140
    }
  ],
  "bufferViews" : [
    {
      "buffer" : 0,
      "byteOffset" : 0,
      "byteLength" : 49260
    },
    {
      "buffer" : 0,
      "byteOffset" : 49260,
      "byteLength" : 76260
    },
    {
      "buffer" : 0,
      "byteOffset" : 125520,
      "byteLength" : 76260
    },
    {
      "buffer" : 0,
      "byteOffset" : 201780,
      "byteLength" : 101680
    },
    {
      "buffer" : 0,
      "byteOffset" : 303460,
      "byteLength" : 50840
    },
    {
      "buffer" : 0,
      "byteOffset" : 354300,
      "byteLength" : 50840
    }
  ],
  "accessors" : [
    {
      "bufferView" : 0,
      "componentType" : 5123,
      "count" : 24630,
      "type" : "SCALAR"
    },
    {
      "bufferView" : 1,
      "min" : [ -0.168718, -0.249425, -0.248164 ],
      "max" : [ 0.169235, 0.248162, 0.248164 ],
      "componentType" : 5126,
      "count" : 6355,
      "type" : "VEC3"
    },
    {
      "bufferView" : 2,
      "componentType" : 5126,
      "count" : 6355,
      "type" : "VEC3"
    },
    {
      "bufferView" : 3,
      "componentType" : 5126,
      "count" : 6355,
      "type" : "VEC4"
    },
    {
      "bufferView" : 4,
      "componentType" : 5126,
      "count" : 6355,
      "type" : "VEC2"
    },
    {
      "bufferView" : 5,
      "componentType" : 5126,
      "count" : 6355,
      "type" : "VEC2"
    }
  ]
}
