{
  "asset" : {
    "generator" : "UE Viewer (umodel) build 1589",
    "version" : "2.0"
  },
  "scene" : 0,
  "scenes" : [
    {
      "nodes" : [ 0 ]
    }
  ],
  "nodes" : [
    {
      "name" : "ferrari_488_gt3_rim_rf_Lod1",
      "mesh" : 0
    }
  ],
  "materials" : [
    {
      "name" : "EXT_RIM",
      "pbrMetallicRoughness" : {
        "baseColorFactor" : [ 0.3, 0.3, 0.3, 1.0 ],
        "metallicFactor" : 0.1,
        "roughnessFactor" : 0.5
      }
    }
  ],
  "meshes" : [
    {
      "primitives" : [
        {
          "attributes" : {
            "POSITION" : 1,
            "NORMAL" : 2,
            "TANGENT" : 3,
            "TEXCOORD_0" : 4,
            "TEXCOORD_1" : 5
          },
          "indices" : 0,
          "material" : 0
        }
      ],
      "name" : "ferrari_488_gt3_rim_rf_Lod1"
    }
  ],
  "buffers" : [
    {
      "uri" : "ferrari_488_gt3_rim_rf_Lod1.bin",
      "byteLength" : 170108
    }
  ],
  "bufferViews" : [
    {
      "buffer" : 0,
      "byteOffset" : 0,
      "byteLength" : 23052
    },
    {
      "buffer" : 0,
      "byteOffset" : 23052,
      "byteLength" : 31512
    },
    {
      "buffer" : 0,
      "byteOffset" : 54564,
      "byteLength" : 31512
    },
    {
      "buffer" : 0,
      "byteOffset" : 86076,
      "byteLength" : 42016
    },
    {
      "buffer" : 0,
      "byteOffset" : 128092,
      "byteLength" : 21008
    },
    {
      "buffer" : 0,
      "byteOffset" : 149100,
      "byteLength" : 21008
    }
  ],
  "accessors" : [
    {
      "bufferView" : 0,
      "componentType" : 5123,
      "count" : 11526,
      "type" : "SCALAR"
    },
    {
      "bufferView" : 1,
      "min" : [ -0.16758, -0.251707, -0.24981 ],
      "max" : [ 0.167687, 0.250881, 0.251287 ],
      "componentType" : 5126,
      "count" : 2626,
      "type" : "VEC3"
    },
    {
      "bufferView" : 2,
      "componentType" : 5126,
      "count" : 2626,
      "type" : "VEC3"
    },
    {
      "bufferView" : 3,
      "componentType" : 5126,
      "count" : 2626,
      "type" : "VEC4"
    },
    {
      "bufferView" : 4,
      "componentType" : 5126,
      "count" : 2626,
      "type" : "VEC2"
    },
    {
      "bufferView" : 5,
      "componentType" : 5126,
      "count" : 2626,
      "type" : "VEC2"
    }
  ]
}
