{
  "asset" : {
    "generator" : "UE Viewer (umodel) build 1589",
    "version" : "2.0"
  },
  "scene" : 0,
  "scenes" : [
    {
      "nodes" : [ 0 ]
    }
  ],
  "nodes" : [
    {
      "name" : "ferrari_488_gt3_rim_lr_Lod1",
      "mesh" : 0
    }
  ],
  "materials" : [
    {
      "name" : "EXT_RIM",
      "pbrMetallicRoughness" : {
        "baseColorFactor" : [ 0.3, 0.3, 0.3, 1.0 ],
        "metallicFactor" : 0.1,
        "roughnessFactor" : 0.5
      }
    }
  ],
  "meshes" : [
    {
      "primitives" : [
        {
          "attributes" : {
            "POSITION" : 1,
            "NORMAL" : 2,
            "TANGENT" : 3,
            "TEXCOORD_0" : 4,
            "TEXCOORD_1" : 5
          },
          "indices" : 0,
          "material" : 0
        }
      ],
      "name" : "ferrari_488_gt3_rim_lr_Lod1"
    }
  ],
  "buffers" : [
    {
      "uri" : "ferrari_488_gt3_rim_lr_Lod1.bin",
      "byteLength" : 174344
    }
  ],
  "bufferViews" : [
    {
      "buffer" : 0,
      "byteOffset" : 0,
      "byteLength" : 23480
    },
    {
      "buffer" : 0,
      "byteOffset" : 23480,
      "byteLength" : 32328
    },
    {
      "buffer" : 0,
      "byteOffset" : 55808,
      "byteLength" : 32328
    },
    {
      "buffer" : 0,
      "byteOffset" : 88136,
      "byteLength" : 43104
    },
    {
      "buffer" : 0,
      "byteOffset" : 131240,
      "byteLength" : 21552
    },
    {
      "buffer" : 0,
      "byteOffset" : 152792,
      "byteLength" : 21552
    }
  ],
  "accessors" : [
    {
      "bufferView" : 0,
      "componentType" : 5123,
      "count" : 11739,
      "type" : "SCALAR"
    },
    {
      "bufferView" : 1,
      "min" : [ -0.178553, -0.251558, -0.254623 ],
      "max" : [ 0.179076, 0.24904, 0.250783 ],
      "componentType" : 5126,
      "count" : 2694,
      "type" : "VEC3"
    },
    {
      "bufferView" : 2,
      "componentType" : 5126,
      "count" : 2694,
      "type" : "VEC3"
    },
    {
      "bufferView" : 3,
      "componentType" : 5126,
      "count" : 2694,
      "type" : "VEC4"
    },
    {
      "bufferView" : 4,
      "componentType" : 5126,
      "count" : 2694,
      "type" : "VEC2"
    },
    {
      "bufferView" : 5,
      "componentType" : 5126,
      "count" : 2694,
      "type" : "VEC2"
    }
  ]
}
