{
  "asset" : {
    "generator" : "UE Viewer (umodel) build 1589",
    "version" : "2.0"
  },
  "scene" : 0,
  "scenes" : [
    {
      "nodes" : [ 0 ]
    }
  ],
  "nodes" : [
    {
      "name" : "mercedes_amg_gt2_rim_rf_Lod1",
      "mesh" : 0
    }
  ],
  "materials" : [
    {
      "name" : "EXT_RIM",
      "pbrMetallicRoughness" : {
        "baseColorFactor" : [ 0.3, 0.3, 0.3, 1.0 ],
        "metallicFactor" : 0.1,
        "roughnessFactor" : 0.5
      }
    }
  ],
  "meshes" : [
    {
      "primitives" : [
        {
          "attributes" : {
            "POSITION" : 1,
            "NORMAL" : 2,
            "TANGENT" : 3,
            "TEXCOORD_0" : 4,
            "TEXCOORD_1" : 5,
            "TEXCOORD_2" : 6
          },
          "indices" : 0,
          "material" : 0
        }
      ],
      "name" : "mercedes_amg_gt2_rim_rf_Lod1"
    }
  ],
  "buffers" : [
    {
      "uri" : "mercedes_amg_gt2_rim_rf_Lod1.bin",
      "byteLength" : 688792
    }
  ],
  "bufferViews" : [
    {
      "buffer" : 0,
      "byteOffset" : 0,
      "byteLength" : 53400
    },
    {
      "buffer" : 0,
      "byteOffset" : 53400,
      "byteLength" : 119136
    },
    {
      "buffer" : 0,
      "byteOffset" : 172536,
      "byteLength" : 119136
    },
    {
      "buffer" : 0,
      "byteOffset" : 291672,
      "byteLength" : 158848
    },
    {
      "buffer" : 0,
      "byteOffset" : 450520,
      "byteLength" : 79424
    },
    {
      "buffer" : 0,
      "byteOffset" : 529944,
      "byteLength" : 79424
    },
    {
      "buffer" : 0,
      "byteOffset" : 609368,
      "byteLength" : 79424
    }
  ],
  "accessors" : [
    {
      "bufferView" : 0,
      "componentType" : 5123,
      "count" : 26700,
      "type" : "SCALAR"
    },
    {
      "bufferView" : 1,
      "min" : [ -0.167524, -0.250467, -0.251146 ],
      "max" : [ 0.165439, 0.250467, 0.250467 ],
      "componentType" : 5126,
      "count" : 9928,
      "type" : "VEC3"
    },
    {
      "bufferView" : 2,
      "componentType" : 5126,
      "count" : 9928,
      "type" : "VEC3"
    },
    {
      "bufferView" : 3,
      "componentType" : 5126,
      "count" : 9928,
      "type" : "VEC4"
    },
    {
      "bufferView" : 4,
      "componentType" : 5126,
      "count" : 9928,
      "type" : "VEC2"
    },
    {
      "bufferView" : 5,
      "componentType" : 5126,
      "count" : 9928,
      "type" : "VEC2"
    },
    {
      "bufferView" : 6,
      "componentType" : 5126,
      "count" : 9928,
      "type" : "VEC2"
    }
  ]
}
