{
  "asset" : {
    "generator" : "UE Viewer (umodel) build 1589",
    "version" : "2.0"
  },
  "scene" : 0,
  "scenes" : [
    {
      "nodes" : [ 0 ]
    }
  ],
  "nodes" : [
    {
      "name" : "mercedes_amg_gt2_exterior_endu_Lod4",
      "mesh" : 0,
      "skin" : 0,
      "children" : [ 1 ]
    },
    {
      "name" : "MERCEDES_AMG_GT2",
      "children" : [ 2 ],
      "translation" : [ 0, 0, 0 ],
      "rotation" : [ -0, -0, -0, 1 ]
    },
    {
      "name" : "CAR_BODY",
      "children" : [ 3, 4, 5, 6, 7, 8, 9, 10, 11, 12, 13, 14, 15, 16, 17, 18, 19, 20, 21, 24, 27, 28, 29, 30, 31 ],
      "translation" : [ 0, 0, -0 ],
      "rotation" : [ -0, -0, 0, -1 ]
    },
    {
      "name" : "WING",
      "translation" : [ 5.91278e-07, 1.26964, -2.32755 ],
      "rotation" : [ -0, -0, 0, -1 ]
    },
    {
      "name" : "DISC_LF",
      "translation" : [ 0.8316, 0.365068, 1.32862 ],
      "rotation" : [ -5.96046e-08, -0, 0, -1 ]
    },
    {
      "name" : "SUSP_LF",
      "translation" : [ 0.8316, 0.365068, 1.32862 ],
      "rotation" : [ -5.96046e-08, -0, 0, -1 ]
    },
    {
      "name" : "WHEEL_LF",
      "translation" : [ 0.8316, 0.365068, 1.32862 ],
      "rotation" : [ -5.96046e-08, -1.47911e-27, 8.27181e-21, -1 ]
    },
    {
      "name" : "DISC_RF",
      "translation" : [ -0.8316, 0.365068, 1.32862 ],
      "rotation" : [ -5.96046e-08, -0, 0, -1 ]
    },
    {
      "name" : "SUSP_RF",
      "translation" : [ -0.8316, 0.365068, 1.32862 ],
      "rotation" : [ -5.96046e-08, -0, 0, -1 ]
    },
    {
      "name" : "WHEEL_RF",
      "translation" : [ -0.8316, 0.365068, 1.32862 ],
      "rotation" : [ -5.96046e-08, -1.97215e-27, 1.29304e-33, -1 ]
    },
    {
      "name" : "DISC_RR",
      "translation" : [ -0.8405, 0.349399, -1.30071 ],
      "rotation" : [ -5.96046e-08, -0, 0, -1 ]
    },
    {
      "name" : "DISC_LR",
      "translation" : [ 0.840529, 0.349399, -1.30071 ],
      "rotation" : [ -5.96046e-08, -0, 0, -1 ]
    },
    {
      "name" : "WHEEL_RR",
      "translation" : [ -0.8405, 0.349399, -1.30071 ],
      "rotation" : [ -5.96046e-08, -0, 0, -1 ]
    },
    {
      "name" : "SUSP_RR",
      "translation" : [ -0.8405, 0.349399, -1.30071 ],
      "rotation" : [ -5.96046e-08, -0, 0, -1 ]
    },
    {
      "name" : "WHEEL_LR",
      "translation" : [ 0.840529, 0.349399, -1.30071 ],
      "rotation" : [ -5.96046e-08, -3.54987e-29, 1.19114e-22, -1 ]
    },
    {
      "name" : "SUSP_LR",
      "translation" : [ 0.840529, 0.349399, -1.30071 ],
      "rotation" : [ -5.96046e-08, -0, 0, -1 ]
    },
    {
      "name" : "DOOR_L",
      "translation" : [ 0.89792, 0.54786, 0.298146 ],
      "rotation" : [ -0, -0, 0, -1 ]
    },
    {
      "name" : "DOOR_R",
      "translation" : [ -0.897917, 0.54786, 0.298146 ],
      "rotation" : [ -0, -0, 0, -1 ]
    },
    {
      "name" : "REAR_BUMPER",
      "translation" : [ 5.91278e-07, 0.95624, -2.2089 ],
      "rotation" : [ -0, -0, 0, -1 ]
    },
    {
      "name" : "FRONT_BUMPER",
      "translation" : [ 4.60172e-07, 0.448918, 1.60662 ],
      "rotation" : [ -0, -0, 0, -1 ]
    },
    {
      "name" : "HOOD",
      "translation" : [ -9.2417e-05, 0.896142, 0.446827 ],
      "rotation" : [ -0, -0, 0, -1 ]
    },
    {
      "name" : "WIPER1_1",
      "children" : [ 22 ],
      "translation" : [ 0.66445, 0.774427, 0.569245 ],
      "rotation" : [ -0.650891, -0.217366, -0.599861, -0.411412 ]
    },
    {
      "name" : "WIPER1_2",
      "children" : [ 23 ],
      "translation" : [ -0.0263609, -0.000417167, -0.196313 ],
      "rotation" : [ 0.0669905, -0.0381775, 0.000223962, -0.997023 ]
    },
    {
      "name" : "WIPER1_3",
      "translation" : [ -0.00457976, 0.0271335, -0.353151 ],
      "rotation" : [ -0.986614, -0.0459213, -0.00233531, 0.156457 ]
    },
    {
      "name" : "WIPER2_1",
      "children" : [ 25 ],
      "translation" : [ -0.240611, 0.8052, 0.605384 ],
      "rotation" : [ 0.601858, -0.670402, 0.0210228, -0.433458 ]
    },
    {
      "name" : "WIPER2_2",
      "children" : [ 26 ],
      "translation" : [ -0.013799, 0.0703427, 0.00268825 ],
      "rotation" : [ -0.0165362, -0.00120183, 0.0724816, -0.997232 ]
    },
    {
      "name" : "WIPER2_3",
      "translation" : [ 0.00136034, 0.330264, 0.0130565 ],
      "rotation" : [ -0.642674, 0.102468, -0.120208, -0.749681 ]
    },
    {
      "name" : "LUMIRANK",
      "translation" : [ -0.504997, 1.02915, 0.109127 ],
      "rotation" : [ -0.269558, 0.0539888, -0.123941, -0.953448 ]
    },
    {
      "name" : "TYRE_LR",
      "translation" : [ 0.840529, 0.349399, -1.30071 ],
      "rotation" : [ -5.96046e-08, -3.54987e-29, 1.19114e-22, -1 ]
    },
    {
      "name" : "TYRE_RR",
      "translation" : [ -0.8405, 0.349399, -1.30071 ],
      "rotation" : [ -5.96046e-08, -0, 0, -1 ]
    },
    {
      "name" : "TYRE_LF",
      "translation" : [ 0.8316, 0.365068, 1.32862 ],
      "rotation" : [ -5.96046e-08, -1.47911e-27, 8.27181e-21, -1 ]
    },
    {
      "name" : "TYRE_RF",
      "translation" : [ -0.8316, 0.365068, 1.32862 ],
      "rotation" : [ -5.96046e-08, -1.97215e-27, 1.29304e-33, -1 ]
    }
  ],
  "skins" : [
    {
      "inverseBindMatrices" : 0,
      "skeleton" : 1,
      "joints" : [
        1,2,3,4,5,6,7,8,9,10,11,12,13,14,15,16,17,18,19,20,21,22,23,24,25,26,27,28,29,30,31
      ]
    }
  ],
  "materials" : [
    {
      "name" : "EXT_Carpaint_Inst",
      "pbrMetallicRoughness" : {
        "baseColorFactor" : [ 0.3, 0.3, 0.3, 1.0 ],
        "metallicFactor" : 0.1,
        "roughnessFactor" : 0.5
      }
    }
  ],
  "meshes" : [
    {
      "primitives" : [
        {
          "attributes" : {
            "POSITION" : 2,
            "NORMAL" : 3,
            "TANGENT" : 4,
            "COLOR_0" : 5,
            "JOINTS_0" : 6,
            "WEIGHTS_0" : 7,
            "TEXCOORD_0" : 8
          },
          "indices" : 1,
          "material" : 0
        }
      ],
      "name" : "mercedes_amg_gt2_exterior_endu_Lod4"
    }
  ],
  "buffers" : [
    {
      "uri" : "mercedes_amg_gt2_exterior_endu_Lod4.bin",
      "byteLength" : 887536
    }
  ],
  "bufferViews" : [
    {
      "buffer" : 0,
      "byteOffset" : 0,
      "byteLength" : 1984
    },
    {
      "buffer" : 0,
      "byteOffset" : 1984,
      "byteLength" : 70320
    },
    {
      "buffer" : 0,
      "byteOffset" : 72304,
      "byteLength" : 152856
    },
    {
      "buffer" : 0,
      "byteOffset" : 225160,
      "byteLength" : 152856
    },
    {
      "buffer" : 0,
      "byteOffset" : 378016,
      "byteLength" : 203808
    },
    {
      "buffer" : 0,
      "byteOffset" : 581824,
      "byteLength" : 50952
    },
    {
      "buffer" : 0,
      "byteOffset" : 632776,
      "byteLength" : 101904
    },
    {
      "buffer" : 0,
      "byteOffset" : 734680,
      "byteLength" : 50952
    },
    {
      "buffer" : 0,
      "byteOffset" : 785632,
      "byteLength" : 101904
    }
  ],
  "accessors" : [
    {
      "bufferView" : 0,
      "componentType" : 5126,
      "count" : 31,
      "type" : "MAT4"
    },
    {
      "bufferView" : 1,
      "componentType" : 5123,
      "count" : 35160,
      "type" : "SCALAR"
    },
    {
      "bufferView" : 2,
      "min" : [ -1.0356, 0.0174031, -2.38353 ],
      "max" : [ 1.0356, 1.3439, 2.29532 ],
      "componentType" : 5126,
      "count" : 12738,
      "type" : "VEC3"
    },
    {
      "bufferView" : 3,
      "componentType" : 5126,
      "count" : 12738,
      "type" : "VEC3"
    },
    {
      "bufferView" : 4,
      "componentType" : 5126,
      "count" : 12738,
      "type" : "VEC4"
    },
    {
      "bufferView" : 5,
      "normalized" : true,
      "componentType" : 5121,
      "count" : 12738,
      "type" : "VEC4"
    },
    {
      "bufferView" : 6,
      "componentType" : 5123,
      "count" : 12738,
      "type" : "VEC4"
    },
    {
      "bufferView" : 7,
      "normalized" : true,
      "componentType" : 5121,
      "count" : 12738,
      "type" : "VEC4"
    },
    {
      "bufferView" : 8,
      "componentType" : 5126,
      "count" : 12738,
      "type" : "VEC2"
    }
  ]
}
